<?xml version="1.0" encoding="utf-8"?>
<!-- Generator: Adobe Illustrator 24.1.2, SVG Export Plug-In . SVG Version: 6.00 Build 0)  -->
<svg version="1.1" id="Layer_1" xmlns="http://www.w3.org/2000/svg" xmlns:xlink="http://www.w3.org/1999/xlink" x="0px" y="0px"
	 viewBox="0 0 56.5 56.5" style="enable-background:new 0 0 56.5 56.5;" xml:space="preserve">
<style type="text/css">
	.st0{opacity:0.4;fill:#555555;enable-background:new    ;}
	.st1{fill:#555555;}
</style>
<g id="Layer_2_1_">
	<g id="Layer_2-2">
		<path class="st0" d="M37.4,41l-7.5-5.3l-5.7-2.7c0,0.3,0.1,0.6,0.1,0.6c-0.1-0.2-0.2-0.5-0.3-0.7l-1.7-0.8c-0.5,0.5-0.9,1-1.1,1.6
			c0,0,0.6-1.5,0.3-1.8c-0.3-0.3-2.6,1.8-2.6,1.8s1.8-2.1,1.4-2.7s-1.5-0.3-1.5-0.3s1.9-0.6,1.9-1.1s-2.2-2.6-2.2-2.6
			s2.2,1.6,2.5,1.3s-0.9-2-0.9-2s1.5,1.5,1.8,1.4l0.2-0.4c0.1-0.3,0.1-0.7,0.1-1c0,0.2,0,0.4,0.1,0.6c1.1-1.9,2.4-3.7,3.8-5.3
			l2.9-8.2l3,0.2l-3.4-6.4L22,13.1l2.9,0.2l-1.1,6c-0.6,3.9-2.5,5.4-3,5.6c-1.2,0.5-4.8-3.1-4.8-3.1s1.9,2.3,1.1,3.8s-7.8,0-7.8,0
			s7.7,2.7,7.3,3.7s-4.5,1.4-4.5,1.4c1.8-0.1,3.6,0.2,5.3,0.8c0.3,0.1,0.5,0.3,0.8,0.5L4.2,39.5l-1.7-3.2L0,45.2L8.1,47l-1.6-3.1
			L18.5,34c-0.2,0.6-0.5,1.2-0.9,1.8c-0.5,0.7-1,1.4-1.6,2c0,0,2.6-2.2,3.2-2s-0.5,5.3-0.5,5.3c0.4-1.3,1-2.5,1.8-3.6
			c1-1.4,1.1,6,1.1,6s0.2-6.5,2.1-8.1c0,0,0.1-0.1,0.1-0.1c0.2-0.2,0.5-0.3,0.8-0.4l9.7,9.7l-2.3,2.6H41l-1.1-6.6l-1.5-0.7L37.4,41z
			 M25.5,31.5l3.3,1.6L25.5,31.5z"/>
		<path class="st0" d="M42.5,20.1c-1.7,0.7-3.4,1.6-5,2.7c-0.9,0.6-1.7,1.2-2.5,1.9c-0.5,0.4-1.1,0.9-1.5,1.4l8-3.5l1.2,2.3l2.5-5.7
			c-0.3,0.1-0.7,0.2-1,0.4C43.5,19.6,43,19.9,42.5,20.1z M7.4,19.3l9,5.8c0.4-0.8-0.5-2.3-1-2.9c-0.1-0.1-0.2-0.3-0.2-0.5l-6.3-5.5
			L10,14l-6.3,1.1l2.6,6.3L7.4,19.3z M22.5,43.6c0,0.4-0.3,0.7-0.8,0.8h-0.1c-0.4,0-0.8-0.4-0.8-0.8c0-1.5-0.1-3-0.3-4.5
			c-0.4,0.8-0.7,1.5-1,2.3c0,0,0,0.1,0,0.1l-0.4,3.1l-2.5-0.3l4,5.3l4.4-4.2L22.5,45V43.6z"/>
		<path class="st1" d="M35,22c0.5-0.3,0.9-0.6,1.4-0.9c1.1-0.7,2.2-1.3,3.4-1.9c0.7-0.3,1.3-0.6,2-0.9c0.7-0.3,1.2-0.5,1.7-0.7
			c1.9-0.7,3.9-1.3,5.9-1.8l2.3,3.7l5-9.9L43.8,7l1.7,2.8c-5.4,2.2-10.4,5.5-14.6,9.6c-1.3,1.3-2.6,2.7-3.7,4.1
			c-0.5,0.6-1,1.3-1.4,1.8c-0.2,0.3-0.4,0.6-0.6,0.9c-0.9,1.3-1.7,2.7-2.3,4.1l2.6,1.2l3.3,1.6l11.5,5.4l15.6,7.4l-0.6-0.4l-0.5-0.3
			l-1.3-0.8l-1.7-1.1l-1.6-1l-2.7-1.8l-2-1.3l-2.1-1.4l-2.2-1.4L39,34.9c-3.4-2.2-6.9-4.4-10.1-6.4c0.3-0.5,0.7-1,1-1.5
			s0.8-1,1.2-1.4s0.8-0.9,1.2-1.3c0.4-0.4,0.9-0.8,1.3-1.2S34.5,22.4,35,22z"/>
	</g>
</g>
</svg>
