<?xml version="1.0" encoding="utf-8"?>
<!-- Generator: Adobe Illustrator 24.1.2, SVG Export Plug-In . SVG Version: 6.00 Build 0)  -->
<svg version="1.1" id="Layer_1" xmlns="http://www.w3.org/2000/svg" xmlns:xlink="http://www.w3.org/1999/xlink" x="0px" y="0px"
	 viewBox="0 0 53.6 53.6" style="enable-background:new 0 0 53.6 53.6;" xml:space="preserve">
<style type="text/css">
	.st0{opacity:0.4;fill:#555555;enable-background:new    ;}
	.st1{fill:#555555;}
</style>
<g id="Layer_2_1_">
	<g id="Layer_2-2">
		<path class="st0" d="M32.6,40.3c0-2.2-1.2-4.2-3.1-5.2v-9.7h-5.4V34c1,2.8,0.8,6-0.7,8.6c0.5-0.3,1-0.7,1.4-1.2l1.8-2.2V42
			c0,1.4-0.1,2.7-0.5,4.1c0.3,0,0.5,0,0.8,0C30,46.1,32.6,43.5,32.6,40.3z"/>
		<path class="st1" d="M32.5,15h5v1h-5L32.5,15z M32.5,17h3v1h-3L32.5,17z M32.5,19h5v1h-5L32.5,19z M32.5,21h3v1h-3L32.5,21z"/>
		<path class="st1" d="M31.3,34V3.3c0-1.8-1.5-3.2-3.3-3.3h-2.7c-1.8,0-3.3,1.5-3.3,3.3V33l1-1.7v0.1V17.3c0-1.2,1-2.3,2.3-2.3h2.7
			c1.2,0,2.2,1,2.3,2.3v17.3c0.7,0.5,1.3,1,1.8,1.7c0.3,0.5,0.6,0.9,0.8,1.5c0.1,0.2,0.2,0.4,0.2,0.6c0.1,0.4,0.2,0.8,0.3,1.3v0.7
			c0,1.8-0.7,3.5-2,4.8c-0.3,0.3-0.6,0.6-1,0.8c-0.4,0.2-0.7,0.5-1.1,0.6c-0.6,0.3-1.3,0.4-1.9,0.5h-0.7c-0.4,0-0.7,0-1.1-0.1
			c-0.1,0.3-0.3,0.6-0.5,0.9c0.5,0.1,1,0.2,1.5,0.2c4.3,0,7.8-3.5,7.8-7.7C34.4,37.8,33.2,35.4,31.3,34L31.3,34z"/>
		<path class="st1" d="M25.4,42c-0.8,1.1-2.1,1.9-3.5,2h-1l0.6-0.7c2.2-2.6,2.6-5.8,1.3-9.5c-0.4,1-1.3,1.7-2.4,1.9l-0.8,0.1
			l0.4-0.7v-0.1c0-0.1,0.1-0.2,0.1-0.3c0.5-1.4,0.5-2.9,0-4.2c-0.4,0.5-1,0.8-1.6,0.9c-0.1,0-0.2,0-0.3,0h-0.3l-0.3,0l-0.1,0
			c-0.1,0-0.1-0.1-0.2-0.1l0-0.1c-0.1-0.1-0.1-0.1-0.2-0.2c-0.1-0.1-0.2-0.3-0.3-0.5c-0.1-0.2-0.1-0.4-0.1-0.6c0-0.2,0-0.3,0-0.5
			c0-0.4,0.1-0.7,0.2-1.1c0.1-0.3,0.1-0.5,0.2-0.8c0.1-0.3,0.2-0.5,0.3-0.8l-0.9,0.7l-1,0.8c-1.4,0.9-2.4,2.2-3.1,3.7
			c-0.1,0.3-0.2,0.6-0.3,0.9l-0.1,0.8l-0.6-0.5l-0.1,0c0,0-0.1-0.1-0.1-0.1c-0.6-0.7-0.9-1.7-0.8-2.7c-3.4,3-3.8,8.3-3.8,10v0.2
			l-0.4,0.3l-0.3-0.1c-0.1,0-0.1-0.1-0.2-0.2c-0.6-0.9-1.1-1.9-1.4-3c-0.1-0.3-0.2-0.6-0.2-0.8C4,36.1,4,35.8,3.9,35.5
			c-1.1,1.9-1.8,4-1.9,6.2v1c0,0.5,0.1,1.1,0.3,1.6c0.1,0.3,0.2,0.6,0.3,0.9l0.1,0.3c0.1,0.2,0.2,0.4,0.3,0.6s0.1,0.2,0.2,0.4
			c0.1,0.2,0.2,0.4,0.3,0.5c0.1,0.1,0.1,0.3,0.2,0.4c0.1,0.1,0.2,0.3,0.3,0.5l0.2,0.4c0.1,0.2,0.2,0.3,0.3,0.5s0.2,0.2,0.3,0.4
			c0.1,0.1,0.2,0.3,0.3,0.4l0.3,0.3l0.4,0.4l0.3,0.3l0.4,0.4L7,51.2c0.1,0.1,0.3,0.2,0.4,0.3l0.3,0.3l0.5,0.3l0.4,0.2l0.5,0.3
			l0.3,0.2c0.2,0.1,0.4,0.2,0.7,0.3l0.2,0.1c0.3,0.1,0.6,0.2,1,0.3h0.3c0.2,0,0.5,0.1,0.7,0.1h1c0.4,0,0.8,0,1.2-0.1
			c1.6-0.2,3.2-0.7,4.6-1.4c0.3-0.2,0.7-0.4,1-0.6c0.7-0.4,1.3-0.9,1.9-1.5c0.3-0.3,0.6-0.6,0.9-0.9c0.4-0.5,0.8-1,1.2-1.5
			c0.2-0.3,0.3-0.6,0.4-0.8c0.1-0.3,0.2-0.6,0.3-0.8c0.1-0.3,0.1-0.5,0.2-0.8s0.1-0.6,0.1-0.9C25.4,43.5,25.4,42.8,25.4,42z
			 M9.1,49.9c-2.8-2.3-1.6-4.6-1.6-4.6c0.4,0.9,1.3,1.4,2.3,1.4c-0.6-1.8-0.2-3.8,1.1-5.2c-0.6,0.9-0.3,2.2,0.6,2.8
			c0,0,0.1,0.1,0.1,0.1c-0.9-2.5,2.5-3.4,2.5-3.4s-1.2,1.6-0.5,2.3s2.3-0.2,2.3-0.2c0.3,1.4-1.5,3-1.5,3s2.2,0.2,2.7-0.7
			c0,1.9-2,3-2,3.1c1.4,0.8,3.4-0.1,3.4-0.1C17.7,50.7,12,52.2,9.1,49.9z M42.8,3.9l0.7-0.7l0.7,0.7l2.6,2.6h2.6l-6-5.9l-6,5.9h2.6
			L42.8,3.9z"/>
		<path class="st1" d="M46.5,7.5l-1-1l-1.9-1.9l-8,7.9h16C51.5,12.5,46.5,7.5,46.5,7.5z"/>
	</g>
</g>
</svg>
