<?xml version="1.0" encoding="utf-8"?>
<!-- Generator: Adobe Illustrator 24.1.2, SVG Export Plug-In . SVG Version: 6.00 Build 0)  -->
<svg version="1.1" id="Layer_1" xmlns="http://www.w3.org/2000/svg" xmlns:xlink="http://www.w3.org/1999/xlink" x="0px" y="0px"
	 viewBox="0 0 53.5 53.5" style="enable-background:new 0 0 53.5 53.5;" xml:space="preserve">
<style type="text/css">
	.st0{opacity:0.4;fill:#555555;enable-background:new    ;}
	.st1{fill:#555555;}
</style>
<g id="Layer_2_1_">
	<g id="Layer_2-2">
		<path class="st0" d="M10.3,48.2c0-0.8-0.1-2-0.2-3.4c0-0.4,0-0.8,0.2-1.1l0.9-2.6c-0.6-0.4-1-0.9-1.2-1.6l-7.9,5l5.5-1.2L0,50.6
			L10.3,48.2z"/>
		<path class="st0" d="M13.3,17.6L2,11.6l8.2,12l-6,2.7l5.4,2.2c0.5-3.4,0-9.1,11-15.6L12,0.6l4,14l-2.8-1.1L13.3,17.6z"/>
		<path class="st0" d="M9.6,33.3c-0.1-0.2-0.1-0.4-0.1-0.6c-0.1-1.1-0.1-2.1,0-3.2l-7.5,7L9.6,33.3z"/>
		<path class="st0" d="M51.7,5.9c-3.7,3.9-8.6,7.2-12.3,7.3S41.3,7,41.3,7l-8.2,3.5l-2.2-6.2c0,0-3,6.8-2.4,6.8c0.3,0,0.5,0,0.8,0.1
			c5.9,2,9.1,5.3,10.9,8.1C44.8,15.8,51.7,7.5,51.7,5.9z"/>
		<path class="st1" d="M42.9,21.9l-3.8,3.8c0,0-0.3-8-10.9-11.6c0.5,1.6,0.8,3.3,1,4.9c-2.9-1.2-6.1-1.5-9.3-1
			c2.2,1,2.5,1.7,2.5,1.7s-11.1,1-10.1,12.7c1.8-2.8,3.1-2.2,3.1-2.2l-2.9,5.6c0,0.8,0.1,1.7,0.1,2.6l2.3,0.4l-1.9,5.7
			c0.2,2.5,0.3,4.3,0.3,4.3L19.3,37h-3c0,0-0.5-8,5.9-10.4c5.9-2.2,8,0.7,9.9,3.5l-2.9,2.4l11.9,5.7L42.9,21.9z"/>
		<path class="st1" d="M27.3,16.6c-0.2-1.2-1-2.1-2.2-2.4c-0.5-0.1-2.2-0.5-5.7,2.4C21.5,15.2,27.3,16.6,27.3,16.6z"/>
		<path class="st1" d="M16.1,19.9c1.1-0.7,4,0,4,0c-0.1-0.6-0.5-1.1-1-1.2C18.7,18.6,17.9,18.5,16.1,19.9z"/>
		<path class="st0" d="M47.8,37.2c0.4,1.9-2.2,4.4-5.8,5.6c-1.9,0.7-4,0.8-6,0.2l0.5,9.3l3.2-5.1l3.1,5.6l1.7-7.8l7.6,1.7l-4.4-4.4
			l5.8-3.4L47.8,37.2z"/>
	</g>
</g>
</svg>
