<?xml version="1.0" encoding="utf-8"?>
<!-- Generator: Adobe Illustrator 24.1.2, SVG Export Plug-In . SVG Version: 6.00 Build 0)  -->
<svg version="1.1" id="Layer_1" xmlns="http://www.w3.org/2000/svg" xmlns:xlink="http://www.w3.org/1999/xlink" x="0px" y="0px"
	 viewBox="0 0 45.6 45.6" style="enable-background:new 0 0 45.6 45.6;" xml:space="preserve">
<style type="text/css">
	.st0{fill:none;}
	.st1{opacity:0.4;fill:#555555;enable-background:new    ;}
	.st2{fill:#555555;}
</style>
<g id="Layer_2_1_">
	<g id="Layer_2-2">
		<path class="st0" d="M6.5,38.3c0.3,0.2,0.5,0.4,0.8,0.6C7,38.7,6.7,38.5,6.5,38.3z"/>
		<path class="st0" d="M35.7,40.3c-0.2,0.5-0.5,0.9-0.9,1.3C35.1,41.2,35.4,40.8,35.7,40.3z M26.4,44.3c1.3,0.3,2.7,0.3,4.1,0
			C29.2,44.7,27.8,44.7,26.4,44.3z M22.2,41.6c-0.3-0.4-0.6-0.8-0.9-1.3C21.5,40.8,21.8,41.2,22.2,41.6z"/>
		<path class="st1" d="M24.1,4.8h-1V23c0.4,0.6,0.7,1.1,1,1.7V4.8z"/>
		<path class="st2" d="M20.3,38.3c-0.2,0.2-0.4,0.3-0.6,0.5C19.8,38.6,20,38.4,20.3,38.3z"/>
		<path class="st1" d="M33.8,29V3.7c0-2.1-1.7-3.7-3.7-3.7c0,0,0,0,0,0h-3.3c-1.1,0-2,0.5-2.7,1.3h1.6C26.1,1.1,26.4,1,26.8,1h3.3
			c1.2,0,2.3,0.9,2.6,2.1c0.1,0.2,0.1,0.4,0.1,0.7v25.8c3.6,2.3,4.9,7,2.8,10.8c-0.2,0.5-0.5,0.9-0.9,1.3c-0.2,0.2-0.3,0.4-0.5,0.6
			c-0.4,0.4-0.8,0.7-1.2,1c-0.2,0.1-0.4,0.3-0.7,0.4c-1.2,0.7-2.5,1-3.9,1c-0.7,0-1.4-0.1-2-0.3c-0.6-0.2-1.3-0.4-1.9-0.7
			c-0.2-0.1-0.5-0.3-0.7-0.4c-0.4-0.3-0.8-0.6-1.2-1c-0.2-0.2-0.4-0.4-0.5-0.6c-0.3-0.4-0.6-0.8-0.9-1.3c-0.2-0.3-0.3-0.7-0.4-1
			c-0.3,0.2-0.5,0.4-0.8,0.6c1.9,4.7,7.3,6.9,12,5s6.9-7.3,5-12C36.3,31.4,35.2,30,33.8,29z"/>
		<path class="st2" d="M28.5,43.5c3.9,0,7.1-3.2,7.1-7.1c0-2.6-1.5-5.1-3.8-6.3V4.8h-6.5v23.7c0,0.4,0.1,0.8,0.1,1.3
			c0,1.3-0.2,2.5-0.6,3.7c-0.5,1.9-1.6,3.6-3,5C22.6,41.5,25.4,43.5,28.5,43.5z M36.4,2.4h6v1.2h-6V2.4z M36.4,4.8h3.6V6h-3.6V4.8z
			 M36.4,7.2h6v1.2h-6V7.2z M36.4,9.6h3.6v1.2h-3.6V9.6z M31.7,2.3H17.8v1.5h13.9V2.3z"/>
		<path class="st1" d="M18.2,29.9l-2.7,0.7V26h-2v7.1l5.1-1.3C18.7,31.8,18.2,29.9,18.2,29.9z"/>
		<path class="st1" d="M14.1,39.8c5.2,0,9.5-4.2,9.6-9.4s-4.2-9.5-9.4-9.6h-0.2c-0.3,0-0.6,0-0.9,0.1l0.2,2c0.3,0,0.5,0,0.8,0
			c4.1,0,7.5,3.4,7.5,7.5c0,4.1-3.4,7.5-7.5,7.5c-2.8,0-5.3-1.5-6.6-4l2-0.5l-3.5-4.3L3.5,34l-0.4,0.8l0.7-0.2l1.8-0.4
			C7.1,37.6,10.4,39.8,14.1,39.8z M7,24.2l1.5,1.3c0.3-0.4,0.6-0.7,1-1l-1.3-1.5C7.8,23.3,7.4,23.7,7,24.2z"/>
		<path class="st1" d="M9.8,21.9l1,1.8c0.4-0.2,0.8-0.4,1.3-0.6l-0.6-1.9C10.9,21.4,10.3,21.6,9.8,21.9z M5.5,26.7l1.9,0.8
			c0.1-0.3,0.2-0.5,0.4-0.8l-1.8-1C5.8,26,5.6,26.3,5.5,26.7z"/>
	</g>
</g>
</svg>
