<?xml version="1.0" encoding="utf-8"?>
<!-- Generator: Adobe Illustrator 24.1.2, SVG Export Plug-In . SVG Version: 6.00 Build 0)  -->
<svg version="1.1" id="Layer_1" xmlns="http://www.w3.org/2000/svg" xmlns:xlink="http://www.w3.org/1999/xlink" x="0px" y="0px"
	 viewBox="0 0 45.7 45.7" style="enable-background:new 0 0 45.7 45.7;" xml:space="preserve">
<style type="text/css">
	.st0{fill:none;}
	.st1{fill:#555555;}
	.st2{opacity:0.4;fill:#555555;enable-background:new    ;}
</style>
<g id="Layer_2_1_">
	<g id="Layer_1-2">
		<g id="Layer_2-2">
			<path class="st0" d="M25.7,21v-0.7c-0.2,0.4-0.4,0.7-0.6,1.1C25.4,21.2,25.5,21.1,25.7,21z"/>
			<path class="st1" d="M10.6,21.2V21l0.1-0.2l0.1-0.2v-0.2l0.1-0.2l0.1-0.2v-0.1l0.1-0.2v-0.2v-0.1l0.1-0.2v-0.1l0.2,0.1
				c-0.1-0.1-0.3-0.1-0.4-0.2l-0.2,0l-0.1,0H8.8l-0.5,2.1l2.3,0.5L10.6,21.2z"/>
			<path class="st1" d="M12.1,19.8L12,20c0,0.1,0,0.2-0.1,0.3c0,0.1-0.1,0.2-0.1,0.3c0,0.1-0.1,0.2-0.1,0.3l-0.1,0.3
				c0,0.1,0,0.2-0.1,0.3l-0.1,0.3l0.7,0.2l1.1,0.3l0.9,0.2l-0.1,0.9v0.1l0,0v0.5c0,0.1,0,0.1,0,0.2v0.2c0,0.1,0,0.2-0.1,0.2
				c0,0.1,0,0.1-0.1,0.2l-0.1,0.3c0,0.1,0,0.1-0.1,0.2l-0.1,0.3c0,0.1-0.1,0.1-0.1,0.2l-0.1,0.2l-0.1,0.1l0,0l-0.1,0.1l-0.1,0.1h0.5
				l0.1-0.5v-0.2l0.1-0.4l0.2-0.7v-0.1l0.1-0.3l0.2-0.7l0.1-0.4c0.1-0.2,0.1-0.4,0.2-0.6l0.1-0.3v-0.1l0,0v-0.1l0.2,0.1v0l-0.2-0.1
				l0.1-0.1v-0.1l0.1-0.1v-0.1l0.1-0.1l0.1-0.1l0.1-0.1l0.1-0.1l0.1-0.1l0,0c0.1-0.1,0.1-0.2,0.2-0.3l-0.1-0.1
				c-0.1-0.1-0.1-0.1-0.2-0.2L15,20c-0.1-0.1-0.3-0.2-0.4-0.3l0,0c-0.2-0.1-0.5-0.3-0.8-0.4c-0.2-0.1-0.3-0.1-0.5-0.2
				c-0.2-0.1-0.3-0.1-0.5-0.1h-0.3c-0.1,0-0.2,0-0.2,0.1l0,0c0,0,0,0.1,0,0.1c0,0,0,0.1,0,0.1c0,0.1,0,0.1-0.1,0.1v0.1L12.1,19.8z"
				/>
			<path class="st1" d="M20.8,27.7L20.8,27.7l-0.2,0.4v0.1c-0.1,0.1-0.2,0.2-0.3,0.4v0.1l-0.2,0.2l-0.1,0.1L19.9,29l-0.1,0.1
				c0,0.1-0.1,0.1-0.2,0.2l0,0c-0.1,0.1-0.2,0.2-0.3,0.2c-0.2,0.1-0.5,0.2-0.7,0.2c-0.2,0-0.5,0-0.7-0.1c-0.3-0.1-0.6-0.3-0.8-0.5
				c-0.2-0.2-0.4-0.4-0.6-0.6l-0.3,0.1h-0.4c-0.2,0-0.4,0-0.5-0.1c-0.2,0-0.3-0.1-0.4-0.2c-0.1-0.1-0.3-0.1-0.4-0.2
				c-0.1-0.1-0.2-0.2-0.3-0.3l0,0c-0.1-0.1-0.2-0.3-0.3-0.4c-0.1-0.1-0.1-0.2-0.1-0.3h-1.1l-1-0.1c-0.3,0-0.7,0-1-0.1h-0.3
				c-0.5-0.1-0.9-0.2-0.8-0.3v0c-0.1-0.1-0.1-0.2-0.2-0.3l-0.1-0.1v-0.1l0,0L9.2,26c0,0,0-0.1-0.1-0.1c0,0-0.1-0.1-0.1-0.1
				c0,0,0-0.1,0-0.1c0,0,0-0.1,0-0.1v-0.1c0,0,0-0.1,0-0.1l0,0c0,0,0-0.1,0-0.1l0,0v-0.1l0,0c0,0,0,0,0.1,0h0.1l0.3,0.3H9.5l0.2,0.2
				l0,0l0.2,0.1l0.3,0.1h0.1l0.2,0.1l0,0l0.3,0.1h0.8l0.1-0.1l0.2-0.1l0.1-0.1l0.1-0.1l0.1-0.1l0.1-0.1v-0.1l0.2-0.3
				c0-0.1,0.1-0.1,0.1-0.2c0-0.1,0.1-0.1,0.1-0.2l0.1-0.2c0-0.1,0.1-0.1,0.1-0.2l0.1-0.1v-1.1l-1.1-0.3l-0.7-0.2l0,0l-0.5-0.2l0,0
				l-2.5-0.6l-0.8-0.2l-0.2,0l-2.7,6.9c0,0,3.6,4.7,4.5,5.4C9,34.8,9.1,35.5,9,36.3c-0.2,3.5-0.9,5.2-0.7,7.8h9.2
				c-0.4-1.9-0.1-4,0.1-6.8c0.1-1,0.2-1.7,0.2-1.9C19.4,33.1,20.4,30.5,20.8,27.7L20.8,27.7z"/>
			<path class="st1" d="M16.4,21.1h-0.1c0,0-0.1,0.1-0.1,0.1v0.1v0.1c0,0,0,0.1,0,0.1l-0.1,0.1v0.1l-0.1,0.1v0.1L16,22v0.1v0.1l0,0
				v0.1l0,0c0,0.1-0.1,0.2-0.1,0.3l-0.2,0.6c0,0.1-0.1,0.2-0.1,0.3l-0.2,0.7c0,0.1,0,0.2-0.1,0.3v0.1c-0.1,0.2-0.1,0.5-0.2,0.7
				L15,25.6l-0.1,0.2l-0.1,0.5c0,0.1,0,0.2-0.1,0.3c0,0.1,0.1,0.2,0.1,0.2c0.1,0.1,0.1,0.2,0.2,0.3l0,0c0.1,0.1,0.1,0.1,0.2,0.2
				l0.2,0.1l0.3,0.1l0,0c0.1,0,0.2,0,0.3,0h0.1l0.4-0.5l0.1-0.1c0-0.1,0.1-0.1,0.1-0.2v-0.1l0,0l0.4-0.8l0,0l0,0l1.4-2.7l0.2-0.3
				c0-0.2,0-0.4-0.1-0.5l0-0.1c-0.6-0.4-1.3-0.7-2-0.9L16.4,21.1L16.4,21.1z"/>
			<path class="st1" d="M17.8,26.4L17.8,26.4l-0.4,0.8l0,0c-0.1,0.2-0.2,0.3-0.3,0.5l0,0c0.2,0.2,0.4,0.4,0.6,0.6
				c0.2,0.1,0.4,0.3,0.6,0.4c0.1,0,0.2,0.1,0.3,0.1c0.1,0,0.2,0,0.3,0l0.1-0.1h0.1l0.1-0.1l0.1-0.1l0.1-0.1l0.1-0.1l0.1-0.2l0,0l0,0
				l0.2-0.3l0.1-0.1l0.2-0.3l0,0l0.1-0.1l0.2-0.3v-0.1l0.2-0.3l0,0l0.1-0.1l0.1-0.2l0.3-0.4v-0.1l0.1-0.2l0-0.1
				c0-0.1,0.1-0.2,0.1-0.2c0-0.1-0.1-0.2-0.1-0.3c-0.4-0.6-0.9-1.1-1.5-1.4L17.8,26.4z"/>
			<path class="st2" d="M36.5,29V3.7c0-2.1-1.7-3.7-3.7-3.7h-3.3c-2.1,0-3.7,1.7-3.7,3.7V12c-0.2-0.8-0.4-1.7-0.6-2.5
				c-1.2,2.4-2.7,2.5-2.8,2.5l-0.9,0.1l0.4-0.8c0.7-1.9,0.8-4,0.1-5.9c-0.5,0.6-1.2,1-1.9,1.2c-0.6,0.2-1.2,0-1.6-0.5
				c-0.7-0.9-0.5-2.7,0.5-5.6c-0.8,0.6-1.6,1.3-2.4,1.9c-2,1.4-3.4,3.5-4,5.9l-0.1,0.9l-0.7-0.6c-0.1,0-1.3-1.1-1.1-3.7
				C6.5,8.7,6.1,15.6,6,17.7v0.3l-0.5,0.3l-0.3-0.1c-0.5-0.3-2-3.4-2.3-6.3c-2.7,5.1-2.6,8.9-2,11.3c0.5,1.9,1.4,3.7,2.5,5.4
				l0.1-0.2l2.7-6.9l0.3-0.8l0.8,0.2l0.5-2.1L8,17.9l0.7-0.1c0.3,0,0.6-0.1,0.9-0.1c0.8,0,1.6,0.2,2.3,0.5h0.1
				c0.2-0.1,0.4-0.2,0.7-0.2l0,0c0.2,0,0.3,0,0.5,0l0.2,0c0.5-0.4,1-0.6,1.5-0.9c-0.2,0.4-0.4,0.8-0.5,1.2c0.3,0.1,0.6,0.3,0.8,0.4
				c0.2,0.1,0.4,0.2,0.5,0.3l0.2,0.2c0.1,0.1,0.2,0.2,0.3,0.3c0.1,0.1,0.1,0.1,0.2,0.2l0.2,0.3c0.1,0,0.3,0,0.4,0.1l0.3,0.1l0.3-0.2
				c0,0.1,0,0.3,0.1,0.4c0.7,0.3,1.4,0.7,1.6,0.8l0.1,0.1l0.1,0.1c0,0,0.1,0.1,0.1,0.1c0.2,0.3,0.3,0.6,0.4,1h0.1
				c0.8,0.3,1.4,0.8,2,1.4l0.2-0.3v0.4c0,0,0.1,0.1,0.1,0.1c0.1,0.2,0.2,0.4,0.3,0.6l0.1,0.4l-0.3,0.4L22,25.8v0.1L21.9,26l-0.1,1.3
				c-0.2,2.1-0.7,4.1-1.6,5.9c2-1,3.7-2.4,5.1-4.1c0.1-0.2,0.3-0.3,0.4-0.5V29c-4.1,2.9-5.1,8.7-2.2,12.8s8.7,5.1,12.8,2.2
				c4.1-2.9,5.1-8.7,2.2-12.8C38,30.3,37.3,29.6,36.5,29z M24,22.6h-1l0.6-0.8c1-1.3,1.8-2.9,2.1-4.6v4.9
				C25.2,22.4,24.6,22.6,24,22.6z M39.2,35.3c0,0.4,0.1,0.7,0.1,1.1c0,0.6-0.1,1.1-0.2,1.6c-0.1,0.5-0.3,1-0.5,1.5
				c-0.2,0.5-0.5,1-0.8,1.4c-2.5,3.7-7.6,4.7-11.3,2.2c-0.9-0.6-1.6-1.3-2.2-2.2c-0.3-0.4-0.6-0.9-0.8-1.4c-0.2-0.5-0.4-1-0.5-1.5
				c-0.1-0.5-0.2-1.1-0.2-1.6c0-0.4,0-0.7,0.1-1.1c0.1-0.7,0.3-1.4,0.5-2c0.5-1.3,1.3-2.4,2.4-3.2c0.3-0.2,0.5-0.4,0.8-0.6V3.7
				c0-0.5,0.2-1.1,0.5-1.5c0.2-0.3,0.4-0.5,0.7-0.7c0.5-0.3,1-0.5,1.6-0.5h3.3c0.5,0,1.1,0.2,1.5,0.5c0.3,0.2,0.5,0.4,0.7,0.7
				c0.3,0.5,0.5,1,0.5,1.5v25.8c0.3,0.2,0.5,0.4,0.8,0.6c1,0.9,1.9,2,2.4,3.2C38.9,34,39.1,34.7,39.2,35.3z"/>
			<path class="st1" d="M34.4,30.1V18.4l0,0v-15c0-0.7-0.9-1.2-2.1-1.2h-2.4c-1.1,0-2.1,0.5-2.1,1.2v26.7c-3.5,1.8-4.8,6.1-3,9.5
				c1.8,3.5,6.1,4.8,9.5,3c3.5-1.8,4.8-6.1,3-9.5C36.7,31.9,35.7,30.8,34.4,30.1z"/>
			<rect x="39.1" y="2.4" class="st1" width="6" height="1.2"/>
			<rect x="39.1" y="4.8" class="st1" width="3.6" height="1.2"/>
			<rect x="39.1" y="7.2" class="st1" width="6" height="1.2"/>
			<rect x="39.1" y="9.6" class="st1" width="3.6" height="1.2"/>
		</g>
	</g>
</g>
</svg>
