<?xml version="1.0" encoding="utf-8"?>
<!-- Generator: Adobe Illustrator 24.1.2, SVG Export Plug-In . SVG Version: 6.00 Build 0)  -->
<svg version="1.1" id="Layer_1" xmlns="http://www.w3.org/2000/svg" xmlns:xlink="http://www.w3.org/1999/xlink" x="0px" y="0px"
	 viewBox="0 0 48.1 48.1" style="enable-background:new 0 0 48.1 48.1;" xml:space="preserve">
<style type="text/css">
	.st0{fill:none;}
	.st1{opacity:0.4;fill:#555555;enable-background:new    ;}
	.st2{fill:#555555;}
</style>
<g id="Layer_2_1_">
	<g id="Layer_2-2">
		<polygon class="st0" points="31.4,26 32,26.7 32,26 		"/>
		<polygon class="st0" points="30.8,20.7 32,21.2 32,19.1 		"/>
		<path class="st1" d="M0.9,23.5l5.3,2.2l-5.9,8.4l10.2-1.3L10,38.6l4.6-3.5l4.3,9.3l4-9.5l4.7,3.3l-0.7-5.8L31,33
			c0.3-0.3,0.6-0.6,1-0.8v-5.4L31.5,26h-5.3v-3.5H32v-1.3l-1.1-0.5l1.1-1.6v-6.2l-5.4,0.7l0.5-5.8l-4.7,3.5L18.2,2l-4,9.4L9.5,8.1
			l0.7,5.8L0,13l6.2,8.2L0.9,23.5z M21.1,30.8l-8,1l0.3-1.4l7.9-1L21.1,30.8z M21.6,27.9l-7.9,1l0.2-1.3l7.9-1L21.6,27.9z
			 M19.8,12.8l7.7,5.9L22.9,19L22,25.1l-7.8,1l1.2-6.5l-5,0.4L19.8,12.8z"/>
		<path class="st2" d="M40.2,26v6.6c1.7,1.1,2.8,2.8,3.1,4.8c0,0.3,0.1,0.6,0.1,0.9c0,1.6-0.5,3.1-1.5,4.3c-0.3,0.3-0.6,0.6-0.9,0.9
			c-0.3,0.3-0.7,0.5-1.1,0.7c-0.4,0.2-0.8,0.4-1.2,0.5c-0.2,0.1-0.4,0.1-0.7,0.2c-0.9,0.2-1.8,0.2-2.7,0c-0.2,0-0.4-0.1-0.7-0.2
			c-0.4-0.1-0.8-0.3-1.2-0.5c-0.4-0.2-0.7-0.4-1.1-0.7c-0.3-0.3-0.6-0.6-0.9-0.9c-1-1.2-1.5-2.7-1.5-4.3c0-0.3,0-0.6,0.1-0.9
			c0.1-1.1,0.6-2.2,1.3-3.1c0.5-0.7,1.2-1.3,1.9-1.7V26h-1v6.1c-0.3,0.3-0.6,0.5-0.9,0.8c-3,3.1-2.9,8,0.1,10.9
			c3.1,3,8,2.9,10.9-0.1c3-3.1,2.9-8-0.1-10.9c-0.3-0.2-0.5-0.5-0.8-0.7V26H40.2L40.2,26z"/>
		<path class="st2" d="M32,21.2v1.3h1V11.4c0-1.2,1-2.2,2.2-2.3h2.7c1.2,0,2.3,1,2.3,2.3v11.1h1V11.4c0-1.8-1.5-3.2-3.3-3.3h-2.7
			c-1.8,0-3.2,1.5-3.2,3.3C32,11.4,32,21.2,32,21.2z"/>
		<path class="st2" d="M33.8,26v7.1c-2.9,1.5-4,5-2.5,7.9c1.5,2.9,5,4,7.9,2.5s4-5,2.5-7.9c-0.6-1.1-1.4-1.9-2.5-2.5V26H33.8z"/>
		<rect x="27.2" y="23.5" class="st2" width="13.9" height="1.5"/>
		<rect x="43.1" y="10.2" class="st2" width="5" height="1"/>
		<rect x="43.1" y="12.2" class="st2" width="3" height="1"/>
		<rect x="43.1" y="14.2" class="st2" width="5" height="1"/>
		<rect x="43.1" y="16.2" class="st2" width="3" height="1"/>
	</g>
</g>
</svg>
