<?xml version="1.0" encoding="utf-8"?>
<!-- Generator: Adobe Illustrator 24.1.2, SVG Export Plug-In . SVG Version: 6.00 Build 0)  -->
<svg version="1.1" id="Layer_1" xmlns="http://www.w3.org/2000/svg" xmlns:xlink="http://www.w3.org/1999/xlink" x="0px" y="0px"
	 viewBox="0 0 51.8 51.8" style="enable-background:new 0 0 51.8 51.8;" xml:space="preserve">
<style type="text/css">
	.st0{fill:none;}
	.st1{opacity:0.5;fill:#555555;enable-background:new    ;}
	.st2{fill:#555555;}
</style>
<g id="Layer_2_1_">
	<g id="Layer_2-2">
		<path class="st0" d="M35.3,23.6v-0.5L35,23.7L35.3,23.6z M35.3,11.2L35.3,11.2c0,0,0,0.1,0,0.1V11.2z"/>
		<path class="st1" d="M35.3,11.4c0,0,0-0.1,0-0.1l-0.3,0.3l-1.3-1.3c-0.8,2.5-2.4,3-2.4,3c0.6-2,0.3-4.1-0.6-6l-0.5-0.9
			c-0.1-0.2-0.3-0.5-0.5-0.7c-0.1,1.1-0.9,2.1-2,2.5c-4,1.3-0.9-8-0.9-8.2c-0.1,0.4-0.9,1.6-4.1,4.8c-3.8,3.8-3.8,7.4-3.8,7.4
			s-1.8-0.9-1.5-4.5c-5.3,5-4.7,13.2-4.3,15.7c-0.2,0.1-3.4-3.8-3.8-7.3c-3.1,6.8-2.4,11.3-1.1,14.1c1,1.8,2.2,3.5,3.7,4.9
			c0.6-0.8,1.2-1.6,1.9-2.3c-0.3,3.6,1.5,4.5,1.5,4.5s0-3.6,3.8-7.4c3.2-3.1,4-4.4,4.1-4.8c0,0.2-3.1,9.5,0.9,8.1
			c1.1-0.4,1.9-1.3,2-2.5c1.7,2.1,2.2,4.9,1.5,7.6c0,0,2-0.5,2.7-4.1c0.6,0.9,1.1,1.8,1.5,2.7c1.2-0.8,2.3-1.7,3.4-2.7L35.3,11.4z"
			/>
		<path class="st2" d="M24.8,44.3c1-2,0.8-4.4-0.5-6.2c-0.3,1.5-1.1,1.7-1.1,1.7c0.2-0.9,0.1-1.8-0.3-2.6c-0.1-0.2-0.2-0.4-0.4-0.6
			c-0.1,0.5-0.4,0.8-0.8,1c-1.6,0.5-0.4-3.4-0.4-3.5c0,0.1-0.2,0.4-0.8,1.1l-0.2,0.2l-0.6,0.7c-0.6,0.6-1.1,1.4-1.3,2.3
			c-0.1,0.3-0.1,0.5-0.1,0.8c0,0-0.7-0.4-0.7-1.9c-2.1,2.1-1.8,5.7-1.6,6.7c-0.8-0.9-1.4-2-1.6-3.1c-1.2,2.8-0.9,4.8-0.3,6
			c1.3,2.7,4.5,5.1,7.8,4c1.8-0.6,3.3-1.9,4.3-3.5c1-1.6,0.9-2.7,0.5-5.1C26.4,42.8,25.8,44.1,24.8,44.3z M40.3,46.1V6.4l2.3,2.3
			l2.1-2.1l-5.9-5.9l-5.9,5.9l2.1,2.1l2.3-2.3v39.6l-2.3-2.3l-2.1,2.1l5.9,5.9l5.9-5.9l-2.1-2.1L40.3,46.1z"/>
	</g>
</g>
</svg>
