<?xml version="1.0" encoding="utf-8"?>
<!-- Generator: Adobe Illustrator 24.1.2, SVG Export Plug-In . SVG Version: 6.00 Build 0)  -->
<svg version="1.1" id="Layer_1" xmlns="http://www.w3.org/2000/svg" xmlns:xlink="http://www.w3.org/1999/xlink" x="0px" y="0px"
	 viewBox="0 0 54.1 54.1" style="enable-background:new 0 0 54.1 54.1;" xml:space="preserve">
<style type="text/css">
	.st0{fill:#555555;}
</style>
<g id="Layer_2_1_">
	<g id="Layer_2-2">
		<path class="st0" d="M38.7,11.8c1.2,0.9,2.5,7,2.5,7C42.1,13.7,42.7,14.6,38.7,11.8z"/>
		<path class="st0" d="M43.6,19.5c-0.1,7-3.7,9.9-3.7,9.9s1.7-12.6-7-20.2c0.7,4.9-1.4,6.4-1.4,6.4s-0.4-5-5.3-9.6
			c-4.1-3.9-5.2-5.5-5.4-6c0,0.3,4.6,12.7-0.3,11.4C19.3,11,18.2,9.7,18,8.3c-1.8,3.3-2.2,7.2-1.1,10.7c0,0-2.5-0.5-3.7-5.2
			c-5.1,10.6,1.1,21.5,1.1,21.5s-4.4-1.2-7-7.5c-0.6,7.9-3,25.7,21.1,26.3c3.1,0,6.2-0.7,9-2.1C37.4,52,54.1,44.5,43.6,19.5z
			 M38.2,40.5c-0.1,0.8-0.4,1.6-0.7,2.3c-0.1,0.2-0.2,0.4-0.3,0.6s-0.1,0.2-0.1,0.3s-0.2,0.4-0.3,0.5l-0.2,0.3
			c-0.2,0.3-0.5,0.7-0.8,1l-0.3,0.3c-0.5,0.6-1.1,1.1-1.7,1.5l-0.3,0.2c-0.2,0.1-0.3,0.2-0.5,0.3L32.8,48h-0.1
			c-1.4,0.7-2.9,1.1-4.4,1.1c-0.8,0-1.6-0.1-2.4-0.3c-0.4-0.1-0.7-0.2-1.1-0.3l-0.3-0.1L24,48.3l-0.3-0.1c-0.7-0.3-1.4-0.7-2-1.2
			c-0.2-0.1-0.4-0.3-0.5-0.4l-0.4-0.4c-0.4-0.3-0.7-0.7-1-1.1l-0.2-0.2c-0.1-0.2-0.2-0.3-0.3-0.5l-0.1-0.2c0,0,0-0.1,0-0.1l-0.3-0.5
			c-0.1-0.1-0.2-0.3-0.3-0.5s-0.2-0.4-0.3-0.6c-0.2-0.4-0.3-0.8-0.4-1.3c0-0.1-0.1-0.2-0.1-0.3c-0.1-0.4-0.1-0.9-0.1-1.3
			c0-0.8,0.1-1.6,0.3-2.4c0.2-0.7,0.5-1.4,0.9-2.1c0.3-0.4,0.5-0.8,0.7-1s0.3-0.3,0.4-0.5l0.2-0.2c0.2-0.2,0.4-0.4,0.6-0.6
			c0.1-0.1,0.3-0.2,0.4-0.4c0.4-0.3,0.8-0.6,1.2-0.8l0.2-0.1l0.5-0.2c0.2-0.1,0.5-0.2,0.8-0.3l0.3-0.1c2.3-0.5,4.7,0.1,6.4,1.7
			c0.9,0.9,1.6,2,1.9,3.2c0.1,0.5,0.2,0.9,0.1,1.4c0,0.3-0.1,0.6-0.1,0.9c-0.1,0.9-0.4,1.7-0.9,2.5c-0.6,0.8-1.4,1.4-2.4,1.5
			c-0.2,0-0.3,0-0.5,0c-1.9,0-3.5-1.6-3.5-3.5c0-0.4,0.1-0.8,0.2-1.2v-0.1c0-0.1,0.1-0.2,0.1-0.3c0.1-0.1,0.1-0.3,0.1-0.4
			c-0.1-0.3-0.5-0.7-1.4-0.4c-0.2,0.1-0.4,0.2-0.6,0.4c-0.3,0.3-0.6,0.7-0.8,1c-0.1,0.1-0.1,0.2-0.2,0.3c-0.2,0.4-0.4,0.9-0.5,1.4
			C22.1,39.7,22,40,22,40.3c0,0.4,0,0.9,0.1,1.3c0.2,1,0.7,2,1.4,2.8c0.1,0.1,0.1,0.1,0.1,0.2l0.4,0.4c0.1,0.1,0.2,0.2,0.3,0.3
			l0.2,0.1c2.9,2,6.6,0.7,6.9,0.5c1.2-0.5,2.3-1.3,3.1-2.3c0.6-0.7,1-1.4,1.4-2.3c0.7-1.6,0.9-3.3,0.7-5c0-0.3-0.1-0.6-0.2-0.9
			c-0.1-0.3-0.2-0.5-0.3-0.8c-0.1-0.2-0.1-0.4-0.2-0.5l-0.1-0.3c0-0.1-0.1-0.2-0.1-0.3c-0.1-0.1-0.1-0.2-0.2-0.4
			c-0.1-0.1-0.1-0.2-0.2-0.3l-0.1-0.1c-0.4-0.6-0.8-1.2-1.3-1.7l-0.2-0.2l-0.1-0.1c-0.2-0.2-0.4-0.3-0.6-0.5L32.7,30l-0.5-0.3
			c-2-1.1-4.3-1.5-6.5-1.2c0.5-0.1,1.1-0.2,1.7-0.3c1.5-0.1,2.9,0.2,4.3,0.7c0.4,0.1,0.7,0.3,1.1,0.5l0.3,0.1l0.5,0.3l0.3,0.2
			l0.5,0.4l0.6,0.5c0.5,0.4,0.9,0.9,1.3,1.4c0,0,0,0.1,0.1,0.1c0.2,0.2,0.3,0.5,0.5,0.7c0,0.1,0.1,0.2,0.1,0.2c0,0,0,0,0,0.1
			c0.1,0.2,0.2,0.3,0.3,0.5l0.1,0.3l0.3,0.7c0.1,0.3,0.2,0.5,0.3,0.7c0.1,0.3,0.2,0.6,0.3,0.9l0.1,0.3C38.4,38,38.4,39.2,38.2,40.5z
			"/>
	</g>
</g>
</svg>
