<?xml version="1.0" encoding="utf-8"?>
<!-- Generator: Adobe Illustrator 24.1.2, SVG Export Plug-In . SVG Version: 6.00 Build 0)  -->
<svg version="1.1" id="Layer_1" xmlns="http://www.w3.org/2000/svg" xmlns:xlink="http://www.w3.org/1999/xlink" x="0px" y="0px"
	 viewBox="0 0 57.3 57.3" style="enable-background:new 0 0 57.3 57.3;" xml:space="preserve">
<style type="text/css">
	.st0{fill:#555555;}
	.st1{opacity:0.4;}
</style>
<g id="Layer_2_1_">
	<g id="Layer_2-2">
		<path class="st0" d="M49.3,52.8l-0.9-10.5l-2.9,2.8l-12-9.8c0.1-0.2,0.2-0.4,0.3-0.5c0.1-0.1,0.2-0.2,0.4-0.2
			c1.9-0.5,7.5,2.4,7.5,2.4s-5.1-3.1-4.7-4c0.5-0.9,9.8-0.9,9.8-0.9s-10.8-1.3-11.7-3.8s3.2-4.2,3.2-4.2s-3.4,1.5-4.4,0.9
			c-0.5-0.3-0.1-2,0.4-3.6s1.3-3.5,1.3-3.5c-0.7,1.2-1.5,2.4-2.4,3.6l4.6-10.4l3.6,0.5l-3.4-8l-8.5,6.3l3.5,0.5l-1.9,7.1
			C30,22.1,27.6,23.8,27,24c-1.4,0.5-5.5-4.2-5.5-4.2s2.1,2.9,1,4.7S13,23.7,13,23.7s9,4,8.5,5.2s-5.6,1.3-5.6,1.3s4.1,0.2,6.3,1.4
			c0.3,0.2,0.6,0.4,0.9,0.7L5.7,40.1l-1.7-4L0,46.6l9.6,2.9L8,45.6l15.4-10.8c-0.3,0.7-0.7,1.4-1.2,2.1c-0.6,0.8-1.3,1.6-2.1,2.2
			c0,0,3.3-2.5,4.1-2.1s-1.1,6.4-1.1,6.4c0.6-1.5,1.5-2.9,2.5-4.2c1.4-1.6,0.8,7.4,0.8,7.4s0.9-7.8,3.3-9.6c0.1,0,0.1-0.1,0.2-0.1
			c0.3-0.2,0.6-0.3,1-0.4l10.8,12.6l-3,3L49.3,52.8z M30.4,33.2c-0.3,0.2,0,1.8,0,1.8s-0.5-2.3-1.6-2.3s-2.3,2.1-2.3,2.1
			s0.9-1.8,0.6-2.1s-3.3,2-3.3,2s2.4-2.4,2-3.1c-0.4-0.7-1.8-0.5-1.8-0.5s2.4-0.5,2.4-1.1S24,26.6,24,26.6s2.5,2.1,2.9,1.8
			s-0.9-2.5-0.9-2.5s1.7,2.1,2.1,1.9s0.5-1.7,0.5-1.7s-0.1,1.7,0.9,1.9s3.4-3.3,3.4-3.3s-1.7,3.2-1.5,3.5s2.2-0.9,2.2-0.9
			s-2.4,1.6-2.2,2.3s1.6,0.3,1.6,0.3s-1.8,0.5-1.6,1.6c0.2,1.1,2.7,2.8,2.7,2.8s-3-1.8-2.7-1.1c0.3,0.6,0.6,1.1,1,1.6
			C32.4,34.8,30.7,33,30.4,33.2z"/>
		<g class="st1">
			<path class="st0" d="M53.4,25.9l4-7.3l-8-2.1l1.2,2.7l-14.3,7.7c-0.2,0.3-0.3,0.7-0.2,1.1c0.1,0.2,0.3,0.4,0.5,0.5l15.6-5.4
				L53.4,25.9z"/>
		</g>
		<g class="st1">
			<path class="st0" d="M20.6,20.3c-0.1-0.2-0.2-0.4-0.2-0.6l-7-7.3l1.6-2.6l-7.8,0.7l2.6,8l1.5-2.5L21.6,24
				C22.1,23,21.2,21.1,20.6,20.3z M27.1,48.5l0.1-1.7c-0.1,0.5-0.5,0.9-1,0.9h-0.1c-0.5,0-0.9-0.5-0.9-1c0.1-1.8,0.2-3.6,0.1-5.4
				c-0.5,0.9-1,1.8-1.4,2.7L23.9,44l-0.8,3.7l-3-0.6l4.3,6.8l5.6-4.7L27.1,48.5z"/>
		</g>
	</g>
</g>
</svg>
