<?xml version="1.0" encoding="utf-8"?>
<!-- Generator: Adobe Illustrator 24.1.2, SVG Export Plug-In . SVG Version: 6.00 Build 0)  -->
<svg version="1.1" id="Layer_1" xmlns="http://www.w3.org/2000/svg" xmlns:xlink="http://www.w3.org/1999/xlink" x="0px" y="0px"
	 viewBox="0 0 53.4 53.4" style="enable-background:new 0 0 53.4 53.4;" xml:space="preserve">
<style type="text/css">
	.st0{fill:none;}
	.st1{opacity:0.4;}
	.st2{fill:#555555;}
</style>
<g id="Layer_2_1_">
	<g id="Layer_2-2">
		<path class="st0" d="M7.6,36.9c0.2-0.3,0.5-0.5,0.7-0.8c-0.2,0.2-0.3,0.5-0.5,0.7L7.6,36.9z M18.8,39.6c0.2-0.3,0.4-0.6,0.6-0.9
			c0.6-0.1,1.1-0.2,1.6-0.3C20.3,38.8,19.6,39.2,18.8,39.6z M20.2,25.7L15.1,26c-0.4,0-0.9,0.1-1.4,0.2c2.4-0.7,4.8-1,7.3-1.1
			L20.2,25.7z M19,17.7c0.4-0.2,0.9-0.5,1.4-0.7c0.9-0.1,1.7,0,2.6,0.1c-0.8,0.6-1.5,1.3-2.2,2.1v-0.1C20.4,18.5,19.7,18,19,17.7z
			 M14.2,33.9c-0.1,0.2-0.2,0.4-0.4,0.5c-1.1,0.4-2.3,0.8-3.9,1.5l-0.4,0.2C11.1,35.2,12.6,34.5,14.2,33.9z M24.3,32.4
			c-0.9,1.9-2.3,3.5-4,4.8c0.1-0.1,0.2-0.3,0.2-0.4c0.1-0.1,0.1-0.3,0.2-0.4c0.3-1-0.1-2-1-2.5c-0.3-0.2-1.1-0.7-3.8,0
			c0.6-0.4,1.3-0.8,2.1-1.2C21.8,31.6,24.8,31.3,24.3,32.4z M29.9,37.7c0-0.2,0.1-0.4,0.1-0.5c0.3,0,0.6,0,0.9-0.1
			C30.5,37.2,30.2,37.5,29.9,37.7z M29.9,35.1c0.8-0.3,1.7-0.6,2.5-1c-0.6,1.1-1.4,2-2.3,2.9C30.1,36.3,30.1,35.7,29.9,35.1z"/>
		<g class="st1">
			<path class="st2" d="M28.2,33.8c0.5-0.1,1-0.3,1.5-0.4c0.2,0.5,0.2,1.1,0.1,1.6c-0.1,0.3-0.1,0.5-0.1,0.6
				c0.3-0.2,0.6-0.4,0.9-0.6c1.9-0.4,3.7-1.3,5.2-2.5c-5.9,6.4-10.3,6.1-10.3,6.1c1.2-0.9,2.1-2.1,2.7-3.5
				C28.4,34.7,28.4,34.2,28.2,33.8z M13.1,33.8L13.1,33.8c1.2-0.5,1.9-0.8,2.9-1.1l1.8-0.5c2.3-0.5,3-0.1,3.3,0
				c0.7,0.4,1.1,1.3,0.8,2.1c0,0.1-0.1,0.2-0.1,0.4c-0.3,0.6-0.6,1.1-1,1.6c-0.2,0.3-0.3,0.5-0.5,0.7c0.7-0.3,1.3-0.6,1.9-1
				c1.9-0.4,3.8-1.1,5.4-2.1c-2.4,2.4-7.5,6.1-13.8,6.2c2.8-1.2,5.1-3.4,6.5-6.1c0,0,0.1-0.1,0-0.1C16.3,32.2,3.9,43.3,0,47.3
				c1.5-2.5,8.8-15.8,17.1-20.1c-3.3,0.4-6.4,1.7-9,3.8c3.3-5.9,9.4-9.6,12.5-10.4c-3,1.4-5.5,3.6-7.2,6.5c0.7-0.5,1.6-1,2.4-1.3
				c0.4-0.1,0.8-0.1,1.2-0.2l4.4-0.3c-3.5,2.3-6.6,5.1-9.2,8.4c-0.2,0.2,1.3,0.1,1.3,0.1l-0.2,0.1 M19.6,18.2
				c0.8,0.4,1.6,0.9,2.3,1.5L21.6,20c-0.4,0.1-0.7,0.3-1.1,0.5c-1.3-2-5.5,0.6-5.5,0.6s1.9-4.2,11-6.3c0.1,0,0.1,0,0.2,0
				C21.1,16.5,19.6,18.2,19.6,18.2z"/>
		</g>
		<path class="st2" d="M40.1,6.3c-9.1,1.8-10.9,6-10.9,6s3.5-2,5.2-0.9c0.2,0.1,0.3,0.3,0.4,0.4c-2.6,0.7-5,2-7.1,3.7
			c-0.7,0.5-1.3,1.1-1.9,1.7l-0.3,0.3c-1.2,1.3-2.3,2.7-3.2,4.2c2.6-1.9,5.7-3.1,9-3.4c-4.4,2.9-8.2,6.6-11.1,11L20,29.7
			c-0.4,0.6-0.7,1.2-1,1.6c0.8-0.8,1.8-1.5,2.8-2c0.6-0.3,1.1-0.7,1.8-1c5.2-2.7,12-4.5,11.2-3c-1.3,2.7-3.6,4.8-6.4,5.9
			c1.2,0,2.4-0.1,3.6-0.3l0.3-0.1c0.5-0.1,1-0.2,1.5-0.4c0.7-0.2,1.4-0.5,2.1-0.8c2.5-1.1,4.8-2.7,6.8-4.7c0.4,0.8,0.3,1.8-0.3,2.5
			c-0.6,0.9-1.3,1.7-2.2,2.4c0,0,4.7,0.5,10.7-6.2C57.5,16.4,50,4.3,40.1,6.3z"/>
	</g>
</g>
</svg>
