<?xml version="1.0" encoding="utf-8"?>
<!-- Generator: Adobe Illustrator 24.1.2, SVG Export Plug-In . SVG Version: 6.00 Build 0)  -->
<svg version="1.1" id="Layer_1" xmlns="http://www.w3.org/2000/svg" xmlns:xlink="http://www.w3.org/1999/xlink" x="0px" y="0px"
	 viewBox="0 0 154.9 154.9" style="enable-background:new 0 0 154.9 154.9;" xml:space="preserve">
<style type="text/css">
	.st0{fill:#555555;}
</style>
<g id="Layer_2_1_">
	<g id="Layer_2-2">
		<path class="st0" d="M78.9,96.1l-0.1,3.6l4.5,2.2l1.7,4.2l20.6,0.4l7.9-6.7l0.1-3L78.9,96.1z"/>
		<path class="st0" d="M145.7,73.3l-6.5-0.1l-0.9-1.6c0,0-5.8,0.5-8-0.2c1.4-1.5,3.7-9.5,2.4-15.9s-3.5-6.5-3.5-6.5l-4.3-0.2
			l-0.5,23.3l-9.9-0.2l0.5-23.4c-6.4-0.2-13.4-0.3-17-0.3l-0.5,23.3l-2.8,0l0.5-23c-4.7,0.6-6,2.6-6,2.6l-0.1,4.3l-2.5,0.1
			l-0.3,10.8l2.6,0l0,3l3.8,2.2l-5.4-0.1l-7.8-8.1l-20.5,0.2v-1.8l3.5-2l18.8,3.4h-1.7l3.6,0.1l0.1,1.4l1.8,1l0.2-10.1h-0.3l-2,1.2
			v0.9l-1.6,0.8V60l-12.9-2.9v-1.9l2.6-1.7l-1-0.8L61.6,54l-0.1,2.8l-6.8,4.1l-13.3-0.3l-5,2.4l-18.7-0.4l-4,3.1L0,64.2l1,8.7l0.7,1
			l0.6,8.4L34.9,83l22.7,0.5c2.7,2.5-2.3,6.7-2.3,6.7s1.3,2.9-0.9,4.9c1.2,2.5-4.1,4.5-3.3,6.2c0.7,1.7,7.1,3.1,10.4,1
			c-3-4.4,3.5-19.1,3.5-19.1l5.8,0.1l8.2,6.3l-0.1,3.8l36.3,0.8l1.4-1.1v-1.7l14.6,0.3l2-3.9l14.1,0.3l7.5,1.8L145.7,73.3z
			 M37.6,65.8v1.4h-1.4v-1.4H37.6z M33.5,65.9v1.4l-2.7,0.1V66L33.5,65.9z M28.1,66v1.4l-2.7,0.1v-1.4L28.1,66z M22.6,66.1v1.4
			L20,67.6v-1.4L22.6,66.1z M17.2,66.3v1.4l-2.7,0.1v-1.4L17.2,66.3z M11.8,66.3v1.4L9,67.8v-1.4L11.8,66.3z M6.3,66.5v1.4L5,67.9
			v-1.4L6.3,66.5z M4.9,81H3.5v-1.4h1.4L4.9,81z M10.7,81.2l-2.9-0.1v-1.4l2.9,0.1V81.2z M16.5,81.3l-2.9-0.1v-1.4l2.9,0.1V81.3z
			 M22.3,81.5l-2.9-0.1V80l2.9,0.1V81.5z M28.1,81.6l-2.9-0.1v-1.4l2.9,0.1L28.1,81.6z M33.9,81.8L31,81.7v-1.4l2.9,0.1L33.9,81.8z
			 M38.2,81.9h-1.4v-1.4h1.4V81.9z M40.5,71.2L13,70.6l0.8,5.3l24.8,0.5l-0.7,0.9l0.7,1.8l-35-0.7L3.8,69l37.7-0.4L40.5,71.2z
			 M53.5,76L43,75.8l2.2-6.6l10.3,0.2L53.5,76z M122.5,87.6L86,86.9l-1.3-3.5l39.5,0.8L122.5,87.6z"/>
	</g>
</g>
</svg>
