<?xml version="1.0" encoding="utf-8"?>
<!-- Generator: Adobe Illustrator 24.1.2, SVG Export Plug-In . SVG Version: 6.00 Build 0)  -->
<svg version="1.1" id="Layer_1" xmlns="http://www.w3.org/2000/svg" xmlns:xlink="http://www.w3.org/1999/xlink" x="0px" y="0px"
	 viewBox="0 0 42.5 42.5" style="enable-background:new 0 0 42.5 42.5;" xml:space="preserve">
<style type="text/css">
	.st0{fill:none;}
	.st1{fill:#555555;}
	.st2{opacity:0.4;fill:#555555;enable-background:new    ;}
</style>
<g id="Layer_2_1_">
	<g id="Layer_2-2">
		<path class="st0" d="M14.2,38.1c-0.7,0.7-1.8-1-2.3-2l-0.3-0.6c-0.2,0.4-0.4,0.7-0.7,1c-0.5,0.5-1.2,1-2,0.3c0,0-0.1-0.1-0.1-0.1
			c0,0,0,0.1,0,0.1c-0.1,1-0.5,1.9-1.3,2.6c3,0.8,6.1,1.3,9.3,1.4C15.8,39.9,15,39,14.2,38.1z M33.2,36.8c-1.5,1.3-3.4-0.4-3.4-0.4
			c-0.2,0.3-0.4,0.7-0.7,1c-0.6,0.8-1.5,1.6-2.2,1.3c-0.7,0.7-1.8,1.5-2.5,2c5.1-0.4,8.7-1.3,10.4-2.2c-0.4-0.2-0.7-0.4-1.1-0.7
			C33.5,37.6,33.2,37.2,33.2,36.8z"/>
		<path class="st1" d="M19.5,22.9c0.7,0.4,1.5,0.7,2.4,0.8c-0.5-0.1-0.9-0.4-1.2-0.8c-0.4-0.3-0.7-0.6-0.9-1
			C19.6,22.2,19.4,22.5,19.5,22.9c0,0.7,0.4,1.4,1,1.8C20.5,24,20.1,23.3,19.5,22.9z M25.2,21.9l-0.5-0.1h-0.3
			c-1.4-0.2-2.7-0.6-3.9-1.3c0,0.1,0,0.1,0,0.2c0,1.6,2.9,2.9,6.5,2.9c3.1,0,5.7-1,6.3-2.3c-1.7,0.4-3.5,0.6-5.2,0.6
			C27.1,22.1,26.1,22,25.2,21.9z"/>
		<path class="st1" d="M36.5,18.3c-0.8,0.4-1.7,0.6-2.6,0.8l-0.4,0.1c-0.6,0.3-1.3,0.4-2,0.6h-0.1c-0.4,0.1-0.7,0.1-1.1,0.2
			C29.5,20,28.8,20,28.1,20c-3.4,0-6.1-0.8-6.9-1.9c-0.4-0.2-0.8-0.4-1.2-0.7c-0.1,0-0.1,0.1-0.1,0.1c-0.1,0.1-0.1,0.1-0.1,0.2
			c0,0,0,0,0,0.1c0,0.1,0,0.2,0,0.3c0,1.6,3.8,2.9,8.5,2.9c1.8,0,3.6-0.2,5.4-0.7C35.3,20,36.5,19.2,36.5,18.3z"/>
		<path class="st1" d="M34,16.7c-0.3,0.1-0.5,0.2-0.8,0.2l-0.6,0.1c-0.7,0.1-1.4,0.2-2.2,0.3c-0.5,0-1.1,0.1-1.6,0.1
			c-0.6,0-1.2,0-1.7-0.1c-2.3,0-4.6-0.2-6.9-0.7c1.4,1.2,4.8,2,8.6,2c5.2,0,9.4-1.4,9.4-3.2v-0.1C36.9,16,35.5,16.4,34,16.7z"/>
		<path class="st1" d="M40.1,12c0-0.1,0-0.3-0.1-0.4v-0.1c0-0.1-0.1-0.2-0.2-0.3c-2.1,2.7-8.6,4.1-14.9,4.1c-2.9,0-5.8-0.3-8.6-0.9
			c2.3,1.3,6.3,2.1,10.9,2.1c1.7,0,3.3-0.1,5-0.4c1.4-0.2,2.8-0.5,4.1-1c0.5-0.2,1.1-0.4,1.6-0.6C39.3,13.7,40.1,12.9,40.1,12
			L40.1,12z"/>
		<path class="st1" d="M39.5,8.7L39.5,8.7c-0.1-0.2-0.1-0.2-0.2-0.3c-0.1-0.1-0.1-0.2-0.2-0.2L39,8.1L38.7,8c-1.6,3.3-9.2,5-16.4,5
			c-3.5,0-7-0.4-10.3-1.3c0.3,0.2,0.5,0.3,0.8,0.4c0.6,0.3,1.2,0.5,1.8,0.8l0.2,0.1c1,0.3,2.1,0.6,3.2,0.8c2.3,0.4,4.7,0.6,7,0.6
			c8.1,0,14.6-2.3,14.6-5.1c0-0.1,0-0.2,0-0.3c0,0,0-0.1,0-0.1C39.5,8.9,39.5,8.8,39.5,8.7z"/>
		<path class="st1" d="M22.3,12.1c2.5,0,5.1-0.2,7.6-0.7c3.9-0.7,6.8-2,7.8-3.5c-3.2,1.7-8.6,2.7-13.8,2.7c-7.5,0-15.4-1.9-16.6-5.4
			c-0.1,0-0.1,0.1-0.2,0.1H7.1C7,5.4,6.9,5.5,6.8,5.5v0.1C6.8,5.7,6.7,5.7,6.7,5.8c0,0,0,0.1,0,0.1c0,0.1-0.1,0.1-0.1,0.2v0.1
			c0,0.1,0,0.2,0,0.4C6.5,9.7,13.6,12.1,22.3,12.1z"/>
		<path class="st1" d="M23.9,9.7c2.5,0,5.1-0.2,7.6-0.7c4.9-0.9,8.3-2.7,8.3-4.8c0-1.2-1.1-2.3-3-3.2c-1-0.5-2-0.8-3-1.1
			c0.7,0.3,1.4,0.6,2,1c0.4,0.3,0.7,0.6,1,1c0.2,0.3,0.4,0.7,0.4,1.1c0,0.4-0.1,0.7-0.3,1c-0.1,0.2-0.3,0.4-0.5,0.6
			c-0.1-0.3-0.3-0.5-0.5-0.7C34.7,3,33.4,2.3,32,2c1.6,0.6,2.6,1.4,2.6,2.3c0,0.2-0.1,0.4-0.1,0.6C34,5.7,32.8,6.4,30.9,7
			c0.2-0.2,0.4-0.5,0.4-0.8c0-0.1,0-0.1,0-0.2c-0.1-0.7-1.1-1.2-2.5-1.6c0.9,0.3,1.5,0.8,1.5,1.3c0,0.2-0.1,0.5-0.3,0.6
			c-0.8,0.8-2.9,1.3-5.4,1.3c-1.7,0.1-3.4-0.2-5-1c-0.4-0.2-0.6-0.5-0.6-0.9c0-0.5,0.6-1,1.5-1.3C18.9,4.8,18,5.5,18,6.2
			c0,0,0,0.1,0,0.1C18,6.6,18.2,6.9,18.4,7c-1-0.2-1.9-0.7-2.7-1.2c-0.5-0.3-0.9-0.9-0.9-1.5c0-0.9,1-1.7,2.6-2.3
			c-2.3,0.6-4,1.6-4.4,2.7c-0.1,0.2-0.1,0.3-0.1,0.5c0,0.2,0,0.3,0.1,0.5c-1.4-0.8-2.3-1.7-2.3-2.7s1-2,2.7-2.8
			C13.5,0.2,13.7,0.1,14,0l-0.6,0.2c-0.5,0.1-0.9,0.3-1.3,0.4C9.6,1.6,8,2.9,8,4.3C8,7.3,15.1,9.7,23.9,9.7z"/>
		<path class="st1" d="M23.3,6.8c0.4,0.1,0.9,0.1,1.3,0.1c0.6,0,1.2,0,1.8-0.2c0.9-0.2,1.4-0.5,1.4-0.8c0-0.5-1.4-1-3.2-1
			s-3.2,0.5-3.2,1S22.2,6.6,23.3,6.8z M17.9,28.8c-1.5,1.2,4.2-0.6,9.1-3.7c0.3-0.1,0.5-0.3,0.8-0.5h0.1c-2-0.2-3.9-0.5-5.8-0.9
			h-0.1c-0.8-0.1-1.6-0.4-2.4-0.8c0.6,0.4,0.9,1.1,1,1.8C20.6,25.7,20.1,27,17.9,28.8z"/>
		<path class="st2" d="M36.3,35.8c-0.4-1.9-0.6-3.9-0.7-5.9c0.1,1-2.3,4.1-3.3,4.3L31.6,34c-0.5-0.7-0.7-1.6-0.6-2.4
			c-0.3,0.8-0.9,1.5-1.6,2c-3-0.5-6.1-0.7-9.2-0.7c-3.1,0-6.1,0.2-9.1,0.7c-1-1-1.6-2.3-1.8-3.6c-0.2,0.3-0.4,0.4-0.7,0.6
			c-0.4,0.2-0.3,2-1.9,0.5c0.1,1.3-0.1,2.6-0.5,3.8c-0.5,0.2-0.9,0.4-1.3,0.6c-0.6-0.4-1.1-1-1.4-1.7c-0.1,1.3-0.4,2.6-0.8,3.8v0.2
			c0,2.7,7.9,4.8,17.6,4.8s17.6-2.2,17.6-4.8C37.7,37,37.2,36.4,36.3,35.8z M7.5,39.4c0.7-0.7,1.2-1.6,1.3-2.6c0,0,0-0.1,0-0.1
			c0,0,0.1,0.1,0.1,0.1c0.7,0.7,1.4,0.3,2-0.3c0.3-0.3,0.5-0.6,0.7-1l0.3,0.6c0.5,1,1.6,2.7,2.3,2c0.8,1,1.7,1.9,2.6,2.7
			C13.7,40.7,10.6,40.2,7.5,39.4z M24.5,40.7c0.7-0.5,1.7-1.3,2.5-2c0.7,0.3,1.6-0.5,2.2-1.3c0.3-0.3,0.5-0.7,0.7-1
			c0,0,1.9,1.7,3.4,0.4c0,0.4,0.2,0.8,0.6,1c0.3,0.2,0.7,0.5,1.1,0.7C33.2,39.4,29.6,40.3,24.5,40.7L24.5,40.7z"/>
	</g>
</g>
</svg>
