<?xml version="1.0" encoding="utf-8"?>
<!-- Generator: Adobe Illustrator 24.1.2, SVG Export Plug-In . SVG Version: 6.00 Build 0)  -->
<svg version="1.1" id="Layer_1" xmlns="http://www.w3.org/2000/svg" xmlns:xlink="http://www.w3.org/1999/xlink" x="0px" y="0px"
	 viewBox="0 0 49.4 49.4" style="enable-background:new 0 0 49.4 49.4;" xml:space="preserve">
<style type="text/css">
	.st0{fill:#555555;}
	.st1{opacity:0.4;fill:#555555;enable-background:new    ;}
</style>
<g id="Layer_2_1_">
	<g id="Layer_2-2">
		<path class="st0" d="M16.9,17.9c8.3-3.1,11.3,1,14,5l-4.1,3.4l16.9,8.1l2.7-23.2l-5.3,5.3c0,0-0.5-11.3-15.6-16.4
			c0.7,2.3,1.2,4.6,1.5,7C22.8,5.4,18.3,5,13.8,5.8c3.1,1.4,3.6,2.4,3.6,2.4S1.7,9.6,3.2,26.1C5.6,22.1,7.5,23,7.5,23l-4.2,7.9
			c0.1,1.2,0.1,2.4,0.2,3.7l3.3,0.6l-2.7,8.1c0.2,3.5,0.4,6.1,0.4,6.1l8.4-16.9H8.6C8.6,32.5,7.9,21.3,16.9,17.9z"/>
		<path class="st1" d="M13,3.6c3.1-1.9,11.2,0,11.2,0c-0.2-1.7-1.5-3-3.1-3.5C20.4-0.1,18.1-0.6,13,3.6z"/>
		<path class="st1" d="M13.9,8.4c-0.1-0.8-0.7-1.5-1.5-1.7C12,6.6,10.8,6.3,8.3,8.4C9.9,7.4,13.9,8.4,13.9,8.4z"/>
	</g>
</g>
</svg>
