<svg xmlns="http://www.w3.org/2000/svg" viewBox="0 0 27.99 27.99">
  <defs>
    <style>
      .cls-1{fill:#565656}
    </style>
  </defs>
  <g id="Layer_2-2-2" data-name="Layer 2-2">
    <path class="cls-1" d="M22.2 19.82a5.34 5.34 0 01.2.88 5.34 5.34 0 00-.2-.88zM21.59 23.8a4.66 4.66 0 00.81-2.63 4.66 4.66 0 01-.81 2.63z"/>
    <path d="M17.67 25.27a4.09 4.09 0 001.89-7.7v-6.79h-3.78v6.76a4.08 4.08 0 00-2.16 3.08 5.15 5.15 0 001.22-1.53 10.37 10.37 0 01-.57 4.36 4.09 4.09 0 003.4 1.82z" style="isolation:isolate" opacity=".4" fill="#565656"/>
    <path class="cls-1" d="M21.7 2.1h3.5v.7h-3.5zM21.7 3.5h2.1v.7h-2.1zM21.7 4.9h3.5v.7h-3.5zM21.7 6.3h2.1V7h-2.1zM.21 21.64C1.15 25 4.12 28.5 8 27.94a8.59 8.59 0 005.37-3l.18-.23a5.43 5.43 0 008.17-7.14 5 5 0 00-.79-.74V2.27A2.27 2.27 0 0018.62 0h-1.89a2.28 2.28 0 00-2.28 2.27V16.8a5.26 5.26 0 00-.7.64 9.11 9.11 0 00-.7-3.61c-.56 1.67-1.48 1.74-1.48 1.74a4.76 4.76 0 00-.13-3.86 1.34 1.34 0 01-1.07 1c-1.83.28.16-4 .19-4.09-.05.18-.51.7-2.1 1.95a5.59 5.59 0 00-2.27 3.27s-.7-.62-.36-2.34c-2.71 1.93-3 6-3 7.26a7.69 7.69 0 01-1.14-4C-.17 17.83-.19 20.12.21 21.64zm13.3-2.72a3.94 3.94 0 01.35-.55 4.84 4.84 0 011.28-1.19V2.27A1.57 1.57 0 0116.71.7h1.91a1.57 1.57 0 011.57 1.57v14.91a4.84 4.84 0 011.28 1.19 4.34 4.34 0 01.58 1q.07.2.15.42a5.34 5.34 0 01.2.88v.47a4.81 4.81 0 01-2.9 4.36 4.86 4.86 0 01-1.36.35h-.48A4.71 4.71 0 0113.92 24a5.24 5.24 0 00.34-.61 10.21 10.21 0 00.57-4.36 5.32 5.32 0 01-1.22 1.53A2.64 2.64 0 0113 21a4.94 4.94 0 01.12-.93 5.79 5.79 0 00.45-1.13zM3.22 22.27a1.8 1.8 0 001.68.92 4.34 4.34 0 01.43-4 1.59 1.59 0 00.7 2.1c-.7-1.84 1.67-2.73 1.67-2.73s-.7 1.29-.24 1.75 1.6-.3 1.6-.3c.26 1-.89 2.39-.89 2.39s1.55 0 1.82-.7a3.38 3.38 0 01-1.21 2.43 2.89 2.89 0 002.39-.23c-.39 1.86-4.35 3.36-6.52 1.75s-1.43-3.38-1.43-3.38z"/>
  </g>
</svg>