<?xml version="1.0" encoding="utf-8"?>
<!-- Generator: Adobe Illustrator 24.1.2, SVG Export Plug-In . SVG Version: 6.00 Build 0)  -->
<svg version="1.1" id="Layer_1" xmlns="http://www.w3.org/2000/svg" xmlns:xlink="http://www.w3.org/1999/xlink" x="0px" y="0px"
	 viewBox="0 0 43.5 43.5" style="enable-background:new 0 0 43.5 43.5;" xml:space="preserve">
<style type="text/css">
	.st0{fill:none;}
	.st1{fill:#555555;}
	.st2{opacity:0.4;fill:#555555;enable-background:new    ;}
</style>
<g id="Layer_2_1_">
	<g id="Layer_2-2">
		<path class="st0" d="M12.7,14.5v0.4l0.1,0.1C12.8,14.8,12.7,14.6,12.7,14.5z"/>
		<path class="st0" d="M6.8,15.1L8,15L6.8,15.1z M3.9,15.5l1.9-0.3C5.8,15.3,3.9,15.5,3.9,15.5z M0,9.4L5,9L0,9.4z"/>
		<path class="st1" d="M20.3,34.3c0.8,0.4,1.7,0.7,2.7,0.9c-0.5-0.2-1-0.4-1.4-0.8c-0.4-0.3-0.7-0.7-1-1.2
			C20.4,33.5,20.2,33.9,20.3,34.3c0,0.8,0.4,1.5,1.1,2C21.3,35.5,20.9,34.8,20.3,34.3z M30.5,35.2c-0.4,0-0.8,0.1-1.2,0.1
			C29.8,35.3,30.2,35.2,30.5,35.2z"/>
		<path class="st1" d="M30.8,35.2c0.5-0.1,0.9-0.2,1.3-0.3c0.4-0.1,0.8-0.2,1.2-0.4c0.3-0.1,0.7-0.3,1-0.5c0.4-0.2,0.8-0.5,1.1-0.8
			c0.1-0.2,0.3-0.3,0.4-0.5c-1.9,0.5-3.9,0.7-5.9,0.7c-1.1,0-2.1-0.1-3.2-0.2l-0.6-0.1h-0.4c-1.5-0.2-3-0.7-4.4-1.3
			c0,0.1,0,0.2,0,0.2c0,0.5,0.2,1,0.6,1.3c0.3,0.3,0.7,0.6,1.1,0.8c0.3,0.2,0.7,0.3,1,0.5c0.4,0.1,0.8,0.3,1.2,0.4
			c0.4,0.1,0.9,0.2,1.3,0.3s0.9,0.1,1.4,0.1h1.5c0.4,0,0.8-0.1,1.2-0.1L30.8,35.2z"/>
		<path class="st1" d="M35.9,31.7L35.9,31.7c0.5-0.1,0.9-0.3,1.4-0.4c0.5-0.2,1-0.5,1.4-0.8c0.2-0.2,0.4-0.4,0.6-0.6
			c0.1-0.2,0.2-0.4,0.2-0.7c-1,0.4-2,0.7-3,0.9c-2.1,0.9-4.3,1.3-6.6,1.2c-3.6,0-6.7-0.8-7.7-2l-0.1-0.2c-0.5-0.2-0.9-0.5-1.4-0.8
			l-0.1,0.1c-0.1,0.1-0.1,0.2-0.1,0.3c0,0,0,0,0,0.1c0,0.1-0.1,0.2-0.1,0.3c0,0.4,0.2,0.7,0.4,1c0.2,0.2,0.4,0.4,0.6,0.5
			c0.2,0.1,0.3,0.2,0.5,0.3c0.2,0.1,0.4,0.2,0.6,0.3c0.4,0.2,0.9,0.3,1.3,0.4c0.5,0.1,1,0.3,1.5,0.4c0.5,0.1,1.1,0.2,1.7,0.3
			c0.6,0.1,1.2,0.1,1.9,0.1h2c0.6,0,1.3-0.1,1.9-0.1c0.6-0.1,1.2-0.2,1.7-0.3C35.1,31.9,35.5,31.8,35.9,31.7L35.9,31.7z"/>
		<path class="st1" d="M41.4,25.9L41.4,25.9c-1.5,0.7-3.1,1.2-4.7,1.5c-1.9,0.5-3.9,0.8-5.9,0.8c-0.7,0-1.3,0-2-0.1
			c-2.6,0-5.2-0.2-7.8-0.8c0.3,0.2,0.6,0.4,1,0.6c0.6,0.3,1.3,0.6,2,0.8c1.5,0.4,3,0.7,4.6,0.8c0.7,0,1.4,0.1,2.1,0.1
			C36.6,29.6,41.4,27.9,41.4,25.9z"/>
		<path class="st1" d="M43.5,22.1c0-0.2,0-0.3-0.1-0.5c0,0,0-0.1,0-0.1c-0.1-0.1-0.1-0.2-0.2-0.4c-2.3,3-9.7,4.6-16.8,4.6
			c-3.2,0-6.5-0.3-9.6-1.1c2.5,1.4,7,2.4,12.2,2.4C37,27.1,43.5,24.9,43.5,22.1z"/>
		<path class="st1" d="M41.8,21.2c0.2-0.2,0.4-0.4,0.6-0.6c0.2-0.3,0.4-0.6,0.5-0.9c0.1-0.2,0.1-0.4,0.1-0.6c0-0.1,0-0.3,0-0.4v-0.1
			l-0.1-0.2v-0.1c0-0.1-0.1-0.2-0.2-0.2c-0.1-0.1-0.2-0.2-0.2-0.2l-0.1-0.1l-0.2-0.1c-1.8,3.7-10.4,5.7-18.5,5.7
			c-3.9,0-7.9-0.5-11.7-1.5c2.8,1.8,8.3,3,14.6,3c2.6,0,5.2-0.3,7.7-0.7c1.3-0.2,2.6-0.6,3.8-1c0.7-0.2,1.4-0.5,2-0.8
			c0.3-0.2,0.6-0.3,0.9-0.5C41.2,21.6,41.5,21.4,41.8,21.2z"/>
		<path class="st2" d="M5.8,15.3l1.1-0.1L5.8,15.3z"/>
		<path class="st1" d="M11.8,20.3l-0.1,0.5c3.8,1.1,7.8,1.6,11.7,1.5c6.8,0,12.7-1.3,15.7-3.2c0.4-0.2,0.7-0.5,1-0.8l0.3-0.3
			c0.1-0.1,0.2-0.2,0.3-0.4c-3.6,2-9.7,3-15.6,3c-4.5,0.1-8.9-0.6-13.1-1.9v0.2L11.8,20.3z"/>
		<path class="st1" d="M12.8,14.9l-0.1-0.1l-0.1,0.6l-0.1,0.7l-0.2,1.3v0.2c4.2,1.4,8.6,2,13,1.9c1.9,0,3.9-0.1,5.8-0.3
			c4.5-0.5,8.2-1.7,10.3-3.2c0.1-0.1,0.3-0.2,0.4-0.3c0.2-0.1,0.3-0.3,0.5-0.5c0.2-0.2,0.4-0.4,0.5-0.7c0.2-0.4,0.4-0.8,0.4-1.2
			c0-0.5-0.2-1-0.5-1.4c-0.1-0.2-0.3-0.3-0.4-0.5c-0.7-0.7-1.4-1.2-2.3-1.6l-0.5-0.2c-1-0.4-2.1-0.8-3.1-1.1C36.9,8.8,37.5,9,38,9.3
			c1.4,0.8,2.3,1.7,2.3,2.7c0,0.4-0.1,0.8-0.3,1.1c-0.2,0.3-0.4,0.5-0.6,0.7c-0.1-0.3-0.3-0.6-0.6-0.8c-1.3-1.1-2.7-1.8-4.4-2.2
			c1.8,0.7,2.9,1.6,2.9,2.6c0,0.2-0.1,0.5-0.2,0.7c-0.5,0.9-1.9,1.8-4,2.3c0.3-0.2,0.5-0.6,0.5-0.9c0-0.1,0-0.1,0-0.2
			c-0.2-0.8-1.2-1.4-2.8-1.8c1,0.4,1.7,0.9,1.7,1.5c0,0.3-0.1,0.5-0.3,0.7c-0.8,0.9-3.2,1.5-6,1.5c-2,0.1-3.9-0.3-5.7-1.2
			c-0.4-0.2-0.7-0.6-0.7-1c0-0.6,0.6-1.1,1.7-1.5c-1.8,0.5-2.9,1.2-2.9,2c0,0.1,0,0.1,0,0.2c0.1,0.3,0.2,0.6,0.5,0.8
			c-1.1-0.3-2.1-0.7-3-1.4c-0.6-0.3-1-1-1.1-1.6c0-1,1.1-1.9,2.9-2.6c-2.6,0.7-4.5,1.8-4.9,3l-0.1,0.7
			C12.8,14.6,12.8,14.8,12.8,14.9z M8,15l3.7-0.5l0-0.2l0,0.2L8,15z"/>
		<path class="st1" d="M22.5,15.2c0,0.4,0.9,0.8,2.1,1c0.5,0.1,1,0.1,1.5,0.1c0.7,0,1.3-0.1,2-0.2c1-0.2,1.6-0.5,1.6-0.9
			c0-0.6-1.6-1.1-3.6-1.1S22.5,14.6,22.5,15.2z M18.5,41c-1.7,1.3,4.7-0.7,10.3-4.1l0.8-0.5h0.1c-2.2-0.2-4.4-0.5-6.6-1h-0.2
			c-0.9-0.2-1.8-0.5-2.7-0.9c0.6,0.5,1.1,1.2,1.1,2C21.5,37.5,20.9,39,18.5,41z"/>
		<path class="st2" d="M3.9,15.5l1.9-0.3l1.1-0.1L8,15l3.7-0.5l0-0.2l0.8-5l0-0.2l0.1-0.6L17.2,8L9.5,2.1L0,9.4L5,9
			C5,9,3.9,15.5,3.9,15.5z M3.1,19.7l-0.3,1.4l8-1l0.2-1.5C11.1,18.6,3.1,19.7,3.1,19.7z M11.3,17.2l0.2-1.3l-7.9,1l-0.2,1.3
			C3.4,18.3,11.3,17.2,11.3,17.2z"/>
	</g>
</g>
</svg>
