<?xml version="1.0" encoding="utf-8"?>
<!-- Generator: Adobe Illustrator 24.1.2, SVG Export Plug-In . SVG Version: 6.00 Build 0)  -->
<svg version="1.1" id="Layer_1" xmlns="http://www.w3.org/2000/svg" xmlns:xlink="http://www.w3.org/1999/xlink" x="0px" y="0px"
	 viewBox="0 0 54.7 54.7" style="enable-background:new 0 0 54.7 54.7;" xml:space="preserve">
<style type="text/css">
	.st0{fill:none;}
	.st1{fill:#555555;}
	.st2{opacity:0.4;fill:#555555;enable-background:new    ;}
</style>
<g id="Layer_2_1_">
	<g id="Layer_2-2">
		<path class="st0" d="M14.6,37.4h-0.3H14.6z"/>
		<path class="st0" d="M8.5,35.8h0.2H8.5z"/>
		<path class="st0" d="M10.6,37.3l-0.3-0.1L10.6,37.3z"/>
		<path class="st0" d="M11.4,37.4H11H11.4z"/>
		<path class="st0" d="M14.1,37.5h-0.4H14.1z"/>
		<path class="st0" d="M13.5,37.5H13H13.5z"/>
		<path class="st0" d="M12.8,37.5L12.8,37.5z"/>
		<path class="st0" d="M17.4,39.7h-0.5H17.4z"/>
		<path class="st0" d="M7.2,36.3l-0.3-0.1L7.2,36.3z"/>
		<path class="st0" d="M6.9,35.8L6.9,35.8z"/>
		<path class="st0" d="M8.1,36.6l-0.3-0.1L8.1,36.6z"/>
		<path class="st0" d="M8.9,36.9l-0.4-0.1L8.9,36.9z"/>
		<path class="st0" d="M12.1,37.5h-0.3H12.1z"/>
		<path class="st0" d="M14.7,39.6h-0.1H14.7z"/>
		<path class="st0" d="M15.1,37.3l-0.3,0L15.1,37.3z"/>
		<path class="st0" d="M15.7,39.7L15.7,39.7z"/>
		<path class="st0" d="M16.3,39.7L16.3,39.7z"/>
		<path class="st0" d="M14.4,39.5h-0.1H14.4z"/>
		<path class="st0" d="M15.2,39.7H15H15.2z"/>
		<path class="st0" d="M16.1,37.1l-0.3,0.1L16.1,37.1z"/>
		<path class="st0" d="M15.6,37.2l-0.3,0.1L15.6,37.2z"/>
		<path class="st0" d="M13.7,39.3L13.7,39.3z"/>
		<path class="st0" d="M14.1,39.5H14H14.1z"/>
		<path class="st0" d="M13.9,39.4L13.9,39.4L13.9,39.4z"/>
		<path class="st0" d="M9.8,37.2l-0.4-0.1L9.8,37.2z"/>
		<path class="st0" d="M10.1,35.5L10.1,35.5z"/>
		<path class="st0" d="M7.9,35.8L7.9,35.8z"/>
		<path class="st0" d="M11.3,35.1l0.1-0.1L11.3,35.1z"/>
		<path class="st0" d="M9.3,35.7h0.2H9.3z"/>
		<path class="st0" d="M16.2,37.1l0.4-0.1l0,0L16.2,37.1z"/>
		<path class="st0" d="M10.8,35.3l0.2-0.1L10.8,35.3z"/>
		<path class="st0" d="M4.6,27.8c0.3,0,0.6,0,0.9,0C5.2,27.8,4.9,27.8,4.6,27.8z"/>
		<path class="st0" d="M3.9,31.2L3.9,31.2z"/>
		<path class="st0" d="M10.4,29.8c0,0.1-0.1,0.1-0.2,0.1C10.3,29.9,10.4,29.9,10.4,29.8z"/>
		<path class="st0" d="M10.4,29.3c0,0,0.1,0.1,0.1,0.1C10.5,29.4,10.4,29.4,10.4,29.3z"/>
		<path class="st0" d="M10.5,29.5c0,0,0,0.1,0,0.1C10.5,29.6,10.5,29.5,10.5,29.5z"/>
		<path class="st0" d="M10,30.1l0.2-0.1L10,30.1z"/>
		<path class="st0" d="M9.3,28.7L9,28.6L9.3,28.7z"/>
		<path class="st0" d="M9.8,29l-0.2-0.1L9.8,29z"/>
		<path class="st0" d="M10.4,29.8c0,0,0.1-0.1,0.1-0.1C10.5,29.7,10.5,29.7,10.4,29.8z"/>
		<path class="st0" d="M9.2,30.4l0.4-0.1L9.2,30.4z"/>
		<path class="st0" d="M9.6,30.3c0.1,0,0.2-0.1,0.3-0.1C9.8,30.2,9.7,30.2,9.6,30.3z"/>
		<path class="st0" d="M8.7,30.5l0.4-0.1L8.7,30.5z"/>
		<path class="st0" d="M6.5,27.9c-0.1,0-0.1,0-0.2,0C6.3,27.9,6.4,27.9,6.5,27.9z"/>
		<path class="st0" d="M4.6,27.8c0.3-0.2,0.5-0.4,0.8-0.5C5.1,27.5,4.8,27.7,4.6,27.8z"/>
		<path class="st0" d="M8,28.2l-0.3-0.1L8,28.2z"/>
		<path class="st0" d="M5.6,27.2c0.3-0.1,0.5-0.2,0.8-0.4C6.2,27,5.9,27.1,5.6,27.2z"/>
		<path class="st0" d="M8.6,28.4l-0.3-0.1L8.6,28.4z"/>
		<path class="st0" d="M7.3,28L7,27.9L7.3,28z"/>
		<path class="st0" d="M1.5,31.1c0.3,0,0.5,0,0.8,0.1C2,31.2,1.8,31.2,1.5,31.1z"/>
		<path class="st0" d="M8.1,30.7l0.4-0.1L8.1,30.7z"/>
		<path class="st0" d="M4,31.2h0.6H4z"/>
		<path class="st0" d="M0,30.8C0.2,30.9,0.5,31,0.7,31C0.5,31,0.2,30.9,0,30.8z"/>
		<path class="st0" d="M0.7,31c0.2,0,0.5,0.1,0.7,0.1C1.2,31.1,1,31.1,0.7,31z"/>
		<path class="st0" d="M2.4,31.2h0.8H2.4z"/>
		<path class="st0" d="M7.5,30.8L8,30.7L7.5,30.8z"/>
		<path class="st0" d="M6.9,30.9l0.5-0.1L6.9,30.9z"/>
		<path class="st0" d="M4.7,31.2l0.6,0L4.7,31.2z"/>
		<path class="st0" d="M6.2,31l0.6-0.1L6.2,31z"/>
		<path class="st0" d="M5.5,31.1L6,31L5.5,31.1z"/>
		<path class="st0" d="M15.3,23.5h0.3H15.3z"/>
		<polygon class="st0" points="31.7,20.6 31.7,20.6 43.7,31.1 		"/>
		<path class="st0" d="M6.5,26.8c0.3-0.1,0.6-0.2,0.9-0.3C7.1,26.6,6.8,26.7,6.5,26.8z"/>
		<polygon class="st0" points="33,42.6 43.7,31.1 33,42.6 		"/>
		<path class="st0" d="M18.1,39.6l-0.4,0.1L18.1,39.6z"/>
		<path class="st0" d="M16.2,23.6l0.4,0.1L16.2,23.6z"/>
		<path class="st0" d="M21.6,38.7L20.7,39L21.6,38.7z"/>
		<path class="st0" d="M18.8,39.5l-0.5,0.1L18.8,39.5z"/>
		<path class="st0" d="M19.6,39.3l-0.5,0.1L19.6,39.3z"/>
		<path class="st0" d="M23.5,37.5c-0.3,0.4-0.7,0.7-1.2,0.9C22.8,38.1,23.2,37.8,23.5,37.5z"/>
		<path class="st0" d="M14.6,23.4L14.6,23.4z"/>
		<path class="st0" d="M20.5,39l-0.6,0.2L20.5,39z"/>
		<path class="st0" d="M17.3,23.8l0.4,0.1L17.3,23.8z"/>
		<path class="st0" d="M11,26.3h0.3H11z"/>
		<path class="st0" d="M10,26.3H9.7c0.2,0,0.4,0,0.5,0H10z"/>
		<path class="st0" d="M8.6,26.3c0.3,0,0.6-0.1,0.9-0.1C9.1,26.3,8.9,26.3,8.6,26.3z"/>
		<path class="st0" d="M7.6,26.5l0.8-0.2L7.6,26.5z"/>
		<path class="st0" d="M10.9,24.7L10.9,24.7z"/>
		<path class="st0" d="M11.6,24.1l0.1-0.1L11.6,24.1z"/>
		<path class="st0" d="M11,24.5L11,24.5z"/>
		<path class="st0" d="M12.2,23.8L12.2,23.8L12.2,23.8z"/>
		<path class="st0" d="M12.8,23.7l0.2,0L12.8,23.7z"/>
		<path class="st0" d="M13.5,23.5h0.1H13.5z"/>
		<path class="st0" d="M11.3,24.3L11.3,24.3L11.3,24.3z"/>
		<path class="st1" d="M11.5,35.1l-0.1,0.1c-0.1,0-0.3,0.1-0.4,0.2l-0.2,0.1l-0.6,0.2l0,0l-0.7,0.1H9.3l-0.5,0.1H8.6H7.9H7.7H7.2
			H6.9c-0.3,0-0.6-0.1-0.9-0.1c0.3,0.2,0.6,0.3,0.8,0.5l0.3,0.1l0.6,0.3l0.3,0.1l0.5,0.2l0.4,0.1L9.4,37l0.4,0.1l0.5,0.1l0.3,0.1
			l0.5,0.1h0.3h0.5h0.3h0.5H13h0.4h0.2H14h0.2h0.3h0.2l0.3,0h0.2l0.3-0.1h0.2l0.3-0.1h0.1l0.4-0.1l0,0c0.1,0.6-0.3,1.2-0.8,1.5
			c-0.6,0.4-1.4,0.7-2.1,0.8l0,0l0,0h0.1h0.1h0.1H14h0.2h0.1h0.2h0.1h0.3h0.2h0.4h0.1h0.6h0.7h0.5h0.2l0.4-0.1h0.3l0.5-0.1l0.3-0.1
			l0.5-0.1l0.3-0.1l0.6-0.2l0.3-0.1l0.9-0.3c0.2-0.1,0.5-0.2,0.7-0.3c0.4-0.2,0.8-0.5,1.2-0.9c0.2-0.2,0.3-0.4,0.5-0.5l8.6-0.3
			l0.5,6.2l10.7-11.5l-12-10.4l0.2,6.2l-10.3-1c-0.8-0.7-1.7-1.2-2.7-1.5c-0.4-0.1-0.8-0.3-1.2-0.4l-0.4-0.1l-0.7-0.2l-0.4-0.1
			l-0.6-0.1h-0.3h-0.6h-0.3c-0.3,0-0.6,0-0.8,0h-0.1l-0.6,0.1l-0.2,0l-0.5,0.2h-0.1c-0.2,0.1-0.3,0.1-0.5,0.2l-0.1,0.1
			c-0.1,0-0.2,0.1-0.3,0.2h-0.1c-0.1,0.1-0.2,0.1-0.2,0.2l0,0L11,24.7l0,0l0,0c0,0,2.5,0.5,3.3,1.8h-1.8c-0.3-0.1-0.7-0.1-1-0.1
			l-0.4,0c-0.3,0-0.5,0-0.8,0s-0.3,0-0.5,0H9.4c-0.3,0-0.6,0-0.9,0.1H8.4l-0.8,0.1l-0.2,0.1c-0.3,0.1-0.6,0.2-0.9,0.3H6.4
			c-0.3,0.1-0.5,0.2-0.8,0.4l-0.2,0.1c-0.3,0.2-0.6,0.3-0.8,0.5c0.3,0,0.6,0,0.9,0l0,0c0.3,0,0.5,0,0.8,0c0.1,0,0.1,0,0.2,0
			c0.2,0,0.4,0.1,0.5,0.1L7.3,28l0.4,0.1L8,28.2l0.4,0.1l0.3,0.1L9,28.6l0.2,0.1l0.4,0.2L9.8,29l0.5,0.3c0,0,0.1,0.1,0.1,0.1l0,0
			c0,0,0,0.1,0,0.1l0,0c0,0.1,0,0.1-0.1,0.1l0,0c0,0.1-0.1,0.1-0.2,0.1l0,0L10,30H9.9c-0.1,0.1-0.2,0.1-0.3,0.1l0,0l-0.4,0.1H9.2
			l-0.4,0.1H8.6l-0.4,0.1H8.1l-0.5,0.1H7.4l-0.5,0.1H6.8l-0.6,0.1L6,31l-0.6,0.1H5.4l-0.6,0H4.6H4H3.2H2.4H2.3c-0.3,0-0.5,0-0.8-0.1
			H1.5C1.2,31.1,1,31,0.7,31l0,0c-0.2,0-0.5-0.1-0.7-0.1c3.7,2.2,7.7,3.5,11.9,4C11.8,34.9,11.6,35,11.5,35.1z"/>
		<polygon class="st2" points="36.7,43.3 47.7,30.3 34.7,19.3 39.7,7.3 41.7,19.3 46.7,11.3 45.7,21.3 52.7,15.3 48.7,26.3 
			53.7,29.3 49.7,34.3 54.7,41.3 46.7,37.3 50.7,44.3 42.7,40.3 46.7,47.3 		"/>
	</g>
</g>
</svg>
