<?xml version="1.0" encoding="utf-8"?>
<!-- Generator: Adobe Illustrator 24.1.2, SVG Export Plug-In . SVG Version: 6.00 Build 0)  -->
<svg version="1.1" id="Layer_1" xmlns="http://www.w3.org/2000/svg" xmlns:xlink="http://www.w3.org/1999/xlink" x="0px" y="0px"
	 viewBox="0 0 52.3 52.3" style="enable-background:new 0 0 52.3 52.3;" xml:space="preserve">
<style type="text/css">
	.st0{opacity:0.4;}
	.st1{fill:#555555;}
</style>
<g id="Layer_2_1_">
	<g id="Layer_2-2">
		<g class="st0">
			<polygon class="st1" points="8.2,33.2 8.2,40.5 13.6,36 13.6,28.7 			"/>
			<polygon class="st1" points="38.5,35.9 44.2,40.5 44.2,33.2 38.5,28.6 38.5,33.9 			"/>
			<polygon class="st1" points="38.1,45.7 37.9,47.2 44.2,52.3 44.2,45 38.7,40.5 38.7,45.3 			"/>
			<path class="st1" d="M14.3,45.8l-0.6-0.5v-4.9L8.2,45v7.4l6.5-5.4v-1C14.5,45.9,14.4,45.9,14.3,45.8z"/>
			<path class="st1" d="M14.7,13.7c0-0.1,0-0.2,0.1-0.3l0.3-0.9l0.1,0.1c1.6-2.1,6.6-3.1,11-3.1c2.1,0,4.1,0.2,6.1,0.6
				c0.9-0.6,2-0.4,2.7,0.4c0.2,0.2,0.3,0.4,0.3,0.6c0.7,0.3,1.4,0.8,1.9,1.4l0.2-0.2l0.2,1c0,0.1,0,0.1,0,0.2l0.9,4.3l0.2,1.7
				l-0.1,4.5l5.6,4.6v-14L26.2,0l-18,14.7v14l5.5-4.5v-5L14.7,13.7z"/>
		</g>
		<path class="st1" d="M26.3,51.4c5.7,0,10-1.6,10-3h-20C16.3,49.8,20.5,51.4,26.3,51.4z"/>
		<path class="st1" d="M15.9,46.3l0.1,0.6l0.3,1.5h20v-2c-3.2,1.1-6.6,1.7-10,1.6C22.7,48.1,19.2,47.5,15.9,46.3z"/>
		<path class="st1" d="M26.3,21L26.3,21c1.6,0,3.2-0.1,4.8-0.3L26.3,21z"/>
		<path class="st1" d="M26.3,22c-3.9,0-7.9-0.6-10.5-1.8l0,0l-0.5-0.3v24.8c1.8,1.2,5.8,2.3,11,2.3s9.2-1,11-2.3V19.9
			C34.8,21.3,30.4,22,26.3,22z M35.3,33.9c0,5-4,9-9,9s-9-4-9-9s4-9,9-9S35.3,28.9,35.3,33.9C35.3,33.9,35.3,33.9,35.3,33.9z"/>
		<path class="st1" d="M15.8,20.2L15.8,20.2z"/>
		<path class="st1" d="M26.3,18.4c-4.2,0-8.6-0.9-10.3-2.5l-0.6,3C17.2,20,21.2,21,26.3,21l4.8-0.3c2.2-0.2,4.2-0.9,6.1-1.9l-0.6-3
			C34.9,17.5,30.5,18.4,26.3,18.4z"/>
		<path class="st1" d="M30.5,13c-0.2,0.2-0.3,0.4-0.3,0.6c0.5-0.2,1.1-0.3,1.6-0.3c0.4,0,0.9,0,1.3,0.1l1-0.8l0.1-0.1
			c-0.7-0.3-1.5-0.5-2.3-0.7L30.5,13z"/>
		<path class="st1" d="M16.3,14.4c0,1.4,4.3,3,10,3s10-1.6,10-3c0-0.4-0.4-0.9-1.2-1.3c-0.1,0.2-0.2,0.3-0.4,0.4L34.1,14
			c0.1,0.1,0.2,0.2,0.2,0.4c0,0.5-0.8,0.9-1.9,1l0,0c-0.4,0.3-0.8,0.4-1.3,0.4h-0.2c-0.5,0-0.9-0.3-1.3-0.6h-0.4c-1.1,0-2-0.4-2-0.8
			s0.8-0.8,1.9-0.8c0.1-0.5,0.3-1,0.7-1.3l0.7-0.6c-1.4-0.2-2.8-0.3-4.3-0.3C20.5,11.4,16.3,13,16.3,14.4z"/>
		<path class="st1" d="M32.3,10.3l-0.1,0.1l-0.6,0.5l-0.3,0.2l-0.7,0.6l-0.7,0.6c-0.4,0.3-0.7,0.8-0.7,1.3l0,0
			c-0.1,0.5,0.1,1.1,0.4,1.5l0.1,0.1c0.3,0.4,0.8,0.6,1.3,0.6h0.2c0.5,0,0.9-0.2,1.3-0.4l0,0l1.7-1.3l0.6-0.5
			c0.2-0.1,0.3-0.3,0.4-0.4c0.1-0.2,0.2-0.4,0.3-0.6c0-0.1,0.1-0.2,0.1-0.3l0,0c0-0.3,0-0.5-0.1-0.8c-0.1-0.2-0.2-0.5-0.3-0.6
			C34.3,9.9,33.2,9.7,32.3,10.3z M34.4,11.6c0,0.1,0,0.2,0,0.4l0,0c0,0.2-0.1,0.4-0.3,0.6L34,12.7l-1,0.8l-1.3,1.1
			c-0.2,0.2-0.5,0.2-0.7,0.2l0,0c-0.2,0-0.5-0.2-0.6-0.4c-0.2-0.2-0.2-0.5-0.2-0.7c0,0,0,0,0-0.1l0,0c0-0.3,0.1-0.5,0.3-0.7l1.4-1.1
			l0.7-0.6l0.3-0.2l0,0c0.2-0.1,0.4-0.2,0.6-0.2c0.3,0,0.6,0.1,0.8,0.4C34.2,11.4,34.3,11.5,34.4,11.6z"/>
		<path class="st1" d="M26.3,24.9c-5,0-9,4-9,9s4,9,9,9s9-4,9-9c0,0,0,0,0,0C35.3,28.9,31.2,24.9,26.3,24.9z M34.3,33.9
			c0,4.4-3.6,8-8,8s-8-3.6-8-8s3.6-8,8-8S34.3,29.5,34.3,33.9C34.3,33.9,34.3,33.9,34.3,33.9z"/>
		<polygon class="st1" points="32.8,32.2 27.9,32.2 27.9,27.3 24.6,27.3 24.6,32.2 19.7,32.2 19.7,35.5 24.6,35.5 24.6,40.4 
			27.9,40.4 27.9,35.5 32.8,35.5 		"/>
	</g>
</g>
</svg>
