<?xml version="1.0" encoding="utf-8"?>
<!-- Generator: Adobe Illustrator 24.1.2, SVG Export Plug-In . SVG Version: 6.00 Build 0)  -->
<svg version="1.1" id="Layer_1" xmlns="http://www.w3.org/2000/svg" xmlns:xlink="http://www.w3.org/1999/xlink" x="0px" y="0px"
	 viewBox="0 0 44.6 44.6" style="enable-background:new 0 0 44.6 44.6;" xml:space="preserve">
<style type="text/css">
	.st0{fill:#555555;}
	.st1{opacity:0.4;}
	.st2{fill:none;}
	.st3{opacity:0.4;fill:#555555;enable-background:new    ;}
</style>
<g id="Layer_2_1_">
	<g id="Layer_2-2">
		<path class="st0" d="M11,43c5.7,0,10-1.6,10-3H1C1,41.4,5.3,43,11,43z"/>
		<path class="st0" d="M0.6,37.9l0.1,0.6L1,40h20v-2c-3.2,1.2-6.6,1.7-10,1.7C7.5,39.8,3.9,39.2,0.6,37.9z"/>
		<path class="st0" d="M11,12.7L11,12.7c1.6,0,3.2-0.1,4.8-0.3L11,12.7z"/>
		<path class="st0" d="M11,13.7c-3.9,0-7.9-0.6-10.5-1.8l0,0c-0.2-0.1-0.4-0.2-0.5-0.3v24.8c1.8,1.2,5.8,2.3,11,2.3s9.2-1,11-2.3
			V11.6C19.5,13,15.2,13.7,11,13.7z M20,25.5c0,5-4,9-9,9s-9-4-9-9s4-9,9-9l0,0C16,16.5,20,20.5,20,25.5z"/>
		<path class="st0" d="M0.5,11.9L0.5,11.9L0.5,11.9z"/>
		<path class="st0" d="M11,10C6.8,10,2.4,9.1,0.7,7.5l-0.6,3c1.8,1.2,5.8,2.2,10.9,2.2l4.8-0.3c2.1-0.2,4.2-0.9,6.1-1.9l-0.6-3
			C19.6,9.1,15.2,10,11,10z"/>
		<path class="st0" d="M15.2,4.7C15,4.8,14.9,5,14.9,5.3C15.4,5.1,15.9,5,16.5,5c0.4,0,0.9,0,1.3,0.1l1-0.8c0,0,0.1-0.1,0.1-0.1
			c-0.7-0.3-1.5-0.5-2.3-0.7L15.2,4.7z"/>
		<path class="st0" d="M1,6c0,1.4,4.3,3,10,3s10-1.6,10-3c0-0.5-0.4-0.9-1.2-1.3c-0.1,0.2-0.2,0.3-0.4,0.4l-0.6,0.5
			C18.9,5.7,19,5.9,19,6c0,0.5-0.8,0.8-1.9,1l0,0c-0.4,0.3-0.8,0.4-1.3,0.4h-0.2c-0.5-0.1-0.9-0.3-1.3-0.7H14c-1.1,0-2-0.4-2-0.8
			s0.8-0.8,1.9-0.8c0.1-0.5,0.3-1,0.7-1.3l0.7-0.6C13.9,3.1,12.4,3,11,3C5.3,3,1,4.6,1,6z"/>
		<path class="st0" d="M17,1.9L16.9,2l-0.6,0.5L16,2.7l-0.7,0.6l-0.7,0.6c-0.4,0.3-0.7,0.8-0.7,1.3l0,0c-0.1,0.5,0.1,1.1,0.4,1.5
			l0.1,0.1c0.3,0.4,0.8,0.6,1.3,0.7h0.2c0.5,0,0.9-0.2,1.2-0.4l0,0l1.7-1.3l0.6-0.5c0.2-0.1,0.3-0.3,0.4-0.5
			c0.1-0.2,0.2-0.4,0.3-0.6c0-0.1,0.1-0.2,0.1-0.3c0,0,0,0,0,0c0-0.3,0-0.5-0.1-0.8c-0.4-1-1.5-1.6-2.5-1.2
			C17.4,1.8,17.2,1.9,17,1.9L17,1.9z M19.1,3.3c0,0.1,0,0.2,0,0.4c0,0,0,0,0,0.1c0,0.2-0.1,0.4-0.3,0.6c0,0-0.1,0.1-0.1,0.1l-1,0.8
			l-1.3,1.1c-0.2,0.2-0.5,0.2-0.7,0.2l0,0c-0.2,0-0.5-0.2-0.6-0.3c-0.2-0.2-0.2-0.5-0.2-0.7c0,0,0,0,0-0.1s0,0,0,0
			c0-0.2,0.2-0.4,0.3-0.6l1.4-1.2L17.3,3l0.3-0.2l0,0c0.2-0.1,0.4-0.2,0.6-0.2c0.3,0,0.6,0.1,0.8,0.4C19,3.1,19.1,3.1,19.1,3.3
			L19.1,3.3z"/>
		<path class="st0" d="M11,16.5c-5,0-9,4-9,9s4,9,9,9s9-4,9-9c0,0,0,0,0,0C20,20.5,16,16.5,11,16.5z M19,25.5c0,4.4-3.6,8-8,8
			s-8-3.6-8-8s3.6-8,8-8S19,21.1,19,25.5C19,25.5,19,25.5,19,25.5z"/>
		<polygon class="st0" points="17.5,23.9 12.6,23.9 12.6,19 9.4,19 9.4,23.9 4.5,23.9 4.5,27.1 9.4,27.1 9.4,32.1 12.6,32.1 
			12.6,27.1 17.5,27.1 		"/>
		<g class="st1">
			<path class="st2" d="M26.2,17.9c0.9-0.4,1.9-0.6,2.8-0.7c-0.7-1.7-1.7-3.2-2.9-4.5c1-0.3,2.1-0.4,3.2-0.4c1.8,0,3.5,0.4,5.1,1.1
				c0.4,1.8,0.1,3.7-0.7,5.3c0.7,0.5,1.3,1.2,1.7,1.9c1.1-1.4,1.9-3.1,2.4-4.8c2,2,3.3,4.7,3.6,7.5c-1.3,1.2-3.1,2-4.9,2.1
				c-0.1,0.9-0.4,1.7-0.8,2.5c1.8,0.3,3.6,0.1,5.3-0.3c-0.7,2.8-2.3,5.2-4.7,6.9c-1.7-0.5-3.3-1.6-4.3-3.1c-0.8,0.3-1.6,0.5-2.5,0.6
				c0.7,1.7,1.7,3.2,3.1,4.4C30,37.2,27,37,24.4,35.8c-0.3-1.3-0.5-3.6,0.5-5.3c-0.5-0.4-1-0.9-1.4-1.4v8.3c7.1,3.2,15.3,0,18.5-7
				s0-15.3-7-18.5c-3.6-1.6-7.8-1.6-11.5,0v3.7C24.6,16.1,25.5,16.9,26.2,17.9z"/>
			<path class="st2" d="M24.3,24.6c0,2.7,2.2,4.9,4.9,4.9s4.9-2.2,4.9-4.9s-2.2-4.9-4.9-4.9c0,0,0,0,0,0
				C26.5,19.7,24.4,21.9,24.3,24.6z M29.2,20.9c2,0,3.7,1.7,3.7,3.7s-1.7,3.7-3.7,3.7c-2,0-3.7-1.6-3.7-3.7
				C25.5,22.5,27.2,20.9,29.2,20.9C29.2,20.9,29.2,20.9,29.2,20.9L29.2,20.9z"/>
			<path class="st3" d="M44.2,28.1L44.2,28.1c0,0.1,0,0.2,0,0.3C44.1,28.3,44.2,28.2,44.2,28.1z"/>
			<path class="st0" d="M24.9,30.5c-1,1.7-0.8,4-0.5,5.3c2.6,1.1,5.6,1.3,8.3,0.5c-1.3-1.2-2.4-2.7-3-4.4c0.9,0,1.7-0.2,2.5-0.6
				c1,1.5,2.6,2.6,4.3,3.1c2.3-1.7,3.9-4.1,4.7-6.8c-1.7,0.5-3.5,0.6-5.3,0.4c0.4-0.8,0.6-1.6,0.8-2.5c1.8-0.1,3.6-0.9,4.9-2.1
				c-0.3-2.8-1.6-5.5-3.6-7.5c-0.5,1.7-1.3,3.4-2.4,4.8c-0.5-0.7-1-1.4-1.7-1.9c0.8-1.6,1-3.5,0.7-5.3c-1.6-0.8-3.4-1.1-5.1-1.1
				c-1.1,0-2.1,0.1-3.2,0.4c1.3,1.3,2.3,2.8,2.9,4.4c-1,0-2,0.3-2.9,0.7c-0.7-1-1.6-1.8-2.6-2.3v13.5C23.9,29.6,24.4,30.1,24.9,30.5
				z M29.2,19.7c2.7,0,4.9,2.2,4.9,4.9c0,2.7-2.2,4.9-4.9,4.9c-2.7,0-4.9-2.2-4.9-4.9C24.3,21.9,26.5,19.7,29.2,19.7
				C29.2,19.7,29.2,19.7,29.2,19.7z"/>
			<path class="st0" d="M44.6,24.6c0-0.2,0-0.3,0-0.5s0-0.2,0-0.3s0-0.2,0-0.3s0-0.3,0-0.5s0-0.1,0-0.1c0-0.5-0.1-0.9-0.2-1.4l0,0
				c-0.1-0.4-0.2-0.9-0.3-1.3v-0.1c-0.1-0.4-0.2-0.8-0.4-1.1c0-0.1-0.1-0.2-0.1-0.3c-0.1-0.3-0.3-0.6-0.4-0.9
				c-0.1-0.1-0.1-0.3-0.2-0.4c-0.2-0.3-0.3-0.5-0.5-0.8s-0.2-0.3-0.3-0.4c-0.1-0.1-0.3-0.5-0.5-0.7L41.3,15
				c-0.2-0.2-0.4-0.4-0.6-0.6l-0.4-0.4c-0.2-0.2-0.4-0.4-0.6-0.6L39.3,13l-0.6-0.5c-0.1-0.1-0.3-0.2-0.4-0.3s-0.5-0.3-0.7-0.5
				l-0.3-0.2c-0.3-0.2-0.6-0.3-0.9-0.5l-0.3-0.1c-0.3-0.2-0.7-0.3-1-0.4l-0.3-0.1c-0.3-0.1-0.7-0.3-1-0.4l-0.3-0.1
				c-0.4-0.1-0.7-0.2-1.1-0.3h-0.3c-0.4-0.1-0.8-0.1-1.1-0.2h-0.2c-0.4,0-0.8-0.1-1.2-0.1h-0.9h-0.2h-0.6h-0.2L27,9.4h-0.2L26,9.6
				h-0.3l-0.4,0.1l-0.5,0.1l-0.3,0.1L24,10.1h-0.1l-0.4,0.2v1.4c7.1-3.2,15.3,0,18.5,7s0,15.3-7,18.5c-3.6,1.6-7.8,1.6-11.5,0v1.5
				l0,0l0.3,0.1c0.3,0.1,0.7,0.2,1,0.4l0.3,0.1c0.4,0.1,0.7,0.2,1.1,0.3l0.3,0c0.4,0.1,0.8,0.1,1.1,0.2H28c0.4,0,0.8,0.1,1.2,0.1H30
				h0.2h0.6h0.2l0.5-0.1h0.2l0.5-0.1l0.3-0.1l0.4-0.1l0.5-0.1l0.3-0.1l0.6-0.2h0.1c3.7-1.4,6.8-4.1,8.5-7.7l0,0
				c0.1-0.2,0.2-0.4,0.3-0.6c0,0,0-0.1,0-0.1c0.1-0.2,0.2-0.4,0.2-0.6c0,0,0-0.1,0-0.1l0.2-0.6v-0.1c0.1-0.2,0.1-0.4,0.2-0.6v-0.1
				c0-0.1,0-0.2,0-0.2S44,28,44,27.9c0,0,0-0.1,0-0.1l0.1-0.7c0,0,0,0,0-0.1l0.1-0.7c0,0,0-0.1,0-0.1c0-0.2,0-0.5,0-0.7
				c0,0,0-0.1,0-0.1c0-0.2,0-0.4,0-0.6c0,0,0-0.1,0-0.1L44.6,24.6z"/>
			<path class="st0" d="M29.2,28.2c2,0,3.7-1.7,3.7-3.7c0-2-1.7-3.7-3.7-3.7c-2,0-3.7,1.7-3.7,3.7c0,0,0,0,0,0
				C25.6,26.6,27.2,28.2,29.2,28.2z"/>
		</g>
	</g>
</g>
</svg>
