<?xml version="1.0" encoding="utf-8"?>
<!-- Generator: Adobe Illustrator 24.1.2, SVG Export Plug-In . SVG Version: 6.00 Build 0)  -->
<svg version="1.1" id="Layer_1" xmlns="http://www.w3.org/2000/svg" xmlns:xlink="http://www.w3.org/1999/xlink" x="0px" y="0px"
	 viewBox="0 0 47.7 47.7" style="enable-background:new 0 0 47.7 47.7;" xml:space="preserve">
<style type="text/css">
	.st0{fill:none;}
	.st1{opacity:0.4;fill:#555555;enable-background:new    ;}
	.st2{fill:#555555;}
	.st3{fill:#FFFFFF;}
</style>
<g id="Layer_2_1_">
	<g id="Layer_2-2">
		<path class="st0" d="M14,36.3c2.8,2.6,6.5,4.2,10.3,4.4v-2.1c-4-0.3-7.8-2.2-10.3-5.3V36.3z"/>
		<path class="st0" d="M14,18.1v13.5c4.3,6.3,12.8,7.9,19.1,3.6s7.9-12.8,3.6-19.1s-12.8-7.9-19.1-3.6c-1.4,1-2.6,2.2-3.6,3.6V18.1
			L14,18.1z M31.3,33.7l-3.6,0.1v-1.6l3.6-0.1L31.3,33.7z M31.3,31.6l-3.6,0.1l-0.2-10.2l3.5-0.1L31.3,31.6z M29.1,15.9
			c0.8,0,1.9,4.7,1.9,4.7v0.3l-3.6,0.1v-0.3C27.4,20.7,28.4,15.9,29.1,15.9z M23.3,29.7l-3.6,0.1v-1.6l3.6-0.1L23.3,29.7z
			 M23.3,27.6l-3.6,0.1l-0.2-10.2l3.5-0.1L23.3,27.6z M21.1,11.9c0.8,0,1.9,4.7,1.9,4.7v0.3l-3.6,0.1v-0.3
			C19.4,16.7,20.4,11.9,21.1,11.9z"/>
		<path class="st0" d="M26.3,38.5v2.1c8.5-0.5,15.2-7.3,15.8-15.8H40C39.5,32.2,33.7,38,26.3,38.5z"/>
		<path class="st0" d="M14,14.5c2.6-3.1,6.3-5,10.3-5.3V7.1c-3.9,0.2-7.5,1.8-10.3,4.4V14.5L14,14.5z"/>
		<path class="st0" d="M26.3,7.1v2.1c7.3,0.5,13.2,6.4,13.7,13.7h2.1C41.6,14.4,34.8,7.6,26.3,7.1z"/>
		<path class="st1" d="M44.1,22.9c-0.5-9.6-8.2-17.2-17.8-17.8V1.3h-2v3.8C20.6,5.3,17,6.6,14,8.9v2.6c2.8-2.6,6.5-4.2,10.3-4.4v2.1
			c-4,0.3-7.8,2.2-10.3,5.3v1.7c4.3-6.3,12.8-7.9,19.1-3.6s7.9,12.8,3.6,19.1s-12.8,7.9-19.1,3.6c-1.4-1-2.6-2.2-3.6-3.6v1.7
			c2.6,3.1,6.3,5,10.3,5.3v2.1c-3.8-0.2-7.5-1.7-10.3-4.3v2.6c3,2.3,6.6,3.6,10.3,3.8v3.8h2v-3.9c9.6-0.5,17.2-8.2,17.8-17.8h3.6v-2
			H44.1z M26.3,40.6v-2.1C33.7,38,39.5,32.2,40,24.9h2.1C41.6,33.3,34.8,40.1,26.3,40.6z M40,22.9c-0.5-7.3-6.3-13.2-13.7-13.7V7.1
			c8.5,0.5,15.2,7.3,15.8,15.8H40z"/>
		<path class="st2" d="M23,16.9v-0.3c0,0-1.1-4.8-1.9-4.7s-1.7,4.8-1.7,4.8v0.3L23,16.9z"/>
		
			<rect x="19.5" y="17.4" transform="matrix(0.9998 -1.745241e-02 1.745241e-02 0.9998 -0.3897 0.3758)" class="st2" width="3.6" height="10.2"/>
		
			<rect x="19.7" y="28.1" transform="matrix(0.9998 -1.762691e-02 1.762691e-02 0.9998 -0.5067 0.3827)" class="st2" width="3.6" height="1.6"/>
		
			<rect x="27.5" y="21.4" transform="matrix(0.9998 -1.745241e-02 1.745241e-02 0.9998 -0.4583 0.516)" class="st2" width="3.6" height="10.2"/>
		<path class="st2" d="M31,20.9v-0.3c0,0-1.1-4.8-1.9-4.7s-1.7,4.8-1.7,4.8v0.3L31,20.9z"/>
		
			<rect x="27.7" y="32.1" transform="matrix(0.9998 -1.762691e-02 1.762691e-02 0.9998 -0.5759 0.5243)" class="st2" width="3.6" height="1.6"/>
		<polygon class="st2" points="1,33.1 0,33.1 0,34.1 0,38.1 0,39.1 1,39.1 12,39.1 13,39.1 13,38.1 13,34.1 13,33.1 12,33.1 		"/>
		<path class="st2" d="M1,25.1H0v6h13v-6H1z M12,30.1H1v-4h11V30.1z"/>
		<rect x="1" y="26.1" class="st3" width="11" height="4"/>
		<path class="st2" d="M1,17.1H0v6h13v-6H1z M12,22.1H1v-4h11V22.1z"/>
		<rect x="1" y="18.1" class="st3" width="11" height="4"/>
		<path class="st2" d="M1,9.1H0v6h13v-6C13,9.1,1,9.1,1,9.1z M12,14.1H1v-4h11V14.1z"/>
		<rect x="1" y="10.1" class="st3" width="11" height="4"/>
	</g>
</g>
</svg>
