<?xml version="1.0" encoding="utf-8"?>
<!-- Generator: Adobe Illustrator 24.1.2, SVG Export Plug-In . SVG Version: 6.00 Build 0)  -->
<svg version="1.1" id="Layer_1" xmlns="http://www.w3.org/2000/svg" xmlns:xlink="http://www.w3.org/1999/xlink" x="0px" y="0px"
	 viewBox="0 0 53.6 53.6" style="enable-background:new 0 0 53.6 53.6;" xml:space="preserve">
<style type="text/css">
	.st0{opacity:0.4;}
	.st1{fill:#555555;}
</style>
<g class="st0">
	<path class="st1" d="M0.6,44.7c0,0,1.5,1.6,7.1,8.9c3.6-2.2,7.1-4.6,10.3-7.2l-7.2-9.3C5.1,41.7,0.6,44.7,0.6,44.7z"/>
</g>
<g class="st0">
	<path class="st1" d="M46.5,6.7c0,0-4.3-4.9-10.1-6.7c0.5,2.8-0.3,6.2-1.8,9.6l9,5.2C45.5,10.2,46.6,6.7,46.5,6.7z"/>
</g>
<path class="st1" d="M18.1,30.4l8.4,9.1l3.1-2.9c0-0.1,0.1-0.2,0.1-0.3l-8.2-9L18.1,30.4z M15.4,25.6c0.6,1.3,1.3,2.6,2,3.8l0.2,0.2
	l3.4-3.1l-0.1-0.1l-0.1-0.1l-0.2-0.1c-0.1,0-0.1-0.1-0.2-0.1L20.2,26L20,25.9l-0.1-0.1l-0.4-0.2l-0.1-0.1l-0.3-0.2l-0.2-0.1L18.6,25
	l-0.1-0.1l-0.3-0.2L18,24.6l-0.3-0.2l-0.2-0.1l-0.4-0.2L17,24l-0.5-0.2h-0.1L16,23.6h-0.1l-0.3-0.1h-0.5c-0.1,0-0.2,0-0.3,0.1
	s-0.1,0.3-0.1,0.5l0.3,1.2L15.4,25.6L15.4,25.6z M28.8,38.7l-1.7,1.5l0.2,0.2l1.2,1.3l0.3-0.3V41c0-0.9,0.1-1.7,0.3-2.6L28.8,38.7z
	 M23.1,25.2l4.8,4.4l3.8,3.5c1-1.2,2.2-2.2,3.5-2.9L30.8,26l-4.6-4.2C26.2,21.8,23.1,25.2,23.1,25.2z M20.1,21.2
	c0.9,1.5,2,3.1,2,3.1l0.2,0.2l3.1-3.4l-0.2-0.2l-0.1-0.1h-0.2l-0.1-0.1l-0.1-0.1l-0.2-0.1l-0.2-0.1l-0.2-0.1l-0.2-0.1L23.7,20h-0.2
	l-0.3-0.1L23,19.8l-0.4-0.2l-0.1-0.1L22,19.3h-0.1L21.5,19l-0.2-0.1L21,18.8l-0.2-0.1l-0.3-0.1h-0.2l-0.2-0.1h-0.8
	c-0.1,0-0.1,0-0.2,0.1c0,0.1-0.1,0.1-0.1,0.2v0.3C19.3,19.8,19.7,20.5,20.1,21.2z M39.5,25l-9.7-7.7l-2.2,2.9l9.7,7.6L39.5,25z
	 M24.5,17.1l0.7,0.9c0.7,0.8,1.3,1.5,1.3,1.5l0.2,0.2l2.2-2.9l-0.2-0.1l-0.2-0.3l-0.2-0.1h-0.1l-0.3-0.1l-0.1-0.1L27.6,16l-0.1-0.1
	l-0.3-0.1L27,15.7l-0.3-0.2l-0.2-0.1l-0.4-0.2L26,15.1l-0.5-0.2L25,14.7h-0.1l-0.4-0.2l-0.2-0.1L24,14.3h-0.2l-0.2-0.1H23
	c-0.1,0-0.1,0-0.1,0.1v0.4C23.4,15.6,23.9,16.4,24.5,17.1z M40.6,28.5l1.3-1.7l-1.6-1.3L39.3,27l-1.1,1.4l0.5,0.4
	C39.3,28.6,40,28.5,40.6,28.5z M31.1,15l3.5,2.1l7.1,4.3l1.8-3.1l-10.6-6.4C32.9,11.9,31.1,15,31.1,15z M29.5,13.9l0.5,0.4l0.1,0.1
	l0.1,0.1l0.9-1.6l0.9-1.6l-0.1-0.1l-0.1-0.1L31.6,11h-0.4l-0.3-0.1h-0.1l-0.3-0.1h-0.1L30,10.7h-0.1l-0.4-0.3h-0.1L29,10.3l-0.2-0.1
	l-0.3-0.1L28.3,10L28,9.9l-0.2-0.1l-0.3-0.1h-0.2L27,9.6h-1.1c-0.1,0-0.1,0-0.1,0.1v0.2c0,0.2,0.1,0.3,0.2,0.4
	C27,11.7,28.3,12.9,29.5,13.9z M42.8,22l0.4,0.3l1.1,0.6l0.6-1l1.2-2.1l-1.7-1l-1.9,3.1L42.8,22z M16.4,31.8l-3.6,2.8l3.9,4.9
	l3.8,4.8l3.6-2.8L16.4,31.8z M15.8,31l-0.2-0.2l-0.2-0.1l-0.1-0.1l-0.1-0.1c-0.1,0-0.1-0.1-0.1-0.1l-0.1-0.1l-0.2-0.1l-0.2-0.3
	l-0.2-0.1l-0.2-0.2l-0.2-0.1l-0.2-0.2l-0.2-0.1L13.3,29l-0.2-0.2l-0.3-0.2l-0.2-0.1l-0.3-0.2l-0.2-0.1L11.9,28l-0.2-0.1l-0.3-0.2
	l-0.1-0.1l-0.4-0.2h-0.6c-0.1,0-0.2,0-0.2,0.1c-0.1,0.1-0.2,0.3-0.1,0.5v0.4c0.1,0.5,0.2,1,0.4,1.4c0.5,1.4,1.1,2.7,1.7,4l0.2,0.2
	l1-0.7L15.8,31L15.8,31z M24.6,42.3l-1.8,1.4l-1.8,1.4l1.2,1.6l3.6-2.8l-0.6-0.8L24.6,42.3z"/>
<g class="st0">
	<path class="st1" d="M52.8,39.3c0-0.2,0-0.4-0.1-0.6s-0.1-0.6-0.2-0.8c-0.1-0.3-0.2-0.5-0.3-0.8c-0.2-0.5-0.4-1-0.7-1.5
		c-0.4-0.7-0.8-1.3-1.2-1.8c-0.5-0.6-1-1.1-1.6-1.6c-0.5-0.4-1-0.8-1.6-1.1c-0.3-0.2-0.6-0.3-0.9-0.5c-5.2-2.4-11.3-0.7-14.5,4
		c-0.3,0.5-0.6,1-0.9,1.6c-0.1,0.1-0.1,0.3-0.2,0.4c-0.1,0.3-0.3,0.7-0.4,1.1c-0.3,1-0.5,1.9-0.5,2.9v0.5c0,0.4,0,0.8,0.1,1.2
		c0.2,1.5,0.6,3,1.3,4.3c0.5,1,1.2,1.9,2,2.7l0.8,0.8c0.3,0.3,0.6,0.5,0.9,0.7s0.5,0.3,0.7,0.5s0.5,0.3,0.7,0.4
		c3.2,1.5,6.8,1.5,10,0c0.3-0.1,0.5-0.3,0.7-0.4s0.5-0.3,0.7-0.5s0.6-0.4,0.9-0.7s0.6-0.5,0.8-0.8c0.5-0.5,1-1.1,1.4-1.7
		c0.2-0.3,0.4-0.7,0.6-1c0.4-0.7,0.8-1.5,1-2.3c0.1-0.3,0.1-0.6,0.2-0.8c0-0.2,0.1-0.4,0.1-0.6c0-0.4,0.1-0.8,0.1-1.2v-0.6v-0.6
		C53,40.1,53,39.7,52.8,39.3L52.8,39.3z M48,42.1h-5.6v5.6h-2v-5.6h-5.6v-2h5.6v-5.6h2v5.6H48V42.1z"/>
</g>
</svg>
