<?xml version="1.0" encoding="utf-8"?>
<!-- Generator: Adobe Illustrator 24.1.2, SVG Export Plug-In . SVG Version: 6.00 Build 0)  -->
<svg version="1.1" id="Layer_1" xmlns="http://www.w3.org/2000/svg" xmlns:xlink="http://www.w3.org/1999/xlink" x="0px" y="0px"
	 viewBox="0 0 52.3 52.3" style="enable-background:new 0 0 52.3 52.3;" xml:space="preserve">
<style type="text/css">
	.st0{opacity:0.4;fill:#555555;enable-background:new    ;}
	.st1{fill:#555555;}
</style>
<g id="Layer_2_1_">
	<g id="Layer_2-2">
		<path class="st0" d="M44.2,40.5v-7.4l-1.6-1.3c-0.3,2-1,3.9-2,5.7L44.2,40.5z"/>
		<path class="st0" d="M8.2,33.2v7.4l3.7-3c-1-1.8-1.7-3.7-2-5.7L8.2,33.2z"/>
		<path class="st0" d="M33.9,43.9l10.3,8.4V45l-5.7-4.7C37.2,41.8,35.6,43,33.9,43.9z"/>
		<path class="st0" d="M13.8,40.3L8.2,45v7.4l10.3-8.4C16.7,43,15.2,41.8,13.8,40.3z"/>
		<path class="st0" d="M44.2,14.7L26.2,0l-18,14.7v14l1.4-1.2c0.9-9.1,9-15.8,18.2-14.9c7.9,0.8,14.1,7,14.9,14.9l1.5,1.2V14.7z"/>
		<path class="st1" d="M26.2,14.5c-8.1,0-14.6,6.6-14.6,14.6s6.6,14.6,14.6,14.6s14.6-6.6,14.6-14.6l0,0
			C40.8,21.1,34.2,14.5,26.2,14.5z M38.8,29.2c0,7-5.7,12.6-12.6,12.6c-7,0-12.6-5.7-12.6-12.6c0-7,5.7-12.6,12.6-12.6h0
			C33.1,16.5,38.8,22.2,38.8,29.2z"/>
		<polygon class="st1" points="36.5,26.5 28.8,26.5 28.8,26.5 28.8,18.7 23.5,18.7 23.5,26.5 23.5,26.5 23.5,26.5 15.9,26.5 
			15.7,26.5 15.7,31.8 23.5,31.8 23.5,31.8 23.5,39.7 28.8,39.7 28.8,31.8 36.7,31.8 36.7,26.5 		"/>
	</g>
</g>
</svg>
