<?xml version="1.0" encoding="utf-8"?>
<!-- Generator: Adobe Illustrator 24.1.2, SVG Export Plug-In . SVG Version: 6.00 Build 0)  -->
<svg version="1.1" id="Layer_1" xmlns="http://www.w3.org/2000/svg" xmlns:xlink="http://www.w3.org/1999/xlink" x="0px" y="0px"
	 viewBox="0 0 52.3 52.3" style="enable-background:new 0 0 52.3 52.3;" xml:space="preserve">
<style type="text/css">
	.st0{fill:none;}
	.st1{fill:#555555;}
	.st2{opacity:0.4;fill:#555555;enable-background:new    ;}
</style>
<g id="Layer_2_1_">
	<g id="Layer_2-2">
		<path class="st0" d="M24.6,43.4h-5.1l-0.2-0.2l0,0l0.2,0.2H24.6l3.9-3.9l0,0L24.6,43.4z"/>
		<polygon class="st0" points="12.9,36.7 12.9,36.7 15.3,39.1 15.3,39.1 		"/>
		<polygon class="st0" points="32.6,35.5 32.6,35.5 35,33 35,33 		"/>
		<polygon class="st0" points="39,29 39,29 41.5,26.5 41.5,26.5 		"/>
		<polygon class="st1" points="8.9,32.8 12.9,36.7 12.9,36.7 		"/>
		<polygon class="st2" points="8.2,40.5 11.3,38 8.2,34.8 		"/>
		<polygon class="st2" points="44.2,40.5 44.2,33.2 40.6,30.3 36.5,34.3 		"/>
		<polygon class="st1" points="23.5,26.2 20.7,29 23.5,26.2 		"/>
		<polygon class="st1" points="35,33 35,33 39,29 39,29 		"/>
		<polygon class="st1" points="31.7,29 28.8,26.2 28.8,26.2 		"/>
		<polygon class="st2" points="8.2,45 8.2,52.3 17.8,44.4 13.7,40.4 		"/>
		<polygon class="st2" points="44.2,52.3 44.2,45 34.1,36.7 30.1,40.8 		"/>
		<polygon class="st1" points="28.5,39.5 28.5,39.5 32.6,35.5 32.6,35.5 		"/>
		<polygon class="st1" points="15.3,39.1 15.3,39.1 19.4,43.2 19.4,43.2 		"/>
		<polygon class="st1" points="43.4,19.6 38.1,14.3 43.4,19.6 		"/>
		<polygon class="st1" points="41.5,26.5 43.4,24.6 41.5,26.5 		"/>
		<polygon class="st1" points="11.6,18.5 11.6,18.5 11.6,25.1 11.6,25.1 		"/>
		<polygon class="st1" points="14.4,19.7 14.4,19.7 16.3,17.8 		"/>
		<polygon class="st2" points="9.6,18.5 9.6,17.6 10.1,17.1 14.4,12.8 17.1,10.1 17.6,9.6 18.5,9.6 24.2,9.6 26.3,7.5 26.8,6.9 
			27.7,6.9 32.8,6.9 33.6,6.9 34.2,7.5 44.2,17.5 44.2,14.7 26.2,0 8.2,14.7 8.2,25.6 9.6,24.2 		"/>
		<polygon class="st1" points="44.2,28.7 44.2,26.7 43,27.8 		"/>
		<path class="st1" d="M8.9,32.8l3.9,3.9l2.4,2.4l4.1,4l0.2,0.2h5.1l3.9-3.9l4-4L35,33l4-4l2.4-2.4l1.9-1.9v-5.1l-5.3-5.3l-5.3-5.3
			h-5.1l-2.6,2.6h-6.6l-2.7,2.7l-4.2,4.2v6.6l0,0l-2.6,2.6V32.8z M31.7,23.3l-2.9,2.9l2.9,2.8L29,31.6l-2.9-2.8l-2.9,2.9L20.7,29
			l2.9-2.9l-2.9-2.8l2.6-2.6l2.9,2.9l2.9-2.9L31.7,23.3z M14.4,19.7L14.4,19.7l1.9-1.9l3.4-3.4h2.5l-7.7,7.8V19.7z"/>
	</g>
</g>
</svg>
