<?xml version="1.0" encoding="utf-8"?>
<!-- Generator: Adobe Illustrator 24.1.2, SVG Export Plug-In . SVG Version: 6.00 Build 0)  -->
<svg version="1.1" id="Layer_1" xmlns="http://www.w3.org/2000/svg" xmlns:xlink="http://www.w3.org/1999/xlink" x="0px" y="0px"
	 viewBox="0 0 58.3 58.3" style="enable-background:new 0 0 58.3 58.3;" xml:space="preserve">
<style type="text/css">
	.st0{fill:none;}
	.st1{fill:#555555;}
</style>
<g id="Layer_2_1_">
	<g id="Layer_2-2">
		<path class="st0" d="M19.5,36.9l-0.4,0L19.5,36.9z"/>
		<path class="st0" d="M11.4,34.7h0.3H11.4z"/>
		<path class="st0" d="M14.1,36.8l-0.4-0.1L14.1,36.8z"/>
		<path class="st0" d="M15.2,37l-0.4,0L15.2,37z"/>
		<path class="st0" d="M18.8,37h-0.5H18.8z"/>
		<path class="st0" d="M18,37L18,37z"/>
		<path class="st0" d="M17.1,37.1L17.1,37.1z"/>
		<path class="st0" d="M23.3,39.9l-0.6,0L23.3,39.9z"/>
		<path class="st0" d="M9.6,35.4l-0.4-0.2L9.6,35.4z"/>
		<path class="st0" d="M9.2,34.7L9.2,34.7z"/>
		<path class="st0" d="M10.8,35.9l-0.4-0.2L10.8,35.9z"/>
		<path class="st0" d="M11.9,36.3c-0.1,0-0.3-0.1-0.5-0.1C11.6,36.2,11.8,36.3,11.9,36.3z"/>
		<path class="st0" d="M16.2,37h-0.4H16.2z"/>
		<path class="st0" d="M19.7,39.8h-0.2H19.7z"/>
		<path class="st0" d="M20.2,36.8l-0.4,0.1L20.2,36.8z"/>
		<path class="st0" d="M20.9,40h-0.2H20.9z"/>
		<path class="st0" d="M21.7,40h0.7H21.7L21.7,40z"/>
		<path class="st0" d="M19.2,39.8H19H19.2z"/>
		<path class="st0" d="M20.3,39.9h-0.2H20.3z"/>
		<path class="st0" d="M21.5,36.5l-0.4,0.1L21.5,36.5z"/>
		<path class="st0" d="M20.9,36.7l-0.4,0.1L20.9,36.7z"/>
		<path class="st0" d="M18.3,39.5L18.3,39.5z"/>
		<path class="st0" d="M18.8,39.7h-0.1H18.8z"/>
		<path class="st0" d="M18.5,39.6L18.5,39.6L18.5,39.6z"/>
		<path class="st0" d="M13,36.6l-0.4-0.1L13,36.6z"/>
		<path class="st0" d="M13.5,34.4L13.5,34.4L13.5,34.4z"/>
		<path class="st0" d="M10.5,34.8L10.5,34.8z"/>
		<path class="st0" d="M15.1,33.9l0.2-0.1L15.1,33.9z"/>
		<path class="st0" d="M12.4,34.6h0.3H12.4z"/>
		<path class="st0" d="M21.6,36.5l0.5-0.1l0,0L21.6,36.5z"/>
		<path class="st0" d="M14.4,34.2l0.2-0.1L14.4,34.2z"/>
		<path class="st0" d="M6.1,24.1c0.4,0,0.8-0.1,1.2-0.1C6.9,24.1,6.5,24.1,6.1,24.1z"/>
		<path class="st0" d="M5.2,28.6H4.4H5.2z"/>
		<path class="st0" d="M13.9,26.8c-0.1,0.1-0.1,0.1-0.2,0.2C13.8,26.9,13.9,26.8,13.9,26.8z"/>
		<path class="st0" d="M13.9,26.2c0.1,0,0.1,0.1,0.2,0.2C14,26.3,13.9,26.2,13.9,26.2z"/>
		<path class="st0" d="M14,26.4c0,0.1,0,0.1,0,0.2C14,26.5,14,26.4,14,26.4z"/>
		<path class="st0" d="M13.4,27.1l0.3-0.2L13.4,27.1z"/>
		<path class="st0" d="M12.4,25.3l-0.3-0.1L12.4,25.3z"/>
		<path class="st0" d="M13.1,25.7l-0.2-0.1L13.1,25.7z"/>
		<path class="st0" d="M14,26.7c0-0.1,0.1-0.1,0.1-0.2C14.1,26.6,14,26.7,14,26.7z"/>
		<path class="st0" d="M12.3,27.5l0.5-0.2L12.3,27.5z"/>
		<path class="st0" d="M12.8,27.4l0.4-0.2L12.8,27.4z"/>
		<path class="st0" d="M11.6,27.8l0.6-0.2L11.6,27.8z"/>
		<path class="st0" d="M8.7,24.2H8.4H8.7z"/>
		<path class="st0" d="M6.1,24.1c0.4-0.3,0.7-0.5,1.1-0.7C6.8,23.7,6.5,23.9,6.1,24.1z"/>
		<path class="st0" d="M10.7,24.6l-0.4-0.1L10.7,24.6z"/>
		<path class="st0" d="M7.5,23.3c0.3-0.2,0.7-0.3,1.1-0.5C8.2,23,7.9,23.1,7.5,23.3z"/>
		<path class="st0" d="M11.6,24.9l-0.3-0.1L11.6,24.9z"/>
		<path class="st0" d="M9.7,24.4l-0.4-0.1L9.7,24.4z"/>
		<path class="st0" d="M2,28.5c0.3,0,0.7,0.1,1,0.1C2.7,28.6,2.4,28.6,2,28.5z"/>
		<path class="st0" d="M10.9,27.9l0.6-0.1L10.9,27.9z"/>
		<path class="st0" d="M5.4,28.6h0.8H5.4z"/>
		<path class="st0" d="M0,28.1c0.3,0.1,0.6,0.2,0.9,0.2C0.6,28.3,0.3,28.2,0,28.1z"/>
		<path class="st0" d="M1,28.4c0.3,0.1,0.6,0.1,1,0.1C1.6,28.5,1.3,28.4,1,28.4z"/>
		<path class="st0" d="M3.2,28.6c0.3,0,0.7,0,1,0C3.9,28.6,3.5,28.6,3.2,28.6z"/>
		<path class="st0" d="M10,28.1l0.7-0.1L10,28.1z"/>
		<path class="st0" d="M9.2,28.3l0.7-0.1L9.2,28.3z"/>
		<path class="st0" d="M6.3,28.6l0.8-0.1L6.3,28.6z"/>
		<path class="st0" d="M8.2,28.4L9,28.3L8.2,28.4z"/>
		<path class="st0" d="M7.3,28.5l0.7-0.1L7.3,28.5z"/>
		<path class="st0" d="M20.4,18.3h0.5H20.4z"/>
		<polygon class="st0" points="42.3,14.5 42.3,14.5 58.3,28.5 		"/>
		<path class="st0" d="M8.7,22.8c0.4-0.1,0.8-0.3,1.2-0.4C9.5,22.5,9.1,22.6,8.7,22.8z"/>
		<polygon class="st0" points="44,43.8 58.3,28.5 44,43.8 		"/>
		<path class="st0" d="M24.1,39.8l-0.6,0.1L24.1,39.8z"/>
		<path class="st0" d="M21.7,18.5l0.5,0.1L21.7,18.5z"/>
		<path class="st0" d="M28.9,38.6L27.7,39L28.9,38.6z"/>
		<path class="st0" d="M25.1,39.7l-0.6,0.1L25.1,39.7z"/>
		<path class="st0" d="M26.2,39.4l-0.6,0.1L26.2,39.4z"/>
		<path class="st0" d="M31.4,37c-0.4,0.5-1,0.9-1.5,1.2C30.4,37.9,31,37.5,31.4,37z"/>
		<path class="st0" d="M19.5,18.2L19.5,18.2z"/>
		<path class="st0" d="M27.3,39.1l-0.8,0.2L27.3,39.1z"/>
		<path class="st0" d="M23.2,18.8l0.5,0.1L23.2,18.8z"/>
		<path class="st0" d="M14.7,22.1h0.4H14.7z"/>
		<path class="st0" d="M13.3,22h-0.4c0.2,0,0.5,0,0.7,0H13.3z"/>
		<path class="st0" d="M11.4,22.1c0.4,0,0.8-0.1,1.2-0.1C12.2,22.1,11.8,22.1,11.4,22.1z"/>
		<path class="st0" d="M10.2,22.4c0.4-0.1,0.7-0.1,1.1-0.2C10.9,22.2,10.6,22.3,10.2,22.4z"/>
		<path class="st0" d="M14.6,19.9L14.6,19.9z"/>
		<path class="st0" d="M15.5,19.2l0.1-0.1L15.5,19.2z"/>
		<path class="st0" d="M14.7,19.7L14.7,19.7z"/>
		<path class="st0" d="M16.3,18.8L16.3,18.8L16.3,18.8z"/>
		<path class="st0" d="M17,18.5c0.1,0,0.2,0,0.3,0C17.2,18.5,17.1,18.5,17,18.5z"/>
		<path class="st0" d="M18.1,18.3h0.2H18.1z"/>
		<path class="st0" d="M15.1,19.5L15.1,19.5L15.1,19.5z"/>
		<path class="st1" d="M15.3,33.8l-0.2,0.1C15,34,14.8,34,14.6,34.1l-0.2,0.1l-0.8,0.2h-0.1l-0.9,0.2h-0.3l-0.7,0.1h-0.3h-0.9h-0.2
			H9.6H9.2c-0.4,0-0.8-0.1-1.1-0.1c0.4,0.2,0.8,0.4,1.1,0.6l0.4,0.2c0.3,0.1,0.5,0.2,0.8,0.3l0.4,0.2l0.7,0.2
			c0.1,0.1,0.3,0.1,0.5,0.2l0.6,0.2l0.5,0.1l0.6,0.1l0.4,0.1l0.6,0.1l0.4,0l0.6,0.1h0.4c0.3,0,0.5,0,0.7,0H18h0.3h0.5h0.3l0.4,0h0.3
			l0.4-0.1l0.3,0l0.4-0.1l0.2,0l0.4-0.1h0.2l0.5-0.1l0,0c0.1,0.8-0.3,1.6-1.1,2c-0.9,0.5-1.8,0.9-2.8,1.1h0l0,0h0.1h0.1l0.2,0h0.1
			l0.2,0.1h0.2l0.3,0h0.2l0.4,0h0.2h0.5h0.2h0.8h0.7h0.2l0.6,0h0.3l0.6-0.1l0.4,0l0.6-0.1l0.4-0.1l0.6-0.1l0.4-0.1l0.8-0.2l0.4-0.1
			l1.2-0.4c0.3-0.1,0.6-0.3,1-0.4c0.6-0.3,1.1-0.7,1.5-1.2c0.2-0.2,0.4-0.5,0.6-0.7l11.5-0.5l0.5,8.3l14.3-15.3l-16-14l0.3,8.4
			l-13.7-1.3c-1.1-1-2.3-1.7-3.7-2.2c-0.5-0.2-1.1-0.4-1.6-0.5l-0.5-0.1c-0.3-0.1-0.6-0.2-1-0.2l-0.5-0.1l-0.8-0.1h-0.5h-0.7h-0.4
			c-0.4,0-0.8,0-1.1,0.1H18c-0.3,0-0.5,0.1-0.8,0.2c-0.1,0-0.2,0-0.2,0c-0.2,0.1-0.5,0.1-0.7,0.2h-0.1c-0.2,0.1-0.4,0.2-0.6,0.3
			l-0.1,0.1c-0.1,0.1-0.2,0.1-0.4,0.2L15,19.4l-0.3,0.2l0,0l-0.1,0.1l0,0l-0.1,0.1c0,0,3.4,0.6,4.4,2.4h-2.4
			c-0.4-0.1-0.9-0.1-1.4-0.2h-0.4c-0.4,0-0.7,0-1.1,0s-0.5,0-0.7,0h-0.3c-0.4,0-0.8,0-1.2,0.1h-0.2c-0.4,0-0.7,0.1-1.1,0.2l-0.3,0.1
			c-0.4,0.1-0.8,0.2-1.2,0.4H8.6c-0.4,0.1-0.7,0.3-1.1,0.5l-0.3,0.1c-0.4,0.2-0.8,0.4-1.1,0.7C6.6,24,7,24,7.4,24l0,0
			c0.3,0,0.7,0,1,0h0.3c0.2,0,0.5,0.1,0.7,0.1l0.4,0.1c0.2,0,0.4,0.1,0.6,0.1l0.4,0.1l0.5,0.2l0.3,0.1l0.5,0.2l0.3,0.1l0.5,0.3
			l0.2,0.1c0.3,0.1,0.5,0.3,0.7,0.4c0.1,0,0.1,0.1,0.2,0.2l0,0c0,0.1,0,0.1,0,0.2l0,0c0,0.1-0.1,0.1-0.1,0.2l0,0
			c-0.1,0.1-0.1,0.1-0.2,0.2l0,0l-0.3,0.2h-0.1l-0.4,0.2h-0.1l-0.5,0.5h-0.1l-0.6,0.2h-0.1l-0.6,0.1h-0.2L10,28H9.9l-0.7,0.1H9
			l-0.8,0.1H8l-0.7,0.3H7.2l-0.8,0.1H6.1H5.4H5.2H4.4H4.2c-0.4,0-0.7,0-1,0H3c-0.3,0-0.7,0-1-0.1H1.9c-0.3,0-0.7-0.1-1-0.1h0
			c-0.3-0.1-0.6-0.1-0.9-0.2c2.4,1.4,8.6,4.8,16,5.4C15.8,33.6,15.6,33.7,15.3,33.8z"/>
	</g>
</g>
</svg>
