<?xml version="1.0" encoding="utf-8"?>
<!-- Generator: Adobe Illustrator 24.1.2, SVG Export Plug-In . SVG Version: 6.00 Build 0)  -->
<svg version="1.1" id="Layer_1" xmlns="http://www.w3.org/2000/svg" xmlns:xlink="http://www.w3.org/1999/xlink" x="0px" y="0px"
	 viewBox="0 0 66.4 66.4" style="enable-background:new 0 0 66.4 66.4;" xml:space="preserve">
<style type="text/css">
	.st0{fill:none;}
	.st1{opacity:0.4;fill:#555555;enable-background:new    ;}
	.st2{fill:#555555;}
</style>
<g id="Layer_2_1_">
	<g id="Layer_2-2">
		<path class="st0" d="M51.7,19.6c0.2,0.2,0.3,0.4,0.4,0.7C52,20,51.9,19.8,51.7,19.6z"/>
		<path class="st0" d="M28.6,9.7L29,9.6L28.6,9.7z"/>
		<path class="st0" d="M54.2,40.3c-0.1,0.3-0.2,0.6-0.3,0.9C53.9,41,54,40.6,54.2,40.3z"/>
		<path class="st0" d="M55.3,35.9c0,0.3-0.1,0.7-0.2,1C55.2,36.6,55.3,36.3,55.3,35.9z"/>
		<path class="st0" d="M53.8,41.4c-0.1,0.3-0.3,0.6-0.4,0.9C53.5,42,53.6,41.7,53.8,41.4z"/>
		<path class="st0" d="M55,37.6c0-0.2,0.1-0.4,0.1-0.5C55.1,37.3,55,37.5,55,37.6L55,37.6z"/>
		<path class="st0" d="M55.5,34.8c0,0.3-0.1,0.7-0.1,1C55.4,35.5,55.4,35.1,55.5,34.8z"/>
		<path class="st0" d="M55.6,33.6c0,0.4,0,0.7-0.1,1C55.5,34.3,55.5,34,55.6,33.6z"/>
		<path class="st0" d="M55.6,32.5c0,0.3,0,0.6,0,1C55.6,33.2,55.6,32.9,55.6,32.5z"/>
		<path class="st0" d="M32.5,55.3L32.5,55.3z"/>
		<path class="st0" d="M40.5,53.9c5.6-2.1,10.2-6.2,12.8-11.6C50.7,47.7,46.1,51.9,40.5,53.9z"/>
		<path class="st0" d="M24.7,10.7c-5.6,2.1-10.2,6.2-12.8,11.6C14.5,17,19.1,12.8,24.7,10.7z"/>
		<path class="st0" d="M32.8,9.3h-0.1H32h0.5H32.8z"/>
		<path class="st0" d="M11,24.5c0,0.1-0.1,0.2-0.1,0.3l0,0L11,24.5z"/>
		<path class="st0" d="M50.4,17.8l0.5,0.6L50.4,17.8z"/>
		<path class="st0" d="M52.8,21.4c0.1,0.2,0.2,0.4,0.3,0.6C53,21.8,53,21.6,52.8,21.4z"/>
		<path class="st0" d="M47.5,14.9c0.2,0.2,0.4,0.4,0.6,0.6C48,15.2,47.8,15,47.5,14.9z"/>
		<path class="st0" d="M49,16.3l0.6,0.6L49,16.3z"/>
		<path class="st0" d="M55.5,29.8C55.5,29.8,55.5,29.8,55.5,29.8C55.5,29.7,55.5,29.8,55.5,29.8C55.5,29.8,55.5,29.8,55.5,29.8z"/>
		<path class="st0" d="M55.6,31.5c0,0.3,0,0.5,0,0.8C55.6,32,55.6,31.8,55.6,31.5z"/>
		<path class="st0" d="M55.5,30.6c0,0.2,0,0.3,0,0.5C55.6,30.9,55.5,30.7,55.5,30.6z"/>
		<path class="st0" d="M54.6,25.5c0,0,0,0.1,0,0.1S54.6,25.6,54.6,25.5z"/>
		<path class="st0" d="M53.8,23.4c0.1,0.1,0.1,0.3,0.2,0.4C53.9,23.7,53.9,23.5,53.8,23.4z"/>
		<path class="st0" d="M55.1,27.6L55.1,27.6z"/>
		<path class="st0" d="M46,13.6c0.2,0.2,0.4,0.3,0.7,0.5C46.4,14,46.2,13.8,46,13.6z"/>
		<path class="st0" d="M35.1,55.2h0.3H35.1L35.1,55.2z"/>
		<path class="st0" d="M36.6,55L36.2,55L36.6,55z"/>
		<path class="st0" d="M39.1,54.4l-0.7,0.2L39.1,54.4z"/>
		<path class="st0" d="M40.4,54l-0.9,0.3L40.4,54z"/>
		<path class="st0" d="M37.8,54.7l-0.5,0.1L37.8,54.7z"/>
		<path class="st0" d="M44.4,12.6l0.5,0.3L44.4,12.6z"/>
		<path class="st0" d="M34.1,55.3h-0.3H34.1z"/>
		<path class="st0" d="M24.8,10.7l0.9-0.3L24.8,10.7z"/>
		<path class="st0" d="M27.4,10l0.5-0.1L27.4,10z"/>
		<path class="st0" d="M26.1,10.3l0.7-0.2L26.1,10.3z"/>
		<path class="st0" d="M31.1,9.4h0.3H31.1z"/>
		<path class="st0" d="M30.1,9.5h-0.3H30.1L30.1,9.5z"/>
		<path class="st0" d="M42.7,11.6l0.4,0.2L42.7,11.6z"/>
		<path class="st0" d="M40.7,10.8l0.4,0.2L40.7,10.8z"/>
		<path class="st0" d="M34.5,9.4h0.4H34.5z"/>
		<path class="st0" d="M38.7,10.2l0.5,0.1L38.7,10.2z"/>
		<path class="st0" d="M36.6,9.7L37,9.8L36.6,9.7z"/>
		<path class="st0" d="M19.2,51l-0.6-0.5L19.2,51z"/>
		<path class="st0" d="M22.6,53l-0.4-0.2L22.6,53z"/>
		<path class="st0" d="M24.5,53.9l-0.4-0.2L24.5,53.9z"/>
		<path class="st0" d="M26.5,54.5l-0.4-0.1L26.5,54.5z"/>
		<path class="st0" d="M20.8,52.1c-0.2-0.1-0.3-0.2-0.5-0.3C20.5,51.9,20.6,52,20.8,52.1z"/>
		<path class="st0" d="M28.6,55l-0.4-0.1L28.6,55z"/>
		<path class="st0" d="M11.4,23.3c0.1-0.3,0.3-0.6,0.4-0.9C11.7,22.7,11.6,23,11.4,23.3z"/>
		<path class="st0" d="M11,24.3l0.4-0.9L11,24.3z"/>
		<path class="st0" d="M30.7,55.3h-0.4H30.7z"/>
		<path class="st0" d="M16.2,48.4c-0.2-0.2-0.4-0.4-0.6-0.6L16.2,48.4z"/>
		<path class="st0" d="M17.7,49.8L17,49.3L17.7,49.8z"/>
		<path class="st1" d="M54.8,38.2c-0.1,0.3-0.2,0.6-0.3,0.9C54.7,38.8,54.8,38.5,54.8,38.2z"/>
		<path class="st1" d="M65.1,13.7l-8.4,6.2L58.8,8l-6.9,8.4c5.2,6.3,7,14.7,4.9,22.5l9.7-11.8l-7,1L65.1,13.7z"/>
		<path class="st1" d="M54.5,39.3c-0.1,0.3-0.2,0.6-0.3,0.9C54.3,39.9,54.4,39.6,54.5,39.3z"/>
		<path class="st1" d="M54.9,38c0-0.1,0.1-0.3,0.1-0.5v0.1C54.9,37.8,54.9,37.9,54.9,38z"/>
		<path class="st1" d="M12.4,43.3l-0.3-0.6C12.2,42.9,12.3,43.1,12.4,43.3z"/>
		<path class="st1" d="M11.4,41.3c-0.1-0.1-0.1-0.3-0.2-0.4C11.3,41,11.4,41.1,11.4,41.3z"/>
		<path class="st1" d="M13.5,45.1l-0.4-0.7L13.5,45.1z"/>
		<path class="st1" d="M10.6,39.2c0,0,0-0.1,0-0.2C10.6,39.1,10.6,39.1,10.6,39.2z"/>
		<path class="st1" d="M7.8,35.1c-0.2-2-0.2-4.1,0.1-6.1L0,39.7l6.9-1.4L2,53.1l8.1-6.6L8.7,58.4l6.2-8.4C10.9,46,8.4,40.7,7.8,35.1
			z"/>
		<path class="st1" d="M14.8,46.8l-0.5-0.7L14.8,46.8z"/>
		<path class="st1" d="M9.7,29.9c0-0.3,0.1-0.7,0.1-1C9.8,29.2,9.8,29.6,9.7,29.9z"/>
		<path class="st1" d="M10.1,27.6c0.1-0.3,0.1-0.6,0.2-1C10.2,27,10.2,27.3,10.1,27.6z"/>
		<path class="st1" d="M10.4,26.5c0.1-0.3,0.2-0.6,0.3-0.9C10.5,25.9,10.4,26.2,10.4,26.5z"/>
		<path class="st1" d="M10.1,37.1L10.1,37.1z"/>
		<path class="st1" d="M10.9,24.8c-0.1,0.2-0.1,0.4-0.2,0.6C10.8,25.2,10.8,25,10.9,24.8L10.9,24.8z"/>
		<path class="st1" d="M9.6,31c0-0.3,0-0.7,0.1-1C9.7,30.4,9.7,30.7,9.6,31z"/>
		<path class="st1" d="M9.7,34.9C9.7,34.9,9.7,34.9,9.7,34.9C9.7,34.9,9.7,34.9,9.7,34.9L9.7,34.9z"/>
		<path class="st1" d="M9.7,34.1c0-0.2,0-0.3,0-0.5C9.6,33.8,9.7,34,9.7,34.1z"/>
		<path class="st1" d="M9.6,32.1c0-0.3,0-0.6,0-0.9C9.6,31.5,9.6,31.8,9.6,32.1z"/>
		<path class="st1" d="M9.6,33.1c0-0.3,0-0.5,0-0.8C9.6,32.6,9.6,32.9,9.6,33.1z"/>
		<path class="st1" d="M9.9,28.7c0-0.3,0.1-0.7,0.2-1C10,28.1,9.9,28.4,9.9,28.7z"/>
		<path class="st2" d="M39.3,23.6c-0.1,0.2-0.2,0.3-0.3,0.5c-2.8,3.7-6.4-1.8-6.4-1.8s-0.1-0.3-0.3-0.9c-1.5,0-2.9,0.4-4.3,1
			c0.1,0.1,0.2,0.3,0.3,0.5c2,4.1-4.6,4.8-4.6,4.8s-0.4-0.1-1-0.1c-0.6,1.2-0.9,2.4-1,3.7c0.2,0,0.4,0,0.5,0
			c4.6,0.4,1.8,6.4,1.8,6.4s-0.2,0.3-0.6,0.8c0.7,1.1,1.6,2,2.7,2.8c0.1-0.2,0.2-0.3,0.3-0.5c2.6-3.7,6.5,1.7,6.5,1.7
			s0.1,0.3,0.4,0.9c1.3-0.1,2.6-0.3,3.8-0.8c-0.1-0.2-0.2-0.3-0.3-0.5c-1.9-4.2,4.7-4.7,4.7-4.7l1,0.1c0.6-1.1,1-2.4,1.1-3.7
			c-0.2,0-0.4,0-0.5,0c-4.6-0.5-1.7-6.5-1.7-6.5s0.2-0.3,0.6-0.8C41.2,25.4,40.3,24.4,39.3,23.6z M32.6,39.6c-4.1,0-7.3-3.3-7.3-7.3
			s3.3-7.3,7.3-7.3s7.3,3.3,7.3,7.3l0,0C40,36.3,36.7,39.7,32.6,39.6C32.6,39.7,32.6,39.7,32.6,39.6L32.6,39.6z"/>
		<path class="st2" d="M32.3,21.4c0.2,0.6,0.3,0.9,0.3,0.9s3.7,5.5,6.4,1.8c0.1-0.1,0.2-0.3,0.3-0.5c1.5-2.5,1.3-5.9,1-7.9
			c-2.4-1.1-5-1.7-7.7-1.7c-1.6,0-3.2,0.2-4.7,0.6C29.8,16.5,31.3,18.8,32.3,21.4z"/>
		<path class="st2" d="M45.5,19.3c-0.7,2.6-1.9,5.1-3.6,7.2c-0.4,0.5-0.6,0.8-0.6,0.8s-2.9,6,1.7,6.5c0.2,0,0.4,0,0.5,0
			c2.9,0.1,5.8-1.9,7.3-3.2C50.4,26.2,48.5,22.3,45.5,19.3z"/>
		<path class="st2" d="M42.4,37.4l-1-0.1c0,0-6.6,0.5-4.7,4.7c0.1,0.2,0.2,0.3,0.3,0.5c1.4,2.5,4.5,4,6.4,4.7c3.5-2.5,6-6.2,7-10.4
			C47.8,37.5,45.1,37.7,42.4,37.4z"/>
		<path class="st2" d="M33.2,43.3c-0.2-0.5-0.4-0.9-0.4-0.9S29,37,26.4,40.7c-0.1,0.1-0.2,0.3-0.3,0.5c-1.5,2.5-1.2,5.9-0.8,8
			c3.9,1.7,8.3,2,12.4,0.8C35.8,48.1,34.3,45.8,33.2,43.3z"/>
		<path class="st2" d="M24,37.7c0,0,2.7-6-1.8-6.4c-0.2,0-0.4,0-0.5,0c-2.9,0-5.7,2-7.2,3.4c0.5,4.3,2.5,8.2,5.7,11.1
			c0.6-2.6,1.8-5.1,3.4-7.3C23.8,38,24,37.7,24,37.7z"/>
		<path class="st2" d="M22.7,27.6c0.6,0,1,0.1,1,0.1s6.6-0.7,4.6-4.8c-0.1-0.2-0.2-0.3-0.3-0.5c-1.5-2.5-4.6-3.9-6.6-4.5
			c-3.4,2.6-5.8,6.3-6.7,10.5C17.3,27.5,20,27.3,22.7,27.6z"/>
		<path class="st2" d="M53.3,42.3L53.3,42.3c0.2-0.4,0.3-0.7,0.4-1c0,0,0-0.1,0-0.1c0.1-0.3,0.2-0.6,0.3-0.9l0.1-0.2
			c0.1-0.3,0.2-0.6,0.3-0.9c0-0.1,0-0.1,0-0.2c0.1-0.3,0.2-0.6,0.3-0.9c0,0,0-0.1,0-0.2s0-0.2,0.1-0.4c0.1-0.1,0.1-0.4,0.1-0.6v-0.1
			c0.1-0.3,0.1-0.7,0.2-1c0,0,0-0.1,0-0.1c0-0.3,0.1-0.7,0.1-1c0,0,0-0.1,0-0.1c0-0.3,0.1-0.7,0.1-1c0,0,0-0.1,0-0.1
			c0-0.3,0-0.6,0-1v-0.3c0-0.3,0-0.5,0-0.8s0-0.3,0-0.5s0-0.3,0-0.5l-0.1-0.7c0,0,0-0.1,0-0.1c-0.1-0.7-0.2-1.4-0.3-2.1l0,0
			c-0.1-0.7-0.3-1.3-0.5-2c0,0,0-0.1,0-0.1c-0.2-0.6-0.4-1.1-0.6-1.7c0-0.1-0.1-0.3-0.2-0.4c-0.2-0.5-0.4-1-0.7-1.4
			c-0.1-0.2-0.2-0.4-0.3-0.6c-0.2-0.4-0.5-0.8-0.7-1.2c-0.1-0.2-0.3-0.4-0.4-0.7c-0.2-0.2-0.5-0.7-0.8-1.1l-0.5-0.6
			c-0.3-0.3-0.5-0.7-0.8-1L49,16.3c-0.3-0.3-0.6-0.6-0.9-0.8c-0.3-0.3-0.4-0.4-0.6-0.6c-0.2-0.2-0.6-0.5-0.9-0.8
			c-0.3-0.2-0.4-0.3-0.7-0.5s-0.7-0.5-1.1-0.7l-0.5-0.3c-0.4-0.3-0.9-0.5-1.3-0.7l-0.4-0.2c-0.5-0.2-1-0.4-1.5-0.7l-0.4-0.2
			c-0.5-0.2-1-0.4-1.6-0.5l-0.5-0.1C38.1,10,37.6,9.9,37,9.8l-0.4-0.1c-0.6-0.1-1.2-0.2-1.7-0.2h-0.4c-0.6-0.1-1.2-0.1-1.8-0.1h-0.1
			H32c-0.2,0-0.4,0-0.7,0h-0.3c-0.3,0-0.6,0-1,0.1h-0.4L29,9.6l-0.4,0.1l-0.8,0.1L27.4,10l-0.6,0.2l-0.7,0.2l-0.4,0.1l-0.9,0.3h-0.1
			c-5.6,2.1-10.2,6.2-12.8,11.6v0.1c-0.1,0.3-0.3,0.6-0.4,0.9v0.1l-0.4,0.9c0,0,0,0.1,0,0.1L11,24.8c-0.1,0.2-0.1,0.4-0.2,0.6
			c0,0.1,0,0.1,0,0.2c-0.1,0.3-0.2,0.6-0.3,0.9c0,0,0,0.1,0,0.2c-0.1,0.3-0.2,0.6-0.2,1v0.1c-0.1,0.3-0.1,0.7-0.2,1c0,0,0,0.1,0,0.1
			c-0.1,0.3-0.1,0.7-0.1,1c0,0,0,0.1,0,0.1c0,0.3-0.1,0.7-0.1,1c0,0,0,0.1,0,0.1c0,0.3,0,0.6,0,1c0,0.1,0,0.1,0,0.2l0,0
			c0,0.3,0,0.5,0,0.8s0,0.3,0,0.5s0,0.3,0,0.5c0,0.2,0,0.5,0.1,0.7c0,0,0,0.1,0,0.2c0,0.7,0,1.4,0.1,2.1l0,0c0.1,0.7,0.3,1.3,0.5,2
			c0,0,0,0.1,0,0.1c0.2,0.6,0.4,1.1,0.6,1.7c0.1,0.1,0.1,0.3,0.2,0.4c0.2,0.5,0.4,1,0.7,1.4l0.3,0.6c0.2,0.4,0.5,0.8,0.7,1.2
			l0.4,0.7c0.3,0.4,0.5,0.7,0.8,1.1l0.5,0.7c0.3,0.3,0.6,0.7,0.8,1s0.4,0.4,0.6,0.6c0.2,0.2,0.6,0.6,0.9,0.8l0.6,0.6
			c0.3,0.3,0.6,0.5,0.9,0.8l0.6,0.5c0.4,0.3,0.7,0.5,1.1,0.7c0.2,0.1,0.3,0.2,0.5,0.3c0.4,0.3,0.9,0.5,1.3,0.7l0.4,0.2
			c0.5,0.2,1,0.5,1.5,0.7l0.4,0.2c0.5,0.2,1,0.4,1.6,0.5l0.4,0.1c0.5,0.2,1.1,0.3,1.6,0.4l0.4,0.1c0.6,0.1,1.1,0.2,1.7,0.2h0.4
			c0.6,0,1.2,0.1,1.8,0.1h0.7h0.7h0.3l1-0.1h0.3c0.3,0,0.5-0.1,0.8-0.1l0.4-0.1c0.3,0,0.5-0.1,0.8-0.2l0.5-0.1l0.6-0.1l0.7-0.2
			l0.4-0.1l0.9-0.3l0.2-0.1C46.1,51.9,50.7,47.7,53.3,42.3z M11.6,32.3c0-11.6,9.4-21,21-21s21,9.4,21,21s-9.4,21-21,21
			C21,53.3,11.6,43.9,11.6,32.3C11.6,32.3,11.6,32.3,11.6,32.3L11.6,32.3z"/>
		<circle class="st2" cx="32.6" cy="32.3" r="5.5"/>
	</g>
</g>
</svg>
