<?xml version="1.0" encoding="utf-8"?>
<!-- Generator: Adobe Illustrator 24.1.2, SVG Export Plug-In . SVG Version: 6.00 Build 0)  -->
<svg version="1.1" id="Layer_1" xmlns="http://www.w3.org/2000/svg" xmlns:xlink="http://www.w3.org/1999/xlink" x="0px" y="0px"
	 viewBox="0 0 53.1 53.1" style="enable-background:new 0 0 53.1 53.1;" xml:space="preserve">
<style type="text/css">
	.st0{fill:none;}
	.st1{opacity:0.4;}
	.st2{fill:#555555;}
</style>
<g id="Layer_2_1_">
	<g id="Layer_2-2">
		<path class="st0" d="M9.2,45c0.4-0.2,0.7-0.3,1-0.5c-0.3,0.1-0.6,0.2-0.9,0.3L9.2,45z"/>
		<path class="st0" d="M42.1,16.6l1.1-1.1l0,0c0.1-0.1,0.2-0.2,0.3-0.4l-2.9-3.1l-0.4,0.3l0,0L40,12.7l0,0l-0.8,0.8
			C40.3,14.3,41.3,15.4,42.1,16.6z"/>
		<path class="st0" d="M45.7,10.3c-1-1.1-3.2,0.3-4.6,1.4l2.9,3.1C45.1,13.5,46.7,11.4,45.7,10.3z"/>
		<path class="st0" d="M10.1,32.5c0.4-0.1,0.7-0.2,1.1-0.4c0.2-0.6,0.5-1.1,0.8-1.6C11.3,31.1,10.7,31.8,10.1,32.5z"/>
		<path class="st0" d="M25.1,35.5l-2,5.2c-0.2,0.5-0.4,0.9-0.6,1.4c1.5-2.3,2.6-4.7,3.4-7.3C25.6,35,25.3,35.3,25.1,35.5z"/>
		<path class="st0" d="M33,39.2c0.4-0.4,0.8-0.8,1.2-1.3c0.4-0.9,0.6-1.8,0.7-2.8c-0.9,0.6-1.9,1.2-2.9,1.7l0.1,0.1
			C32.6,37.5,32.9,38.4,33,39.2z"/>
		<path class="st0" d="M14.5,39.1l-0.7,0.2c-0.7,1-1.6,2.2-2.8,3.6l-0.3,0.4C12.2,42,13.4,40.6,14.5,39.1z"/>
		<path class="st0" d="M19.3,29c-2.3,0.4-4.5,1.3-6.3,2.7l0.5-0.1c0.2,0,0.3,0,0.5,0c1.1,0,2.1,0.7,2.3,1.8c0.1,0.4,0.3,1.4-1.2,4
			c0.6-0.5,1.3-1.2,1.9-1.8C19.4,31.9,20.6,28.8,19.3,29z"/>
		<path class="st0" d="M15.6,21.4L15.6,21.4c0.2,0,0.4,0,0.6,0c0.1-0.3,0.2-0.6,0.4-0.9C16.2,20.9,15.9,21.2,15.6,21.4z"/>
		<path class="st0" d="M18.3,22.3c0.6-0.8,1.2-1.6,1.8-2.3c-1.3,0.3-2.6,0.8-3.7,1.5C17.1,21.6,17.8,21.9,18.3,22.3z"/>
		<g class="st1">
			<path class="st2" d="M17.3,23.9c0.3-0.6,0.7-1.1,1.1-1.7c-0.6-0.4-1.2-0.6-1.9-0.7c-0.4,0-0.6-0.1-0.8-0.1l0,0
				c0.3-0.3,0.7-0.6,1-0.9c1.2-2.2,2.9-4,5-5.4c-10,4.8-11.3,10.3-11.3,10.3s2.9-2,5.2-2C16.2,23.4,16.8,23.6,17.3,23.9z"/>
			<path class="st2" d="M13.3,49.6c8.5-1.8,15.2-7.9,17.3-11.4c-2.8,3.2-6.5,5.4-10.6,6.4c0.9-0.7,1.8-1.5,2.4-2.5
				c0.2-0.5,0.4-0.9,0.6-1.4l2-5.2c-4.5,3.7-9.5,6.7-14.8,9c-0.3,0.2-0.7,0.3-1,0.5l0.2-0.2c-0.5,0.2-1,0.3-1.4,0.4
				c1-0.5,1.9-1.2,2.8-2l0.3-0.4c1.1-1.4,2.1-2.6,2.8-3.6c-0.9,0.3-1.8,0.5-2.4,0.6c1.3-0.7,2.6-1.6,3.7-2.6c1.5-2.6,1.3-3.6,1.2-4
				c-0.2-1.1-1.2-1.9-2.3-1.8c-0.2,0-0.3,0-0.5,0c-0.8,0.1-1.6,0.3-2.4,0.6c-0.4,0.1-0.7,0.2-1.1,0.4c0.6-0.7,1.2-1.4,1.9-2
				c1.2-2.2,2.9-4.2,4.7-5.9C12.9,26.6,6.5,31.4,4,39.2c2.5-3,6-5,9.9-5.7H14c2.5,0-7.7,13.5-14,16.8C7.7,48.5,15,45,21.2,40
				C19.4,43.8,16.7,47.1,13.3,49.6z"/>
			<path class="st2" d="M33.1,40.3c0,0-0.4-2.7-1-3.4L32,36.8l-0.5,0.3c-0.3,0.4-0.6,0.7-1,1.1c2,2.3-2.8,6.6-2.8,6.6
				s5.8-0.7,11.8-11l0.1-0.2C35.8,39.1,33.1,40.3,33.1,40.3z"/>
		</g>
		<path class="st2" d="M15.2,28.6c2.5-3.1,6-5.1,9.9-5.6c2.2-0.4-2.7,7.2-8.1,12.6c-0.6,0.6-1.3,1.2-1.9,1.8c-1.1,1-2.4,1.9-3.7,2.6
			c0.6-0.2,1.4-0.3,2.4-0.6l0.7-0.2c6.7-1.9,12.9-5.1,18.3-9.4c-1.7,3.9-4.4,7.2-7.8,9.7c2.3-0.5,4.5-1.2,6.6-2.3l0.5-0.3
			c1-0.5,1.9-1,2.8-1.7c3-1.9,5.5-4.3,7.5-7.2c0.2,0.2,0.3,0.4,0.4,0.7c0.8,2.4-3.1,6-3.1,6s6-0.6,11.8-11c6.3-11.4-6.2-25-18-19.7
			c-10.9,4.8-12,10.7-12,10.7c1.2-0.8,2.5-1.4,3.9-1.8c1.1-0.4,2.4-0.2,3.4,0.6c-3.2,1.6-6.1,3.8-8.5,6.5c-0.7,0.7-1.3,1.5-1.8,2.3
			c-0.4,0.5-0.7,1.1-1.1,1.7c-0.1,0.1-0.1,0.2-0.2,0.4C16.3,25.7,15.7,27.1,15.2,28.6z M33.4,24.7l-3-3.2l1.9-1.7l3,3.2L33.4,24.7z
			 M45.7,10.3c1,1.1-0.6,3.2-1.7,4.4l-2.8-3.1C42.5,10.7,44.7,9.3,45.7,10.3z M39.1,13.5l0.9-0.8l0,0l0.3-0.3l0,0l0.4-0.3l2.9,3.1
			c-0.1,0.1-0.3,0.3-0.3,0.4l0,0l-1.1,1.1l-6.4,5.9l-3-3.2L39.1,13.5z"/>
	</g>
</g>
</svg>
