<svg xmlns="http://www.w3.org/2000/svg" viewBox="0 0 32.14 32.14">
  <defs>
    <style>
      .cls-1{fill:none}.cls-2{fill:#565656}
    </style>
  </defs>
  <g id="Chracter_Icons" data-name="Chracter Icons">
    <path class="cls-1" d="M15.2 5.62V4.15A12 12 0 004 15.36h1.46a10.49 10.49 0 019.74-9.74zM5.46 16.78H4A12 12 0 0015.2 28v-1.48a10.47 10.47 0 01-9.74-9.74zM16.63 4.15v1.47a10.49 10.49 0 019.74 9.74h1.46a12 12 0 00-11.2-11.21zM16.63 26.52V28a12 12 0 0011.2-11.21h-1.46a10.48 10.48 0 01-9.74 9.73z"/>
    <path class="cls-1" d="M25.69 16.07a9.78 9.78 0 10-9.79 9.78 9.79 9.79 0 009.79-9.78zm-14.31-3.66s.49-2.45.9-2.45 1 2.4 1 2.4v.1H11.4zm0 .45h1.82l.09 5.07h-1.81zm.12 6.21v-.78h1.81V19zm3.5-5.13s.46-2.44.87-2.44.94 2.4.94 2.4v.1H15zm0 .44h1.8l.1 5.07h-1.82zm.15 6.25v-.78h1.81v.79zm3.5-5.13s.46-2.44.86-2.44.95 2.4.95 2.4v.09h-1.82zm0 .44h1.81l.1 5.07h-1.83zm.11 6.21v-.78h1.82v.68z"/>
    <path class="cls-2" d="M16.63 2.73V0H15.2v2.73A13.38 13.38 0 002.57 15.36H0v1.42h2.57A13.38 13.38 0 0015.2 29.41v2.73h1.43v-2.73a13.37 13.37 0 0012.62-12.63h2.57v-1.42h-2.57A13.37 13.37 0 0016.63 2.73zM15.2 4.15v1.47a10.49 10.49 0 00-9.74 9.74H4A12 12 0 0115.2 4.15zm0 23.85A12 12 0 014 16.78h1.46a10.47 10.47 0 009.74 9.74zm.72-2.14a9.78 9.78 0 119.77-9.78 9.77 9.77 0 01-9.77 9.78zm.71 2.14v-1.48a10.48 10.48 0 009.74-9.74h1.46A12 12 0 0116.63 28zm9.74-12.63a10.49 10.49 0 00-9.74-9.74V4.15a12 12 0 0111.2 11.21z"/>
    <path class="cls-2" transform="translate(-.33 .22)" d="M11.53 18.28h1.81v.78h-1.81z"/>
    <path class="cls-2" d="M13.23 12.38s-.55-2.42-1-2.42-.9 2.45-.9 2.45v.09h1.87z"/>
    <path class="cls-2" transform="rotate(-1.01 12.345 15.426)" d="M11.47 12.84h1.81v5.08h-1.81z"/>
    <path class="cls-2" d="M20.45 15.42S19.92 13 19.5 13s-.86 2.44-.86 2.44v.09h1.81z"/>
    <path class="cls-2" transform="rotate(-1.01 19.694 18.328)" d="M18.69 15.89h1.81v5.08h-1.81z"/>
    <path class="cls-2" transform="rotate(-1.01 19.664 21.731)" d="M18.75 21.32h1.81v.78h-1.81z"/>
    <path class="cls-2" transform="rotate(-1.01 16.276 20)" d="M15.14 19.8h1.81v.78h-1.81z"/>
    <path class="cls-2" d="M16.84 13.9s-.55-2.41-.95-2.4-.89 2.44-.89 2.44V14h1.81z"/>
    <path class="cls-2" transform="rotate(-1.01 15.734 17.158)" d="M15.08 14.36h1.81v5.08h-1.81z"/>
  </g>
</svg>