<?xml version="1.0" encoding="utf-8"?>
<!-- Generator: Adobe Illustrator 24.1.2, SVG Export Plug-In . SVG Version: 6.00 Build 0)  -->
<svg version="1.1" id="Layer_1" xmlns="http://www.w3.org/2000/svg" xmlns:xlink="http://www.w3.org/1999/xlink" x="0px" y="0px"
	 viewBox="0 0 44.8 44.8" style="enable-background:new 0 0 44.8 44.8;" xml:space="preserve">
<style type="text/css">
	.st0{fill:none;}
	.st1{fill:#555555;}
	.st2{opacity:0.4;fill:#555555;enable-background:new    ;}
</style>
<g id="Layer_2_1_">
	<g id="Layer_2-2">
		<path class="st0" d="M26.3,4.8c-0.2-0.2-0.4-0.3-0.7-0.4h-0.1c-0.2,0-0.4,0.1-0.6,0.2c0.5,0.1,1,0.3,1.5,0.5
			C26.4,5,26.4,4.9,26.3,4.8z"/>
		<path class="st1" d="M18.4,44.8c5.7,0,10-1.6,10-3h-20C8.4,43.3,12.6,44.8,18.4,44.8z"/>
		<path class="st1" d="M18.4,41.5C14.8,41.6,11.3,41,8,39.7l0.1,0.6l0.3,1.5h20v-2C25.2,41,21.8,41.6,18.4,41.5z"/>
		<path class="st1" d="M18.4,14.5c1.6,0,3.2-0.1,4.8-0.3L18.4,14.5z"/>
		<path class="st1" d="M18.4,40.5c5.2,0,9.2-1,11-2.3V13.4c-2.5,1.4-6.8,2.1-11,2.1c-3.9,0-7.9-0.6-10.5-1.8l0,0l-0.5-0.3v24.8
			C9.1,39.5,13.2,40.5,18.4,40.5z M18.4,18.3c5,0,9,4,9,9s-4,9-9,9s-9-4-9-9C9.4,22.4,13.4,18.4,18.4,18.3z"/>
		<path class="st1" d="M18.4,14.5l4.8-0.3c2.1-0.2,4.2-0.9,6.1-1.9l-0.6-3c-1.7,1.7-6.1,2.6-10.3,2.6S9.7,11,8.1,9.3l-0.6,3
			C9.3,13.5,13.3,14.5,18.4,14.5z"/>
		<path class="st1" d="M7.9,13.7L7.9,13.7z"/>
		<path class="st1" d="M26.8,7l-0.6,0.5c0.1,0.1,0.2,0.2,0.2,0.4c0,0.5-0.8,0.8-1.9,1l0,0c-0.4,0.3-0.8,0.4-1.3,0.4H23
			c-0.5-0.1-0.9-0.3-1.3-0.6h-0.4c-1.1,0-2-0.4-2-0.8s0.8-0.8,1.9-0.8c0.1-0.5,0.3-1,0.7-1.3l0.7-0.6c-1.4-0.2-2.9-0.3-4.3-0.3
			c-5.7,0-10,1.6-10,3s4.3,3,10,3s10-1.6,10-3c0-0.4-0.4-0.9-1.2-1.3C27.1,6.7,26.9,6.9,26.8,7z"/>
		<path class="st1" d="M22.6,6.5c-0.2,0.2-0.3,0.4-0.3,0.6c0.5-0.2,1.1-0.3,1.6-0.3c0.4,0,0.9,0,1.3,0.1l1-0.8c0,0,0.1-0.1,0.1-0.1
			c-0.7-0.3-1.5-0.5-2.3-0.7L22.6,6.5z"/>
		<path class="st1" d="M18.4,36.3c5,0,9-4,9-9s-4-9-9-9s-9,4-9,9S13.4,36.3,18.4,36.3z M18.4,19.3c4.4,0,8,3.6,8,8s-3.6,8-8,8
			s-8-3.6-8-8C10.4,22.9,13.9,19.4,18.4,19.3z"/>
		<polygon class="st1" points="16.7,29 16.7,33.9 20,33.9 20,29 24.9,29 24.9,25.7 20,25.7 20,20.8 16.7,20.8 16.7,25.7 11.8,25.7 
			11.8,29 		"/>
		<path class="st2" d="M33.7,0.4c-1.2,0.7-3.9,4.4-3.9,4.4s4.6-0.2,5.8-0.9c1.2-0.5,1.7-1.8,1.2-3C36.1-0.1,34.7-0.3,33.7,0.4z"/>
		<path class="st2" d="M31.5,7.2c1.3,0.6,2.6,1.1,4,1.5c1,0.1,1.9-0.2,2-0.8c0.1-0.6-0.7-1.1-1.8-1.2C34.3,6.7,32.9,6.8,31.5,7.2z"
			/>
		<path class="st1" d="M22.6,5.2l-0.7,0.6c-0.4,0.3-0.7,0.8-0.7,1.3l0,0c-0.1,0.5,0.1,1.1,0.4,1.5c0,0,0.1,0,0.1,0.1
			C22.1,9,22.5,9.2,23,9.3h0.2c0.5,0,0.9-0.2,1.3-0.4l0,0l1.7-1.4L26.8,7c0.2-0.1,0.3-0.3,0.4-0.4c0.2-0.3,0.3-0.6,0.3-0.9l0,0
			c0.1-1.1-0.7-2-1.8-2.2c-0.5-0.1-1.1,0.1-1.5,0.4l-0.6,0.5L22.6,5.2z M25.5,4.4h0.1c0.3,0,0.5,0.2,0.7,0.4
			c0.1,0.1,0.1,0.2,0.2,0.3c0,0.1,0.1,0.3,0,0.4c0,0.2-0.1,0.4-0.3,0.6c0,0-0.1,0.1-0.1,0.1l-1,0.8l-1.3,1.1
			c-0.2,0.2-0.5,0.2-0.7,0.2l0,0c-0.2,0-0.5-0.2-0.6-0.3c-0.2-0.2-0.2-0.5-0.2-0.7c0,0,0,0,0-0.1s0,0,0,0c0-0.2,0.2-0.4,0.3-0.6
			l1.4-1.1l1-0.8l0,0C25.1,4.5,25.3,4.4,25.5,4.4z"/>
	</g>
</g>
</svg>
