<?xml version="1.0" encoding="utf-8"?>
<!-- Generator: Adobe Illustrator 24.1.2, SVG Export Plug-In . SVG Version: 6.00 Build 0)  -->
<svg version="1.1" id="Layer_1" xmlns="http://www.w3.org/2000/svg" xmlns:xlink="http://www.w3.org/1999/xlink" x="0px" y="0px"
	 viewBox="0 0 187 187" style="enable-background:new 0 0 187 187;" xml:space="preserve">
<style type="text/css">
	.st0{fill:#555555;}
</style>
<g id="Layer_2_1_">
	<g id="Layer_2-2">
		<path class="st0" d="M186,92.4l-1.2-1.1l-3.4-1.5v0.9l-3.2-0.7v0.9l-4.9,0.4l-1.2,0.4h-19l-0.7-0.9h-13.2l-0.2,0.9l2.7,4.5h9.5
			l0.7-0.4h21.2l1.9,0.4h8.5l1.7-0.9h1.7v-3H186z M120.8,89.3c-0.1,0.8-0.6,1.4-1.2,1.8c-0.6,0.4-1.2,0.6-1.9,0.5
			c-1.5-0.1-2.9-0.6-4-1.6c-1.4,6-3.8,13.8-7.3,19.2c8.6-0.8,14.3-15.1,16.1-20.3c-0.5,0.2-0.9,0.3-1.4,0.3L120.8,89.3z"/>
		<path class="st0" d="M148.2,107.4c-1.2-0.4-2.7,1.1-2.7,1.1l-1.4-3.3l-7.7-13l1-5.2L130,70.9c0,0-4.9,3.3-8.1,5.4
			c-0.8,0.5-1.4,0.9-1.9,1.2c-0.1,0-0.3,0.1-0.4,0.2c-0.1,0.1-0.2,0.1-0.3,0.2l-0.1,0.1c-0.1,0-0.1,0.2-0.1,0.3
			c-0.2,0.4-0.2,0.9-0.2,1.4c0.2,1.2,0.7,2.3,1.5,3.2c0.8,1,1.8,1.7,3,2.2c0.7,0.3,1.6,0.3,2.3,0c0.1-0.1,0.2-0.1,0.3-0.2h1.4
			l0.2-0.1c-0.2,0.5-0.5,1-1,1.3l2,2.7l-0.2,4.4l13.5,21.8c0.2,0.2,0.4,0.4,0.6,0.5c1,0.7,4.6-0.4,6.1-0.7s0.3-2.4,1.2-4.3
			C150.9,108.4,149.4,107.8,148.2,107.4z"/>
		<path class="st0" d="M184.3,98.4h-2.2l-0.2,0.9l-2.2-0.9h-2.2l0.5,0.7l-4.9-0.2l-1,0.4h-28.6l3,5h4.7l0.5-0.7h24.1l0.5,0.7h7.6
			l1.7-0.9h1.5v-3.3h-1.5L184.3,98.4L184.3,98.4z M19,89.1h-3.6L9,84.3H6.4v1.5l-2.6,0.3l-0.8,1.8l-0.8,1.8l1,1.5l2.9,2.4H3.8
			l-1.6,0.3l-1.6,0.3l-0.3,6l1.6,1.2l3.4,1.1l1.8,0.4L0,105.5l1,6l6.2,0.8l-5,2.7l1.9,3.6l0.5-0.1l1.7-0.5v1.8h0.4l0.2-0.2l0.4-0.2
			l0.3-0.1l0.3-0.1l0.2-0.1l0.4-0.2l1-0.4l0.3-0.2c0.5-0.4,0.9-0.7,1.3-1.2l0.2-0.2c0.1-0.1,0.2-0.2,0.3-0.4l0.3-0.3l0.4-0.5
			l0.1-0.2l0.2-0.3c0.1-0.2,0.3-0.4,0.4-0.5l0.1-0.2l0.1-0.2h3.9c-0.6-2-1.1-4.1-1.4-6.3C14.8,100.8,15.9,94.2,19,89.1z M113.5,87.9
			c1.7,2,4.1,3,5.3,2.1c0.4-0.3,0.6-0.7,0.7-1.1c-1.5-0.5-2.8-1.4-3.8-2.7c-1-1.1-1.6-2.4-1.8-3.8h-0.2c-0.4,0-0.7,0.1-1.1,0.3
			c-0.6,0.5-0.8,1.3-0.7,2C112.1,86,112.7,87.1,113.5,87.9z M116.8,85.6c1.7,2,4.1,3,5.3,2.1c0.5-0.3,0.7-0.9,0.7-1.5
			c-1.4-0.5-2.6-1.4-3.5-2.5c-0.9-1-1.5-2.2-1.8-3.5c-0.2,0-0.4-0.1-0.6-0.1c-0.4,0-0.7,0.1-1,0.3c-0.6,0.5-0.8,1.3-0.7,2
			C115.5,83.6,116,84.7,116.8,85.6z M104.7,84.4l0.7-1.8c-4.4,0.5-5.9,0.6-19.1-2v1.8c8.7,1.7,12.4,2.2,15.2,2.2
			C102.5,84.6,103.6,84.5,104.7,84.4z M103.3,86.9c-5-0.3-12.4-2.1-17.2-3.3v1.8c5.4,1.5,11,2.6,16.6,3.2L103.3,86.9z M102,91.6
			c-4.8-0.9-11.5-3.4-15.9-5.1v1.9c5,2,10.1,3.6,15.3,4.8L102,91.6z M36.9,105.9v-3.3l-8.3-0.8l8.4-4.4l-0.2-2.1l-0.1-1.7l0-0.2
			v-0.1l0.3-0.6l2.8-6.2L34.2,89l-2.5-3.8l-6.3-1.5l-3.7,2.3v12l2.3,5.9C23.9,103.8,36.9,105.9,36.9,105.9z"/>
		<path class="st0" d="M22.1,105.8l-2.4-6.5l0.2-4.7l0.1-1.4l-0.9,1.5C19.1,94.9,19,95,19,95.2c-0.6,1.6-0.9,3.3-0.9,5.1
			c0,4.5,0.6,8.9,1.6,13.3c0.1,0.3,0.1,0.4,0.1,0.4l2,0.8l7.7,3l2.9-2h6.9l-2.6-7.9L22.1,105.8z"/>
		<ellipse class="st0" cx="77.1" cy="66.1" rx="6" ry="2.6"/>
		<path class="st0" d="M77.1,72.2c3.1,0,5.3-0.9,5.9-1.9v-1.5c-1.1,1.1-3.4,1.8-6,1.8H77c-2,0.1-4-0.5-5.8-1.6v1.4
			C72,71.3,74.2,72.2,77.1,72.2z M63,77.2c-0.5,0.1-1,0.1-1.5,0.1c-1.5,0.1-3-0.3-4.4-1l0.3,1.7c1,0.7,3.1,1.1,5.7,0.8
			c1.5-0.1,3-0.6,4.3-1.3c1-0.6,1.5-1.2,1.4-1.8l-0.2-1C67.7,75.9,65.6,76.9,63,77.2z"/>
		<ellipse transform="matrix(0.9929 -0.1193 0.1193 0.9929 -8.2285 7.9588)" class="st0" cx="62.4" cy="72.7" rx="6" ry="2.6"/>
		<path class="st0" d="M47.3,73.3c3.2-0.9,5.5-2.7,5.1-4.1s-3.3-1.8-6.5-1s-5.5,2.7-5.1,4.1S44.1,74.2,47.3,73.3z M47.6,75.3
			c-1,0.2-2,0.4-3,0.4c-1,0-2-0.2-3-0.5l0.4,1.3c0.9,0.7,3.3,1,6.1,0.2c2.9-0.8,4.8-2.2,5.2-3.2L53,72.2c-0.3,0.5-0.7,0.9-1.1,1.2
			C50.6,74.3,49.2,74.9,47.6,75.3z"/>
		<path class="st0" d="M127.3,89.1l-1.5-2.2c-1.2,4.1-6.1,19.3-13.3,24.1c-0.8,0.4-1.6,0.8-2.5,1.1c-4,1.3-20.6,0-20.6,0
			s1.4-1.8,11-2.3L79.7,96.4l-0.6,0.2l4.8,10.5l-15,5.4l-0.9-2l12.8-4.6l-5-10.7l4.3-1.2l23.4,15.3c2.6-3.5,5-9.3,7-16.6
			c0.4-1.7,0.8-3.2,1.1-4.7c-0.7-0.9-1.1-2-1.3-3.1c-0.1-0.5,0-1,0.1-1.4l-3.1-1.2l-0.6,1.6l-0.1,0.2l-1.4,3.9l-0.6,1.7l-0.7,2.1
			l-0.6,1.7l-2.1,5.8l-17.1-10l0.4-9.1h-0.2l-0.4-0.1l-1-0.1l0.1-8.3c-1.8,1.1-3.8,1.6-5.9,1.5c-2,0.1-4.1-0.4-5.8-1.4v6.6l-1.9,0.7
			l-0.3-1.7c-0.4,0.4-0.8,0.7-1.2,0.9c-1.5,0.8-3.1,1.3-4.7,1.5c-0.6,0.1-1.2,0.1-1.9,0.1c-1.3,0-2.5-0.2-3.7-0.7l0.3,1.4
			c0,0,0,0,0,0.1V81c0,0,0,0.1,0,0.1v0c0,0,0,0.1,0,0.1l-1,0.2l-0.5,0.1l-1,0.2l-2-7.1c-1.4,1.4-3.3,2.4-5.3,2.9
			c-1.2,0.3-2.4,0.5-3.6,0.5c-0.8,0-1.6-0.1-2.4-0.4l1.9,6.3l-1,0.2l-1.5,0.3l-0.6,3.1l-2.7,5.9l0.4,1.9v0.1l0.3,11.9
			c0.2-0.1,1.4,5.2,1.4,5.2l9.1,1.2l-3.4,1.5l3.4,2.6l3.1-1.2c0,0,7.4,4.4,10.8,6c7,3.2,16.2-4.9,17.8-7.2c0.5,0.2,7.6,3.9,7.6,3.9
			s26.1,0.9,28,0.7s3.2-1.9,3.4-4.1s4.7-7.6,4.7-7.6l10.7-0.2c0.3,0.1,0.6,0.2,0.9,0.3L127,93.4L127.3,89.1z M59.5,108.4
			c0,0-3.3-1.7-7.1-3.3c-0.7-0.3-1.4-0.6-2.1-0.8c-4.6-1.8,0-6.5,0-6.5c1.7,0.3,3.4,0.8,5.1,1.3c2.6,0.9,5.2,2.2,5.5,4
			C61.3,105,60.8,107,59.5,108.4z"/>
	</g>
</g>
</svg>
