<?xml version="1.0" encoding="utf-8"?>
<!-- Generator: Adobe Illustrator 24.1.2, SVG Export Plug-In . SVG Version: 6.00 Build 0)  -->
<svg version="1.1" id="Layer_1" xmlns="http://www.w3.org/2000/svg" xmlns:xlink="http://www.w3.org/1999/xlink" x="0px" y="0px"
	 viewBox="0 0 51.7 51.7" style="enable-background:new 0 0 51.7 51.7;" xml:space="preserve">
<style type="text/css">
	.st0{fill:#555555;}
	.st1{opacity:0.4;fill:#555555;enable-background:new    ;}
</style>
<g id="Layer_2_1_">
	<g id="Layer_2-2">
		<polygon class="st0" points="5.8,21.1 7.3,20.9 5.8,21.1 		"/>
		<polygon class="st0" points="5.4,23.9 7.4,23.7 7.4,23.7 5.4,23.9 		"/>
		<polygon class="st0" points="12.5,12.8 12.7,11.6 13.9,11.5 13.9,11.5 12.7,11.6 		"/>
		<polygon class="st0" points="10.8,23.3 11.1,21.8 10.8,23.3 10,23.4 10,23.4 		"/>
		<polygon class="st0" points="11.5,19.1 11.5,19.1 11.3,20.3 		"/>
		<path class="st0" d="M17,12.2c-1.5,1.1-2.9,2.5-4,4l-0.3,1.6v0.1l0,0l-0.1,0.8c1.5-2.9,3.8-5.2,6.6-6.7l-1.9,0.1L17,12.2z"/>
		<path class="st1" d="M47.5,24.9C47,14,38.3,5.3,27.4,4.8V0.3h-2v4.5C21.7,4.9,18,6.1,14.9,8.2l1.7,1.3c2.7-1.6,5.7-2.5,8.8-2.7
			v2.5c-2.3,0.1-4.6,0.8-6.6,1.9l0.9,0.7c7.8-3.7,17.1-0.5,20.8,7.3c3.7,7.8,0.5,17.1-7.3,20.8c-7.8,3.7-17.1,0.5-20.8-7.3
			c-1-2.1-1.5-4.4-1.5-6.8c0-0.5,0-1.1,0.1-1.6l-1,0.1c0,0.5-0.1,1-0.1,1.5c0,9.2,7.4,16.6,16.6,16.7S43,35.1,43.1,26
			c0-9.2-7.4-16.6-16.6-16.7c0,0,0,0-0.1,0l0,0c0.3,0,0.7,0,1,0.1V6.8c9.8,0.5,17.6,8.3,18.1,18.1H43c0,0.3,0,0.7,0,1s0,0.7,0,1h2.5
			C45,36.6,37.2,44.4,27.4,45v-2.5c-0.3,0-0.7,0-1,0s-0.7,0-1,0V45c-9.8-0.5-17.6-8.3-18.1-18.1h2.5c0-0.3,0-0.7,0-1s0-0.7,0-1H7.3
			c0,0,0-0.1,0-0.1L6,24.9l-3,0.4l-1.3,0.2l0.1-0.5H1.1v2h4.2C5.9,37.7,14.6,46.4,25.4,47v4.5h2V47c10.9-0.5,19.6-9.2,20.1-20.1h4.2
			v-2H47.5z"/>
		<path class="st0" d="M20,16.4c-0.7,0-1.5,4.1-1.5,4.1v0.2l3.1-0.1v-0.2C21.6,20.5,20.7,16.4,20,16.4z"/>
		
			<rect x="18.6" y="21.2" transform="matrix(0.9998 -1.762691e-02 1.762691e-02 0.9998 -0.4467 0.359)" class="st0" width="3.1" height="8.7"/>
		
			<rect x="18.7" y="30.3" transform="matrix(0.9998 -1.762691e-02 1.762691e-02 0.9998 -0.5439 0.3616)" class="st0" width="3.1" height="1.4"/>
		<path class="st0" d="M32.2,21.6c-0.7,0-1.5,4.1-1.5,4.1v0.2l3.1,0v-0.2C33.8,25.6,32.8,21.5,32.2,21.6z"/>
		
			<rect x="30.9" y="35.5" transform="matrix(0.9998 -1.762691e-02 1.762691e-02 0.9998 -0.6327 0.577)" class="st0" width="3.1" height="1.4"/>
		
			<rect x="30.9" y="26.3" transform="matrix(0.9998 -1.999600e-02 1.999600e-02 0.9998 -0.6051 0.6541)" class="st0" width="3.1" height="8.7"/>
		
			<rect x="24.7" y="23.8" transform="matrix(0.9998 -1.762691e-02 1.762691e-02 0.9998 -0.4911 0.4668)" class="st0" width="3.1" height="8.7"/>
		
			<rect x="24.8" y="32.9" transform="matrix(0.9998 -1.762691e-02 1.762691e-02 0.9998 -0.5883 0.4694)" class="st0" width="3.1" height="1.4"/>
		<path class="st0" d="M26.1,19c-0.7,0-1.5,4.1-1.5,4.1v0.2l3.1-0.1v-0.2C27.7,23.1,26.8,19,26.1,19z"/>
		<polygon class="st0" points="5,12.2 3.9,18.7 11.7,17.7 12.5,12.8 12.7,11.6 13.9,11.5 17.2,11.2 9.5,5.3 0,12.6 2.5,12.4 		"/>
		<polygon class="st0" points="11.1,21.8 10.3,21.9 7.6,22.3 5.6,22.5 3.1,22.9 3,23.6 2.9,24.2 5.4,23.9 7.4,23.7 10,23.4 
			10.8,23.3 		"/>
		<polygon class="st0" points="11.3,20.3 11.5,19.1 3.6,20.1 3.4,21.4 5.8,21.1 7.3,20.9 11.3,20.4 		"/>
	</g>
</g>
</svg>
