<svg xmlns="http://www.w3.org/2000/svg" viewBox="0 0 57.46 57.46">
  <defs>
    <style>
      .cls-1{fill:#555}
    </style>
  </defs>
  <g id="Layer_2" data-name="Layer 2">
    <g id="Layer_2-2" data-name="Layer 2">
      <path class="cls-1" d="M13.53 36.59l1.42-1.74-1.42 1.74zM15.69 33.94l3.51 2.86.53-.65-.53.65-3.51-2.86zM23.25 37.08l1.39 1.13-1.39-1.13zM28.92 37.3l-3.51-2.86 3.51 2.86.29-.37-.29.37z"/>
      <path class="cls-1" d="M52.58 44.67s-11.31-3.38-12.37-9.52c-1-5.94 7.91-8.58 8.5-8.75-.33.09-7.49 2.11-8.49-1.47S52 12.52 52 12.52s-10.7 6.55-11.93 4.82S41.76 6 41.76 6 35 17 29.54 16.43s-4.81-10-4.81-10-.49 7.78-2.64 9-11.43-10-11.43-10 7.26 11.38 5 13.31-12.41-3.39-12.41-3.39a85 85 0 016.69 6.31s2.71 3.38 3 3.81l.12.18c.07.11.11.22.17.33 1.22 2.49-.33 5.66-1.25 7.16a5 5 0 013.29-.2l4.47-5.49.14-.16-.06-.05.81-.78c.06-.06.11-.12.17-.17a2.46 2.46 0 01.22-.17 3.74 3.74 0 01.58-.4l.17-.1a4.62 4.62 0 01.83-.33h.11a3.66 3.66 0 01.74-.1h.27a3 3 0 01.62.1.9.9 0 01.22.06 2.83 2.83 0 01.77.42c1.25 1 1.34 3.05.21 4.84l-.16.24-.06.08-.39.62L23 33.72l-1.32 1.61 1.21.61 1-1.23.63-.78.11-.13 4.78-5.86.13-.17-.05-.05.43-.41.12-.15.24-.24.17-.17.22-.17a5.45 5.45 0 01.58-.4l.17-.1a4.13 4.13 0 01.82-.33h.15a3.57 3.57 0 01.71-.1h.27a2.85 2.85 0 01.62.1l.22.07a2.44 2.44 0 011.27 1 3.09 3.09 0 01.52 1.99 4.63 4.63 0 01-.36 1.43 5.59 5.59 0 01-.42.79l-.16.25-.06.08-.39.62-.07-.05-.11.13-1.75 2.15-3 3.72-.1.13-.52.64-.1.13-.45.55c.37.29.47.44.2.35.15.18 3.27 3.81 6 12.36-.27-2.58-.48-6.2.41-6.84 1.42-1 10.8 8.21 10.8 8.21a38.83 38.83 0 01-5.45-8.67c-1.65-4.13 12.11-.12 12.11-.12z" opacity=".4"/>
      <path class="cls-1" d="M34.75 29.85a4.13 4.13 0 01-.35.65L31 27.69l3.4 2.81a4.13 4.13 0 00.35-.65zM23.93 30.9zM33.7 31.43l-1.75 2.15 1.75-2.15zM21.24 27.2l1.43 1.16-1.43-1.16zM13.53 36.59l3.51 2.86.95-1.16.47-.58-3.51-2.86-1.42 1.74zM24.68 30l.05-.09a4.56 4.56 0 00.44-1 3.17 3.17 0 00.15-.94 1.85 1.85 0 00-.64-1.53 1.45 1.45 0 00-.47-.26h-.16a1.25 1.25 0 00-.19 0 1.38 1.38 0 00-.2 0 1.08 1.08 0 00-.18 0 2.58 2.58 0 00-.54.07h-.08a3.44 3.44 0 00-.64.26l-.17.1a4.35 4.35 0 00-.47.32l-.17.14c-.06 0-.11.12-.17.17l1.43 1.16zM23.96 30.92l-.03-.02-3.43-2.8-.04-.03-4.77 5.87 3.51 2.86.53-.65 1.25-1.53 1.24-1.54 1.76-2.15-.02-.01zM23.25 37.08l1.39 1.13 2.12 1.73.94-1.15.48-.59-3.51-2.86-1.42 1.74z"/>
      <path class="cls-1" d="M34.75 29.85a3.71 3.71 0 00.25-1.12 2.54 2.54 0 000-.39 2.05 2.05 0 00-.32-1 1.47 1.47 0 00-.28-.34 1.63 1.63 0 00-.47-.25h-.16a2.28 2.28 0 00-.39-.06h-.18a2.52 2.52 0 00-.53.08h-.09a3.44 3.44 0 00-.64.26h-.06l-.11.06a3.54 3.54 0 00-.46.33l-.18.14-.17.16 3.44 2.78a4.13 4.13 0 00.35-.65zM29.21 36.93l1.68-2.06 1.06-1.29 1.75-2.15-3.52-2.86-4.77 5.87 3.51 2.86.29-.37zM44.06 13.04l8.99-7.84-1.64-3.29-7.35 11.13zM6.25 8.67L3.71 9.95l8.64 5.63-6.1-6.91zM19.78 6.45l-1.87-.17 2.88 6.16-1.01-5.99zM51.68 40.32l1.25-2.06-8.56-3.05 7.31 5.11zM50.74 33.86l.17-1.64-6.22.62 6.05 1.02zM34.13 6.4l-2.09 6.04 3.54-5.18-1.45-.86zM52.08 21.9l-.21-2.29-8.36 2.52 8.57-.23zM29.99 0l-3.1.13 2.85 11.39L29.99 0zM14.82 41.13L12 38.76l-.35.5-.33.49c-.07.09-.14.2-.21.31l-.15.2-.57.83-.13.19-.16.24-.24.34-.29.42-.12.17-.33.48-.16.23-.19.28-.33.46-.25.37-.19.26-.37.53-.18.26-.29.41c-.09.13-.18.27-.28.4l-.22.32-.29.42-.37.43-.23.33-.3.43-.23.33c-.11.14-.21.29-.31.44l-.26.36-.24.35-.27.38-.27.38-.27.38-.17.32-.28.38-.17.31-.3.31-.22.31-.23.32L2 53l-.21.28-.21.29-.19.27-.13.16-.19.26-.15.21-.16.21-.14.19-.13.17c0 .06-.09.11-.12.16a1.34 1.34 0 00-.11.14l-.1.11-.08.1-.08.12 11.37-11.14zM21.6 39.48l-.47.65-.53.71-1.23 1.66-.28.38-.25.35-.21.28c-.12.15-.23.31-.35.47l-.73 1-.14.19-.28.38-.4.54-.1.14-.45.6-.2.27-.44.59c-.06.07-.11.15-.17.23l-.36.49-.3.39-.34.46-.26.35c-.11.15-.22.3-.34.44l-.31.42-.25.34-.35.46c-.11.15-.22.29-.32.44s-.15.19-.22.28l-.35.47-.25.33-.3.4-.23.3-.3.4-.23.3-.26.33-.24.32-.21.28-.24.3c-.06.09-.13.17-.19.25l-.25.33-.17.23-.19.23-.15.19-.15.19-.13.16-.12.15-.11.12-.09.1-.07.08 13-12.17 3.77-3.52-3.07-2.54z"/>
    </g>
  </g>
</svg>