<?xml version="1.0" encoding="utf-8"?>
<!-- Generator: Adobe Illustrator 24.1.2, SVG Export Plug-In . SVG Version: 6.00 Build 0)  -->
<svg version="1.1" id="Layer_1" xmlns="http://www.w3.org/2000/svg" xmlns:xlink="http://www.w3.org/1999/xlink" x="0px" y="0px"
	 viewBox="0 0 53.1 53.1" style="enable-background:new 0 0 53.1 53.1;" xml:space="preserve">
<style type="text/css">
	.st0{opacity:0.4;fill:#555555;enable-background:new    ;}
	.st1{fill:#555555;}
</style>
<g id="Layer_2_1_">
	<g id="Layer_1-2">
		<path class="st0" d="M42.4,19.6H29.9l0.1,0.5l4.3,5.2l1,1.3l-1,1.3L30.1,33l-0.1,0.5h12.4l-1.1,7.4l11.8-14.4L41.3,12.2L42.4,19.6
			z M32.8,26.5L32,25.5L32.8,26.5z"/>
		<path class="st1" d="M6,12H0l11.9,14.6L0,41.1h6l11.9-14.6L6,12z"/>
		<path class="st1" d="M32,25.5L20.9,12H9.6l11.9,14.6l-5.4,6.6l-6.6,8h11.3l11.9-14.6C32.8,26.5,31.9,25.5,32,25.5z"/>
	</g>
</g>
</svg>
