<?xml version="1.0" encoding="utf-8"?>
<!-- Generator: Adobe Illustrator 24.1.2, SVG Export Plug-In . SVG Version: 6.00 Build 0)  -->
<svg version="1.1" id="Layer_1" xmlns="http://www.w3.org/2000/svg" xmlns:xlink="http://www.w3.org/1999/xlink" x="0px" y="0px"
	 viewBox="0 0 49 49" style="enable-background:new 0 0 49 49;" xml:space="preserve">
<style type="text/css">
	.st0{opacity:0.4;fill:#555555;enable-background:new    ;}
	.st1{fill:#555555;}
</style>
<g id="Layer_2_1_">
	<g id="Layer_1-2">
		<path class="st0" d="M28.8,30.2l9-11l-9-11h-4.5l9,11l-7.6,9.3c0,0.6,0,1.2-0.1,1.8H28.8z"/>
		<polygon class="st1" points="31.5,8.2 40.5,19.2 31.5,30.2 40,30.2 49,19.2 40,8.2 		"/>
		<path class="st1" d="M1.8,16.4c-0.1,0.1-0.3,0.3-0.4,0.5C0.5,18,0,19.5,0,20.9c0,1.6,0.6,3.2,1.7,4.4c0.4,0.4,0.8,0.7,1.2,1l0,0
			c-0.2,0.3-0.3,0.7-0.4,1C2.2,28.4,2,29.6,2,30.7c-0.1,5.5,4.3,10,9.8,10.1c5.5-0.1,9.8-4.6,9.8-10.1c0-2.5-0.9-4.9-2.5-6.7
			c-0.9-1.1-2.1-1.9-3.4-2.5l0,0c0.1-0.1,0.2-0.2,0.3-0.4c0.1-0.1,0.1-0.3,0.2-0.4c0.1-0.4,0-0.9-0.1-1.3c2.3,0.5,4.4,2.7,5.6,3.9
			c1.3,1.4,1.3,8.1,1.3,8.1h1.3c0.1-0.1,0.2-0.2,0.2-0.3c0.1-0.3,0.2-0.6,0.2-0.9c0-0.1,0-0.1,0-0.2c0.1-0.7,0.1-1.5,0.1-2.2
			c0-0.5,0-1.1-0.1-1.6c-0.1-0.8-0.1-1.6-0.2-2.3c0-0.5-0.1-0.9-0.1-1.2C24.1,22.2,24,22,24,22L13.7,11.2l-6.5,1.3l-1,2
			C4.5,14.6,2.9,15.2,1.8,16.4z M7.7,16.2c0.6,1.1,1.3,2.2,2.1,3.1c-0.4,0.3-0.6,0.8-0.6,1.3c0,0.1,0,0.3,0.1,0.4l0,0
			c-0.6,0.2-1.2,0.4-1.7,0.6C7,21.9,6.5,22.2,6,22.5c-0.2,0.2-0.5,0.4-0.7,0.6c-0.5,0.4-0.9,0.8-1.2,1.3c-0.2,0.2-0.4,0.5-0.5,0.8
			c-1.4-0.9-2.3-2.5-2.3-4.2c0-2.7,2.2-4.9,4.9-5C6.7,16,7.2,16,7.7,16.2z"/>
	</g>
</g>
</svg>
