<?xml version="1.0" encoding="utf-8"?>
<!-- Generator: Adobe Illustrator 24.1.2, SVG Export Plug-In . SVG Version: 6.00 Build 0)  -->
<svg version="1.1" id="Layer_1" xmlns="http://www.w3.org/2000/svg" xmlns:xlink="http://www.w3.org/1999/xlink" x="0px" y="0px"
	 viewBox="0 0 52.3 52.3" style="enable-background:new 0 0 52.3 52.3;" xml:space="preserve">
<style type="text/css">
	.st0{opacity:0.4;fill:#555555;enable-background:new    ;}
	.st1{fill:#555555;}
</style>
<g id="Layer_2_1_">
	<g id="Layer_1-2">
		<polygon class="st0" points="23.6,26.2 20.9,28.9 23.6,26.2 		"/>
		<polygon class="st0" points="26.2,23.6 23.4,20.9 20.9,23.4 23.4,20.9 		"/>
		<polygon class="st0" points="44.2,40.5 44.2,33.2 40.2,29.9 36.2,34 		"/>
		<polygon class="st0" points="8.2,33.7 8.2,40.5 11.9,37.5 8.3,33.9 		"/>
		<polygon class="st0" points="31.4,23.4 28.9,20.9 26.2,23.6 28.9,20.9 		"/>
		<polygon class="st0" points="44.2,52.3 44.2,45 33.7,36.4 29.7,40.5 		"/>
		<polygon class="st0" points="8.2,45 8.2,52.3 18.4,43.9 14.3,39.9 		"/>
		<polygon class="st0" points="26.2,0 8.2,14.7 8.2,26.3 8.3,26.2 10.2,24.3 10.2,18.8 10.2,18 10.8,17.4 14.8,13.4 17.4,10.8 
			18,10.2 18.8,10.2 24.3,10.2 26.2,8.3 26.8,7.7 27.6,7.7 32.5,7.7 33.3,7.7 33.9,8.3 44,18.5 44.2,18.6 44.2,14.7 		"/>
		<polygon class="st0" points="42.6,27.5 44.2,28.7 44.2,26 44,26.1 		"/>
		<polygon class="st0" points="15,20 15,20 16.7,18.2 		"/>
		<path class="st1" d="M27.6,9.7l-2.4,2.5h-6.3l-2.6,2.6l-4,4v6.3l0,0l-2.5,2.5v4.9l10.1,10.1h4.9l17.9-17.9v-4.9L32.5,9.7H27.6z
			 M15,22.4V20l0,0l1.8-1.8L20,15h2.4L15,22.4z M31.4,28.9l-2.5,2.5l-2.7-2.7l-2.7,2.7l-2.5-2.5l2.7-2.7l-2.7-2.7l2.5-2.5l2.7,2.7
			l2.7-2.7l2.5,2.5l-2.7,2.7L31.4,28.9z"/>
	</g>
</g>
</svg>
