<?xml version="1.0" encoding="utf-8"?>
<!-- Generator: Adobe Illustrator 24.1.2, SVG Export Plug-In . SVG Version: 6.00 Build 0)  -->
<svg version="1.1" id="Layer_1" xmlns="http://www.w3.org/2000/svg" xmlns:xlink="http://www.w3.org/1999/xlink" x="0px" y="0px"
	 viewBox="0 0 57.5 57.5" style="enable-background:new 0 0 57.5 57.5;" xml:space="preserve">
<style type="text/css">
	.st0{fill:none;}
	.st1{opacity:0.4;fill:#555555;enable-background:new    ;}
	.st2{fill:#555555;}
</style>
<g id="Layer_2_1_">
	<g id="Layer_1-2">
		<path class="st0" d="M1.5,45.4c0.1,0.3,0.3,0.5,0.5,0.8c0.2,0.3,0.4,0.5,0.5,0.7c-0.2-0.2-0.4-0.5-0.5-0.7
			C1.8,45.9,1.7,45.7,1.5,45.4z M47.9,27.6c-0.1-0.1-0.3-0.1-0.5-0.2C47.6,27.5,47.8,27.6,47.9,27.6z M0.7,43.2
			c-0.2-0.8-0.3-1.6-0.3-2.4C0.4,41.7,0.5,42.5,0.7,43.2z M51.1,35.2c0.2-0.6,0.3-1.3,0.3-2c0-0.6-0.1-1.2-0.3-1.8
			c0.2,0.6,0.3,1.2,0.3,1.8C51.4,33.8,51.3,34.5,51.1,35.2z M1.5,45.4c-0.4-0.7-0.7-1.4-0.9-2.2C0.9,44,1.2,44.7,1.5,45.4z"/>
		<path class="st1" d="M13.3,29.9c0.4-1.2,0.8-2.3,1.4-3.3c1-1.8,2.3-3.3,3.8-4.7c3.2-2.7,7.2-4.2,11.4-4.2h0.6
			c2.6,0,5.1,0.7,7.3,1.9c1.3,0.7,2.5,1.5,3.6,2.5c0.3,0.3,0.5,0.5,0.8,0.8c0.7,0.7,1.3,1.5,1.9,2.3c0.4-0.1,0.7-0.1,1.1-0.1
			c1.4,0,2.8,0.4,4,1c2.2-2.5,2-6.3-0.5-8.5c-1.1-1-2.5-1.5-3.9-1.5c-0.3-2-1.2-3.9-2.6-5.5c-2.8-3.1-6.6-3.4-8.9-3.4
			c-4.2,0-7.8,3.1-8.3,7.3c-0.2,0-0.4,0-0.6,0c-1.4,0-2.7,0.5-3.8,1.3c-3.7-2.9-9.1-2.3-12,1.4c-1.1,1.4-1.7,3.1-1.8,4.9
			c-2.6-0.9-5.4,0.4-6.4,2.9s0.4,5.4,2.9,6.4l0,0C6.3,29.4,9.9,28.8,13.3,29.9L13.3,29.9z M47.5,27.5c-0.4-0.1-0.8-0.2-1.3-0.3
			C46.6,27.2,47,27.3,47.5,27.5L47.5,27.5z"/>
		<path class="st2" d="M51.1,35.2c0.2-0.6,0.3-1.3,0.3-2c0-0.6-0.1-1.2-0.3-1.8c-0.1-0.2-0.1-0.4-0.2-0.6c-0.2-0.5-0.5-1-0.9-1.5
			c-0.6-0.7-1.3-1.2-2.1-1.6c-0.1-0.1-0.3-0.1-0.5-0.2c-0.4-0.1-0.8-0.2-1.3-0.3c-0.3,0-0.6-0.1-0.9-0.1c-0.3,0-0.7,0-1,0.1
			c-0.3,0.1-0.7,0.1-1,0.3c-0.7-1.1-1.5-2.2-2.4-3.1c-0.2-0.2-0.5-0.5-0.7-0.7c-1-0.9-2.1-1.6-3.2-2.2l-0.1-0.1l-0.1-0.1l-0.2-0.1
			l-0.1,0h-0.1L36.1,21L36,20.9l-0.2-0.1l-0.2-0.1l-0.2-0.1l-0.2-0.1L35,20.5l-0.2-0.1l-0.3-0.1l-0.2-0.1l-0.2-0.1h-0.3l-0.3-0.1
			L33.3,20L33,19.9h-0.3l-0.3-0.1h-2c-0.2,0-0.4,0-0.5,0c-3.2,0-6.4,1-9,2.9c-0.4,0.3-0.7,0.5-1,0.8s-0.7,0.6-1,0.9s-0.6,0.6-0.9,1
			s-0.5,0.7-0.8,1.1s-0.5,0.7-0.7,1.1c-0.9,1.6-1.5,3.3-1.8,5.1c-4.5-2.7-10.3-1.1-13,3.4c-0.8,1.4-1.3,3-1.3,4.6
			c0,0.8,0.1,1.6,0.3,2.4c0.2,0.8,0.5,1.5,0.9,2.2c0.1,0.3,0.3,0.5,0.5,0.8c0.2,0.3,0.4,0.5,0.5,0.7s0.4,0.5,0.6,0.7
			c1.8,1.8,4.2,2.8,6.7,2.8h40c4.2-0.2,7.5-3.8,7.4-8C57.1,38.8,54.5,35.9,51.1,35.2z M29.9,46.2h-0.7c-7.6-0.4-12.5-6.8-12.7-7.1
			L16,38.4l0.4-0.6c1.5-2.1,3.4-3.9,5.5-5.5l1.4,1.4c-1.8,1.3-3.4,2.8-4.8,4.5c1.3,1.5,5.4,5.5,10.8,5.7c1.3,0,2.6-0.1,3.8-0.5
			l1.6,1.6C33.2,45.8,31.5,46.1,29.9,46.2z M25.9,36.5l5.5,5.5c-0.4,0.1-0.9,0.2-1.3,0.2c-2.4,0-4.3-1.9-4.3-4.3
			C25.7,37.4,25.7,36.9,25.9,36.5L25.9,36.5z M43.5,39.1c-1.4,1.5-3,2.9-4.8,4.1l1.9,1.9l-1.5,1.5L20.8,28.4l1.5-1.5l3.4,3.4
			c1.3-0.5,2.7-0.8,4.1-0.8c4.8-0.1,9.4,2.7,13.6,8.4l0.5,0.7L43.5,39.1z"/>
		<path class="st2" d="M30,31.4c-0.9,0-1.7,0.2-2.6,0.4l1.7,1.7c0.3-0.1,0.6-0.1,0.9-0.1c2.4,0,4.3,1.9,4.3,4.3c0,0.3,0,0.6-0.1,0.9
			l3,3c1.5-1,2.9-2.1,4.2-3.4C37.8,33.7,33.9,31.3,30,31.4z"/>
	</g>
</g>
</svg>
