<?xml version="1.0" encoding="utf-8"?>
<!-- Generator: Adobe Illustrator 24.1.2, SVG Export Plug-In . SVG Version: 6.00 Build 0)  -->
<svg version="1.1" id="Layer_1" xmlns="http://www.w3.org/2000/svg" xmlns:xlink="http://www.w3.org/1999/xlink" x="0px" y="0px"
	 viewBox="0 0 118 118" style="enable-background:new 0 0 118 118;" xml:space="preserve">
<style type="text/css">
	.st0{fill:#555555;}
</style>
<g id="Layer_2_1_">
	<g id="Layer_1-2">
		<path class="st0" d="M7.8,73.1l3.8,3.9l0.9-0.4l3.3-4.4l-2.3-2.8l2.3-2.6h2.1l1.6-4.6l8.1-9.8l-0.7-7.6L2.3,46L0,53l7,8.7
			L7.8,73.1z M53.5,70l3.3-4.2H55v-1.6h1.2l0.7-1.2l-1.4-0.8V57l3.5-1.8c-0.1-0.4-0.1-0.8-0.1-1.2H49v6.7H38.9l-4.8,4.4h-7.7V57
			l-4.8,5.9l2.3,4.5L19,71.2c0,0,2.9,4.1-3.4,7.4c0.8,0.5,2.9,2,8.6,5.9c7.1-4.8,22-2.8,22-2.8s0.2-0.3-0.7-2.4
			c-5.8-2.9-3-11.1-3-11.1h0.1V68L53.5,70z"/>
		<path class="st0" d="M47.4,69.9L45,69.5l-0.4,1.3c0,0,2.3,3.2,2.9,3.2c0.4-0.5,0.8-0.9,1.4-1.1C48,72.2,47.4,71.1,47.4,69.9z
			 M29.8,52.7h17.6v-5.9h2.2v-5.6h-6.8L36.5,39l-3.9,0.5L29,43.7L29.8,52.7C29.9,52.7,29.8,52.7,29.8,52.7z M71.1,42.7v-3.1h-4.2
			v1.6l-3.6,0.1v-1.7h-4.4v1.7h-3.7v-1.7h-4.3v7.4h6.9L71.1,42.7z M81.7,76.7l9.7,5l5.8-2.6l-1.6-0.8c-0.5-0.3-1-0.7-1.2-1.3
			c-0.2-0.6-0.1-1.2,0.3-1.6l2.1-3.1c0.5-0.7,1.3-1.1,2.1-1.1c0.4,0,0.9,0.2,1.2,0.4l4.9,2.5l10-0.9l0.6-7.4l-12.7-0.8l-12.2,0.9
			l-6.4-0.6c-1.3,0.1-2.4-0.9-2.5-2.2v-6.8h-2v-1.8l3.1-1.4h10.7l2.7-1.9h3.1l4.2,1.6c3.9-1.3,14.6-0.6,14.6-0.6l-3.2-8.4l-8.2-2.3
			l-6.3,3.5c-0.4,0.2-0.9,0.3-1.3,0.3c-0.8,0-1.6-0.4-2.1-1l-2.2-3.1c-0.3-0.5-0.5-1.1-0.3-1.6c0.2-0.6,0.5-1.1,1.1-1.3l1.2-0.6
			h-9.5l1.2,5.7L82.7,48v2.1l0.1,0.8L82,51.2L75.7,54l-0.3,0.1h-4.7l0.1,1.5l2.2,1.4L72.8,62l-2,1l0.9,0.9l2.4-0.5l1,0.4l-3.8,3.1
			L69,64.1h-2v1.8h-5.9l-0.3-2.1l-1.3-0.1l-0.3,0.5l0.3,0.2l-5.9,7.5l-0.2,4.6l-3.5,1.7l2.8,3.6c1.4,0.1,2.8,0.1,4.2,0
			c3.5-0.1,8.4-7.3,8.4-7.3l6.4-2.6l8.4-1.5L81.7,76.7z"/>
		<path class="st0" d="M49.3,48l-0.6,0v5h26.4l6.4-2.8L80,40.5h-7.7v2.9L58,48C58,48,49.3,48,49.3,48z M95.7,39.6
			c0,0-0.1,0.1-0.1,0.1v0.1c0,0.1,0,0.2,0,0.3c0,0.2,0.1,0.4,0.2,0.5l1.1,1.5l1.1,1.5l0.1,0.1l0.1,0.1l0.1,0.1l0.1,0.1h1l0.1,0
			l8.5-4.7l-3.3-4.8l-8.5,4.7C95.9,39.3,95.8,39.5,95.7,39.6z M109.6,38.5c0.5-0.2,0.7-0.8,0.5-1.3c0-0.1-0.1-0.1-0.1-0.2l-2.2-3.1
			c0,0,0-0.1-0.1-0.1l-0.1-0.1l-0.1-0.1l-0.1-0.1h-1l-0.1,0.1l-0.6,0.3l3.5,4.9L109.6,38.5z M90.4,55.8c0-0.1-0.1-0.2-0.3-0.3
			l-0.1,0h-4.5c-0.1,0-0.2,0.1-0.3,0.2v0.1c-0.1,0.2-0.1,0.4-0.1,0.6v5.3c0,0.2,0,0.4,0.1,0.6v0.1c0.1,0.1,0.2,0.2,0.3,0.2h4.6
			c0.1-0.1,0.2-0.2,0.3-0.3c0-0.1,0.1-0.1,0.1-0.2v-0.1c0-0.1,0-0.2,0-0.3v-5.3c0-0.1,0-0.2,0-0.3V56C90.4,55.9,90.4,55.9,90.4,55.8
			z M106.5,82.6h1l0.1-0.1l0.1-0.1l0.1-0.1c0,0,0.1-0.1,0.1-0.1l0.6-0.9l1.5-2.3c0.2-0.4,0.2-0.8-0.1-1.2l-0.1-0.1
			c-0.1-0.1-0.2-0.1-0.2-0.2h-0.1l-0.8-0.4l-3.3,5l0.8,0.4L106.5,82.6z M99.4,72.4l-0.1-0.1h-1c-0.1,0-0.2,0.1-0.2,0.2l-0.1,0.1
			c0,0,0,0-0.1,0.1l-0.1,0.1L97,73.9l-1.3,2c-0.3,0.4-0.2,1,0.3,1.3c0.1,0,0.1,0.1,0.2,0.1l2.3,1.1l4.2,2.1l2,1l3.3-5l-3.8-1.9
			L99.4,72.4z M35.3,58.8h5.9v-4.3H29.8l-0.4,0.3l-1.3,1.5v5.1h4.2L35.3,58.8z M53.4,71l0.2-1l-0.1,0l-10.9-2l0,0.2L42.4,69l2.6,0.5
			l2.4,0.4L53.4,71z"/>
	</g>
</g>
</svg>
