<?xml version="1.0" encoding="utf-8"?>
<!-- Generator: Adobe Illustrator 24.1.2, SVG Export Plug-In . SVG Version: 6.00 Build 0)  -->
<svg version="1.1" id="Layer_1" xmlns="http://www.w3.org/2000/svg" xmlns:xlink="http://www.w3.org/1999/xlink" x="0px" y="0px"
	 viewBox="0 0 60 60" style="enable-background:new 0 0 60 60;" xml:space="preserve">
<style type="text/css">
	.st0{fill:#555555;}
</style>
<g id="Layer_2_1_">
	<g id="Layer_1-2">
		<path class="st0" d="M55.6,18.9c-3.1-1-6.3-1.8-9.6-2.4c-2.1-0.4-4.3-0.7-6.4-1C36.4,15.2,33.2,15,30,15c-5.4,0-10.7,0.5-16,1.5
			c-3.2,0.6-6.4,1.4-9.6,2.4c0,0,0,0.4-0.1,1L0,21.7v8.4l4,1.7c0,1.9,0.1,3.8,0.3,5.6c0,0,5.1,4.2,19.5,7.6l0.8-3.4l4.2-3.4h1.7
			l4.7,3.4l0.9,3.4c3.1-0.7,6.1-1.6,9.1-2.6l1.8-0.6c1.1-0.4,2.1-0.8,3-1.2s1.6-0.8,2.3-1.1s1.2-0.6,1.7-0.9
			c0.6-0.3,1.1-0.7,1.6-1.1c0.2-1.7,0.3-3.6,0.3-5.6l4.1-1.7v-8.4l-4.4-1.8C55.6,19.3,55.6,18.9,55.6,18.9z M52.7,35.7
			c-1.8,1.1-6.2,3.5-14.4,5.6l-0.1-0.5l-0.3-1.1L37,39.2l-4.7-3.4l-0.8-0.6h-3.7L27,35.9l-4.2,3.4L22,39.9l-0.3,1l-0.1,0.5
			C13.4,39.2,9,36.8,7.2,35.7c-0.3-4.8-0.3-9.7,0-14.5C14.6,19.1,22.3,18,30,18c7.7,0,15.3,1.1,22.7,3.2C53,26,53,30.9,52.7,35.7z"
			/>
		<polygon class="st0" points="17,22.3 15.6,27.8 10,29.2 15.6,30.6 17,36.2 18.4,30.6 24,29.2 18.4,27.8 		"/>
	</g>
</g>
</svg>
