<?xml version="1.0" encoding="utf-8"?>
<!-- Generator: Adobe Illustrator 24.1.2, SVG Export Plug-In . SVG Version: 6.00 Build 0)  -->
<svg version="1.1" id="Layer_1" xmlns="http://www.w3.org/2000/svg" xmlns:xlink="http://www.w3.org/1999/xlink" x="0px" y="0px"
	 viewBox="0 0 58.8 58.8" style="enable-background:new 0 0 58.8 58.8;" xml:space="preserve">
<style type="text/css">
	.st0{opacity:0.4;fill:#555555;enable-background:new    ;}
	.st1{fill:#555555;}
</style>
<g id="Layer_2_1_">
	<g id="Layer_1-2">
		<path class="st0" d="M57.4,28.4c-1.1-1-4.6-4.4-5.9-7.1s-1.7-7-1.8-8.4l1.1-1l-1.3-1.5l-0.9,0.8c-1.6,0-6.9-0.2-10-1.4
			C35.6,8.6,32.9,7,30.4,5V3.7h-2v1c-1.2,1-5,4-8.1,5.2s-8.4,1.5-9.9,1.6l-1.2-1L8,12l0.9,0.8c-0.1,1.5-0.3,5.9-1.5,8.5
			s-4.7,6.2-5.6,7.1H0v2h1.3c1.1,1,4.6,4.4,5.9,7.1c1.3,2.7,1.7,7,1.8,8.4l-1,1l1.3,1.5l0.9-0.8c1.6,0,6.8,0.2,10,1.4
			c2.9,1.3,5.7,2.9,8.2,4.9v1.3h2v-1c1.2-1,5-4,8.1-5.2c3.2-1.2,8.4-1.5,9.9-1.6l1.2,1l1.3-1.5L50,46.1c0-1.5,0.3-5.9,1.5-8.5
			s4.7-6.2,5.6-7.2h1.7v-2H57.4z M54.5,28.4h-4c-1.7-1.5-3.1-3.2-4.3-5.2c-0.7-1.9-1.2-4-1.3-6.1l3-2.6c0.2,2.6,0.8,5.2,1.8,7.6
			C51,24.5,52.6,26.6,54.5,28.4z M21,11.7c2.7-1.1,5.2-2.6,7.4-4.5v3.5c-0.4,0.4-1.2,1-2.1,1.6l2.8-0.6l1.8-0.4H31L30.4,11V7.5
			c2.3,1.7,4.8,3.2,7.5,4.3c2.8,0.8,5.6,1.3,8.5,1.4l-2.7,2.4c-2.5,0-4.9-0.3-7.3-1c-1-0.4-2-0.9-2.9-1.5l3.6,3.8
			c1.5,0.3,2.9,0.5,4.4,0.6l-2.1,1.8l0.1,0.1l0.3,0.3l0.8,0.8l0.1,0.1l0.2,0.2l2.2-2c0.2,1.8,0.6,3.6,1.3,5.3c0.9,1.6,2,3,3.2,4.3
			h-3.3l-0.2-0.2c0,0.3,0.1,0.7,0.1,1s0,0.5,0,0.7v0.5h3.2c-1.2,1.3-2.3,2.8-3.1,4.4c-0.7,1.7-1.1,3.5-1.2,5.4l-2.4-2.1
			c0.1-0.8,0.2-1.5,0.3-2.3h-0.2c-0.2,1-0.5,1.9-0.9,2.8c-0.1,0.2-0.2,0.4-0.3,0.5l-0.2,0.3l-0.1,0.2l2,1.8
			c-1.2,0.1-2.5,0.3-3.7,0.5c-1.9,2.2-4.6,3.5-7.5,3.8c-0.4,0-0.7,0-1.1,0h-0.3c-3.2-0.1-6.3-1.5-8.4-3.9c-1.1-0.2-2.2-0.3-3.2-0.4
			l1.8-1.5c-0.3-0.5-0.5-0.9-0.7-1.4c-0.1-0.1-0.1-0.3-0.2-0.4L15.7,40c-0.2-1.8-0.6-3.6-1.4-5.3c-0.9-1.6-2-3-3.3-4.3h3.3
			c1.1,1,2.1,2.2,2.9,3.5l0.1,0.2v-0.6c0-0.9,0.1-1.8,0.3-2.6l-0.4-0.5h0.5c0.1-0.3,0.2-0.7,0.3-1c-0.3-0.3-0.6-0.6-0.9-0.9
			c-0.4-0.5-0.8-1.1-1.1-1.8c-0.6,0.7-1.2,1.3-1.5,1.7h-3.3c1.2-1.3,2.3-2.8,3.1-4.4c0.7-1.7,1.1-3.5,1.2-5.3l0.6,0.6
			c0.3-0.6,0.7-1.1,1.2-1.6h-0.1h0.1c1.3-1.4,3-2.3,4.8-2.5l0.3-0.5h-0.1c-2.4,0.7-4.8,1-7.2,1.1l-2.7-2.4
			C15.4,13.1,18.3,12.6,21,11.7z M9.1,22.1c1-2.5,1.5-5.1,1.6-7.7l3,2.6c0,2.1-0.4,4.2-1.1,6.2c-1.1,1.9-2.5,3.7-4.1,5.2H4.4
			C6.3,26.5,7.8,24.4,9.1,22.1z M4.2,30.4h4c1.7,1.5,3.1,3.2,4.3,5.2c0.8,2,1.2,4,1.4,6.1l-3,2.6c-0.2-2.6-0.8-5.2-1.8-7.6
			C7.8,34.3,6.2,32.2,4.2,30.4z M20.9,47c-2.8-0.8-5.6-1.3-8.5-1.4l2.7-2.4c2.5,0,4.9,0.3,7.3,1c2.1,0.9,4.1,2.1,6,3.6v3.5
			C26.1,49.5,23.6,48.1,20.9,47z M37.8,47c-2.7,1.1-5.2,2.6-7.4,4.5V48c1.8-1.5,3.8-2.8,5.9-3.7c2.4-0.7,4.8-1.1,7.2-1.2l2.7,2.4
			C43.4,45.6,40.5,46.2,37.8,47L37.8,47z M49.7,36.7c-1,2.5-1.5,5.1-1.7,7.7l-3-2.6c0-2.1,0.4-4.2,1.1-6.2c1.1-1.9,2.5-3.7,4.1-5.2
			h4.1C52.5,32.3,50.9,34.4,49.7,36.7z"/>
		<path class="st0" d="M20.1,21.4L20,21.6c-0.2,0.5-0.4,1.1-0.4,1.6c0,0.2,0,0.4,0,0.6c0.1-0.5,0.2-1,0.2-1.4l1.8,1.6
			c0.5-0.4,1.1-0.8,1.7-1.2l-1.9-1.6c1-0.1,2-0.3,3-0.6c-0.2-0.3-0.4-0.7-0.6-1c-0.1-0.1-0.1-0.2-0.2-0.3c-0.2,0-0.4,0-0.5,0
			C21.9,19.4,20.7,20.2,20.1,21.4z"/>
		<path class="st1" d="M22,16.6c-0.4,0.1-0.8,0.2-1.2,0.4c-0.2,0.1-0.4,0.2-0.6,0.3c-0.6,0.3-1.1,0.7-1.5,1.2
			c-0.3,0.3-0.6,0.6-0.8,1c-0.2,0.4-0.4,0.7-0.6,1.1c-0.3,0.8-0.5,1.7-0.5,2.6c0,2.3,1.2,4.4,3.1,5.7c-0.7,1.4-1,3-1,4.6
			c-0.1,5.8,4.5,10.5,10.3,10.6c5.8-0.1,10.4-4.9,10.3-10.6c0,0,0,0,0,0c0-3.4-1.6-6.6-4.2-8.6c-0.4-0.3-0.8-0.6-1.2-0.8l-0.7-0.3
			c0.1-0.1,0.1-0.2,0.2-0.3c0.4-0.6,0.4-1.3,0.1-1.9c2.4,0.5,4.7,2.9,5.8,4.1c1.4,1.4,1.4,8.5,1.4,8.5h1.4c1.4-1.4,0-9.9,0-9.9
			l-11-11.3l-6.9,1.4l-1,2.1C22.9,16.5,22.4,16.5,22,16.6z M24.9,18.2c0.1,0.2,0.3,0.5,0.5,0.8c0.5,0.9,1.1,1.7,1.8,2.5
			c-0.5,0.5-0.7,1.1-0.5,1.8c-2.5,0.7-4.6,2.3-6,4.5c-1.5-1-2.4-2.7-2.4-4.5c0-2.9,2.3-5.3,5.1-5.3C23.8,17.9,24.3,18,24.9,18.2
			L24.9,18.2z"/>
	</g>
</g>
</svg>
