<?xml version="1.0" encoding="utf-8"?>
<!-- Generator: Adobe Illustrator 24.1.2, SVG Export Plug-In . SVG Version: 6.00 Build 0)  -->
<svg version="1.1" id="Layer_1" xmlns="http://www.w3.org/2000/svg" xmlns:xlink="http://www.w3.org/1999/xlink" x="0px" y="0px"
	 viewBox="0 0 56.3 56.3" style="enable-background:new 0 0 56.3 56.3;" xml:space="preserve">
<style type="text/css">
	.st0{opacity:0.4;fill:#555555;enable-background:new    ;}
	.st1{fill:#555555;}
</style>
<g id="Layer_2_1_">
	<g id="Layer_1-2">
		<path class="st0" d="M56.3,17.5L44.5,5.7h-4.2l11,11V24l-2.3,2.3c1,0.4,1.9,0.9,2.7,1.5l4.6-4.6L56.3,17.5z"/>
		<path class="st0" d="M30.5,36.8L23.3,44h4.2l3-3c-0.1-0.7-0.2-1.3-0.2-2C30.3,38.2,30.3,37.5,30.5,36.8z"/>
		<path class="st0" d="M48.3,17.5L36.5,5.7h-4.2l11,11V24l-1.5,1.5c0.7-0.1,1.4-0.2,2.2-0.2c0.7,0,1.3,0.1,2,0.2l2.3-2.4L48.3,17.5z
			"/>
		<path class="st1" d="M38.3,23.2v-5.7L26.5,5.7h-5.7l-0.9,0.9l-2,2h-7.3l-3,3l-4.7,4.7v7.3L0,26.5v5.7L11.8,44h5.7L38.3,23.2z
			 M6.1,20.4v-2.8l2.1-2.1l3.8-3.8h2.8L6.1,20.4z M13,28l3.2-3.2L13,21.7l3-3l3.2,3.2l3.1-3.2l2.9,3l-3.2,3.2l3.2,3.2l-2.9,2.9
			l-3.2-3.2L16,30.9L13,28z"/>
		<path class="st1" d="M37.4,29.3c-5.3,3.6-6.7,10.8-3.1,16.1s10.8,6.7,16.1,3.1c3.2-2.2,5.1-5.8,5.1-9.6c0-2.3-0.7-4.6-2-6.5
			c-0.2-0.3-0.4-0.6-0.7-0.9c-0.5-0.6-1-1.1-1.6-1.6C47.3,26.7,41.6,26.5,37.4,29.3L37.4,29.3z M50.5,37.9v2h-5.6v5.6h-2v-5.6h-5.6
			v-2h5.6v-5.6h2v5.6H50.5z"/>
	</g>
</g>
</svg>
