<?xml version="1.0" encoding="utf-8"?>
<!-- Generator: Adobe Illustrator 24.1.2, SVG Export Plug-In . SVG Version: 6.00 Build 0)  -->
<svg version="1.1" id="Layer_1" xmlns="http://www.w3.org/2000/svg" xmlns:xlink="http://www.w3.org/1999/xlink" x="0px" y="0px"
	 viewBox="0 0 94 94" style="enable-background:new 0 0 94 94;" xml:space="preserve">
<style type="text/css">
	.st0{fill:#555555;}
</style>
<g id="Layer_2_1_">
	<g id="Layer_1-2">
		<path class="st0" d="M57.2,13.8c0.9,2.1,1.7,3.9,2.5,5.8c0.5,1,0.9,2.1,1.2,3.1c0.4,1.6-0.3,3.2-1.7,4s-3.1,0.7-4.3-0.3
			c-1.3-1-1.8-2.8-1.2-4.3C54.7,19.4,55.9,16.7,57.2,13.8z M39.8,0c1,2.4,2.1,4.8,3.1,7.2c1,2.2,1.9,4.5,2.7,6.8
			c0.7,2.5-0.4,5.2-2.7,6.5C40.8,21.8,38,21.6,36,20c-2.1-1.6-2.9-4.4-1.9-6.9c1.7-4.3,3.7-8.6,5.5-12.9C39.5,0.2,39.7,0.1,39.8,0z
			 M50.5,79.3c0,0.8-0.1,1.3-0.1,1.7c0.2,3.8,0.4,7.6,0.6,11.5c0.1,1.1-0.5,1.6-1.6,1.6h-9.9c-1.6,0-2-0.5-1.9-2.1
			c0.6-6.8,1.3-13.6,1.9-20.4c0.1-1.6,0.1-3.1,0.2-4.7c0.1-2.7,0.3-3,3-3.5c-0.7-0.2-1.4-0.5-2.1-0.8c-1.6-0.8-3.1-1.7-4.6-2.8
			c-1.5-1.2-3-2.4-4.3-3.7c-1.8-1.6-3.1-3.4-2.4-6.1c0.7-3,1.4-6,2.2-8.9c0.5-1.7,1.7-2.4,3.6-2.3c3.3,0.1,6.7,0,10,0
			c1.5,0,1.6,0.3,1.3,1.8c-0.8,4.2-4.5,5.1-7.3,5v3.5l8.1,3.3c-0.4-0.5-0.9-1-1.4-1.4c-1.4-0.8-2.8-1.4-4.2-2.1
			c-0.7-0.4-1.9-0.9-1.2-1.8c0.7-0.7,1.7-1,2.7-0.8c1.9,1.1,4.1,1.1,6,0c0.3-0.1,0.7-0.1,1,0.1c1.7,1.7,4.2,2.1,6.3,1.1
			c0.4-0.2,0.8-0.2,1.2,0c1.7,1.8,3.8,1.2,5.7,0.8c1.2-0.2,1.3,0.2,1.3,1c0.1,2.4,0.1,4.7-0.1,7.1c-0.3,1.2-1.1,2.4-2.1,3.1
			c-1.4,1-3,1.9-4.5,2.6c-0.4,0.2-0.7,0.6-0.7,1c0.7-0.2,1.4-0.3,2-0.6c1-0.3,1.7-0.2,1.8,1.1c0.5,5.2,0.9,10.4,1.5,15.6
			c0.4,4.1,0.9,8.1,1.5,12.2c0.3,1.8-0.3,2.6-2.1,2.6h-6.6c-2,0-2.6-0.7-2.9-2.7c-0.4-3.8-1-7.5-1.5-11.2
			C51.1,79.9,50.9,79.8,50.5,79.3L50.5,79.3z M52.5,72.3c0-2.3,0.4-4.8-0.9-6.9C51.2,67.8,51.9,70,52.5,72.3z"/>
		<path class="st0" d="M57.2,39.3V44c0.1,1.7-1.2,3.1-2.9,3.2c-2.4,0.1-3.7-0.8-3.8-2.9c-0.1-3.4-0.1-6.8-0.1-10.1
			c0-1.8,1.2-2.6,3.4-2.5s3.1,0.9,3.2,2.6S57.1,37.6,57.2,39.3z M64.8,40.5v4.7c0,1.8-1.2,2.7-3.4,2.7c-2,0-3.5-1.1-3.5-2.7
			c0-3-0.1-6.1,0-9.1c0.1-1.7,0.7-3.2,4.2-2.9c1.5,0,2.8,1.2,2.8,2.7v0.3C64.8,36.2,64.8,40.5,64.8,40.5z M44.3,45.5
			c2.3-1.7,3.4-3.7,3.2-6.4c-0.1-0.9-0.4-1.3-1.3-1.3C43,37.7,43,37.6,43,34.2c0-2.9,2-4.3,4.8-3.4c1.2,0.3,2,1.4,2,2.6v9.7
			c0,1.3-0.5,2.6-1.8,2.9C46.7,46.6,45.3,46.4,44.3,45.5z M38.8,38c-3.8,0-3.5,0.4-3.3-3.8c0.1-1.6,1.4-2.4,3.4-2.4
			c1.9,0,3,1,3.2,2.6C42.4,37.8,42.3,37.9,38.8,38z"/>
	</g>
</g>
</svg>
