<svg xmlns="http://www.w3.org/2000/svg" viewBox="0 0 57.5 57.5"><defs><style>.cls-1,.cls-2{fill:#555;}.cls-1{opacity:0.4;}.cls-3{fill:#333;}</style></defs><title>071_Rappi-Shot_Stabilizer</title><g id="Layer_2" data-name="Layer 2"><g id="Layer_1-2" data-name="Layer 1"><path class="cls-1" d="M22.84,44.48a16.38,16.38,0,0,0,4.66,1v-1a15.55,15.55,0,0,1-4.11-.83A2.05,2.05,0,0,1,22.84,44.48Z"/><path class="cls-1" d="M40.93,19.78a2,2,0,0,1,.78-.62A16.45,16.45,0,0,0,29.5,12.55v1A15.46,15.46,0,0,1,40.93,19.78Z"/><path class="cls-1" d="M42.78,23A15.35,15.35,0,0,1,44,28h1a16.52,16.52,0,0,0-1.25-5.41A2,2,0,0,1,42.78,23Z"/><path class="cls-1" d="M15.63,18.7A16.38,16.38,0,0,0,12.05,28h1a15.38,15.38,0,0,1,3.19-8.45A2.15,2.15,0,0,1,15.63,18.7Z"/><path class="cls-1" d="M19.05,16.74a15.38,15.38,0,0,1,8.45-3.19v-1a16.38,16.38,0,0,0-9.3,3.58A2.15,2.15,0,0,1,19.05,16.74Z"/><path class="cls-1" d="M34.85,43.13a15.41,15.41,0,0,1-5.35,1.32v1a16.3,16.3,0,0,0,6.19-1.62A2,2,0,0,1,34.85,43.13Z"/><path class="cls-1" d="M19.52,42.82a2,2,0,0,1,.34-1A15.52,15.52,0,0,1,13.05,30h-1A16.45,16.45,0,0,0,19.52,42.82Z"/><path class="cls-1" d="M38.24,41a2,2,0,0,1,.26,1s0,.07,0,.1A16.47,16.47,0,0,0,45,30H44A15.47,15.47,0,0,1,38.24,41Z"/><path class="cls-2" d="M27.5,54.38h2V50a21,21,0,0,0,20-20h4.17V28H49.45a21,21,0,0,0-20-19.95V3.62h-2V8.05A21,21,0,0,0,7.55,28H3.38v2H7.55a21,21,0,0,0,20,20ZM9.55,30h5c0-.33-.05-.66-.05-1s0-.67.05-1h-5a19,19,0,0,1,18-17.95v5c.33,0,.66-.05,1-.05s.67,0,1,.05v-5a19,19,0,0,1,18,18h-5c0,.33,0,.66,0,1s0,.67,0,1h5a19,19,0,0,1-18,18V43c-.33,0-.66,0-1,0s-.67,0-1,0v5A19,19,0,0,1,9.55,30Z"/><path class="cls-1" d="M28.5,41a11.94,11.94,0,0,0,9.11-4.22,2,2,0,0,1-.75-.64A11,11,0,0,1,17.5,29a2,2,0,0,1-1-.27c0,.09,0,.18,0,.27A12,12,0,0,0,28.5,41Z"/><path class="cls-1" d="M18.21,25.14A11,11,0,0,1,34.52,19.8a1.86,1.86,0,0,1,.35-.95A11.87,11.87,0,0,0,28.5,17a12,12,0,0,0-11.31,8,3,3,0,0,1,.31,0A1.87,1.87,0,0,1,18.21,25.14Z"/><path class="cls-1" d="M39.5,29a10.94,10.94,0,0,1-.77,4,1.93,1.93,0,0,1,.93.36A11.82,11.82,0,0,0,40.5,29a11.94,11.94,0,0,0-2.66-7.52,2,2,0,0,1-.91.47A11,11,0,0,1,39.5,29Z"/><path class="cls-1" d="M22.5,29a6,6,0,0,1,4-5.66c0-.11,0-.22,0-.34a1.85,1.85,0,0,1,.15-.74A7,7,0,0,0,22,31.66a1.83,1.83,0,0,1,.86-.55A5.94,5.94,0,0,1,22.5,29Z"/><path class="cls-1" d="M30.35,22.26a1.85,1.85,0,0,1,.15.74c0,.12,0,.23,0,.34A6,6,0,0,1,28.5,35a5.93,5.93,0,0,1-3.29-1,1.91,1.91,0,0,1-.72.72,7,7,0,1,0,5.86-12.47Z"/><path class="cls-3" d="M34.5,20A2,2,0,0,0,36.93,22a2,2,0,0,0,.91-.47,2,2,0,1,0-3-2.63,1.86,1.86,0,0,0-.35.95A1.36,1.36,0,0,0,34.5,20Z"/><path class="cls-3" d="M19.5,27a2,2,0,0,0-1.29-1.86A1.87,1.87,0,0,0,17.5,25a3,3,0,0,0-.31,0,2,2,0,1,0,2.31,2Z"/><path class="cls-3" d="M35.69,43.83a2,2,0,0,0,2.8-1.73s0-.07,0-.1a2,2,0,0,0-2-2,2,2,0,0,0-1.65,3.13A2,2,0,0,0,35.69,43.83Z"/><path class="cls-3" d="M38.5,33a2,2,0,0,0-2,2,2,2,0,0,0,.36,1.14,2,2,0,0,0,.75.64,1.92,1.92,0,0,0,.89.22,2,2,0,0,0,2-2,2,2,0,0,0-.84-1.62,1.93,1.93,0,0,0-.93-.36Z"/><circle class="cls-3" cx="28.5" cy="29" r="2"/><path class="cls-3" d="M26.53,23.34a2,2,0,0,0,3.94,0c0-.11,0-.22,0-.34a1.85,1.85,0,0,0-.15-.74,2,2,0,0,0-3.7,0,1.85,1.85,0,0,0-.15.74C26.5,23.12,26.52,23.23,26.53,23.34Z"/><path class="cls-3" d="M25.21,34a1.92,1.92,0,0,0,.29-1,2,2,0,0,0-2-2,1.78,1.78,0,0,0-.61.11,1.83,1.83,0,0,0-.86.55A1.94,1.94,0,0,0,21.5,33a2,2,0,0,0,2,2,2,2,0,0,0,1-.27A1.91,1.91,0,0,0,25.21,34Z"/><path class="cls-3" d="M23.5,43a2,2,0,0,0-4-.18,1.1,1.1,0,0,0,0,.18,2,2,0,0,0,3.34,1.48,2.05,2.05,0,0,0,.55-.86A1.84,1.84,0,0,0,23.5,43Z"/><path class="cls-3" d="M44.5,21a2,2,0,0,0-2-2,2.1,2.1,0,0,0-.79.16,2,2,0,0,0-.78.62A2,2,0,0,0,40.5,21a2,2,0,0,0,2,2,2.4,2.4,0,0,0,.28,0,2,2,0,0,0,.92-.38A2,2,0,0,0,44.5,21Z"/><path class="cls-3" d="M17.5,16a2,2,0,0,0-1.87,2.7,2.15,2.15,0,0,0,.61.85,2,2,0,0,0,2.81-2.81,2.15,2.15,0,0,0-.85-.61A2,2,0,0,0,17.5,16Z"/><polygon class="cls-2" points="49.79 0 45.5 12 57.5 6.86 49.79 0"/><polygon class="cls-2" points="12 45.5 0 50.64 7.71 57.5 12 45.5"/><polygon class="cls-2" points="45.5 45.5 50.64 57.5 57.5 49.79 45.5 45.5"/><polygon class="cls-2" points="12 12 6.86 0 0 7.71 12 12"/></g></g></svg>