<?xml version="1.0" encoding="utf-8"?>
<!-- Generator: Adobe Illustrator 24.1.2, SVG Export Plug-In . SVG Version: 6.00 Build 0)  -->
<svg version="1.1" id="Layer_1" xmlns="http://www.w3.org/2000/svg" xmlns:xlink="http://www.w3.org/1999/xlink" x="0px" y="0px"
	 viewBox="0 0 56.7 56.7" style="enable-background:new 0 0 56.7 56.7;" xml:space="preserve">
<style type="text/css">
	.st0{fill:none;}
	.st1{opacity:0.4;fill:#555555;enable-background:new    ;}
	.st2{fill:#555555;}
	.st3{fill:#B3B3B3;}
</style>
<g id="Layer_2_1_">
	<g id="Layer_1-2">
		<path class="st0" d="M35.7,14.7l0.5,0.1L35.7,14.7z M37.4,15.2c0.3,0.1,0.5,0.2,0.8,0.4C38,15.4,37.7,15.3,37.4,15.2z M36.6,14.9
			l0.6,0.2L36.6,14.9z M34.4,14.4l-0.3-0.1L34.4,14.4z M50,22.7c-0.3-0.4-0.7-0.8-1.2-1.1C49.3,21.9,49.7,22.3,50,22.7z M50.9,27.9
			c0.1-0.3,0.2-0.6,0.2-0.8C51.1,27.4,51,27.6,50.9,27.9z M40,16.7l-0.2-0.1l-0.2-0.1l0.2,0.1L40,16.7z M34.8,14.4l0.5,0.1
			L34.8,14.4z M41.7,49.7l9.8-6.2L41.7,49.7z M51.6,43.4l0.2-0.1L51.6,43.4z M31.6,49.7l3.1-2C34.7,47.8,31.6,49.7,31.6,49.7z
			 M21.5,49.7l3.1-2L21.5,49.7z"/>
		<path class="st1" d="M34.1,14.3H34H34.1z M32.4,14.1h0.4H32.4z M33.1,14.2l0.4,0.1L33.1,14.2z M14.2,22.5c1,0,2,0.1,2.9,0.4
			c0.3-1,0.7-1.9,1.2-2.8c0.4-0.8,1-1.6,1.5-2.3c0.6-0.7,1.2-1.4,1.9-2c2.3-2,5.2-3.3,8.3-3.7c0.2,0,1-0.1,1.5-0.1h0.3
			c0.7,0,1.5,0.1,2.2,0.2c-0.4-1.4-1.5-3.1-4.3-4.4c-1.3-0.7-2.8-1-4.2-0.8c-3.5,0.5-6.1,3.4-6,6.9c-0.1,0-0.3,0-0.4,0
			c-1.1,0.1-2.2,0.7-3,1.5c-3.4-2.1-7.8-1-9.8,2.3c-0.8,1.3-1.2,2.9-1,4.4c-0.5-0.1-1-0.2-1.6-0.1c-2.3,0.3-3.9,2.3-3.6,4.6
			c0.2,2,2,3.6,4,3.6C5.2,25.7,9.4,22.5,14.2,22.5z M31.8,14.1h-0.2h0.4H31.8z"/>
		<path class="st2" d="M56.7,34.7c0-0.4,0-0.8-0.1-1.3c-0.2-1.2-0.7-2.3-1.5-3.2c-0.3-0.3-0.5-0.6-0.8-0.8c-0.9-0.8-2.1-1.3-3.3-1.5
			c0.1-0.3,0.2-0.6,0.2-0.8c0-0.3,0.1-0.6,0.1-0.9c0-0.4,0-0.7-0.1-1.1c-0.1-0.3-0.2-0.7-0.3-1c-0.4-1-1.1-1.8-2-2.4
			c-0.9-0.6-2-0.9-3.1-0.9c-0.3,0-0.6,0-0.9,0.1c-0.3,0.1-0.6,0.1-0.9,0.2c-0.6-1-1.3-2-2.1-2.8l-0.6-0.6c-0.3-0.3-0.7-0.6-1.1-0.9
			l-0.2-0.1l-0.2-0.1c-0.4-0.3-0.9-0.6-1.4-0.8c-0.3-0.1-0.5-0.2-0.8-0.4l-0.3-0.1L36.6,15l-0.4-0.1l-0.5-0.2l-0.4-0.1l-0.5-0.1
			l-0.4-0.1h-0.8l-0.4-0.1h-2.9c-0.3,0-0.7,0.1-1,0.2c-2.3,0.5-4.4,1.5-6.2,3c-0.6,0.5-1.2,1.1-1.7,1.7c-0.5,0.6-1,1.3-1.4,2
			c-0.6,1.1-1,2.2-1.3,3.4c-0.1,0.4-0.2,0.8-0.3,1.2c-0.6-0.4-1.3-0.7-2-0.9c-3.5-1-7.3,0.4-9.3,3.5c-0.3,0.5-0.6,0.9-0.8,1.4
			c-0.2,0.5-0.4,1.1-0.5,1.6c-0.3,1.3-0.2,2.6,0.1,3.8c0.2,0.7,0.4,1.3,0.8,1.9c0.1,0.2,0.3,0.5,0.4,0.7c0.3,0.4,0.6,0.9,1,1.3
			c0.1,0.2,0.3,0.3,0.5,0.4v-2.4h10.9v-5.6l3.1,1.9l5.8,3.6h1.3v-5.6l3.1,1.9l5.8,3.6h1.2v-5.6l3.1,1.9l10.8,6.8
			C55.5,39.2,56.7,37,56.7,34.7z"/>
		<path class="st3" d="M46.8,42.5l-2.7,1.7l-2.5,1.6v4l9.8-6.2l0.1-0.1l0.2-0.1l1.3-0.8l-11.4-7.2v4l2.5,1.6
			C44.1,40.8,46.8,42.5,46.8,42.5z"/>
		<path class="st3" d="M36.8,42.5l-2.7,1.7l-2.5,1.6v4l9.8-6.2l0.1-0.1l0.2-0.1l1.3-0.8l-11.4-7.2v4l2.5,1.6L36.8,42.5z"/>
		<path class="st3" d="M27.7,45.8l5.2-3.3l-11.4-7.2v4H10.6v6.5h10.9v4l3.1-2L27.7,45.8z"/>
	</g>
</g>
</svg>
