<?xml version="1.0" encoding="utf-8"?>
<!-- Generator: Adobe Illustrator 24.1.2, SVG Export Plug-In . SVG Version: 6.00 Build 0)  -->
<svg version="1.1" id="Layer_1" xmlns="http://www.w3.org/2000/svg" xmlns:xlink="http://www.w3.org/1999/xlink" x="0px" y="0px"
	 viewBox="0 0 52.1 52.1" style="enable-background:new 0 0 52.1 52.1;" xml:space="preserve">
<style type="text/css">
	.st0{fill:none;}
	.st1{opacity:0.4;fill:#555555;enable-background:new    ;}
	.st2{fill:#555555;}
</style>
<g id="Layer_2_1_">
	<g id="Layer_1-2">
		<path class="st0" d="M12.4,21.5c0-1.6-0.2-3.3-0.8-4.8l-2.9-1.2c0.6,2,0.8,4,0.8,6.1c-0.3,2-0.9,4-1.8,5.8l3-1
			C11.5,24.9,12.1,23.2,12.4,21.5z M44.5,14.6c-1.9-0.8-3.6-2-5.1-3.3c-1.3-1.5-2.4-3.3-3.3-5.1l-1.5,2.7c0.6,1.5,1.5,2.9,2.5,4.1
			c1.3,1.1,2.8,2,4.5,2.7L44.5,14.6z M40.2,22.1c0,1.6,0.2,3.3,0.8,4.8l2.9,1.1c-0.6-1.9-0.8-4-0.8-6c0.3-2,0.9-4,1.8-5.8l-3,1
			C41,18.7,40.5,20.4,40.2,22.1z M35.1,30.9c-1.3,1.2-2.5,2.7-3.4,4.3l0.9,2.6c1.2-1.9,2.6-3.7,4.3-5.2c1.8-1.3,3.7-2.4,5.8-3.3
			l-2.6-1.1C38.3,28.9,36.6,29.8,35.1,30.9z M25,34.4c-1.9,0.1-3.8,0.5-5.6,1.1L18,38c2.1-0.7,4.4-1.1,6.6-1.1
			c2.2,0.1,4.4,0.5,6.6,1.2l-0.9-2.6C28.5,34.9,26.8,34.6,25,34.4z M15.5,30.6c-1.3-1.1-2.9-2-4.5-2.7l-3,1c1.9,0.8,3.6,2,5.1,3.3
			c1.3,1.5,2.5,3.3,3.3,5.1l1.6-2.6C17.4,33.2,16.6,31.8,15.5,30.6z M23.4,9.3l10.9,5.5c0,0,3.2,5.9,2.5,7.3l-1,0.4
			c0,0-1.8-5.2-3.2-5.9c-1.2-0.6-3.5-1.7-5.3-1.5c0.4,0.4,0.5,0.9,0.4,1.4c0,0.1-0.1,0.2-0.1,0.2c0.2,0,0.4,0,0.6,0.1
			c0.4,0.1,0.7,0.1,1.1,0.3c2.5,0.8,4.5,2.7,5.3,5.2c1.5,4.2-0.6,8.9-4.8,10.4c0,0,0,0,0,0c-4.3,1.4-8.8-0.9-10.3-5.2
			c-0.4-1.2-0.5-2.4-0.4-3.6c-1.7-0.4-3.1-1.7-3.7-3.4c-0.3-1-0.4-2-0.1-3c0.1-0.3,0.2-0.6,0.3-0.9c0.2-0.5,0.5-0.9,0.8-1.2
			c0.1-0.1,0.2-0.2,0.3-0.4c0.2-0.2,0.5-0.4,0.8-0.6c0.3-0.2,0.6-0.3,0.9-0.4l0.2-1.8L23.4,9.3z"/>
		<path class="st0" d="M16.5,20.1c0.5,1.3,1.5,2.3,2.9,2.7c0.4-1.9,1.6-3.7,3.3-4.8c-0.3-0.4-0.3-1,0-1.4c-0.7-0.4-1.3-0.8-1.9-1.4
			l-0.5-0.5c-0.4,0-0.8,0.1-1.2,0.2C16.8,15.7,15.7,18,16.5,20.1z M19.3,16c0.1,0,0.3-0.1,0.4-0.1l0.2,0.2l0.7,0.6
			c-0.6,0.4-1.3,0.8-2,1.2l1.8,0.7c-0.3,0.4-0.7,0.8-0.9,1.3l-1.8-0.7c0.1,0.3,0.1,0.7,0.2,1.1c-0.1-0.1-0.1-0.3-0.2-0.4
			c-0.1-0.4-0.2-0.8-0.1-1.3c0,0,0-0.1,0-0.1C17.6,17.3,18.3,16.4,19.3,16z"/>
		<path class="st1" d="M46.6,13.9c-1.1-0.5-4.5-2-6.1-3.7C39,8.5,37.8,6.6,37,4.5l0.5-1l-1.3-0.8l-0.5,0.8c-2.5,0.9-5,1.4-7.7,1.6
			c-2.5-0.2-4.9-0.7-7.2-1.5l-0.3-1L19,3.2L19.3,4l-0.2,0.3l0.1,0.1c0.4,0.4,0.9,0.8,1.3,1.2c0.3,0.3,0.5,0.6,0.8,1
			c0.3,0.4,0.5,0.8,0.7,1.3l0.4,0.8l0.6-0.3h0.1l-0.5-0.2l-0.9-2.6c2.1,0.7,4.3,1.1,6.6,1.2c2.2-0.1,4.5-0.5,6.6-1.1L33.2,8
			c-1.8,0.6-3.7,1-5.6,1.1c-0.9,0-1.7-0.1-2.5-0.3l3.6,1.8c1.2-0.1,2.3-0.3,3.4-0.6l-1.1,1.8h0.1l0.3,0.1l0.8,0.4h0.1l0.2,0.1l1.1-2
			c0.6,1.3,1.4,2.5,2.3,3.6c1,0.9,2.2,1.7,3.5,2.3L37,17.2l-0.2-0.1c0.1,0.2,0.2,0.5,0.3,0.7l0.2,0.5c0,0.1,0.1,0.2,0.1,0.3l2.4-0.8
			c-0.6,1.3-1,2.6-1.2,4c-0.1,1.5,0.1,2.9,0.5,4.3l-2.3-0.9c-0.2-0.6-0.3-1.1-0.4-1.7l-0.1,0c0.1,0.7,0.1,1.5,0.1,2.3
			c0,0.1,0,0.3,0,0.5c0,0.1,0,0.2,0,0.3v0.1l1.8,0.8c-0.9,0.4-1.7,0.8-2.5,1.3c-0.9,2.1-2.5,3.8-4.6,4.7c-0.2,0.1-0.5,0.2-0.8,0.3
			L30,33.8c-2.4,0.7-5,0.5-7.1-0.8c-0.8,0.1-1.6,0.3-2.4,0.5l0.9-1.6c-0.3-0.3-0.6-0.5-0.9-0.9l-0.2-0.3L19,33
			c-0.6-1.3-1.4-2.5-2.3-3.6c-1-0.9-2.2-1.7-3.5-2.3l2.4-0.8c1.1,0.4,2.1,1.1,3,1.8l0.1,0.1c-0.1-0.1-0.1-0.3-0.2-0.4
			c-0.2-0.6-0.4-1.3-0.5-2l-0.4-0.3l0.4-0.1v-0.8c-0.3-0.1-0.6-0.3-0.9-0.5c-0.5-0.3-0.9-0.6-1.3-1c-0.2,0.5-0.4,1.1-0.7,1.6
			l-2.4,0.8c0.6-1.3,1-2.6,1.2-4c0.1-1.4-0.1-2.9-0.5-4.2l0.6,0.3c0.1-0.5,0.2-1,0.4-1.5h-0.1h0.1c0.6-1.3,1.6-2.4,2.9-3.1l0.1-0.5
			l-0.1,0.1c-1.5,1.1-3.2,2-5,2.7l-2.7-1.1c2.1-0.9,4-2,5.8-3.3l0.3-0.3c-0.2-0.2-0.6-0.4-1.1-0.8l-0.2-0.1
			c-2.1,1.5-4.4,2.7-6.8,3.7L6.7,13l-0.6,1.4L7,14.8c0.8,2.1,1.1,4.4,1.1,6.7c-0.4,2.3-1.2,4.6-2.3,6.7l-1.2,0.4L5.1,30l1-0.3
			c1.1,0.5,4.5,2,6.1,3.7c1.4,1.7,2.5,3.6,3.4,5.7l-0.5,1l1.3,0.8l0.5-0.8c2.5-0.9,5.1-1.4,7.7-1.5c2.5,0.2,4.9,0.7,7.2,1.5l0.3,1
			l1.5-0.5l-0.3-0.8c1.2-2.2,2.8-4.1,4.6-5.8c2.1-1.5,4.4-2.7,6.8-3.7l1.1,0.5l0.6-1.4l-0.8-0.3c-0.7-2.1-1.1-4.4-1-6.6
			c0.4-2.3,1.2-4.6,2.3-6.7l1.2-0.5l-0.5-1.5L46.6,13.9z M37.1,13c-1-1.2-1.9-2.6-2.5-4.1l1.5-2.7c0.8,1.9,1.9,3.6,3.3,5.1
			c1.5,1.4,3.3,2.5,5.1,3.3l-3,1C39.9,15,38.4,14.1,37.1,13z M9.6,21.6c0.1-2-0.2-4.1-0.8-6.1l2.8,1.2c0.5,1.5,0.8,3.2,0.8,4.8
			c-0.3,1.7-0.9,3.3-1.7,4.9l-3,1C8.6,25.5,9.2,23.6,9.6,21.6z M16.5,37.4c-0.8-1.9-1.9-3.6-3.3-5.1c-1.6-1.4-3.3-2.5-5.2-3.3l3-1
			c1.6,0.7,3.1,1.6,4.5,2.7c1,1.2,1.9,2.6,2.5,4.1L16.5,37.4z M24.5,36.9c-2.2,0.1-4.5,0.5-6.6,1.2l1.4-2.4c1.8-0.6,3.7-1,5.6-1.1
			c1.8,0.1,3.6,0.5,5.3,1.1l0.9,2.6C29,37.4,26.8,37,24.5,36.9z M36.9,32.6c-1.7,1.5-3.1,3.2-4.3,5.2l-0.9-2.6c0.9-1.6,2-3,3.4-4.3
			c1.6-1.1,3.2-2,5-2.7l2.6,1C40.7,30.1,38.7,31.2,36.9,32.6z M43,22c-0.1,2,0.2,4.1,0.8,6l-2.9-1.2c-0.5-1.5-0.8-3.2-0.8-4.8
			c0.3-1.7,0.9-3.3,1.7-4.9l3-1C44,18,43.3,20,43,22z"/>
		<path class="st1" d="M21.2,9.2h-0.9c-0.2,0.3-0.4,0.6-0.6,0.9L21.2,9.2z M17.4,18.5c0,0.4,0,0.9,0.1,1.3c0.1,0.2,0.1,0.3,0.2,0.4
			c0-0.4-0.1-0.7-0.2-1.1l1.8,0.7c0.3-0.5,0.6-0.9,0.9-1.3l-1.8-0.7c0.7-0.3,1.4-0.7,2-1.2l-0.7-0.6l-0.2-0.2
			c-0.1,0-0.3,0.1-0.4,0.1c-1,0.4-1.7,1.2-1.8,2.3C17.4,18.4,17.4,18.4,17.4,18.5z"/>
		<path class="st2" d="M18.5,13.9c-0.3,0.1-0.6,0.3-0.9,0.4c-0.3,0.2-0.6,0.4-0.8,0.6c-0.1,0.1-0.2,0.2-0.3,0.4
			c-0.3,0.4-0.6,0.8-0.8,1.2c-0.1,0.3-0.3,0.6-0.3,0.9c-0.2,1-0.2,2,0.1,3c0.6,1.7,2,3,3.7,3.4c-0.1,1.2,0,2.5,0.4,3.6
			c1.4,4.3,6,6.6,10.2,5.2c4.2-1.5,6.4-6.2,4.8-10.4c0,0,0,0,0,0c-0.9-2.5-2.8-4.4-5.3-5.2c-0.4-0.1-0.7-0.2-1.1-0.3
			c-0.2,0-0.4-0.1-0.6-0.1c0-0.1,0.1-0.2,0.1-0.2c0.1-0.5-0.1-1-0.4-1.4c1.9-0.2,4.1,0.9,5.3,1.5c1.4,0.7,3.2,5.9,3.2,5.9l1-0.4
			c0.7-1.4-2.5-7.3-2.5-7.3L23.4,9.3l-4.7,2.8L18.5,13.9z M20.1,14.7l0.5,0.5c0.6,0.5,1.2,1,1.9,1.4c-0.3,0.5-0.2,1,0,1.5
			c-1.6,1.1-2.8,2.8-3.3,4.8c-1.3-0.4-2.4-1.4-2.9-2.7c-0.8-2.1,0.3-4.4,2.4-5.2C19.3,14.8,19.7,14.7,20.1,14.7L20.1,14.7z
			 M41.8,45.7c0.1-0.1,0.1-0.2,0.1-0.4c0-1.5-4.7-2.8-10.5-2.8c-1.3,0-2.5,0.1-3.7,0.2c-2.2-0.5-4.4-0.8-6.6-0.8
			c-5,0-9.1,1.1-9.1,2.4c0,0.2,0.1,0.4,0.3,0.6c-3.7,0.6-6.1,1.7-6.1,3c0,2,6,3.5,13.4,3.5c2,0,4-0.1,6.1-0.4c0.8,0.6,2.9,1,5.4,1
			c3,0,5.5-0.6,5.8-1.4c5.3-0.2,9.3-1.4,9.3-2.8C46.1,47,44.4,46.2,41.8,45.7z M18.5,7.8L18.7,8c0,0,0,0.2,2,0.2h0.2
			c-0.2-0.4-0.4-0.8-0.6-1.1c-0.2-0.3-0.4-0.6-0.7-0.9c-0.4-0.4-0.7-0.8-1.1-1.1C13.5,1,4.1,0,4.1,0c4.7,1.6,9.2,4,13.2,6.9
			C17.9,7.4,18.3,7.7,18.5,7.8z M16.7,10l0.1,0.1c0,0,0,0.1,1.4,0.1c-0.2-0.4-0.4-0.8-0.7-1.1c-0.3-0.4-0.7-0.7-1.1-1
			c-3.2-2.4-8.8-3-8.8-3c2.8,1,5.5,2.3,7.9,4.1C16.1,9.6,16.5,9.9,16.7,10z"/>
	</g>
</g>
</svg>
