<?xml version="1.0" encoding="utf-8"?>
<!-- Generator: Adobe Illustrator 24.1.2, SVG Export Plug-In . SVG Version: 6.00 Build 0)  -->
<svg version="1.1" id="Layer_1" xmlns="http://www.w3.org/2000/svg" xmlns:xlink="http://www.w3.org/1999/xlink" x="0px" y="0px"
	 viewBox="0 0 60 60" style="enable-background:new 0 0 60 60;" xml:space="preserve">
<style type="text/css">
	.st0{fill:#555555;}
</style>
<g id="Layer_2_1_">
	<g id="Layer_1-2">
		<path class="st0" d="M38.5,18.6l2.5-2.5c-3.6-0.5-7.2-0.7-10.8-0.7c1.7,0,3.3,0.4,4.8,1C36.3,17,37.5,17.7,38.5,18.6z"/>
		<path class="st0" d="M17,28.5c0-7.1,5.7-12.9,12.8-13c-4,0-8.1,0.3-12.1,0.9c-6.7,6.7-6.7,17.5,0,24.2c0,0,0,0,0,0
			c1.7,1.8,3.9,3.1,6.2,4l0.6-2.5l1.6-1.2c-2-0.6-3.9-1.7-5.4-3.3C18.4,35.2,17.1,31.9,17,28.5z"/>
		<path class="st0" d="M11,28.5c0-4.2,1.4-8.3,4-11.7c-3.6,0.6-7.1,1.5-10.6,2.6c0,0-0.8,11.8,0,18.5c0,0,4.1,3.4,15.3,6.5
			c-1.1-0.7-2.2-1.6-3.1-2.5C13,38.3,11,33.5,11,28.5z"/>
		<path class="st0" d="M43.2,16.5L31.7,28c0,0.1,0.1,0.3,0.1,0.5c0,1-0.8,1.8-1.8,1.8c-1,0-1.8-0.8-1.8-1.8c0-1,0.8-1.8,1.8-1.8
			c0.2,0,0.3,0,0.5,0.1l2.5-2.5c-0.3-0.2-0.6-0.4-1-0.5c-0.6-0.3-1.3-0.4-2-0.4c-2.8,0-5.1,2.3-5.1,5.1c0,2.8,2.3,5.1,5.1,5.1
			c1.1,0,2.1-0.3,3-1c0.9-0.6,1.5-1.5,1.8-2.5c0.2-0.4,0.7-0.7,1.2-0.6c0.5,0.2,0.7,0.7,0.5,1.2c-1,2.8-3.6,4.7-6.5,4.7
			c-3.8,0-7-3.1-7-7s3.1-7,7-7c0.9,0,1.8,0.2,2.7,0.5c0.6,0.2,1.1,0.5,1.6,0.9l3-3c-0.9-0.8-1.9-1.4-3-1.8c-1.4-0.5-2.8-0.8-4.3-0.8
			c-3,0-5.8,1.2-7.9,3.3c-2.1,2.1-3.3,4.9-3.3,7.9c0,5.4,3.9,10,9.2,11l0.9-0.7h1.7l1,0.7c5.5-0.8,9.5-5.5,9.5-11
			c0-0.6-0.1-1.2-0.1-1.8c-0.1-0.6-0.3-1.2-0.4-1.7c-0.1-0.5,0.1-1,0.6-1.1c0.5-0.2,1,0.1,1.1,0.6c0,0,0,0,0,0
			c0.2,0.7,0.4,1.3,0.5,2c0.1,0.7,0.2,1.4,0.2,2.1c0,5.8-3.8,10.8-9.4,12.4l1.7,1.2l0.6,2.5c6.8-2.5,11.3-8.9,11.3-16.1
			c0-1.4-0.2-2.8-0.5-4.1c-0.3-1.4-0.8-2.7-1.4-3.9c-0.2-0.4-0.1-1,0.4-1.2c0,0,0,0,0,0c0.4-0.2,1,0,1.2,0.4
			c0.7,1.4,1.3,2.8,1.6,4.3c0.4,1.5,0.5,3,0.5,4.6c0,6.4-3.3,12.4-8.7,15.9c11.2-3.1,15.3-6.5,15.3-6.5c0.8-6.7,0-18.5,0-18.5
			C51.5,18.1,47.4,17.1,43.2,16.5z"/>
		<path class="st0" d="M0,27.3l2.5,1.3V21L0,22.3V27.3z"/>
		<path class="st0" d="M57.5,28.6l2.5-1.3v-5L57.5,21V28.6z"/>
	</g>
</g>
</svg>
