<?xml version="1.0" encoding="utf-8"?>
<!-- Generator: Adobe Illustrator 24.1.2, SVG Export Plug-In . SVG Version: 6.00 Build 0)  -->
<svg version="1.1" id="Layer_1" xmlns="http://www.w3.org/2000/svg" xmlns:xlink="http://www.w3.org/1999/xlink" x="0px" y="0px"
	 viewBox="0 0 45.9 45.9" style="enable-background:new 0 0 45.9 45.9;" xml:space="preserve">
<style type="text/css">
	.st0{opacity:0.4;enable-background:new    ;}
</style>
<g id="Layer_2_1_">
	<g id="Layer_2-2">
		<path class="st0" d="M34.2,26c0,0-5.9-9.5-6.5-10.6l-0.6-0.1l0.3-1.1l0.1-0.4L26,11.6l6.5-0.2l-0.1-0.3l-0.3-0.8L32,9.8l0.4-0.3
			l-3.4-5L28.1,5l2.7-2.4L31,2.2l0,0l0.5-1.5l-2.1,1l-2,0.3L18.7,7l-1.9-0.3l-3.7,2.4h-0.9h-0.3h-0.1h-0.4c-0.4-0.1-0.9-0.1-1.3-0.3
			L9.9,8.8L9.6,8.6C9.3,8.5,9.1,8.4,8.9,8.3L8.5,8L8.4,7.7L8.3,7.6C8.2,7.6,8.2,7.5,8.1,7.4L8.1,7.3C8,7.3,8,7.2,7.9,7.1
			c0-0.1-0.1-0.1-0.1-0.2S7.8,6.7,7.7,6.7c0-0.1-0.1-0.1-0.1-0.2L7.6,6.3c0-0.1,0-0.1,0-0.2c0,0,0-0.1,0-0.1c0-0.1,0-0.1,0-0.2
			c0-0.1,0-0.1,0-0.2V5.3c0,0,0-0.1,0-0.2c0-0.2,0.1-0.5,0.1-0.7L1.5,5.8c1.5,0.6,3,1.4,4.3,2.3c0.8,0.9,1.5,2,1.8,3.2
			c0.2,0.7,0.5,1.3,0.9,1.9c0.9,0.9,1.7,1.9,2.5,2.9l2.4-0.2l0.9,0.4l1.6,1.9l0.2,1l-0.6,1.6l1,0.9l0.3,0.6l0.5,2.5l3.1,1.9l0.6,0.1
			l1-0.9l-3.1-0.9l2.5-1.2c-0.2-0.1-0.3-0.3-0.5-0.4c-0.1-0.1-0.3-0.2-0.4-0.4s-0.2-0.2-0.3-0.4c-0.1-0.1-0.2-0.3-0.3-0.4
			c-0.2-0.3-0.4-0.6-0.5-1c-0.1-0.2-0.1-0.4-0.2-0.6c-0.3-1.4,0.2-3.1,2.4-5l1.8,0.2l3.9,5.9l11,16.8l4.6,7l3-2L34.2,26z"/>
		<path d="M20.1,27.5l-3.7-2.2l-0.6-3l-1.5-1.4l0.8-2.2l-1.6-1.9l-3,0.3c-0.8-1.1-1.7-2.2-2.7-3.2c-0.8-0.8-1.6-4.2-2.7-5
			C3.5,7.9,1.8,7,0,6.2l6.9,12.2l16.9,16.5l-1.6-7.1L20.1,27.5z"/>
		<path d="M9.1,33.2C9,33.1,9,33,9,32.8c0-0.1,0-0.2-0.1-0.3c-0.1-0.1-0.1-0.3-0.1-0.4l-0.1-0.3l-0.1-0.5c-0.1-0.1-0.1-0.3-0.1-0.4
			s-0.1-0.3-0.2-0.5s-0.1-0.3-0.2-0.4S8,29.7,7.9,29.6l-0.2-0.4l-0.3-0.5c-0.1-0.1-0.1-0.2-0.2-0.4S7.1,28.1,7,27.9
			s-0.1-0.2-0.2-0.3s-0.2-0.3-0.3-0.5l-0.2-0.3L6,26.4l-0.3,0.1c-0.9,2-1.4,4.1-1.6,6.3c0,0.5,0,1.1,0.2,1.6c0.3,1,1.2,1.7,2.2,1.7
			l0,0c0.2,0,0.4,0,0.6,0h0.4l0.3-0.1L8,35.8c0.1,0,0.2-0.1,0.3-0.2l0.2-0.2c0.1-0.1,0.1-0.1,0.2-0.2c0-0.1,0.1-0.1,0.1-0.2
			c0-0.1,0.1-0.2,0.1-0.3C9,34.7,9,34.6,9,34.5c0-0.1,0-0.2,0.1-0.3s0-0.2,0-0.3s0-0.2,0-0.4C9.1,33.5,9.1,33.3,9.1,33.2z"/>
		<path d="M13.8,42.1L13.8,42.1c0.2,0,0.3,0,0.5,0h0.3l0.3-0.1c0.1,0,0.2-0.1,0.2-0.1c0.1,0,0.1-0.1,0.2-0.1c0.1,0,0.1-0.1,0.2-0.1
			c0.1-0.1,0.1-0.1,0.1-0.2c0-0.1,0.1-0.1,0.1-0.2c0-0.1,0.1-0.1,0.1-0.2c0-0.1,0.1-0.1,0.1-0.2c0-0.1,0-0.2,0.1-0.3
			c0-0.1,0-0.2,0-0.2c0-0.1,0-0.2,0-0.3c0-0.1,0-0.2,0-0.3c0-0.1,0-0.2-0.1-0.3s0-0.2-0.1-0.3s-0.1-0.2-0.1-0.3s0-0.2-0.1-0.3
			s-0.1-0.3-0.1-0.4l-0.1-0.3c0-0.1-0.1-0.3-0.1-0.4c0-0.1-0.1-0.2-0.1-0.3c0-0.1-0.1-0.3-0.2-0.4s-0.1-0.2-0.1-0.3
			s-0.1-0.3-0.2-0.4c0-0.1-0.1-0.2-0.2-0.3c-0.1-0.1-0.1-0.3-0.2-0.4s-0.1-0.2-0.2-0.3l-0.2-0.5l-0.1-0.2L13.4,34l-0.1-0.1
			c-0.8,1.7-1.3,3.6-1.4,5.5c0,0.4,0,0.9,0.1,1.3C12.2,41.5,13,42.1,13.8,42.1z"/>
	</g>
</g>
</svg>
