<?xml version="1.0" encoding="utf-8"?>
<!-- Generator: Adobe Illustrator 24.1.2, SVG Export Plug-In . SVG Version: 6.00 Build 0)  -->
<svg version="1.1" id="Layer_1" xmlns="http://www.w3.org/2000/svg" xmlns:xlink="http://www.w3.org/1999/xlink" x="0px" y="0px"
	 viewBox="0 0 49.9 49.9" style="enable-background:new 0 0 49.9 49.9;" xml:space="preserve">
<g id="Layer_2_1_">
	<g id="Layer_2-2">
		<path d="M9,27.1c1.3,3.4,3.2,6.6,5.5,9.4c1.8,2.2,3.9,4.2,6.2,5.8c1.3,1,2.7,1.8,4.2,2.6c1.5-0.8,2.9-1.6,4.2-2.6
			c2.3-1.7,4.4-3.6,6.2-5.8c2.4-2.8,4.2-5.9,5.5-9.4l3.8-18.6L25,0l-4.9,2.1l1.3,5.7l-3.1-4.9L15.6,4l1.3,15.4L9.2,6.8l-4,1.7
			L9,27.1z"/>
		<path d="M43.5,40.5l-0.1-0.4l-0.1-0.4c0-0.1-0.1-0.2-0.1-0.4s-0.1-0.3-0.2-0.5S43,38.6,43,38.5L42.8,38l-0.2-0.4
			c-0.1-0.2-0.2-0.3-0.2-0.5l-0.2-0.4L42,36.3c-0.1-0.1-0.1-0.3-0.2-0.4s-0.2-0.3-0.3-0.5l-0.2-0.3L41,34.6
			c-0.1-0.1-0.1-0.2-0.2-0.3l-0.3-0.5L40.2,34c-0.9,2.1-1.5,4.3-1.7,6.5c0,0.5,0,1.1,0.2,1.6c0.3,1,1.2,1.7,2.2,1.7l0,0
			c0.2,0,0.4,0,0.6,0h0.4c0.1,0,0.2,0,0.3-0.1c0.1,0,0.2-0.1,0.3-0.1l0.3-0.2l0.2-0.2c0.1-0.1,0.2-0.2,0.2-0.3
			c0.1-0.1,0.1-0.1,0.2-0.2c0-0.1,0.1-0.2,0.1-0.3c0-0.1,0.1-0.2,0.1-0.3c0-0.1,0-0.2,0-0.3c0-0.1,0-0.2,0-0.3c0-0.1,0-0.3,0-0.4
			s0-0.2,0-0.3S43.6,40.7,43.5,40.5z"/>
		<path d="M37.4,47.2c0-0.1,0-0.2,0-0.3c0-0.1-0.1-0.2-0.1-0.4s0-0.2-0.1-0.3c0-0.1-0.1-0.3-0.1-0.4S37,45.7,37,45.6l-0.2-0.4
			l-0.1-0.3l-0.2-0.4l-0.1-0.3l-0.2-0.4c0-0.1-0.1-0.2-0.2-0.3l-0.2-0.4c-0.1-0.1-0.1-0.2-0.2-0.3l-0.3-0.4l-0.1-0.2
			c-0.1-0.2-0.2-0.3-0.3-0.5c0,0,0-0.1-0.1-0.1c-0.8,1.8-1.3,3.7-1.5,5.6c0,0.5,0,0.9,0.2,1.3c0.2,0.8,0.9,1.4,1.8,1.4l0,0
			c0.2,0,0.3,0,0.5,0c0.1,0,0.2,0,0.3,0c0.1,0,0.2,0,0.3-0.1l0.2-0.1l0.2-0.1c0.1,0,0.1-0.1,0.2-0.1c0.1-0.1,0.1-0.1,0.2-0.2
			l0.1-0.2c0-0.1,0.1-0.2,0.1-0.2l0.1-0.2c0-0.1,0-0.2,0-0.3v-0.3c0-0.1,0-0.2,0-0.3c0-0.1,0-0.2,0-0.3L37.4,47.2z"/>
	</g>
</g>
</svg>
