<svg xmlns="http://www.w3.org/2000/svg" viewBox="0 0 57.1 57.1"><defs><style>.cls-1{opacity:0.4;}</style></defs><title>161_Blood_Tracker</title><g id="Layer_2" data-name="Layer 2"><g id="Layer_2-2" data-name="Layer 2"><path class="cls-1" d="M29.55,5.54V0h-2V5.54a23.06,23.06,0,0,0-22,22H0v2H5.54a23.07,23.07,0,0,0,22,22V57.1h2V51.56a23.08,23.08,0,0,0,22-22H57.1v-2H51.56A23.07,23.07,0,0,0,29.55,5.54Zm20,22H46.4A17.89,17.89,0,0,0,29.55,10.69V7.56A21,21,0,0,1,49.53,27.55Zm-36.89,1A15.91,15.91,0,1,1,28.55,44.46,15.93,15.93,0,0,1,12.64,28.55Zm14.91-21v3.13A17.9,17.9,0,0,0,10.69,27.55H7.56A21.05,21.05,0,0,1,27.55,7.56Zm-20,22h3.13A17.92,17.92,0,0,0,27.55,46.41v3.12A21,21,0,0,1,7.56,29.55Zm22,20V46.41A17.91,17.91,0,0,0,46.4,29.55h3.13A21,21,0,0,1,29.55,49.53Z"/><path d="M27.68,28.66c0-.18-.06-.38-.09-.57s-.05-.32-.09-.49-.1-.4-.15-.6a4.84,4.84,0,0,0-.14-.51c-.06-.21-.14-.43-.21-.64l-.18-.52c-.08-.22-.18-.44-.27-.66s-.14-.35-.22-.52-.2-.44-.3-.66L25.77,23c-.11-.22-.22-.44-.34-.66l-.27-.51c-.12-.22-.25-.44-.38-.66l-.27-.47L24.06,20l-.23-.37-.45-.65-.45.12c-.57,1.38-2.21,5.57-2.29,8.94a7.35,7.35,0,0,0,.26,2.26A3.14,3.14,0,0,0,24,32.63h0a5.21,5.21,0,0,0,.8,0,4.17,4.17,0,0,0,.52,0,3.74,3.74,0,0,0,.48-.12,2.35,2.35,0,0,0,.4-.14,2.16,2.16,0,0,0,.36-.22,1.4,1.4,0,0,0,.3-.23,5.36,5.36,0,0,0,.47-.6,2.66,2.66,0,0,0,.16-.39,2.17,2.17,0,0,0,.12-.36,3.4,3.4,0,0,0,.08-.46c0-.13,0-.27,0-.41a4.56,4.56,0,0,0,0-.52C27.69,29,27.69,28.82,27.68,28.66Z"/><path d="M36.42,34.9a4,4,0,0,0-.07-.46c0-.13,0-.26-.07-.4s-.08-.33-.12-.49-.07-.28-.11-.42l-.18-.52c0-.14-.09-.28-.15-.43s-.14-.35-.21-.53l-.18-.44c-.08-.17-.17-.35-.25-.53l-.21-.44-.28-.53c-.08-.14-.15-.28-.22-.42s-.21-.36-.31-.54l-.23-.39-.36-.58c-.07-.1-.13-.2-.19-.3l-.48-.69-.09-.13s-2,4.35-2,7.7a6.36,6.36,0,0,0,.21,1.85,2.58,2.58,0,0,0,2.52,1.95h0c.24,0,.45,0,.66,0l.42,0,.39-.1a3.21,3.21,0,0,0,.33-.12,1.83,1.83,0,0,0,.3-.18c.08-.06.17-.11.25-.18s.14-.17.21-.25a2.2,2.2,0,0,0,.17-.25c0-.1.09-.21.13-.31l.1-.3c0-.12,0-.25.06-.37s0-.22,0-.34a3,3,0,0,0,0-.42A2.42,2.42,0,0,0,36.42,34.9Z"/></g></g></svg>