<svg xmlns="http://www.w3.org/2000/svg" viewBox="0 0 32.03 32.03">
  <defs>
    <style>
      .cls-1,.cls-2{fill:#565656}.cls-2{opacity:.4;isolation:isolate}
    </style>
  </defs>
    <g id="Layer_2-2-2" data-name="Layer 2-2">
      <path class="cls-1" d="M24.97 13.48L15.95 6.1l-9.02 7.38v5.01l9.02-7.38 9.02 7.38v-5.01z"/>
      <path class="cls-1" d="M20.57 18.23l-4.63-3.79-4.63 3.79v4.21l4.63-3.79 4.63 3.79v-4.21z"/>
      <path class="cls-2" d="M16 4.26h-2.34a.14.14 0 01-.13-.13.19.19 0 010-.07l1.16-2 1.15-2a.14.14 0 01.19 0l1.15 2 1.16 2a.13.13 0 01-.06.18h-.06zM15.93 24.63h2.32a.13.13 0 01.11.2l-1.16 2-1.15 2a.13.13 0 01-.18 0l-1.15-2-1.16-2a.14.14 0 01.05-.18h.07zM27.77 14.36v-2.31a.13.13 0 01.13-.13h.07l2 1.15 2 1.16a.12.12 0 010 .18l-2 1.18-2 1.12a.14.14 0 01-.18-.06.14.14 0 010-.06zM4.26 14.36v2.31a.13.13 0 01-.14.13h-.06l-2-1.14-2-1.18a.11.11 0 010-.17.08.08 0 01.05-.05l2-1.16 2-1.15a.14.14 0 01.18 0 .25.25 0 010 .07z"/>
    </g>
</svg>