<?xml version="1.0" encoding="utf-8"?>
<!-- Generator: Adobe Illustrator 24.1.2, SVG Export Plug-In . SVG Version: 6.00 Build 0)  -->
<svg version="1.1" id="Layer_1" xmlns="http://www.w3.org/2000/svg" xmlns:xlink="http://www.w3.org/1999/xlink" x="0px" y="0px"
	 viewBox="0 0 60.5 60.5" style="enable-background:new 0 0 60.5 60.5;" xml:space="preserve">
<style type="text/css">
	.st0{opacity:0.4;}
	.st1{fill:#FFFFFF;}
</style>
<g id="Layer_2_1_">
	<g id="Layer_2-2">
		<path d="M38.5,27.3l5.3,5.2c-0.4,0.5-0.8,1-1.2,1.5l-0.8,0.7L36,29.2l-3.7-3.5L31,25.9c-3.3,4.7,1,6.2,1,6.2l-1.7,1.5h2.4
			l-1.1,1.7l1.6-0.3l2.2,5c-0.1,0-0.8-0.5-2.5-1.7c-8.8-6.4-11.5-7-12.1-7c-0.1,0-0.1,0-0.2,0c1-1.5-1.2-3.5-2.5-4.4L14.1,24
			c0.1-0.2,0.2-0.3,0.3-0.4c0.1-0.1,0.3-0.2,0.4-0.3l4.4-2.4c0,0.2,0,0.4,0,0.6v0.1c0,0,0,0.2,0,0.3v0.1l0,0.1c0,0,0,0,0,0.1
			l0.1,0.1l0.1,0.1l0.1,0.1l0.1,0.1l0.1,0.1l0.1,0.1l0.1,0.1l0.1,0.1l0.1,0l0.2,0.1l0.3,0.1c0.2,0.1,0.4,0.1,0.5,0.1h0.6
			c0.3,0,0.6,0,0.9-0.1l0.3,0H23l0.2-0.1h0.4l0.2,0l2.5-2.7l1.4-0.2l5.6-5.5l1.5-0.7l1.4-1.2l-0.1,1.2L36,14.4l-1.6,2.3l0.6-0.6
			l3.2,3L38,19.5l0.2,0.4l0.3,0.5l0.1,0.2l-4.8,1.5l1.4,1.4v0.3l-0.1,0.9l0.5-0.1C36.5,25.6,37.5,26.5,38.5,27.3z M47,35.7
			c-0.5,0.9-1,1.8-1.6,2.6l-2.5-2.5l0.5-0.1c1-0.2,2.1-0.4,3.2-0.4h0.6C47.1,35.4,47,35.5,47,35.7z M52.8,41.4l-2,2.2L49,41.8l2-2.2
			L52.8,41.4z"/>
		<g class="st0">
			<path d="M51,30l2.6,5.3l-2.1,2.2l-0.3,0.4l-0.3,0.4L49,40.5l-0.3,0.4l-0.3,0.4L42,47.9l-6.8,3.7L16.5,53c3.3-5-5.1-8.7-5.1-8.7
				c4.9-2.2,8.9-6.5,11.6-10l1.3,0.8c-0.8,1.6-1.7,3.1-2.3,4.2c-1.4,2.3-6.5,4.7-7.1,5s2.8,0.2,4.7,1.3c1.1,0.8,1.8,2.1,1.7,3.4
				c0,0-0.3,0.6,3.3,0.6s10.7-2.8,10.7-2.8c4.4-1.4,8.2-4.1,11-7.7l0.3-0.4l0.3-0.4c0.6-0.8,1.1-1.7,1.6-2.6l0.2-0.5l0.2-0.5
				l0.2-0.4c0.4-0.6-0.3-0.8-1.3-0.8h-0.8l-0.7,0.1c-1.2,0.1-2.4,0.4-2.4,0.4c0.5-0.5,0.9-1,1.3-1.5c0.1-0.1,0.2-0.3,0.3-0.4
				c0.1-0.1,0.2-0.3,0.3-0.4c0.7-1.3,1.2-2.8,1.3-4.3c5.1-1.5,12.9-10,13.5-10.5c-0.4,0.6-5.3,7.8-7.7,9.8S51,30,51,30z"/>
			<path class="st1" d="M57,38.4c-0.1,0.1-0.1,0.3-0.2,0.5l0.4,0.4l0.2-0.5L57,38.4z M57,38.4c-0.1,0.1-0.1,0.3-0.2,0.5l0.4,0.4
				l0.2-0.5L57,38.4z M57,38.4c-0.1,0.1-0.1,0.3-0.2,0.5l0.4,0.4l0.2-0.5L57,38.4z M57,38.4c-0.1,0.1-0.1,0.3-0.2,0.5l0.4,0.4
				l0.2-0.5L57,38.4z M57,38.4c-0.1,0.1-0.1,0.3-0.2,0.5l0.4,0.4l0.2-0.5L57,38.4z M57,38.4c-0.1,0.1-0.1,0.3-0.2,0.5l0.4,0.4
				l0.2-0.5L57,38.4z M57,38.4c-0.1,0.1-0.1,0.3-0.2,0.5l0.4,0.4l0.2-0.5L57,38.4z"/>
		</g>
		<path d="M49.4,19.6c-2.1,0.6-8.6,5-9.2,6.2c-0.1,0.3-0.3,0.4-0.3,0.4c-0.3,0-0.3-1.2-0.3-1.2s2.4-3.8,4.3-4.8s3.8-2.1,3.8-2.1
			s0.4-1.5-2.1-2.9c-0.8-0.5-1-0.7-0.7-0.7c0.7,0.2,1.4,0.4,2.1,0.7l3.4,2.2C50.4,17.4,51.5,19,49.4,19.6z"/>
		<path d="M49,13c-3-1.8-6.2-3-9.6-3.6c-0.5-0.1-1-0.1-1.6-0.1c-5.1,0-11.5,3.3-14.6,4.6c-0.6,0.3-1.3,0.5-2,0.6
			c-0.8,0-0.1-0.8-0.1-0.8c0.5-1.8,0.2-2.2-0.2-2.2c-0.2,0-0.4,0.1-0.6,0.2c0,0-13.4,8.7-14.2,11.4c-0.2,0.7,0.3,1,1.1,1
			c1.8,0,5-1.2,6-1.4l0.3-0.1c0.1,0,0,0-0.1,0.1c-0.2,0.2-0.4,0.4-0.5,0.7l-0.2,0.4c-0.1,0.1-0.1,0.3-0.2,0.5c-0.9,3-1.7,6-2.2,9.1
			l-3.6,5.6L7.3,35c0.2-2.6,0.9-5.2,2.2-7.6c0.9-1.6,0.6-2,0-2c-0.6,0.1-1.2,0.3-1.7,0.5c0,0-5.3,1.7-6.9,2.4
			c-0.2,0.1-0.3,0.1-0.5,0.1c-0.8,0,0-1.7,0-1.7l9.8-12.2L22,8.8c0.9-0.3,1.7-0.4,2.6-0.5c0.6,0,1,0.2,0.8,0.7c-0.4,0.8,0,1,0.5,1
			c0.2,0,0.4,0,0.6-0.1c0,0,8.4-2.5,14.2-2.5C46.3,7.4,48.9,12.8,49,13z M10.5,9.9l-1.8,3l-3.1,2.4l1.3-3.6L10.5,9.9z"/>
	</g>
</g>
</svg>
