<?xml version="1.0" encoding="utf-8"?>
<!-- Generator: Adobe Illustrator 24.1.2, SVG Export Plug-In . SVG Version: 6.00 Build 0)  -->
<svg version="1.1" id="Layer_1" xmlns="http://www.w3.org/2000/svg" xmlns:xlink="http://www.w3.org/1999/xlink" x="0px" y="0px"
	 viewBox="0 0 143.5 143.5" style="enable-background:new 0 0 143.5 143.5;" xml:space="preserve">
<g id="Layer_2_1_">
	<g id="Layer_2-2">
		<polygon points="122.7,87 128.6,92.1 143.5,94.2 139.2,82.7 139.2,82.7 138.4,88.1 138.3,89.3 137.1,89.1 		"/>
		<path d="M26.4,66.8c0.1-0.9,0.2-1.8,0.2-2.8V63l0,0L31,43.6l-1.6-2.5l-1.3,4.3L26,48.8l-3.9,18.8l-2.7,2.3l-1.7,12.5
			C22.3,78.4,25.4,72.9,26.4,66.8z"/>
		<path d="M32.5,59.3L32.4,46l-0.4-0.7l-4,16.9C29.6,61.1,31.1,60.1,32.5,59.3z"/>
		<path d="M44.7,77.3l-0.5-0.1l-7.3-1c-0.7,0.1-1.3,0.3-1.8,0.4l-17,20.4c4.1,0.2,11.9,1.1,12.1,5.4c0,0,2.3-3.9,37.5-3.2
			c5.8,0,8-0.1,8-0.1l-12.5-6.9l-3,2.8l-0.3-5l-5.3,3.5l1.6-5.3C56.5,88.3,44.7,91.5,44.7,77.3z"/>
		<path d="M44.9,52.4l0.8,0.3l2,0.9l0.7-4.8l-11.6-1.6l-2.5,11c3.2-2,6.5-3.8,9.8-5.5L44.9,52.4z"/>
		<polygon points="37.2,74.3 45.1,75.3 52.4,68.6 55.5,65.7 53.8,62.9 53.4,62.3 47.8,61.5 		"/>
		<path d="M15.7,97l33.7-40.5l-0.6-0.3l-1.4-0.6l-2.5-1.1c0,0-0.4,0.2-1.2,0.6l-1,0.5l-0.8,0.4l-1,0.5c-1.2,0.7-2.7,1.5-4.5,2.6
			l-1.7,1l-1,0.6L33,61.3l-0.6,0.4c-1.2,0.7-2.5,1.5-3.8,2.4c0,0.2,0,0.4,0,0.7v0.2v0.5c0,0,0,0.1,0,0.1c0,0.2,0,0.5-0.1,0.7
			c0,0.1,0,0.1,0,0.2c0,0,0,0.4-0.1,0.6c0,0,0,0.1,0,0.1c0,0,0,0.1,0,0.1v0.2l-0.1,0.4V68l-0.1,0.4c0,0,0,0.1,0,0.1
			c-0.1,0.2-0.2,0.4-0.3,0.5v0.2c0,0.1-0.1,0.3-0.1,0.4c0,0.1,0,0.1,0,0.2c0,0.1-0.1,0.3-0.1,0.4c0,0.1,0,0.1-0.1,0.2
			c0,0.1-0.1,0.3-0.1,0.4L27.5,71c0,0.2-0.1,0.4-0.2,0.5v0l-0.2,0.6c0,0.1,0,0.1-0.1,0.2l-0.1,0.4L26.8,73c-0.1,0.1-0.1,0.3-0.2,0.4
			l-0.1,0.2L26.4,74l-0.1,0.2c-0.1,0.2-0.2,0.4-0.3,0.6c0,0,0,0.1,0,0.1l-0.3,0.5c0,0.1-0.1,0.1-0.1,0.2L25.4,76l-0.1,0.2
			c-0.1,0.1-0.2,0.3-0.2,0.4c0,0.1-0.1,0.1-0.1,0.2l-0.3,0.4l-0.1,0.2c-0.1,0.2-0.3,0.4-0.4,0.6L24,78.2l-0.3,0.5l-0.2,0.2l-0.3,0.4
			c-0.1,0.1-0.1,0.2-0.2,0.2l-0.3,0.4c-0.1,0.1-0.1,0.1-0.2,0.2c-0.1,0.1-0.3,0.3-0.4,0.5l-0.1,0.1c-0.2,0.2-0.3,0.4-0.5,0.6
			l-0.2,0.2L21,81.9l-0.2,0.2c-0.1,0.1-0.2,0.3-0.4,0.4l-0.2,0.2l-0.4,0.4c-0.1,0.1-0.1,0.1-0.2,0.2L19,83.8c-0.6,0.6-1.3,1.1-2,1.5
			c-0.2,0.1-0.4,0.3-0.6,0.4c-0.2,0.1-0.4,0.2-0.6,0.3c-0.5,0.2-0.9,0.4-1.4,0.5c-0.3,0.1-0.5,0.1-0.8,0.1H13h-0.3h-0.5H12l-0.4-0.1
			c-0.1,0-0.3-0.1-0.4-0.1l-0.4-0.1l-0.4-0.2c-0.1,0-0.2-0.1-0.4-0.2l-0.3-0.2l-0.2-0.1l-0.3-0.2l-0.3-0.2l-0.5-0.4l-0.2-0.2
			c-0.3-0.3-0.6-0.7-0.9-1.1L0,96.8L15.4,97L15.7,97z"/>
		<polygon points="69.3,78 66.3,74.6 58,73.6 52.6,76.4 70,78.8 		"/>
		<path d="M54.6,69.2l-6.9,6.5l3.9-0.1l0.4-0.2l5.3-2.8l0.3-0.2l0.4,0l15.8,2l8.4-1.8l8.7-3.9l-2.6-4.6c0,0-7.7,6.1-23.3,6.3h0.1
			C61.6,70.2,58.1,69.8,54.6,69.2z"/>
		<polygon points="74.1,75.4 73.9,75.5 73.8,75.4 68,74.7 70.9,78 71.1,78.3 121.3,85.6 137.2,88 138.2,81 81.7,73.8 		"/>
	</g>
</g>
</svg>
