<?xml version="1.0" encoding="utf-8"?>
<!-- Generator: Adobe Illustrator 24.1.2, SVG Export Plug-In . SVG Version: 6.00 Build 0)  -->
<svg version="1.1" id="Layer_1" xmlns="http://www.w3.org/2000/svg" xmlns:xlink="http://www.w3.org/1999/xlink" x="0px" y="0px"
	 viewBox="0 0 49.3 49.3" style="enable-background:new 0 0 49.3 49.3;" xml:space="preserve">
<style type="text/css">
	.st0{opacity:0.4;enable-background:new    ;}
</style>
<g id="Layer_2_1_">
	<g id="Layer_2-2">
		<path d="M13.5,9.6c0,0-5.3,3.3-0.2,15.3c-0.2-5.1,3.7-12.2,3.7-12.2S17.1,9.1,13.5,9.6z M19,10.3c-0.3,0.2-0.5,0.5-0.6,0.8
			c-0.7,1.7-0.3,3.7,1,5.1c0.9-1.6,1.3-3.5,1.1-5.3C20.3,10.1,19.6,9.8,19,10.3z M22.5,10.3c-0.3,0.2-0.5,0.5-0.6,0.8
			c-0.7,1.7-0.3,3.7,1,5.1c0.9-1.6,1.3-3.5,1.2-5.3C23.9,10.1,23.2,9.8,22.5,10.3z M36.2,9.6c-3.6-0.6-3.4,3.1-3.4,3.1
			s3.9,7.1,3.7,12.2C41.5,12.9,36.2,9.6,36.2,9.6z M30.6,10.3c-0.7-0.5-1.3-0.3-1.4,0.5c-0.2,1.9,0.2,3.7,1.1,5.3
			c1.3-1.3,1.7-3.3,1-5.1C31.2,10.8,30.9,10.6,30.6,10.3z M27.1,10.3c-0.7-0.5-1.3-0.3-1.4,0.5c-0.2,1.9,0.2,3.7,1.1,5.3
			c1.3-1.3,1.7-3.3,1-5.1C27.6,10.8,27.4,10.6,27.1,10.3z M32.7,39.6c0,0,3.7-2.3,0.2-10.6c0.2,3.5-2.5,8.4-2.5,8.4
			S30.2,40,32.7,39.6z M27.9,38.8c0.1,0.6,0.5,0.7,1,0.4c0.2-0.1,0.3-0.3,0.5-0.6c0.5-1.2,0.2-2.6-0.7-3.5
			C28.1,36.2,27.8,37.5,27.9,38.8z M25.5,38.8c0.1,0.6,0.5,0.7,1,0.4c0.2-0.1,0.4-0.3,0.5-0.6c0.5-1.2,0.2-2.6-0.7-3.5
			C25.6,36.2,25.3,37.5,25.5,38.8z M16.8,29.1C13.3,37.4,17,39.6,17,39.6c2.5,0.4,2.4-2.2,2.4-2.2S16.7,32.6,16.8,29.1z M20.4,38.6
			c0.1,0.2,0.3,0.4,0.5,0.6c0.5,0.3,0.9,0.2,1-0.4c0.1-1.3-0.2-2.6-0.8-3.7C20.1,36,19.9,37.4,20.4,38.6z M22.9,38.6
			c0.1,0.2,0.3,0.4,0.5,0.6c0.5,0.3,0.9,0.2,1-0.4c0.1-1.3-0.1-2.6-0.8-3.7C22.6,36,22.4,37.4,22.9,38.6z"/>
		<path class="st0" d="M42.2,26.3c-0.1-2.2-0.8-4.4-1.9-6.3c3.9,2.9,4.7,8.4,1.8,12.3c-0.6,0.8-1.2,1.4-2,1.9
			C41.7,31.8,42.4,29,42.2,26.3z"/>
		<path class="st0" d="M46.7,25.8c-0.2-3.4-1.2-6.8-2.9-9.8c6.1,4.5,7.3,13.1,2.8,19.1c-0.9,1.2-1.9,2.2-3.1,3
			C45.8,34.5,46.9,30.1,46.7,25.8z M7.3,28c0.2,2.2,1,4.3,2.1,6.2C5.4,31.5,4.3,26.1,7,22c0.5-0.8,1.2-1.5,1.9-2
			C7.6,22.4,7,25.2,7.3,28z"/>
		<path class="st0" d="M2.7,28.6C3,32,4.1,35.3,6,38.2c-6.3-4.2-7.9-12.7-3.7-19c0.8-1.2,1.8-2.3,3-3.1C3.1,19.9,2.2,24.2,2.7,28.6z
			"/>
	</g>
</g>
</svg>
