<?xml version="1.0" encoding="utf-8"?>
<!-- Generator: Adobe Illustrator 24.1.2, SVG Export Plug-In . SVG Version: 6.00 Build 0)  -->
<svg version="1.1" id="Layer_1" xmlns="http://www.w3.org/2000/svg" xmlns:xlink="http://www.w3.org/1999/xlink" x="0px" y="0px"
	 viewBox="0 0 56.5 56.5" style="enable-background:new 0 0 56.5 56.5;" xml:space="preserve">
<style type="text/css">
	.st0{fill:#999999;}
</style>
<g>
	<g>
		<path d="M10.4,41c0.5,0.4,1.1,0.8,1.6,1.2L0,49.7L10.4,41z M18.7,37.9l-4.1,2.6c-0.1-0.1-0.2-0.2-0.2-0.3L14,39.8
			c-0.3-0.4-0.6-0.8-0.9-1.2l3.5-2.9C17.2,36.4,17.9,37.1,18.7,37.9L18.7,37.9L18.7,37.9z M56.5,7.8c0,0.1,0,0.2,0,0.3v0.3
			c0,0.1-0.1,0.2-0.1,0.3c0,0.1-0.1,0.2-0.1,0.3c0,0.1-0.1,0.3-0.2,0.4c0,0.1-0.1,0.2-0.2,0.3c-0.1,0.2-0.2,0.3-0.3,0.5l-0.2,0.3
			c-0.1,0.2-0.2,0.4-0.3,0.6L55,11.5l-0.4,0.6l-0.3,0.4c-0.1,0.2-0.3,0.5-0.5,0.7l-0.3,0.4L53,14.2l-0.3,0.3l-0.6,0.8l-0.3,0.3
			l-0.7,0.9l-0.3,0.3l-0.8,0.9l-0.2,0.3L49.1,19l-0.2,0.3l-0.3,0.3L48,20.3c-0.1,0.1-0.1,0.1-0.2,0.2l-0.9,1l-0.2,0.2l-0.9,1
			l-0.1,0.2l-1,1L44.6,24l-0.4,0.5L44,24.6L43.6,25l-0.1,0.1l-1,1v0l-1.9,2L39.8,29c-1,1-1.8,1.9-2.4,2.4l-0.1,0.1L36.9,32l-0.2,0.2
			l-0.1,0.1l6.9-10.2l-1.7,1.1l-4,2.5l-0.3,0.2l-14.1,9c-0.9-0.9-1.8-1.8-2.6-2.7l17.9-15.1l-9.7,2.2c0.1,0,0.1-0.1,0.2-0.1
			c0.7-0.4,4.4-2.7,5.2-3.1c1.9-1.1,3.9-2.2,6-3.3c1.2-0.7,2.4-1.3,3.7-1.9c0.8-0.4,1.6-0.8,2.4-1.1l1.2-0.5
			c1.2-0.5,2.3-0.9,3.4-1.3c1.2-0.5,2.5-0.8,3.8-1c0.2,0,0.4,0,0.6,0c0.1,0,0.2,0,0.3,0c0.1,0,0.2,0,0.3,0.1L56.1,7l0.2,0.1
			c0,0.1,0.1,0.1,0.1,0.2c0,0.1,0.1,0.1,0.1,0.2C56.5,7.6,56.5,7.7,56.5,7.8z"/>
	</g>
	<path class="st0" d="M40.5,36.2c-0.4-0.6-0.8-1.2-1.2-1.7s-0.8-1.1-1.2-1.6c0.3,0.4,0.6,0.8,0.9,1.2s0.5,0.7,0.7,1
		c0.1,0.2,0.3,0.4,0.4,0.6c0.2,0.4,0.4,0.7,0.6,1.1c0.1,0.2,0.3,0.5,0.3,0.7c0.2,0.5,0.4,1,0.6,1.4c0.2,0.7,0.4,1.4,0.5,2.2
		c0,0.5,0,0.9,0,1.4c-0.1,0.5-0.2,0.9-0.3,1.3l-0.1,0.1c0,0-0.1,0.1-0.2,0.1l-0.2,0.2h0l-0.3,0.2c-0.1,0.1-0.2,0.1-0.3,0.1h-0.1
		c-0.1,0.1-0.3,0.1-0.4,0.1h-0.1l-0.5,0.1h-1.7l-0.4,0h-0.2l-0.5-0.1h-0.2c-0.2,0-0.5-0.1-0.7-0.2l-0.2,0L35,44.1l-0.3-0.1L34,44
		c-0.1,0-0.2-0.1-0.3-0.1l-0.5-0.3l-0.3-0.2l-0.6-0.3c-0.1,0-0.2-0.1-0.3-0.1l-1-0.6h-0.1c0,0-0.1-0.1-0.1-0.1
		c-0.3-0.2-0.6-0.3-0.8-0.5l-0.4-0.3L28.8,41c-0.1-0.1-0.3-0.2-0.4-0.3c-0.2-0.2-0.5-0.3-0.7-0.5l-0.5-0.4c-0.3-0.2-0.5-0.4-0.8-0.7
		c-0.1-0.1-0.3-0.2-0.4-0.3l-1.3-1.1v-0.1c-0.1-0.1-0.3-0.3-0.5-0.4c-0.7-0.6-1.3-1.2-1.9-1.8c-0.9-0.9-1.8-1.8-2.5-2.6
		c-1.4-1.4-2.6-2.9-3.8-4.5c-0.2-0.2-0.3-0.4-0.4-0.6c-0.6-0.8-1.1-1.5-1.5-2.3c-0.3-0.5-0.5-0.9-0.7-1.4c-0.3-0.6-0.5-1.2-0.8-1.8
		c-0.1-0.3-0.2-0.7-0.3-1c-0.1-0.3-0.1-0.6-0.2-0.9c0-0.2-0.1-0.5-0.1-0.7c0-0.3,0-0.6,0.1-0.9c0-0.1,0.1-0.3,0.2-0.4
		c0.1-0.1,0.2-0.3,0.4-0.3c0.1,0,0.2-0.1,0.3-0.1c0,0,0.1,0,0.1,0l0.2-0.1h0.1l0.2-0.1l0.2,0h0.7c0.2,0,0.3,0,0.5,0h0.2
		c0.1,0,0.3,0,0.4,0h0.2l0.7,0.1h0.1l0.6,0.1h0.1l0.2,0.1c0.2,0,0.4,0.1,0.6,0.2l3.1,0.9c-0.4-0.3-0.8-0.5-1.2-0.7l0-0.2
		c-0.4-0.2-0.8-0.5-1.2-0.6l-0.3-0.1l-1-0.5h-0.1c-0.4-0.2-0.7-0.3-1-0.5l-0.2-0.1l-0.9-0.3h-0.1c-0.3-0.1-0.6-0.2-0.9-0.3
		c-0.1,0-0.1,0-0.2-0.1l-0.7-0.2c0,0-0.1,0-0.1,0c-0.2-0.1-0.5-0.1-0.8-0.2c-0.1,0-0.1,0-0.2,0l-0.6-0.1h-0.1L11,15.1H9.2
		c-0.2,0-0.4,0.1-0.6,0.1l-0.5,0.1l-0.4,0.1l-0.3,0.1C7.1,15.8,7,16,6.9,16.3c-0.2,0.6-0.2,1.3-0.1,2c0,0.5,0.1,1,0.2,1.5
		c0.1,0.3,0.2,0.6,0.3,0.9c0.5,1.5,1.2,2.9,2,4.2c0.4,0.8,1,1.6,1.6,2.5c-0.4-0.1-0.8-0.2-1.2-0.3L9.3,27l-0.8-0.2H8.3
		c-0.3,0-0.6,0-0.8,0H7.3c-0.2,0-0.4,0-0.6,0H6.6c-0.2,0-0.3,0-0.5,0.1c0,0-0.1,0-0.1,0L5.6,27l-0.1,0.1c-0.1,0-0.2,0.1-0.2,0.1
		c0,0-0.1,0-0.1,0.1c-0.1,0-0.1,0.1-0.2,0.1c0,0-0.1,0-0.1,0c-0.1,0.1-0.1,0.1-0.2,0.2l-0.1,0.1c0,0,0,0,0,0v0.1
		c-0.5,3.3,0.9,6.3,3,8.8c1,1.3,2.1,2.5,3.4,3.6c0.6,0.5,1.1,0.9,1.7,1.3c1.3,0.9,2.6,1.7,3.9,2.5c-0.1-0.1-0.6-0.5-1.4-1.2
		c-0.3-0.3-0.6-0.6-0.9-1s-0.4-0.5-0.6-0.7L13.6,41c-0.1-0.2-0.3-0.4-0.5-0.5c-0.3-0.4-0.6-0.8-0.9-1.2s-0.7-0.9-1.1-1.5l-0.8-1.2
		c-0.4-0.7-0.9-1.4-1.3-2.2c-0.2-0.3-0.3-0.6-0.4-0.9c0-0.1-0.1-0.1-0.1-0.2c-0.1-0.2-0.2-0.5-0.3-0.7c0,0,0-0.1,0-0.1
		c-0.1-0.2-0.2-0.4-0.2-0.6v-0.1c0-0.2,0-0.3,0-0.5c0,0,0-0.1,0-0.1c0-0.2,0-0.3,0.1-0.4c0-0.1,0.1-0.2,0.2-0.3l0.1-0.1
		c0.1-0.1,0.2-0.2,0.2-0.3h0.1c0.1-0.1,0.2-0.2,0.3-0.3l0.4-0.1c0,0,0.1,0,0.1,0c0.1,0,0.3-0.1,0.4-0.1c0.2,0,0.4,0,0.7,0h0.8
		l0.6,0.1H12c0.2,0,0.3,0,0.5,0.1c0.4,0.5,0.8,1,1.3,1.6c1,1.2,2.1,2.5,3.4,3.8c0.6,0.7,1.3,1.3,2,2c0.1,0.1,0.1,0.1,0.2,0.2
		l0.8,0.7c0.5,0.5,1.1,1,1.6,1.5c0.2,0.2,0.4,0.4,0.6,0.6c0.5,0.5,1.1,0.9,1.6,1.4c0.2,0.1,0.3,0.3,0.5,0.4l1,0.8l0.5,0.4
		c0.3,0.2,0.6,0.5,0.9,0.7s0.4,0.3,0.5,0.4s0.6,0.4,0.9,0.6s0.3,0.2,0.4,0.3l1.1,0.7L30,46c0.4,0.2,0.8,0.5,1.2,0.7l0.3,0.2l0.8,0.4
		l0.4,0.2l0.7,0.3l0.4,0.2l0.7,0.3l0.3,0.1l0.7,0.2l0.2,0.1c0.3,0.1,0.6,0.2,0.9,0.2h0.2l0.6,0.1h0.3l0.5,0.1h0.3c0.1,0,0.3,0,0.4,0
		h0.9l0.6-0.1c0.2,0,0.4-0.1,0.7-0.1h0.1c0.2,0,0.4-0.1,0.5-0.2h0.1c0.2,0,0.3-0.1,0.4-0.2l0.4-0.2c0,0,0,0,0.1,0
		c0.1,0,0.2-0.1,0.3-0.2l0.2-0.1l0.1-0.1C44.8,44.2,42.9,39.8,40.5,36.2L40.5,36.2z"/>
</g>
</svg>
