<?xml version="1.0" encoding="utf-8"?>
<!-- Generator: Adobe Illustrator 24.1.2, SVG Export Plug-In . SVG Version: 6.00 Build 0)  -->
<svg version="1.1" id="Layer_1" xmlns="http://www.w3.org/2000/svg" xmlns:xlink="http://www.w3.org/1999/xlink" x="0px" y="0px"
	 viewBox="0 0 49.8 49.8" style="enable-background:new 0 0 49.8 49.8;" xml:space="preserve">
<style type="text/css">
	.st0{opacity:0.4;enable-background:new    ;}
</style>
<g id="Layer_2_1_">
	<g id="Layer_2-2">
		<path d="M13.3,2.9c0,0-5.3,3.3-0.2,15.3C12.8,13.1,16.8,6,16.8,6S16.9,2.3,13.3,2.9z M20.3,4.1c-0.1-0.8-0.7-1-1.4-0.5
			c-0.3,0.2-0.5,0.5-0.7,0.8c-0.7,1.7-0.3,3.7,1,5.1C20.1,7.9,20.5,6,20.3,4.1z M23.8,4.1c-0.1-0.8-0.7-1-1.4-0.5
			c-0.3,0.2-0.5,0.5-0.7,0.8c-0.7,1.7-0.3,3.7,1,5.1C23.7,7.9,24,6,23.8,4.1z M36,2.9C32.4,2.3,32.6,6,32.6,6s3.9,7.1,3.7,12.2
			C41.3,6.2,36,2.9,36,2.9z M31.2,4.4c-0.1-0.3-0.4-0.6-0.7-0.8c-0.7-0.5-1.3-0.3-1.4,0.5c-0.2,1.9,0.2,3.7,1.1,5.3
			C31.5,8.1,31.9,6.2,31.2,4.4z M27.6,4.4c-0.2-0.3-0.4-0.6-0.7-0.8c-0.7-0.5-1.3-0.3-1.4,0.5c-0.2,1.9,0.2,3.7,1.1,5.3
			C27.9,8.1,28.3,6.2,27.6,4.4z M32.6,46.9c0,0,3.7-2.3,0.2-10.6c0.2,3.5-2.5,8.4-2.5,8.4S30.1,47.3,32.6,46.9z M27.8,46
			c0.1,0.6,0.5,0.7,1,0.4c0.2-0.1,0.4-0.3,0.5-0.6c0.5-1.2,0.2-2.6-0.7-3.5C28,43.5,27.7,44.8,27.8,46z M25.3,46
			c0.1,0.6,0.5,0.7,1,0.4c0.2-0.1,0.3-0.3,0.5-0.6c0.5-1.2,0.2-2.6-0.7-3.5C25.5,43.5,25.2,44.8,25.3,46z M16.9,46.9
			c2.5,0.4,2.4-2.2,2.4-2.2s-2.7-4.9-2.5-8.4C13.2,44.6,16.9,46.9,16.9,46.9z M20.3,45.8c0.1,0.2,0.3,0.4,0.5,0.6
			c0.5,0.3,0.9,0.2,1-0.4c0.1-1.3-0.1-2.6-0.8-3.7C20,43.3,19.8,44.6,20.3,45.8z M22.7,45.8c0.1,0.2,0.3,0.4,0.5,0.6
			c0.5,0.3,0.9,0.2,1-0.4c0.1-1.3-0.1-2.6-0.8-3.7C22.5,43.3,22.3,44.6,22.7,45.8z M32.7,18.3L24,14.6l-8.6,3.7l1.6,8.2
			c0.6,1.5,1.4,2.9,2.4,4.1c0.8,1,1.7,1.8,2.7,2.6c0.6,0.4,1.2,0.8,1.8,1.1c0.6-0.3,1.3-0.7,1.8-1.1c1-0.7,1.9-1.6,2.7-2.6
			c1-1.2,1.9-2.6,2.4-4.1L32.7,18.3z"/>
		<path class="st0" d="M42.5,25.2c-0.1-2.2-0.8-4.4-1.9-6.3c3.9,2.9,4.7,8.4,1.8,12.3c-0.6,0.8-1.2,1.4-2,1.9
			C42,30.8,42.7,28,42.5,25.2z"/>
		<path class="st0" d="M47.2,24.1c-0.2-3.4-1.2-6.8-2.9-9.8c6.1,4.5,7.3,13.1,2.8,19.1c-0.9,1.2-1.9,2.2-3.1,3
			C46.3,32.8,47.4,28.5,47.2,24.1z M7.3,26.7C7.4,28.9,8,31,9.1,32.9c-3.9-2.9-4.7-8.4-1.8-12.3c0.6-0.8,1.2-1.4,2-1.9
			C7.8,21.1,7.1,23.9,7.3,26.7z"/>
		<path class="st0" d="M2.6,27.7c0.2,3.4,1.2,6.8,2.9,9.8C-0.5,33-1.8,24.4,2.7,18.4c0.9-1.2,1.9-2.2,3.1-3
			C3.5,19.1,2.4,23.4,2.6,27.7z"/>
	</g>
</g>
</svg>
