<?xml version="1.0" encoding="utf-8"?>
<!-- Generator: Adobe Illustrator 24.1.2, SVG Export Plug-In . SVG Version: 6.00 Build 0)  -->
<svg version="1.1" id="Layer_1" xmlns="http://www.w3.org/2000/svg" xmlns:xlink="http://www.w3.org/1999/xlink" x="0px" y="0px"
	 viewBox="0 0 53.5 53.5" style="enable-background:new 0 0 53.5 53.5;" xml:space="preserve">
<style type="text/css">
	.st0{fill:#080300;}
</style>
<path class="st0" d="M36,47v-3.3c1.2,0.1,2.4,0.1,3.6-0.1c11.3-2.5,13.8-13.5,14-14.1c-5.1,10.2-12.1,11-12.1,11
	c3-1.2,5.2-4.1,6.4-6.1h0.8V33c0.2-0.4,0.3-0.7,0.3-0.7C52.6,24,52.1,16.7,47,8.2c-2.3-3.5-5.8-6-9.9-7c5.1,2,7.8,7.5,7.8,7.5
	c1.6,3.1,2.6,6.4,3.1,9.9h-6.9c-0.2-4.2-1.5-8.3-3.7-11.8c-7.5-9.3-18.9-6.3-18.9-6.3c9.3,0,13.5,3.9,14.8,5.4H33
	C29.2,3,23,3.3,23,3.3c-9,0.5-15.3,4-20.7,12.4c-2.1,3.6-2.8,7.9-1.9,12c-0.5-5.5,3.3-10.3,3.3-10.3c6-7.9,12-10,16.5-10.1v8.6
	c-1.8,0.7-3.4,1.6-5,2.7H7.5v7.7c-0.4,0.6-0.7,1.2-1,1.8c-4.1,11.2,4.4,19.4,4.4,19.4C6.9,41,7,36,7.5,33.4v1h0.5
	c0.4,2.8,1.4,5.4,2.9,7.8c5.1,7.5,11.4,11.1,21.3,11.4c4.2,0,8.2-1.7,11.3-4.6c-4.4,3.2-10.5,2.5-10.5,2.5
	c-19.3-2.1-19.3-15.7-19.3-15.7v-1.4h4.3c0.7,1,1.4,2,2.3,2.9V47H36z M13.7,31.4h-3.2v-9.8h12.7V8.9H33v12.7h12.6v9.8H33V44h-9.9
	V31.4C23.1,31.4,13.7,31.4,13.7,31.4z M36,36.8v-2.4h4.9C39.4,35.4,37.7,36.2,36,36.8z M36,18.5v-1.1c0.2,0.4,0.3,0.7,0.5,1.1H36z"
	/>
</svg>
