<?xml version="1.0" encoding="utf-8"?>
<!-- Generator: Adobe Illustrator 24.1.2, SVG Export Plug-In . SVG Version: 6.00 Build 0)  -->
<svg version="1.1" id="Layer_1" xmlns="http://www.w3.org/2000/svg" xmlns:xlink="http://www.w3.org/1999/xlink" x="0px" y="0px"
	 viewBox="0 0 57.3 57.3" style="enable-background:new 0 0 57.3 57.3;" xml:space="preserve">
<style type="text/css">
	.st0{opacity:0.4;enable-background:new    ;}
</style>
<g id="Layer_2_1_">
	<g id="Layer_2-2">
		<polygon class="st0" points="23.6,17.6 25.6,17.6 25.6,17.6 23.6,17.6 21,20.2 19.6,21.6 19.6,21.6 21,20.2 		"/>
		<path class="st0" d="M28.6,0L3.5,10.8l4.8,23.8c1.7,4.4,4,8.4,7.1,12c3.7,4.4,8.2,8,13.3,10.7c1.9-1,3.6-2.1,5.4-3.3
			c2.9-2.1,5.6-4.6,7.9-7.4c3-3.6,5.4-7.6,7.1-12l4.8-23.8L28.6,0z M43.9,21.5v4.8l-0.6,0.6L28.9,41.3l-0.6,0.6h-5.6l-0.6-0.6
			l-8.2-8.2l-0.6-0.6V27l0.6-0.6l1.4-1.4v-5.1l0.6-0.6l3.2-3.3l2.1-2l0.6-0.6H27l1.4-1.4l0.6-0.6h5.6l0.6,0.6l8.2,8.2l0.6,0.6V21.5z
			"/>
		<path d="M29.8,13.4l-2,2h-5.1l-2.1,2.1l-3.3,3.3v5.1l-2,2v3.9l8.2,8.2h3.9l14.4-14.4v-3.9l-8.2-8.2L29.8,13.4z M19.6,23.6v-1.9
			l0,0l1.4-1.4l2.6-2.6h2L19.6,23.6z M32.9,28.8l-2,2l-2.2-2.2l-2.2,2.2l-2-2l2.2-2.2l-2.2-2.2l2-2l2.2,2.2l2.2-2.2l2,2l-2.2,2.2
			L32.9,28.8z"/>
	</g>
</g>
</svg>
