<?xml version="1.0" encoding="utf-8"?>
<!-- Generator: Adobe Illustrator 24.1.2, SVG Export Plug-In . SVG Version: 6.00 Build 0)  -->
<svg version="1.1" id="Layer_1" xmlns="http://www.w3.org/2000/svg" xmlns:xlink="http://www.w3.org/1999/xlink" x="0px" y="0px"
	 viewBox="0 0 51.3 51.3" style="enable-background:new 0 0 51.3 51.3;" xml:space="preserve">
<style type="text/css">
	.st0{opacity:0.4;enable-background:new    ;}
</style>
<g id="Layer_2_1_">
	<g id="Layer_2-2">
		<polygon class="st0" points="16.6,4.4 16.7,11.2 21.7,8.3 22.8,17.2 26.4,3 20.5,6.6 21.8,1 		"/>
		<polygon class="st0" points="8.1,12.4 6.2,15.4 7.8,18.9 9.7,16.2 12.3,20.6 10.9,12.4 8.7,15.6 		"/>
		<polygon class="st0" points="50.3,18.2 45.8,22.1 44.9,17.2 33.6,27.3 43.2,22.5 44.1,26.7 50.9,22.7 		"/>
		<polygon class="st0" points="44.2,37.8 39,36.6 40.3,41 33.4,40.1 43.5,45.5 41.8,40.3 45.8,42.4 		"/>
		<polygon class="st0" points="38.4,6.1 44.4,1.2 37.2,0 31.4,7.5 38,9.1 31.1,19.9 46.4,7.7 		"/>
		<polygon points="24.5,25.5 24.4,25.5 24.5,25.5 		"/>
		<path d="M25.9,23.6c0.9-0.5,1.7-0.8,2.2-1c-0.2-1-0.8-1.8-1.5-2.5c-0.2-0.2-0.4-0.4-0.6-0.5l-2.9,1.6l1.7,3L25.9,23.6z"/>
		<path d="M26.4,28.6L26,28.9c-0.2,0.1-0.5,0.3-0.8,0.5c-0.7,0.4-1.5,0.6-2.3,0.7h-0.4h-0.1c-0.2,0-0.5,0-0.7-0.1l0.8,0.9l0.2,0.3
			c0.3-0.1,0.7-0.3,1.1-0.4l1.5-0.7l0,0c0.7-0.4,1.5-0.7,2.2-1l0.6-0.3l0,0l0,0l0.2-0.1c0.7-0.3,1.4-0.7,2-0.9c0-0.1,0-0.1,0-0.2
			c0-0.1,0-0.2,0-0.3c0-0.1,0-0.2,0-0.3c0-0.2-0.1-0.4-0.1-0.7l0,0c-0.1-0.4-0.2-0.7-0.3-1.1c-0.1-0.2-0.2-0.5-0.3-0.7
			c-0.1-0.2-0.2-0.4-0.3-0.6c-0.2-0.3-0.4-0.5-0.5-0.5l0,0h-0.1h-0.1l-0.2,0.1l-0.2,0.1c-0.1,0-0.2,0.1-0.3,0.1l-0.2,0.1L27.5,24
			l-0.3,0.2l-0.4,0.2l-0.4,0.2L26,24.8L25.6,25l-0.2,0.1l0.1,0.1l0,0l0.4,0.6l0.8,1.5l0.5,0.8l0,0L26.4,28.6z"/>
		<path d="M0.5,42.2l8.4,9.1c1.4-2.2,3.8-3.8,6.9-6.1l0.7-0.6c0.7-0.5,1.2-0.9,1.3-1l1.2-0.2c0.7-0.1,1.5-0.3,2.2-0.5l1-0.3
			c0.6-0.2,1.3-0.5,1.8-0.7l1.1-0.5l1.1-0.6c0.6-0.4,1.1-0.7,1.5-1l0.6-0.5l0.3-0.2l0,0l-0.9,0.2l-0.9,0.1c-0.2,0-0.4,0-0.6,0h-0.5
			h-0.4h-0.1c-0.1,0-0.3,0-0.4-0.1c-1.6-0.5-1.4-2.9-1.3-3.6c-0.5-0.2-1-0.6-1.2-1.1c-0.2-0.4-0.3-0.8-0.4-1.2c0-0.3,0-0.7,0.1-1
			c0-0.1,0.1-0.3,0.1-0.4l0,0l-0.9-1l-0.1-0.2l-0.1-0.1l0,0c-0.2-0.3-0.4-0.5-0.6-0.8s-0.5-0.7-0.8-1l-0.2-0.2v-0.1v-0.1
			c-0.2-0.3-0.4-0.6-0.5-1c0,0,0-0.1,0.1-0.1s0,0,0-0.1s0.1-0.3,0.1-0.5c0-0.1,0-0.1,0-0.1v-0.1l0,0l0.1-0.2l0.1-0.1l0.1-0.2
			l0.1-0.1c0-0.1,0.1-0.1,0.1-0.2l0-0.1l0.1-0.1l0,0c0,0,0.1-0.1,0.1-0.1l0,0l0.1-0.1l0,0h0.1l0,0H20l0,0h0.1l0,0v0l0,0l0,0
			c0,0.2,0,0.4,0,0.6v0.1l0,0c0,0.1,0,0.3,0,0.4s0,0,0,0c0,0.1,0,0.2,0,0.2l0.1,0.4c0,0,0,0.1,0,0.1s0.1,0.2,0.1,0.3l0,0
			c0,0.1,0.1,0.3,0.2,0.4c0,0.1,0.1,0.1,0.1,0.2c0.1,0.1,0.1,0.2,0.2,0.3l0.2,0.1l0.2,0.2l0.2,0.1l0.2,0.1h0.2h0.3h0.4h0.1h0.3
			l0.2,0l0.3-0.1l0.2-0.1l0.3-0.1l0.2-0.1l0.3-0.1l0.2-0.1l0.2-0.1l0.1-0.1l0.6,0l0.1-0.1l0.1-0.1l0,0l0.1,0L25,26.4l-0.5-0.9l0,0
			l0,0l0,0L24,24.7l0,0l-1.7-3l-0.5-0.9l-0.1-0.2l-9.3,3.6c0,0-1.3,7.8-1.3,9.3c0,0.2-0.3,0.6-0.9,1.1c-0.4,0.3-0.8,0.7-1.3,1.1
			c-0.9,0.8-1.8,1.4-2.5,1.9l-1.1,0.8c-0.7,0.5-1.4,0.9-2,1.4C2.2,40.5,1.3,41.3,0.5,42.2z"/>
		<path d="M31.7,32.3c-0.2-1-0.5-1.9-0.9-2.8c0-0.1-0.1-0.2-0.1-0.2l0,0c0,0-0.1-0.1-0.1-0.1h-0.3h-0.1H30h-0.2h-0.1l-0.2,0h-0.1
			h-0.2h-0.1H29h-0.1l0,0h-0.1l0,0h-0.1l-0.4,0.2c-0.3,0.1-0.5,0.2-0.8,0.4l-0.4,0.2l-0.9,0.4l-0.3,0.2l-0.1,0.1L24.9,31l-0.5,0.3
			l-0.2,0.1l-0.3,0.2l-0.3,0.1l-0.2,0.1h-0.1c-0.1,0.1-0.1,0.2-0.1,0.3c0,0.2-0.1,0.3-0.1,0.5l0,0c0,0.1,0,0.2,0,0.3
			c0,0.1,0,0.2,0.1,0.4c0,0,0,0.1,0,0.1c0,0.1,0.1,0.2,0.1,0.3l0,0c0.1,0.1,0.2,0.2,0.3,0.3l0.1,0.1c0.1,0.1,0.1,0.1,0.2,0.1H24h0.2
			h0.5h0.1h0.1H25h0.1l0,0l0,0l0.4-0.1l0.3-0.1l0.6-0.2l0,0l1-0.3l1.2-0.3l1.5-0.4l0.4-0.1l0.5-0.1H31l0.2,0
			c0.3-0.1,0.4-0.4,0.5-0.7C31.6,32,31.6,32.2,31.7,32.3z"/>
		<path d="M29.1,38L29.1,38h0.3l0.4-0.1l0.6-0.1h0.1l0.4-0.1h0.1h0.4c0.1-0.1,0.2-0.3,0.2-0.4c0-0.1,0.1-0.3,0.1-0.5
			c0-0.2,0-0.3,0-0.5c0-0.7-0.2-1.3-0.4-1.9l-4.4,0.9h-0.1l-1.1,0.3l0,0c-0.2,0.1-0.5,0.1-0.8,0.2h-0.1c0,0.2,0,0.5,0,0.7
			c0,0.1,0,0.3,0,0.4c0,0.2,0,0.3,0,0.5c0,0.1,0.1,0.3,0.1,0.4c0.1,0.2,0.2,0.4,0.5,0.5h0.2h0.8h0.3h0.1l0.5-0.1h0.1l0.4-0.1l0,0H28
			l0.5-0.1h0.1L29.1,38z"/>
	</g>
</g>
</svg>
