<?xml version="1.0" encoding="utf-8"?>
<!-- Generator: Adobe Illustrator 24.1.2, SVG Export Plug-In . SVG Version: 6.00 Build 0)  -->
<svg version="1.1" id="Layer_1" xmlns="http://www.w3.org/2000/svg" xmlns:xlink="http://www.w3.org/1999/xlink" x="0px" y="0px"
	 viewBox="0 0 55.8 55.8" style="enable-background:new 0 0 55.8 55.8;" xml:space="preserve">
<style type="text/css">
	.st0{opacity:0.4;}
</style>
<g>
	<g>
		<g class="st0">
			<path d="M18.2,21.4l-0.3-0.1v-0.5l0.9,0.5L18.2,21.4z M43.8,52.7c0,0-0.1,0.1-0.1,0.1c-0.1,0.1-0.1,0.1-0.2,0.2
				c-0.1,0.1-0.2,0.1-0.3,0.2h-0.1c-0.1,0.1-0.3,0.2-0.4,0.2c-0.2,0.1-0.3,0.1-0.5,0.2h-0.1c-0.2,0.1-0.4,0.1-0.6,0.2h-0.1
				c-0.2,0.1-0.5,0.1-0.7,0.1c-0.2,0-0.4,0-0.6,0.1h-0.2c-0.2,0-0.3,0-0.5,0c-0.1,0-0.2,0-0.3,0H38l-0.5-0.1h-0.3
				c-0.2,0-0.5-0.1-0.7-0.1h-0.2c-0.3-0.1-0.6-0.2-1-0.2l-0.2,0c-0.3-0.1-0.5-0.2-0.8-0.3l-0.4-0.1l-0.7-0.3l-0.4-0.2l-0.8-0.3
				l-0.5-0.2l-0.9-0.5l-0.4-0.2c-0.4-0.2-0.9-0.5-1.4-0.8c-0.1,0-0.2-0.1-0.2-0.2l-1.2-0.7l-0.5-0.3c-0.3-0.2-0.7-0.4-1-0.7
				l-0.6-0.4l-1-0.8l-0.6-0.5c-0.4-0.3-0.8-0.6-1.2-0.9L22,45.8c-0.6-0.5-1.1-1-1.8-1.5c-0.2-0.2-0.5-0.4-0.7-0.6
				c-0.6-0.6-1.2-1.1-1.8-1.7c-0.4-0.3-0.8-0.7-1.1-1c-2.1-2-4.2-4.1-6.1-6.3c-0.5-0.6-1-1.2-1.4-1.7c-0.2-0.1-0.3-0.1-0.5-0.1
				c0,0-0.1,0-0.1,0l-0.7-0.1H6.8c-0.2,0-0.5,0-0.7,0c-0.2,0-0.3,0-0.4,0.1H5.5c-0.1,0-0.3,0.1-0.4,0.2c-0.1,0.1-0.2,0.1-0.3,0.2
				H4.7c-0.1,0.1-0.2,0.2-0.3,0.3c0,0,0,0.1-0.1,0.1c-0.1,0.1-0.2,0.2-0.2,0.4c-0.1,0.2-0.1,0.3-0.1,0.5c0,0,0,0.1,0,0.1
				c0,0.2,0,0.4,0,0.6v0.1c0,0.2,0.1,0.4,0.2,0.6c0,0,0,0.1,0,0.1c0.1,0.3,0.2,0.5,0.3,0.8c0,0.1,0.1,0.1,0.1,0.2
				c0.1,0.3,0.3,0.6,0.5,1c0.7,1.3,1.5,2.5,2.4,3.8c0.8,1.1,1.5,2,2.2,2.9c0.2,0.3,0.4,0.5,0.6,0.7s0.5,0.5,0.7,0.8
				c0.4,0.4,0.8,0.8,1.1,1.1c0.9,0.8,1.4,1.2,1.6,1.3c-3.8-2-7.3-4.6-10.2-7.8c-2.3-2.8-4-6-3.4-9.7c0,0,0-0.1,0-0.1c0,0,0,0,0-0.1
				c0,0,0.1-0.1,0.1-0.1h0c0.1-0.1,0.2-0.2,0.3-0.3l0.1,0c0.1-0.1,0.1-0.1,0.2-0.2c0,0,0.1,0,0.1-0.1c0.1-0.1,0.2-0.1,0.3-0.1
				c0,0,0.1,0,0.1-0.1l0.5-0.2H2c0.2,0,0.3-0.1,0.5-0.1h0.2c0.2,0,0.4,0,0.6,0h0.2c0.3,0,0.6,0,0.9,0.1h0.2L5.5,30l0.3,0.1
				c0.4,0.1,0.8,0.2,1.3,0.4c-0.7-1-1.3-1.9-1.8-2.8c-0.9-1.4-1.6-3-2.2-4.6c-0.1-0.3-0.2-0.6-0.3-0.9c-0.1-0.5-0.3-1-0.4-1.6
				c-0.1-0.7-0.1-1.5,0.2-2.2c0.1-0.3,0.3-0.6,0.6-0.7l0.3-0.1l0.4-0.1l0.5-0.1c0.2,0,0.4-0.1,0.6-0.1h1.9c0,0,0.1,0,0.2,0l0.7,0.1
				h0.1c0.2,0,0.4,0.1,0.7,0.1H9c0.3,0,0.6,0.1,0.9,0.2c0,0,0.1,0,0.1,0l0.8,0.2l0.2,0.1c0.3,0.1,0.6,0.2,1,0.3l0.1,0
				c0.3,0.1,0.6,0.2,1,0.4l0.3,0.1c0.4,0.1,0.8,0.3,1.2,0.5h0.1l0.5,0.3v0.9l-0.5-0.1c-0.1,0-0.2,0-0.3-0.1
				c-0.3-0.1-0.5-0.1-0.8-0.1h-0.1c-0.3,0-0.5-0.1-0.8-0.1h-0.2c-0.2,0-0.3,0-0.5,0H12c-0.2,0-0.4,0-0.6,0H11c0,0-0.1,0-0.1,0h-0.3
				l-0.2,0c-0.1,0-0.2,0-0.3,0.1l-0.2,0L9.7,20l-0.1,0l-0.3,0.1c-0.2,0.1-0.3,0.2-0.4,0.4c-0.1,0.1-0.1,0.3-0.2,0.4
				c-0.1,0.3-0.1,0.6-0.1,1c0,0.3,0,0.5,0.1,0.8c0,0.3,0.1,0.7,0.2,1c0.1,0.4,0.2,0.8,0.4,1.1c0.2,0.7,0.5,1.3,0.9,1.9
				c0.2,0.5,0.5,1,0.8,1.5c0.5,0.8,1,1.6,1.6,2.5c0.1,0.2,0.3,0.5,0.5,0.7c2.7,3.5,5.8,6.8,9.2,9.7l0.5,0.5l0.1,0.1
				c0.5,0.4,1,0.8,1.4,1.2c0.1,0.1,0.3,0.2,0.4,0.3c0.3,0.3,0.6,0.5,0.9,0.7l0.5,0.4c0.3,0.2,0.5,0.4,0.8,0.6l0.5,0.3l0.8,0.5
				l0.4,0.3c0.3,0.2,0.6,0.4,0.9,0.6c0.1,0,0.1,0.1,0.2,0.1c0.4,0.2,0.7,0.4,1.1,0.6l0.3,0.2l0.7,0.4l0.4,0.2l0.6,0.3
				c0.1,0.1,0.2,0.1,0.4,0.2l0.6,0.2l0.3,0.1l0.6,0.2l0.2,0.1c0.3,0.1,0.5,0.2,0.8,0.2h0.2l0.5,0.1c0.1,0,0.2,0,0.3,0h0.4
				c0.1,0,0.2,0,0.2,0h1.2l0.5,0.2l0.6-0.1c0,0,0.1,0,0.1,0l0.5-0.2h0.1c0.1,0,0.3-0.1,0.4-0.2L41,49H41l0.3-0.2l0.2-0.1l0.1-0.1
				c0.2-0.5,0.3-1,0.3-1.5c0.1-0.5,0.1-1,0-1.5c-0.1-0.8-0.3-1.6-0.5-2.4c-0.2-0.5-0.4-1.1-0.7-1.6c0,0,0-0.1,0-0.1l0.4-0.2
				C43.5,44.9,45.1,49.2,43.8,52.7z"/>
		</g>
		<path d="M42.3,35.6c5.2-0.9,11.6-2.3,13.6-4.3c-8.8,0-20.1-0.9-20.1-0.9l18.4-6.1l-17.9,2.2l14.4-14.4l-2.6-2.6l-14,14L47.3,8.9
			l-0.6-0.6L32.2,21.7l14-14l-0.9-0.9L29.9,22.2L33,3.3l-6.1,18.4c0,0-0.9-11.4-0.9-20.1c-3.5,3.5-5.3,21-5.3,21l-1-1.6l-1.7-2.8
			L18,20.8v0.5l-0.3,4.2l-0.3,4.2l0.8,0.8l1.8-5.3l3.5,1.8l2.5-0.9v1.8c0.8-0.3,1.7-0.6,2.5-1c0.4-0.2,0.7-0.4,1-0.7
			c0.4-0.4,0,0.4-0.5,1.3l3.1,3.1l-4.4,2.6l5.3,1.7l-4.4,0.9l3.5,1.8l-4.4,0.9l2.6,0.9L28.2,40l7.2-0.5l3.8-0.3l-2.5-1.5l-1.8-1.1
			c0,0,1.1-0.1,2.8-0.3C38.9,36.1,40.5,35.9,42.3,35.6z"/>
	</g>
</g>
</svg>
