<?xml version="1.0" encoding="utf-8"?>
<!-- Generator: Adobe Illustrator 24.1.2, SVG Export Plug-In . SVG Version: 6.00 Build 0)  -->
<svg version="1.1" id="Layer_1" xmlns="http://www.w3.org/2000/svg" xmlns:xlink="http://www.w3.org/1999/xlink" x="0px" y="0px"
	 viewBox="0 0 48.9 48.9" style="enable-background:new 0 0 48.9 48.9;" xml:space="preserve">
<style type="text/css">
	.st0{opacity:0.4;enable-background:new    ;}
</style>
<g>
	<g>
		<path d="M15.1,29.6c-0.3-0.3-0.6-0.6-1-1c-0.2-0.2-0.4-0.5-0.7-0.7l-0.2-0.3l-0.4-0.5c-0.5-0.6-1-1.3-1.5-1.9l-0.2-0.3l2.9-4.3
			c1.2,1.3,2.6,2.7,4.2,4.3c0.3,0.3,0.7,0.7,1.1,1c0.6,0.6,1.2,1.1,1.8,1.7l0.2,0.1c0.2,0.2,0.4,0.4,0.6,0.5l0.2,0.2
			c0.5,0.5,1.1,0.9,1.6,1.3l0.3,0.2l0.3,0.3l0.3,0.3l0.8,0.6l0.6,0.5c0.2,0.2,0.4,0.3,0.6,0.5l0.2,0.2l0.1,0.1l0.4,0.3l0.6,7
			c0,0,6.9,4.7,7.9,6.8c0.5,0.7,0.3,1.8-0.4,2.3c-0.2,0.1-0.4,0.2-0.6,0.3c0,0-6.9,0-10.1,0.1c-1.7,0.2-3.4-0.2-4.9-1L6.4,34.6
			C5.7,34,5.6,33,6.1,32.3l2.7-4.1c2.1,1.7,4.3,3.2,6.7,4.4l3.1,1.3 M38.3,15.3L38.3,15.3L33,22.2l-3.7,4.8L29,26.7l-0.1-0.1
			l-0.2-0.2l-0.2-0.2c-0.3-0.2-0.6-0.5-0.9-0.7l-0.4-0.3L26.9,25c-0.4-0.3-0.8-0.6-1.2-1l-0.1-0.1l-0.2-0.2c-0.1,0-0.1-0.1-0.1-0.1
			l-0.2-0.1c-2.7-2.4-5.3-5-7.6-7.8l-0.2-0.2l2-2.9l0.6-0.9l4.3-5.8l0.9,0.6L38.3,15.3z"/>
		<path class="st0" d="M46.1,35.7c0,0-0.1,0.1-0.1,0.1c-0.1,0.1-0.1,0.1-0.2,0.2c-0.1,0.1-0.2,0.1-0.3,0.2h-0.1
			c-0.1,0.1-0.3,0.2-0.4,0.2c-0.2,0.1-0.3,0.1-0.5,0.2h-0.1c-0.2,0.1-0.4,0.1-0.6,0.2h-0.1c-0.2,0.1-0.5,0.1-0.7,0.1L42.3,37h-1
			c-0.2,0-0.3,0-0.5,0c-0.1,0-0.2,0-0.3,0c-0.2,0-0.4,0-0.6-0.1h-0.3c-0.2,0-0.5-0.1-0.7-0.1h-0.2c-0.3-0.1-0.6-0.2-1-0.2l-0.5,0
			c-0.3-0.1-0.5-0.2-0.8-0.3l-0.4-0.1l-0.7-0.3l-0.4-0.2c-0.3-0.1-0.5-0.2-0.8-0.3l-0.5-0.2l-0.9-0.5l-0.4-0.2
			c-0.4-0.2-0.9-0.5-1.4-0.8c-0.1,0-0.1-0.1-0.2-0.2l-1.2-0.7c-0.2-0.1-0.3-0.2-0.5-0.3c-0.3-0.2-0.7-0.4-1-0.7l-0.6-0.4l-0.4-0.3
			l-0.6-0.5L26,30.2l-1.2-0.9l-0.5-0.4c-0.6-0.5-1.1-1-1.8-1.5c-0.2-0.2-0.5-0.4-0.7-0.6c-0.6-0.6-1.2-1.1-1.8-1.7
			c-0.4-0.3-0.8-0.7-1.1-1c-1.6-1.5-3.1-3-4.3-4.4c-0.6-0.7-1.2-1.3-1.7-2c-0.5-0.6-1-1.2-1.4-1.7c-0.2-0.1-0.3-0.1-0.5-0.1
			c0,0-0.1,0-0.1,0L10,15.8H9.1c-0.2,0-0.5,0-0.7,0c-0.2,0-0.3,0-0.5,0.1H7.8L7.4,16c-0.1,0.1-0.2,0.1-0.3,0.2l-0.1,0
			c-0.1,0.1-0.2,0.2-0.3,0.3c0,0,0,0.1-0.1,0.1c-0.1,0.1-0.1,0.2-0.2,0.4c-0.1,0.2-0.1,0.3-0.1,0.5c0,0,0,0.1,0,0.1
			c0,0.2,0,0.4,0,0.6v0.1c0,0.2,0.1,0.4,0.2,0.6V19c0.1,0.3,0.2,0.5,0.3,0.8c0,0.1,0.1,0.1,0.1,0.2c0.1,0.3,0.3,0.6,0.5,1
			c0.7,1.3,1.5,2.5,2.4,3.8c0.3,0.4,0.4,0.6,0.6,0.9c0.5,0.7,1.1,1.4,1.6,2c0.2,0.3,0.4,0.5,0.6,0.7s0.5,0.5,0.7,0.8
			c0.4,0.4,0.8,0.8,1.1,1.1c0.9,0.8,1.4,1.2,1.6,1.4c-2.3-1.2-4.5-2.7-6.6-4.4c-1.3-1-2.5-2.2-3.6-3.5c-2.3-2.8-4-6-3.4-9.7
			c0,0,0-0.1,0-0.1c0,0,0,0,0-0.1c0,0,0.1-0.1,0.1-0.1h0c0.1-0.1,0.1-0.1,0.2-0.2l0.1-0.1C2.9,13.5,3,13.5,3,13.4l0.3-0.1
			c0.1-0.1,0.2-0.1,0.3-0.1c0,0,0.1,0,0.1-0.1C3.8,13,4,13,4.2,12.9h0.1c0.2,0,0.3-0.1,0.5-0.1H5c0.2,0,0.4,0,0.6,0h0.2
			c0.3,0,0.6,0,0.9,0.1H7L7.8,13l0.3,0.1c0.4,0.1,0.8,0.2,1.3,0.4c-0.7-1-1.3-1.9-1.8-2.8C6.8,9.3,6,7.7,5.5,6.1
			C5.4,5.8,5.3,5.5,5.2,5.2C5,4.6,4.9,4.1,4.8,3.6C4.7,2.8,4.8,2.1,5,1.4c0.1-0.3,0.3-0.6,0.6-0.7L6,0.5l0.5-0.2L7,0.2
			c0.2,0,0.4-0.1,0.6-0.1h0.5L8.3,0h1.2c0,0,0.1,0,0.1,0l0.7,0.1h0.1c0.2,0,0.4,0.1,0.7,0.1c0.1,0,0.1,0,0.1,0.1
			c0.3,0,0.6,0.1,0.9,0.2c0,0,0.1,0,0.1,0l0.8,0.2l0.2,0.1c0.3,0.1,0.6,0.2,1,0.3h0.1c0.3,0.1,0.6,0.2,1,0.4l0.3,0.1
			c0.4,0.1,0.8,0.3,1.2,0.5h0.1c0.4,0.2,0.8,0.4,1.1,0.6c0.1,0,0.2,0.1,0.3,0.2c0.4,0.2,0.9,0.5,1.3,0.7l0.1,0.1
			c0.5,0.2,0.9,0.5,1.4,0.8l-0.7,0.1l-0.4-0.2c-0.3-0.1-0.6-0.3-0.9-0.4c-0.1,0-0.2-0.1-0.2-0.1c-0.3-0.1-0.7-0.3-1.1-0.4l-0.2-0.1
			L17,3.1c-0.1,0-0.2,0-0.3-0.1c-0.3-0.1-0.5-0.1-0.8-0.2c0,0-0.1,0-0.1,0l-0.8-0.1c-0.1,0-0.1,0-0.2,0h-2.1L12.6,3
			c-0.1,0-0.2,0-0.3,0.1h-0.2l-0.3,0.1h-0.1l-0.3,0.1c-0.2,0.1-0.3,0.2-0.4,0.4C11.1,3.7,11,3.9,11,4c-0.1,0.3-0.1,0.6-0.1,1
			c0,0.3,0,0.5,0.1,0.8c0,0.3,0.1,0.7,0.2,1c0.1,0.4,0.2,0.8,0.4,1.1c0.2,0.7,0.5,1.3,0.9,1.9c0.3,0.5,0.5,0.9,0.8,1.5
			c0.5,0.8,1,1.6,1.6,2.5c0.1,0.2,0.3,0.4,0.5,0.7c0.4,0.6,0.9,1.2,1.4,1.8c2.4,2.8,5,5.5,7.8,7.9l0.5,0.5l0.1,0.1
			c0.5,0.4,1,0.8,1.4,1.2c0.1,0.1,0.3,0.2,0.4,0.3c0.3,0.3,0.6,0.5,0.9,0.7l0.5,0.4l0.5,0.4l0.3,0.2l0.5,0.3
			c0.3,0.2,0.5,0.4,0.8,0.6l0.4,0.3c0.3,0.2,0.6,0.4,0.9,0.6c0.1,0,0.1,0.1,0.2,0.1c0.4,0.2,0.7,0.4,1.1,0.6l0.3,0.1l0.7,0.4
			l0.4,0.2l0.6,0.3c0.1,0.1,0.2,0.1,0.4,0.1l0.6,0.2l0.3,0.1l0.6,0.2l0.2,0.1c0.3,0.1,0.5,0.2,0.8,0.2h0.2c0.2,0,0.4,0.1,0.5,0.1
			c0.1,0,0.2,0,0.3,0h0.4c0.1,0,0.2,0,0.2,0h1.7l0.6-0.1h0.1c0.2,0,0.3-0.1,0.5-0.2h0.1c0.1,0,0.3-0.1,0.4-0.2l0.3-0.2h0.1l0.2-0.2
			l0.2-0.1l0.1-0.1c0.2-0.5,0.4-1,0.5-1.5c0.1-0.5,0.1-1,0-1.5c-0.1-0.8-0.3-1.6-0.5-2.4c-0.2-0.5-0.4-1.1-0.7-1.6
			c-0.1-0.3-0.2-0.5-0.4-0.8c-0.2-0.4-0.4-0.8-0.7-1.2c-0.1-0.2-0.3-0.4-0.4-0.6c-0.2-0.4-0.5-0.8-0.8-1.1s-0.7-0.9-1-1.3
			c0.5,0.5,0.9,1.1,1.4,1.7s1,1.2,1.4,1.8C45.4,27,47.6,31.8,46.1,35.7L46.1,35.7z"/>
	</g>
</g>
</svg>
