<?xml version="1.0" encoding="utf-8"?>
<!-- Generator: Adobe Illustrator 24.1.2, SVG Export Plug-In . SVG Version: 6.00 Build 0)  -->
<svg version="1.1" id="Layer_1" xmlns="http://www.w3.org/2000/svg" xmlns:xlink="http://www.w3.org/1999/xlink" x="0px" y="0px"
	 viewBox="0 0 48.4 48.4" style="enable-background:new 0 0 48.4 48.4;" xml:space="preserve">
<style type="text/css">
	.st0{opacity:0.4;enable-background:new    ;}
</style>
<g id="Layer_2_1_">
	<g id="Layer_2-2">
		<path class="st0" d="M3.1,48.4c7.3-21.5,23.3-28,23.3-28l6.6,5.6l2.2-17.3l-22.2,2.6l6.2,4.6C1.8,24.9,3.1,48.4,3.1,48.4z"/>
		<polygon class="st0" points="44.4,0 12.6,7.2 39.9,4.4 37.5,29.3 		"/>
		<polygon points="35.2,34.6 35.2,41.7 40.3,40.5 39.9,38.5 37.2,39.2 37.2,34.6 		"/>
		<path d="M35.8,48.4c5.2,0,9.5-4.2,9.6-9.4s-4.2-9.5-9.4-9.6l0,0h-0.2c-0.3,0-0.6,0-0.9,0l0.2,2c0.3,0,0.5,0,0.8,0
			c4.1,0,7.5,3.4,7.4,7.6s-3.4,7.5-7.6,7.4c-2.7,0-5.2-1.5-6.5-3.9l2.1-0.5l-3.5-4.3l-3,5.7l2.4-0.5C28.8,46.3,32.1,48.4,35.8,48.4z
			"/>
		<path d="M31.2,33.1L30,31.6c-0.5,0.4-0.9,0.8-1.3,1.3l1.5,1.3C30.5,33.8,30.9,33.4,31.2,33.1z"/>
		<path d="M32.4,32.3c0.4-0.2,0.9-0.4,1.3-0.5l-0.6-1.9c-0.6,0.2-1.1,0.4-1.6,0.7L32.4,32.3z"/>
		<path d="M27.2,35.3l1.9,0.8c0.1-0.3,0.2-0.5,0.4-0.8l-1.8-1C27.5,34.6,27.3,35,27.2,35.3z"/>
	</g>
</g>
</svg>
