<?xml version="1.0" encoding="utf-8"?>
<!-- Generator: Adobe Illustrator 24.1.2, SVG Export Plug-In . SVG Version: 6.00 Build 0)  -->
<svg version="1.1" id="Layer_1" xmlns="http://www.w3.org/2000/svg" xmlns:xlink="http://www.w3.org/1999/xlink" x="0px" y="0px"
	 viewBox="0 0 52 52" style="enable-background:new 0 0 52 52;" xml:space="preserve">
<style type="text/css">
	.st0{fill:#FFFFFF;}
	.st1{opacity:0.4;}
</style>
<g id="Layer_2_1_">
	<g id="Layer_2-2">
		<polygon points="17.9,22 6.5,33.3 3.9,30.6 5.9,28.6 7.2,27.3 7.9,26.6 9.2,25.3 9.9,24.6 11.2,23.3 11.9,22.6 13.2,21.3 
			13.9,20.6 14.9,19.6 15.2,19.3 		"/>
		<path class="st0" d="M16.8,19.5c0.1,0.2,0.3,0.3,0.4,0.5c0.2,0.2,0.3,0.3,0.5,0.4L16.8,19.5z"/>
		<g class="st1">
			<path d="M37.2,48c-1.8,0.6-3.8,0.8-5.7,0.8c-0.3,0-0.7,0-1,0C19.5,48.3,12.3,39,12,38.6l-0.6-0.8l0.6-0.9c2-2.7,4.3-5.1,6.9-7.2
				l1.6,1.6l0.5,0.5l-0.5,0.4c-2,1.6-3.8,3.4-5.4,5.5c1.9,2.2,7.7,7.9,15.6,8.3c1.4,0.1,2.8-0.1,4.2-0.3L37.2,48z"/>
			<path d="M51.3,36.9c-5-6.7-10.4-10.7-16-11.8l0.3,2.5v0.3v0.3c4.3,1.1,8.6,4.3,12.6,9.5c-2.3,2.4-5,4.4-7.9,6l-3-3l0,0
				c0.7-1.1,1.1-2.4,1.1-3.7c0-3-2.1-5.7-5-6.4l-1.3,1l-4.5,3.3l7.7,7.7l0,0l6.3,6.3l1.9-1.9l-1.1-1.1c3.3-1.9,6.2-4.3,8.8-7.1
				l0.8-0.9L51.3,36.9z M34,35.7c-0.9,0-1.7-0.7-1.7-1.7s0.7-1.7,1.7-1.7c0.9,0,1.7,0.7,1.7,1.7c0,0,0,0,0,0
				C35.6,35,34.9,35.7,34,35.7z"/>
			<path d="M25.5,36.4l3.3,3.3l3.8,3.8c-0.3,0-0.7,0.1-1,0.1c-3.7,0-6.7-3-6.7-6.7c0,0,0-0.1,0-0.1c0-0.1,0,0.1,0,0L25.5,36.4z"/>
		</g>
		<path d="M25.2,14.6L22.5,12h0l-1.7,1.7c-0.3-0.1-0.7-0.1-1-0.1c-2.1,0-3.8,1.7-3.8,3.8c0,0.8,0.2,1.5,0.7,2.2
			c0.1,0.2,0.3,0.3,0.4,0.5c0.2,0.2,0.3,0.3,0.5,0.4c0.6,0.4,1.4,0.7,2.2,0.7c2.1,0,3.8-1.7,3.8-3.7c0-0.3,0-0.7-0.1-1L25.2,14.6z
			 M21.2,18.6c-0.4,0.4-0.8,0.6-1.3,0.5c-0.5,0-1-0.2-1.3-0.5c-0.7-0.7-0.7-1.9,0-2.7c0,0,0,0,0,0c0.4-0.4,0.8-0.6,1.3-0.6
			c1,0,1.9,0.9,1.9,1.9C21.7,17.8,21.5,18.3,21.2,18.6z"/>
		<path class="st0" d="M25.9,13.9l-2.7-2.7l-0.7-0.7l0,0L24,12l1.2,1.2l1.4,1.4l0,0L25.9,13.9z"/>
		<polygon points="9.1,9.2 6.1,12.2 9.1,15.2 0,15.2 9.1,3.1 27.7,5.1 21.7,8.5 		"/>
		<polygon points="34.1,28.1 31.2,30.3 26.6,33.7 22,37.2 22,28.1 25,31.1 26.4,29.8 27.8,28.3 27.8,28.3 28,28.1 28.2,25.2 
			28.7,15.5 32.1,9.5 33.7,24.9 34,27.9 		"/>
		<path class="st0" d="M27.4,14.8l-0.2,0.3v0.2l0.8-1.6L27.4,14.8z M20.5,31.4v0.9l0.5-0.4L20.5,31.4z"/>
		<polygon points="31.2,7.3 28,13.6 27.2,15.3 27.2,15.3 26.6,14.7 25.1,13.3 23.9,12 21.9,10 29.9,6 31.1,7.3 		"/>
		<path class="st0" d="M22.5,12L22.5,12l0.7,0.7l1.2,1.2l0.7,0.7l0,0L22.5,12z"/>
	</g>
</g>
</svg>
