<?xml version="1.0" encoding="utf-8"?>
<!-- Generator: Adobe Illustrator 24.1.2, SVG Export Plug-In . SVG Version: 6.00 Build 0)  -->
<svg version="1.1" id="Layer_1" xmlns="http://www.w3.org/2000/svg" xmlns:xlink="http://www.w3.org/1999/xlink" x="0px" y="0px"
	 viewBox="0 0 58.7 58.7" style="enable-background:new 0 0 58.7 58.7;" xml:space="preserve">
<style type="text/css">
	.st0{opacity:0.4;fill:url(#SVGID_1_);enable-background:new    ;}
	.st1{opacity:0.4;fill:url(#SVGID_2_);enable-background:new    ;}
	.st2{opacity:0.4;fill:url(#SVGID_3_);enable-background:new    ;}
</style>
<g id="Layer_2_1_">
	<g id="Layer_2-2">
		<path d="M48.3,13.2l1.7-1.7l-2.6-2.6l-1.7,1.7c-2-0.5-4,0.6-4.5,2.6c-0.5,2,0.6,4,2.6,4.5s4-0.6,4.5-2.6
			C48.5,14.5,48.5,13.8,48.3,13.2z M46.1,15.5c-0.7,0.7-1.9,0.7-2.6,0c-0.7-0.7-0.7-1.9,0-2.6c0.7-0.7,1.9-0.7,2.6,0
			C46.8,13.6,46.8,14.7,46.1,15.5C46.1,15.4,46.1,15.4,46.1,15.5z"/>
		<polygon points="39.9,16.4 38.9,17.4 38.3,18.1 37,19.4 36.3,20 35,21.3 34.4,22 33,23.3 32.4,23.9 31.1,25.2 29.1,27.2 
			31.8,29.8 33.7,27.8 35,26.5 35.7,25.9 37,24.6 37.6,23.9 38.9,22.6 39.6,22 40.9,20.7 41.5,20 42.8,18.7 40.2,16.1 		"/>
		<rect x="28.2" y="27.9" transform="matrix(0.7071 -0.7071 0.7071 0.7071 -12.5084 29.3459)" width="1.8" height="3.7"/>
		<rect x="26.3" y="29.9" transform="matrix(0.7071 -0.7071 0.7071 0.7071 -14.4638 28.5346)" width="1.8" height="3.7"/>
		<polygon points="31.3,9.1 34.2,6.2 46.5,5.5 52.5,2.2 34.2,0.3 25.4,12.1 34.2,12.1 		"/>
		<polygon points="56.7,6.5 53.4,12.4 52.8,24.7 49.8,27.7 46.8,24.7 46.8,33.6 58.7,24.7 		"/>
		<polygon points="48.8,9 50,10.2 51.9,12.2 55.9,4.4 55.8,4.3 54.6,3.1 54.6,3 46.8,7 		"/>
		
			<linearGradient id="SVGID_1_" gradientUnits="userSpaceOnUse" x1="-4.455" y1="6.99" x2="33.545" y2="44.99" gradientTransform="matrix(1 0 0 -1 0 60.53)">
			<stop  offset="0" style="stop-color:#4D4D4D;stop-opacity:0"/>
			<stop  offset="1" style="stop-color:#333333"/>
		</linearGradient>
		<polyline class="st0" points="24.5,15.1 25.2,15.1 33,15 0.3,58.2 		"/>
		
			<linearGradient id="SVGID_2_" gradientUnits="userSpaceOnUse" x1="5.245" y1="-3.04" x2="43.075" y2="34.79" gradientTransform="matrix(1 0 0 -1 0 60.53)">
			<stop  offset="0" style="stop-color:#4D4D4D;stop-opacity:0"/>
			<stop  offset="1" style="stop-color:#333333"/>
		</linearGradient>
		<polyline class="st1" points="44.3,35 44.2,34.4 44,26.6 0,58.3 		"/>
		
			<linearGradient id="SVGID_3_" gradientUnits="userSpaceOnUse" x1="0.17" y1="1.945" x2="24.095" y2="25.87" gradientTransform="matrix(1 0 0 -1 0 60.53)">
			<stop  offset="0" style="stop-color:#4D4D4D;stop-opacity:0"/>
			<stop  offset="1" style="stop-color:#333333"/>
		</linearGradient>
		<polygon class="st2" points="22.7,33.3 25.4,36.1 0,58.4 		"/>
	</g>
</g>
</svg>
