<?xml version="1.0" encoding="utf-8"?>
<!-- Generator: Adobe Illustrator 24.1.2, SVG Export Plug-In . SVG Version: 6.00 Build 0)  -->
<svg version="1.1" id="Layer_1" xmlns="http://www.w3.org/2000/svg" xmlns:xlink="http://www.w3.org/1999/xlink" x="0px" y="0px"
	 viewBox="0 0 50.8 50.8" style="enable-background:new 0 0 50.8 50.8;" xml:space="preserve">
<style type="text/css">
	.st0{opacity:0.4;enable-background:new    ;}
	.st1{fill:#FFFFFF;}
</style>
<g id="Layer_2_1_">
	<g id="Layer_9">
		<path class="st0" d="M10.5,21.1c-0.5,0.5-1,1-1.4,1.5c-0.1,0.6-0.2,1.2-0.2,1.9H7.6l-0.2,0.3l-0.5,0.8l0.6,0.8l0.1,0.1h1.4
			c0,0.6,0.1,1.2,0.2,1.8c0.4,0.4,0.8,0.8,1.3,1.2C10,28,9.9,26.7,9.9,25.4C9.9,23.9,10.1,22.5,10.5,21.1z M10.5,21.1
			c-0.5,0.5-1,1-1.4,1.5c-0.1,0.6-0.2,1.2-0.2,1.9H7.6l-0.2,0.3l-0.5,0.8l0.6,0.8l0.1,0.1h1.4c0,0.6,0.1,1.2,0.2,1.8
			c0.4,0.4,0.8,0.8,1.3,1.2C10,28,9.9,26.7,9.9,25.4C9.9,23.9,10.1,22.5,10.5,21.1z M43.1,24.7l-0.2-0.3h-1c0-0.5-0.1-1-0.2-1.4
			c-0.4-0.5-0.9-1-1.3-1.5c0.3,1.3,0.5,2.6,0.5,4c0,1.1-0.1,2.3-0.4,3.4c0.4-0.4,0.8-0.7,1.2-1.1c0.1-0.4,0.1-0.8,0.1-1.2h1l0.1-0.1
			l0.8-0.8L43.1,24.7z M43.1,24.7l-0.2-0.3h-1c0-0.5-0.1-1-0.2-1.4c-0.4-0.5-0.9-1-1.3-1.5c0.3,1.3,0.5,2.6,0.5,4
			c0,1.1-0.1,2.3-0.4,3.4c0.4-0.4,0.8-0.7,1.2-1.1c0.1-0.4,0.1-0.8,0.1-1.2h1l0.1-0.1l0.8-0.8L43.1,24.7z M9.1,22.5
			c-0.1,0.6-0.2,1.2-0.2,1.9H7.6l-0.2,0.3l-0.5,0.8l0.6,0.8l0.1,0.1h1.4c0,0.6,0.1,1.2,0.2,1.8c0.4,0.4,0.8,0.8,1.3,1.2
			C10,28,9.9,26.7,9.9,25.4c0-1.5,0.2-2.9,0.6-4.3C10,21.6,9.5,22.1,9.1,22.5L9.1,22.5z M46.4,24.4C45.9,13.6,37.2,4.9,26.4,4.5V0
			h-2v4.5C13.6,5,5,13.6,4.5,24.4H0.2v2h4.2c0.5,10.8,9.2,19.5,20,20v4.4h1.9v-4.5c10.8-0.5,19.5-9.1,20.1-19.9h4.1v-2L46.4,24.4z
			 M44.8,26.6l-0.5,0.5c-0.9,9.5-8.6,16.8-18.1,17.3v-2.5c6.9-0.4,12.9-5,14.9-11.7c-0.5,0.5-1,0.9-1.5,1.3
			c-3.4,7.9-12.5,11.6-20.4,8.2c-3.5-1.5-6.3-4.2-7.9-7.6c-0.6-0.4-1.1-0.9-1.6-1.3c2.2,6.3,7.9,10.6,14.6,11v2.5
			c-9.3-0.5-16.8-7.6-17.9-16.8l-0.3-0.3l-0.6-0.8L5,25.5l0.6-0.9l0.6-0.8l0.3-0.5c1-9.2,8.5-16.4,17.8-16.9v2.4
			C17.9,9.3,12.3,13.4,10,19.5c0.6-0.6,1.2-1.1,1.9-1.7c4.2-7.5,13.6-10.1,21.1-6c2.5,1.4,4.6,3.5,6,6.1c0.7,0.6,1.3,1.2,1.9,1.9
			c-2.2-6.2-8-10.5-14.6-10.9V6.5c9.5,0.5,17.2,7.9,18,17.4l0.6,0.8l0.8,1L44.8,26.6z M42.8,24.4h-1c0-0.5-0.1-1-0.2-1.4
			c-0.4-0.5-0.9-1-1.3-1.5c0.3,1.3,0.5,2.6,0.5,4c0,1.1-0.1,2.3-0.4,3.4c0.4-0.4,0.8-0.7,1.2-1.1c0.1-0.4,0.1-0.8,0.1-1.2h1.1
			l0.1-0.1l0.8-0.8L43,24.7L42.8,24.4z M9.1,22.5c-0.1,0.6-0.2,1.2-0.2,1.9H7.6l-0.2,0.3l-0.5,0.8l0.6,0.8l0.1,0.1h1.4
			c0,0.6,0.1,1.2,0.2,1.8c0.4,0.4,0.8,0.8,1.3,1.2C10,28,9.9,26.7,9.9,25.4c0-1.5,0.2-2.9,0.6-4.3C10,21.6,9.5,22.1,9.1,22.5z
			 M10.5,21.1c-0.5,0.5-1,1-1.4,1.5c-0.1,0.6-0.2,1.2-0.2,1.9H7.6l-0.2,0.3l-0.5,0.8l0.6,0.8l0.1,0.1h1.4c0,0.6,0.1,1.2,0.2,1.8
			c0.4,0.4,0.8,0.8,1.3,1.2C10,28,9.9,26.7,9.9,25.4C9.9,23.9,10.1,22.5,10.5,21.1z M43.1,24.7l-0.2-0.3h-1c0-0.5-0.1-1-0.2-1.4
			c-0.4-0.5-0.9-1-1.3-1.5c0.3,1.3,0.5,2.6,0.5,4c0,1.1-0.1,2.3-0.4,3.4c0.4-0.4,0.8-0.7,1.2-1.1c0.1-0.4,0.1-0.8,0.1-1.2h1l0.1-0.1
			l0.8-0.8L43.1,24.7z M43.1,24.7l-0.2-0.3h-1c0-0.5-0.1-1-0.2-1.4c-0.4-0.5-0.9-1-1.3-1.5c0.3,1.3,0.5,2.6,0.5,4
			c0,1.1-0.1,2.3-0.4,3.4c0.4-0.4,0.8-0.7,1.2-1.1c0.1-0.4,0.1-0.8,0.1-1.2h1l0.1-0.1l0.8-0.8L43.1,24.7z M10.5,21.1
			c-0.5,0.5-1,1-1.4,1.5c-0.1,0.6-0.2,1.2-0.2,1.9H7.6l-0.2,0.3l-0.5,0.8l0.6,0.8l0.1,0.1h1.4c0,0.6,0.1,1.2,0.2,1.8
			c0.4,0.4,0.8,0.8,1.3,1.2C10,28,9.9,26.7,9.9,25.4C9.9,23.9,10.1,22.5,10.5,21.1z"/>
	</g>
	<g id="Layer_4">
		<path d="M43.1,24.7l-0.2-0.3c-0.4-0.5-0.8-1-1.1-1.4s-0.9-1-1.3-1.5c-4.7-5.1-9.7-7.7-14.9-7.7h-0.3c-6.4,0.1-11.6,4.2-14.7,7.4
			c-0.5,0.5-1,1-1.4,1.5c-0.7,0.8-1.2,1.5-1.5,1.9l-0.2,0.3l-0.5,0.8l0.6,0.8l0.1,0.1c0.5,0.6,1,1.2,1.6,1.8
			c0.4,0.4,0.8,0.8,1.3,1.2c2.9,2.6,7.7,5.9,13.8,6.2c0.3,0,0.6,0,1,0c5.3,0,10.4-2.3,15.4-6.8c0.4-0.4,0.8-0.7,1.2-1.1
			c0.4-0.4,0.8-0.8,1.2-1.2l0.1-0.1l0.8-0.8L43.1,24.7z M25.1,33h-0.8c-7.1-0.4-12.4-5.6-14.2-7.6c1.8-2.3,7.6-8.9,15.1-9.1h0.3
			c5.1,0,10.1,3,14.8,9C35.3,30.4,30.2,33,25.1,33z"/>
		<path d="M24.6,25.5L23,30.2c-3.1-1.3-4.5-4.9-3.2-8c1-2.2,3.1-3.7,5.6-3.7c0.9,0,1.8,0.2,2.6,0.6l-6.7,6.2L24.6,25.5z"/>
		<path d="M31.4,24.6c0,3.4-2.7,6.1-6.1,6.1c-0.8,0-1.6-0.2-2.3-0.4l6.4-6.6h-2.9l1.7-4.4C30.2,20.3,31.4,22.4,31.4,24.6z"/>
		<path class="st1" d="M23,30.2L23,30.2l-0.1,0.2L23,30.2z"/>
		<path class="st1" d="M28.4,18.9l-0.2,0.4c-0.1,0-0.1-0.1-0.2-0.1L28.4,18.9z"/>
	</g>
</g>
</svg>
