<?xml version="1.0" encoding="utf-8"?>
<!-- Generator: Adobe Illustrator 24.1.2, SVG Export Plug-In . SVG Version: 6.00 Build 0)  -->
<svg version="1.1" id="Layer_1" xmlns="http://www.w3.org/2000/svg" xmlns:xlink="http://www.w3.org/1999/xlink" x="0px" y="0px"
	 viewBox="0 0 50.8 50.8" style="enable-background:new 0 0 50.8 50.8;" xml:space="preserve">
<style type="text/css">
	.st0{opacity:0.4;enable-background:new    ;}
</style>
<g id="Layer_2_1_">
	<g id="Layer_9">
		<path class="st0" d="M46.4,24.4C45.9,13.6,37.2,5,26.4,4.5V0h-2v4.5C13.6,5,5,13.6,4.4,24.4H0.2v2h4.2c0.5,10.8,9.2,19.5,20,20
			v4.4h1.9v-4.5c10.8-0.5,19.5-9.1,20.1-19.9h4.1v-2L46.4,24.4z M24.3,6.5v2.4C16,9.4,9.4,16.1,8.9,24.4H6.4C7,14.7,14.7,7,24.3,6.5
			z M24.4,44.3c-9.7-0.5-17.5-8.2-18-18h2.5c0.5,8.3,7.1,15,15.5,15.5V44.3z M25.4,40.9c-8.6,0-15.5-7-15.5-15.5
			c0-8.6,7-15.5,15.5-15.5c8.6,0,15.5,7,15.5,15.5C40.9,34,34,40.9,25.4,40.9L25.4,40.9z M26.3,44.3v-2.5
			c8.4-0.5,15.1-7.1,15.6-15.4h2.5C43.9,36.2,36,43.9,26.3,44.3L26.3,44.3z M41.9,24.4c-0.5-8.3-7.2-15-15.5-15.5V6.5
			c9.7,0.5,17.5,8.2,18,17.9H41.9z"/>
	</g>
	<g id="Layer_4">
		<path d="M36.1,26.6v-2L36,20.3c-1.5-4-5.3-6.7-9.6-6.8h-0.7h-0.5H25c-0.2,0-0.5,0-0.7,0c-4.3,0.1-8.1,2.9-9.6,6.9v7l1.3,5.6h2.3
			l1.4,2.8h1.1v0.1l0,0v1.3H22v0.1h2.4h4.6v-0.1H30v-1.3l0,0v-0.1h1.1l1.4-2.8h2.3l1.3-5.6L36.1,26.6z M23.6,29.8
			c-4.2,0.5-0.9,1.4-4.2,1.4c-2.6,0-2.2-3.3-2-4.6c0.1-0.3,0.1-0.5,0.1-0.5c0.2,0.2,0.5,0.4,0.7,0.5C22.1,29.3,24.5,28.9,23.6,29.8z
			 M31.4,31.1c-3.3,0,0-0.9-4.2-1.3c-0.9-0.9,1.5-0.5,5.1-3.2c0.3-0.2,0.6-0.4,0.9-0.6c0,0,0.1,0.3,0.2,0.6
			C33.6,27.9,33.9,31,31.4,31.1z"/>
	</g>
</g>
</svg>
