<svg xmlns="http://www.w3.org/2000/svg" viewBox="0 0 48.86 48.86">
  <defs>
    <style>
      .cls-2{fill:#5c5857;opacity:.4}
    </style>
  </defs>
  <g id="Layer_2" data-name="Layer 2">
    <g id="Layer_2-2" data-name="Layer 2">
      <path d="M15.55 48.86h9.79l-4.15-15.27c-.19.66-5.64 15.27-5.64 15.27z" fill="#5c5857"/>
      <path class="cls-2" d="M4.66 6.73h15.85a.58.58 0 00.19 0l.5-.75v-.16a.69.69 0 00-.69-.68H4.66a.69.69 0 00-.66.68v.23a.68.68 0 00.66.68zM4 14.3a.6.6 0 00-.06.27v.22a.6.6 0 00.06.27.7.7 0 00.36.36.59.59 0 00.27.05h10.2l1.06-1.58H4.66a.59.59 0 00-.27 0 .7.7 0 00-.39.41zM.45 11.33a1 1 0 00.55.17h16.48l1.6-2.38H1a1 1 0 00-1 1v.34a1.1 1.1 0 00.08.4 1.08 1.08 0 00.37.47zM13.38 17.86H1a1 1 0 00-.72.3 1 1 0 00-.22.32 1.1 1.1 0 00-.08.4v.34a.94.94 0 00.05.3 1.11 1.11 0 00.12.27.64.64 0 00.13.15l.15.13a1 1 0 00.57.17h12.83a2.59 2.59 0 01-.45-2.38zM27.13 0l-3.34 4.52-9 13.41a1.3 1.3 0 00-.18.4 1.26 1.26 0 00.09.83 1.33 1.33 0 00.25.35l9.08 9h.05l.12.06h.08l.17.07.13.06.22.08.18.05.27.08.23.05.32.06h.98a5.14 5.14 0 00.56 0h.44c2.35-.06 6.44-.06 6.44-.06a.69.69 0 00.15 0 1.43 1.43 0 00.48-.31.91.91 0 00.26-.7 1.56 1.56 0 00-.19-.68 7.34 7.34 0 00-1.55-1.68c-.44-.38-.92-.77-1.39-1.14l-.91-.68c-.85-.64-1.51-1.09-1.51-1.09l-.55-6.47 7.63-9.9z"/>
    </g>
  </g>
</svg>