<svg xmlns="http://www.w3.org/2000/svg" viewBox="0 0 59.25 59.25">
  <defs>
    <style>
      .cls-1,.cls-3{opacity:.4}.cls-2,.cls-3{fill:#555}
    </style>
  </defs>
  <g id="Layer_2" data-name="Layer 2">
    <g id="Layer_2-2" data-name="Layer 2">
      <g class="cls-1">
        <path class="cls-2" d="M17.09 43a11.15 11.15 0 00-1.58-.44c.49.11.98.25 1.58.44z"/>
      </g>
      <path class="cls-3" d="M38.76 43c-.73-.7-1.52-1.56-1.43-1.95.16-.7 5.6-.39 5.6-.39a16.12 16.12 0 01-4.06-1.22c-1.63-.84 3.75-3.35 3.75-3.35s-4.45 2-6.45.41.26-5 .26-5-1.74 2.73-3.06 1.87.28-7.08.28-7.08-1.54 5-2.39 4.76-2.56-4-2.56-4 .9 5.27-1 6.58-4.23-1.8-4.23-1.8 2 2.56 1.63 3.51-6.3 0-6.3 0 5.37 1.56 5.2 2.77-4.78 2.36-4.78 2.36a34.08 34.08 0 013.8.14 4.46 4.46 0 011.31.2c.24 0 .45.12.65.18h.09a.84.84 0 01.14.06c.66.32 2.67.5 3.08.73l1.59-.2.08-.23.34-.92.48-1.33.12-.31c.15-.43.28-.78.36-1s.1-.29.11-.34l1 3.84 1.39-.18a14.89 14.89 0 014.83 2z"/>
      <path class="cls-2" d="M59.25 42.3a38.65 38.65 0 01-9.79-2.92c-3.53-1.82 6.56-6.87 8.65-7.89-1.83.85-9.89 4.27-14.16.81-4.67-3.79.29-11.64.62-12.15-.19.29-4.24 6.51-7.34 4.48s.67-17 .67-17S34.19 19.52 32.14 19 26 9.45 26 9.45s2.18 12.67-2.33 15.83S13.46 21 13.46 21s4.75 6.16 3.91 8.45-15.16 0-15.16 0 12.93 3.77 12.53 6.68-11.53 5.63-11.53 5.63a83.35 83.35 0 019.16.33 9.67 9.67 0 013.15.48 11.15 11.15 0 011.58.44l.21.06a2.44 2.44 0 01.34.14c1.59.78 6.44 1.21 7.42 1.75l-9-5.61a4.65 4.65 0 001.47-2.78 4.38 4.38 0 00-.68-3.33 4.94 4.94 0 002-1.09 4.57 4.57 0 001.26-1.82 5.33 5.33 0 00.26-1.08 8 8 0 005-1.5 6.26 6.26 0 00.57-.45c1.68-1.47 2.66-3.94 3.18-6.82a3.91 3.91 0 002.23 1.27 4.49 4.49 0 001.4.1q.57 3.82 2.79 5.28a6.36 6.36 0 003.32 1A9.13 9.13 0 0042.3 35a9.39 9.39 0 004.23 2.36 4 4 0 00-.29 2.08.68.68 0 000 .14 4.74 4.74 0 00-1.95 1c-.66.58-.11 1.31-.31 2.13a10.61 10.61 0 00-5.12.38 5 5 0 00-.55.22c.23 0 4 .7 11.61 5.34-1.9-1.76-4.43-4.34-4.18-5.4.41-1.69 13.51-.95 13.51-.95z"/>
      <path class="cls-3" d="M58.11 31.49l.38-.18z"/>
      <g class="cls-1">
        <path class="cls-2" d="M33.89 1.39L30.49 0l1.81 13.18 1.59-11.79z"/>
      </g>
      <g class="cls-1">
        <path class="cls-2" d="M1.06 34.77L0 37.4l10.18-1.45-9.12-1.18z"/>
      </g>
      <g class="cls-1">
        <path class="cls-2" d="M9.75 24.2l-1.51 1.11 6.21 2.73-4.7-3.84z"/>
      </g>
      <g class="cls-1">
        <path class="cls-2" d="M54.95 28.63l-.42-2.36-8.42 3.34 8.84-.98z"/>
      </g>
      <g class="cls-1">
        <path class="cls-2" d="M49.05 23.07l-4.26 4.56L50 24.41l-.95-1.34z"/>
      </g>
      <g class="cls-1">
        <path class="cls-2" d="M22.14 14.42l-1.66.31 2.41 5.91-.75-6.22z"/>
      </g>
      <g class="cls-1">
        <path class="cls-2" d="M44.15 14.56l-1.67-1.58-4.61 7.38 6.28-5.8z"/>
      </g>
      <g class="cls-1">
        <path class="cls-2" d="M13.17 12.65l-2.23 2.14 9.62 6.67-7.39-8.81z"/>
      </g>
      <path class="cls-2" d="M26 59.25h9.12l-3.85-14.16C29.8 44.75 27.23 51.61 26 59.25z"/>
    </g>
  </g>
</svg>