<?xml version="1.0" encoding="utf-8"?>
<!-- Generator: Adobe Illustrator 24.1.2, SVG Export Plug-In . SVG Version: 6.00 Build 0)  -->
<svg version="1.1" id="Layer_1" xmlns="http://www.w3.org/2000/svg" xmlns:xlink="http://www.w3.org/1999/xlink" x="0px" y="0px"
	 viewBox="0 0 48.7 48.7" style="enable-background:new 0 0 48.7 48.7;" xml:space="preserve">
<style type="text/css">
	.st0{opacity:0.4;enable-background:new    ;}
	.st1{opacity:0.4;}
</style>
<g id="Layer_2_1_">
	<g id="Layer_2-2">
		<path d="M31.7,12.9c-0.6-0.9-1.8-1.4-2.9-1.1c0-0.1,0-0.1-0.1-0.2c-0.4-0.6-1-1.1-1.7-1.3c0.6-0.6,1.5-1,2.3-0.9
			c0.6,0,1.2,0.2,1.7,0.5c-0.5-0.9-1.5-1.5-2.6-1.5c-1.2-0.1-2.3,0.6-2.7,1.7c-1.9,0-3.9,0.4-5.6,1.3c-3.2,1.6-5.3,4.2-5.1,6.2
			c-0.9-0.5-1.4-1.5-1.1-2.5c-0.9,0.8-1,2.2-0.2,3.2c0.5,0.6,1.2,0.8,2,0.7c0.3,0.4,0.8,0.6,1.3,0.8c-0.5,0.8-1.4,1.3-2.3,1.4
			c-0.6,0.1-1.2-0.1-1.7-0.3c0.6,0.9,1.6,1.3,2.7,1.2c1.2,0,2.3-0.8,2.6-2c1.3,0.1,2.5-0.1,3.7-0.5c0.2,0.9,0,1.8-0.5,2.5
			c-0.3,0.5-0.8,0.9-1.3,1.1c1.1,0.1,2.1-0.4,2.6-1.3c0.6-0.8,0.7-1.8,0.4-2.7c0.3-0.1,0.5-0.2,0.8-0.4c1.1-0.5,2.1-1.2,2.9-2
			c0.6,0.6,1,1.4,0.9,2.3c0,0.6-0.1,1.2-0.4,1.7c0.9-0.5,1.5-1.5,1.4-2.6c0-0.9-0.3-1.7-1-2.3c0.7-0.7,1.1-1.7,1.3-2.7
			c1-0.1,2,0.4,2.6,1.2c0.4,0.5,0.6,1,0.7,1.6C32.5,14.8,32.4,13.7,31.7,12.9z M22.4,15.7c-1.6,0.8-3.2,0.9-4.1,0.4
			c1.2,0.2,2.4,0,3.4-0.6c1.9-0.9,3-2.5,2.4-3.6c-0.4-0.7-1.5-1-2.7-0.7c1.7-0.6,3.2-0.4,3.6,0.5C25.6,13,24.4,14.7,22.4,15.7z"/>
		<path d="M18.9,9c1.1-0.5,2.2-1,3.3-1.4l-0.4-0.5l-5.7-2.4L12.3,7L10.9,13l1,1.5C13.8,12.2,16.2,10.3,18.9,9z"/>
		<path d="M13.4,35l-3.8-2.4c-0.4-0.3-0.7-0.7-0.9-1.2l-0.2-0.7l-5.2-2.2L2.9,26l-0.8-4.7l-1.3,1.2L0,30.2l4.6,6l5.3,0.6l3.5-1.6
			L13.4,35L13.4,35z"/>
		<polygon points="42.7,14.6 42.4,20 44.7,20 48.7,15.2 48.7,9.7 44.8,3.2 44,4.1 45.6,10.1 		"/>
		<path class="st0" d="M24.2,35.6l-0.6-0.3l-0.8-0.3c-0.1,0-0.1,0-0.2,0c-0.1,0-0.1,0.1-0.2,0.2c-0.3,0.6-1,1-1.7,1
			c-0.2,0-0.4,0-0.6-0.1c-0.7-0.3-1.2-1.1-1.1-1.9c0.1-0.6,0.4-1.1,0.9-1.4c0.2-0.1,0.5-0.2,0.7-0.3l0.3,0l-0.2-0.2
			c-0.6-0.8-0.4-2,0.5-2.6c0,0,0,0,0,0c0.3-0.2,0.6-0.3,1-0.3c0.4,0,0.7,0.1,1,0.3c0.1,0.1,0.2,0.1,0.3,0.2l0,0v0.6l0,0l0.1,3.1v0.1
			v0.1L24.2,35.6z"/>
		<g class="st1">
			<path d="M44.3,34.9c-0.2,0.7-0.8,1.1-1.5,1.2h-0.2c-0.6,0-1.2-0.3-1.6-0.9H41c-0.1-0.2-0.1-0.3-0.2-0.3c-0.1,0-0.2,0-0.3,0.1
				l-0.8,0.4l0.5-2.6v-0.1v-0.1L40,29.7l0.1-0.1l0.2-0.1c0.2-0.1,0.5-0.2,0.8-0.2c0.4,0,0.9,0.2,1.2,0.5c0.4,0.3,0.6,0.8,0.6,1.3
				c0,0.5-0.1,1-0.5,1.4l0.5,0.1c1,0.2,1.6,1.1,1.4,2.1C44.4,34.7,44.4,34.8,44.3,34.9z"/>
		</g>
		<path d="M41.5,13.7L41,22.6c0,0.3-0.2,0.6-0.4,0.7L38.4,25c-0.5-0.9-1.3-1.6-2.2-2.1c-1.3-0.7-2.7-1.1-4.2-1.1h-0.3
			c-1.3,0-2.6,0.2-3.8,0.8c0,0-3.4,1.1-4.5,5.7l0,0v0.1l0,0c-0.1,0-0.2-0.1-0.3-0.1c-0.1,0-0.3-0.1-0.4-0.1h-0.1c-0.1,0-0.3,0-0.4,0
			c-0.6,0-1.1,0.2-1.6,0.5c-1,0.6-1.4,1.8-1.2,2.9h0c-2.3,1.1-1,3.5-1,3.5l-4.6-1.9L10.3,31c-0.2-0.1-0.4-0.3-0.4-0.6l-1.4-4.6
			c-0.1-0.2,0-0.5,0.1-0.7c0.7-1.6,1.2-3.3,1.6-5c0.1-0.2,0.2-0.3,0.3-0.5c-0.1,0.8,0,1.7,0.4,2.5c1.8,3.5,8.4,3.7,14.8,0.4
			s10.1-8.8,8.3-12.3c-0.2-0.4-0.5-0.8-0.9-1.1c2.3,1.2,6.2,3,7.7,3.7C41.3,13,41.5,13.4,41.5,13.7z"/>
		<path class="st0" d="M39.2,32.3l-0.3-4.5c-1.2-2.7-3.8-4.4-6.7-4.4h-0.6h-0.3h-0.1c-1.2,0-2.3,0.3-3.3,0.8
			c-1.6,0.9-2.9,2.3-3.5,4.1l0,0v0.1l0.2,3.9v0.9l0,0l1.1,3.8l1.6-0.1l1,1.9H29v0l0,0v0.9h0.7l0,0l1.9-0.1h0.1l2.8-0.1v-0.1h0.7
			v-0.9l0,0v-0.1H36l0.1-0.3l0.1-0.1l0,0l0.7-1.5l1.6-0.1l0.5-3l0.2-1L39.2,32.3z M30.8,34.7c-2.9,0.4-0.6,1-2.8,1.1h-0.1
			c-2.1,0-1.3-3.5-1.3-3.5C29.5,34.4,31.4,34,30.8,34.7z M36.1,35.3h-0.5c-1.5,0,0.2-0.7-2.5-0.8c-0.7-0.6,1.3-0.4,4-2.8
			C37.2,31.8,38.3,35.2,36.1,35.3z"/>
		<path class="st0" d="M28.6,40.5l-1.9-2.4l-0.2,0.1h-0.1l-3.4,1.6L22.6,40l0,0l-0.1-0.2c-0.2-0.5-0.8-0.9-1.4-1c-0.1,0-0.2,0-0.4,0
			c-0.3,0-0.5,0-0.8,0.2c-0.6,0.3-1,1-1,1.7c0,0.9,0.8,1.7,1.7,1.7l0,0h0.2c0.1,0,0.1,0.1,0,0.1c-0.3,0.3-0.4,0.8-0.4,1.2
			c0,1,0.8,1.8,1.8,1.8c0,0,0,0,0,0c0.1,0,0.3,0,0.4,0c1-0.2,1.6-1.2,1.4-2.2c0-0.1-0.1-0.2-0.1-0.3c0-0.1-0.1-0.2-0.1-0.3
			c1.4-0.7,2.9-1.3,4.3-2L28.6,40.5z"/>
		<path class="st0" d="M44.5,40.4c-0.1-0.9-0.9-1.6-1.8-1.6h-0.4c-0.2,0-0.4,0.1-0.5,0.2c-0.4,0.2-0.7,0.5-0.8,0.9
			c0,0,0,0.1-0.1,0.1h-0.1l-1.2-0.5l-2.5-1.1l-2,2.2l0,0c1.5,0.7,3,1.4,4.5,2.1c0,0.1-0.1,0.2-0.2,0.3c-0.1,0.3-0.1,0.6-0.1,0.9
			c0.1,0.9,0.9,1.6,1.8,1.6c0.2,0,0.4,0,0.5-0.1c0.7-0.2,1.3-0.8,1.3-1.6c0.1-0.5-0.1-1-0.4-1.3c0-0.1,0-0.1,0-0.1h0.3
			c0.7-0.1,1.3-0.7,1.5-1.4c0-0.1,0-0.1,0-0.2L44.5,40.4C44.4,40.4,44.5,40.4,44.5,40.4z"/>
	</g>
</g>
</svg>
