<?xml version="1.0" encoding="utf-8"?>
<!-- Generator: Adobe Illustrator 24.1.2, SVG Export Plug-In . SVG Version: 6.00 Build 0)  -->
<svg version="1.1" id="Layer_1" xmlns="http://www.w3.org/2000/svg" xmlns:xlink="http://www.w3.org/1999/xlink" x="0px" y="0px"
	 viewBox="0 0 48.5 48.5" style="enable-background:new 0 0 48.5 48.5;" xml:space="preserve">
<style type="text/css">
	.st0{opacity:0.4;}
	.st1{opacity:0.4;fill:#191919;enable-background:new    ;}
	.st2{fill:#191919;}
	.st3{fill:#FFFFFF;}
	.st4{opacity:0.4;enable-background:new    ;}
</style>
<g id="Layer_2_1_">
	<g id="Layer_2-2">
		<g class="st0">
			<polygon points="48.5,25.9 42.2,19.7 36,13.6 30.6,19.3 30.8,19.5 32.7,22.7 32.8,22.9 32.8,25.9 			"/>
			<polygon points="35.5,10.5 36.1,9.9 36.4,10.1 36.7,10.4 40.6,14.3 45,14.3 36.1,5.5 27.9,14.3 31.9,14.3 			"/>
		</g>
		<path class="st1" d="M20.8,24.9c-0.4-0.6-1.2-0.9-1.9-0.7c0,0,0-0.1,0-0.1c-0.2-0.4-0.6-0.7-1.1-0.9c0.4-0.4,1-0.7,1.5-0.6
			c0.4,0,0.8,0.1,1.1,0.3c-0.3-0.6-1-1-1.7-1c-0.8-0.1-1.5,0.4-1.8,1.1c-1.3,0-2.5,0.3-3.6,0.9c-2.1,1.1-3.4,2.8-3.3,4.1
			c-0.3-0.1-0.5-0.4-0.7-0.7c-0.1-0.3-0.2-0.6-0.1-1c-0.6,0.5-0.7,1.5-0.1,2.1c0.3,0.4,0.8,0.5,1.3,0.5c0.2,0.2,0.5,0.4,0.8,0.5
			c-0.3,0.5-0.9,0.9-1.6,0.9c-0.4,0-0.8,0-1.1-0.2c0.4,0.6,1.1,0.9,1.8,0.8c0.8,0,1.5-0.6,1.7-1.3c0.8,0.1,1.6-0.1,2.4-0.3
			c0.1,0.6,0,1.2-0.3,1.7c-0.2,0.3-0.5,0.6-0.9,0.7c0.7,0.1,1.4-0.3,1.7-0.9c0.4-0.5,0.5-1.2,0.3-1.8l0.5-0.3
			c0.7-0.4,1.4-0.8,1.9-1.3c0.4,0.4,0.6,0.9,0.6,1.5c0,0.4-0.1,0.8-0.3,1.1c0.6-0.3,1-1,0.9-1.7c0-0.6-0.2-1.1-0.6-1.5
			c0.4-0.5,0.7-1.1,0.8-1.7c0.7-0.1,1.3,0.2,1.7,0.8c0.2,0.3,0.4,0.6,0.5,1C21.4,26.1,21.2,25.4,20.8,24.9z M14.7,26.7
			c-0.8,0.5-1.8,0.6-2.7,0.3c0.8,0.1,1.5,0,2.2-0.4c1.2-0.6,1.9-1.7,1.6-2.3c-0.3-0.5-1-0.6-1.8-0.4c1.1-0.4,2.1-0.3,2.4,0.4
			S16,26.1,14.7,26.7z"/>
		<path class="st2" d="M6.3,37.4c-0.3-0.2-0.5-0.5-0.6-0.8l-0.1-0.5l-3.4-1.4l-0.3-1.6L1.4,30l-0.9,0.8l-0.6,5l3,3.9l3.4,0.4L8.8,39
			L6.3,37.4z"/>
		<polygon class="st2" points="15.6,38.8 16.9,33.6 20.2,31.7 25.2,33.7 26.7,35.9 22.9,40.3 17.4,41.5 		"/>
		<path class="st2" d="M12.4,22.3c0.7-0.4,1.4-0.7,2.2-0.9L14.3,21l-3.8-1.5L8.1,21l-0.9,4l0.7,1C9,24.4,10.6,23.2,12.4,22.3z"/>
		<polygon class="st2" points="29.9,20 29.2,18.9 28.7,19.5 29.1,20.9 29.7,23.4 28.2,25.9 27.8,26.4 27.6,30 29.1,30 31.8,26.8 
			31.8,25.9 31.8,23.2 		"/>
		<path class="st2" d="M10.1,39.1c-0.2,0-0.3-0.1-0.5-0.1l-3.1-2c-0.2-0.1-0.3-0.3-0.4-0.5l-0.8-3.1c-0.1-0.2,0-0.4,0.1-0.6
			c0.4-1,0.7-2.1,1-3.2c0-0.2,0.1-0.4,0.3-0.5l0.5-0.4l-0.1,0.6c-0.1,0.5,0,1,0.3,1.5c0.5,1,1.9,1.6,3.7,1.6c2-0.1,3.9-0.6,5.7-1.5
			c2.8-1.4,4.9-3.4,5.5-5.4c0.3-0.7,0.3-1.5-0.1-2.3c-0.1-0.3-0.3-0.5-0.5-0.7l-1.4-1.3l1.7,0.9c1.3,0.7,3.4,1.7,4,1.9l1.1,0.4
			c0.3,0.1,0.6,0.5,0.5,0.9v0.5l-0.3,5.3c0,0.3-0.1,0.5-0.4,0.7L25,33.2l-4.9-2l-3.6,2.1l-1.3,5.5L10.1,39.1z"/>
		<path class="st3" d="M21.8,22.4c1.1,0.6,2.9,1.4,4.1,2l1,0.5c0.2,0.1,0.4,0.4,0.4,0.6l0,0v0.4L27,31v0.2c0,0.2-0.1,0.4-0.3,0.5
			L25,33l-4.9-2l-3.8,2.3L15,38.7l-4.8,0.2l0,0c-0.1,0-0.2,0-0.3-0.1l-3.1-2c-0.1-0.1-0.2-0.2-0.3-0.4l-0.8-3
			c-0.1-0.1-0.1-0.3,0-0.5c0.4-1.1,0.8-2.2,1.1-3.3c0-0.1,0.1-0.2,0.2-0.3c-0.1,0.5,0,1.1,0.3,1.6c0.6,1.2,2.1,1.8,4,1.8
			c2-0.1,4-0.6,5.8-1.5c4.2-2.1,6.7-5.7,5.5-8C22.3,22.9,22.1,22.6,21.8,22.4 M18.6,20.1l2.9,2.6c0.2,0.2,0.4,0.4,0.5,0.6
			c0.3,0.7,0.3,1.4,0,2.1c-0.6,1.9-2.7,3.9-5.3,5.3c-1.7,0.9-3.6,1.4-5.6,1.5c-1.7,0-3-0.6-3.5-1.5c-0.2-0.4-0.3-0.9-0.2-1.3
			l0.1-1.3l-1,0.9c-0.2,0.1-0.3,0.3-0.3,0.6v0c-0.3,1.1-0.6,2.1-1,3.1C5.1,33,5,33.2,5.1,33.5l0.8,3C6,36.8,6.2,37,6.4,37.2l3.1,2
			c0.2,0.1,0.4,0.2,0.6,0.2h0.1l4.8-0.2h0.4l0.1-0.4l1.3-5.3l3.4-2l4.6,1.9l0.3,0.1l0.2-0.2l1.7-1.2c0.3-0.2,0.4-0.5,0.5-0.9V31
			l0.3-5.1v-0.4l0,0v-0.1c0-0.5-0.2-0.9-0.7-1.1l-1-0.5c-0.6-0.3-2.7-1.2-4-1.9L18.6,20.1z"/>
		<polygon class="st4" points="41.9,35.4 38.3,35.4 38.3,31.8 38.3,31.1 37.5,31.1 35.8,31.1 35.1,31.1 35.1,31.8 35.1,35.4 
			31.5,35.4 30.8,35.4 30.8,36.2 30.8,37.9 30.8,38.6 31.5,38.6 35.1,38.6 35.1,42.2 35.1,42.9 35.8,42.9 37.5,42.9 38.3,42.9 
			38.3,42.2 38.3,38.6 41.9,38.6 42.6,38.6 42.6,37.9 42.6,36.2 42.6,35.4 		"/>
	</g>
</g>
</svg>
