<?xml version="1.0" encoding="utf-8"?>
<!-- Generator: Adobe Illustrator 24.1.2, SVG Export Plug-In . SVG Version: 6.00 Build 0)  -->
<svg version="1.1" id="Layer_1" xmlns="http://www.w3.org/2000/svg" xmlns:xlink="http://www.w3.org/1999/xlink" x="0px" y="0px"
	 viewBox="0 0 50.3 50.3" style="enable-background:new 0 0 50.3 50.3;" xml:space="preserve">
<style type="text/css">
	.st0{fill:#555555;}
	.st1{opacity:0.4;fill:#555555;enable-background:new    ;}
</style>
<path class="st0" d="M1.8,23.5H1v18.3h6.2V23.5H6.4H1.8z M6.4,8.2c0,0-0.8-8.2-2.3-8.2S1.8,8.2,1.8,8.2v9.9h4.7L6.4,8.2L6.4,8.2z
	 M1.8,18.9h4.7v3.9H1.8V18.9z M1,42.6h6.2v2.7H1V42.6z M14.2,23.5h-0.8v18.3h6.3V23.5H19H14.2z M18.9,8.2c0,0-0.8-8.2-2.3-8.2
	s-2.3,8.2-2.3,8.2v9.9H19V8.2H18.9z M14.2,18.9h4.7v3.9h-4.7V18.9z M13.4,42.6h6.2v2.7h-6.2L13.4,42.6z M32.2,26.3v-2.7H26v8.3
	C27.4,29.3,29.6,27.4,32.2,26.3z M31.3,8.2c0,0-0.8-8.2-2.3-8.2s-2.3,8.2-2.3,8.2v9.9h4.7V8.2H31.3z M26.8,18.9h4.7v3.9h-4.7V18.9z"
	/>
<path class="st1" d="M47.8,33.2c-0.5-1-1.2-1.9-2-2.7L45,29.7c-0.3-0.2-0.5-0.4-0.8-0.6C39,25.5,31.8,26.8,28.1,32
	c-0.9,1.3-1.5,2.7-1.8,4.3c-0.1,0.8-0.2,1.6-0.2,2.3c0,0.5,0,1.1,0.1,1.6l0.3,1.5c0.1,0.3,0.2,0.5,0.3,0.8c0.4,1,0.8,1.9,1.4,2.7
	c0.4,0.5,0.8,1.1,1.3,1.5c0.5,0.5,1.1,1,1.7,1.4c3.9,2.7,9.1,2.7,13,0c0.6-0.4,1.2-0.9,1.7-1.4s1-1.1,1.4-1.7c0.2-0.3,0.4-0.6,0.6-1
	c0.4-0.7,0.8-1.5,1-2.3c0.1-0.3,0.1-0.6,0.2-0.8c0.2-0.8,0.2-1.5,0.2-2.3s-0.1-1.6-0.2-2.3C48.8,35.2,48.3,34.1,47.8,33.2z
	 M44.3,39.7h-5.6v5.6h-2v-5.6H31v-2h5.6v-5.6h2v5.6h5.6C44.2,37.7,44.2,39.7,44.3,39.7z"/>
</svg>
