<?xml version="1.0" encoding="utf-8"?>
<!-- Generator: Adobe Illustrator 24.1.2, SVG Export Plug-In . SVG Version: 6.00 Build 0)  -->
<svg version="1.1" id="Layer_1" xmlns="http://www.w3.org/2000/svg" xmlns:xlink="http://www.w3.org/1999/xlink" x="0px" y="0px"
	 viewBox="0 0 56.7 56.7" style="enable-background:new 0 0 56.7 56.7;" xml:space="preserve">
<style type="text/css">
	.st0{fill:#808080;}
	.st1{fill:#191919;}
</style>
<g id="Layer_2_1_">
	<g id="Layer_3">
		<path class="st0" d="M37.1,18.9c-0.8-1.1-2.1-1.6-3.4-1.3c0-0.1,0-0.1-0.1-0.2c-0.4-0.8-1.2-1.3-2-1.6c0.7-0.8,1.7-1.2,2.8-1.1
			c0.7,0,1.4,0.2,1.9,0.6c-0.6-1.1-1.8-1.7-3-1.7c-1.4-0.1-2.7,0.7-3.2,2c-2.3-0.1-4.5,0.5-6.5,1.6c-3.8,1.9-6.2,5-6,7.3
			c-0.5-0.3-1-0.7-1.2-1.3c-0.2-0.5-0.3-1.1-0.1-1.7c-1.1,1-1.2,2.6-0.2,3.7c0.6,0.6,1.4,0.9,2.3,0.9c0.4,0.4,0.9,0.7,1.5,0.9
			c-0.6,1-1.7,1.6-2.8,1.6c-0.7,0.1-1.4-0.1-2-0.4c0.7,1,1.9,1.6,3.1,1.4c1.4,0,2.7-1,3-2.4c1.5,0.1,2.9-0.1,4.3-0.6
			c0.3,1,0.1,2.1-0.5,2.9c-0.4,0.6-0.9,1-1.5,1.3c1.2,0.1,2.4-0.5,3.1-1.6c0.7-0.9,0.9-2.1,0.5-3.2c0.3-0.1,0.6-0.3,0.9-0.4
			c1.3-0.6,2.4-1.4,3.4-2.4c0.7,0.7,1.1,1.7,1.1,2.6c0,0.7-0.2,1.4-0.5,2c1.1-0.6,1.7-1.8,1.7-3c0-1-0.4-2-1.2-2.7
			c0.8-0.9,1.3-2,1.4-3.1c1.2-0.1,2.3,0.4,3,1.4c0.4,0.5,0.7,1.2,0.8,1.9C38.1,21.1,37.9,19.8,37.1,18.9z M26.2,22.2
			c-1.9,1-3.8,1.1-4.8,0.5c1.4,0.3,2.8,0,4-0.7c2.2-1.1,3.5-3,2.8-4.2c-0.4-0.8-1.7-1.1-3.2-0.8c1.9-0.6,3.7-0.4,4.3,0.6
			C30,19,28.6,21,26.2,22.2z"/>
		<polygon class="st1" points="52.2,8.2 51.2,9.3 53,16.3 49.6,21.6 49.3,28 51.9,28 56.7,22.3 56.7,15.8 		"/>
		<path class="st1" d="M10.3,39.8l-0.2-0.8L4,36.4l-0.6-3L2.5,28L1,29.4l-1,8.9l5.4,7l6.1,0.7l4.3-2l-4.5-2.9
			C10.8,40.8,10.4,40.3,10.3,39.8z"/>
		<path class="st1" d="M47.9,18.7c-1.8-0.8-6.3-2.9-9-4.3c0.4,0.4,0.8,0.8,1.1,1.4c2.1,4.1-2.3,10.5-9.8,14.3S15,33.7,12.9,29.6
			c-0.4-0.9-0.6-1.9-0.5-2.8c-0.2,0.1-0.3,0.3-0.4,0.6c-0.5,2-1.2,3.9-1.9,5.8C10,33.5,9.9,33.8,10,34l1.4,5.4
			c0.1,0.3,0.3,0.5,0.5,0.7l5.5,3.5c0.2,0.1,0.4,0.2,0.7,0.2l8.6-0.4l2.4-9.7l6.8-3.9l8.7,3.5l2.9-2.2c0.3-0.2,0.4-0.5,0.5-0.8
			l0.6-10.3C48.6,19.4,48.4,18.9,47.9,18.7z"/>
		<polygon class="st1" points="36,31.1 30.1,34.5 27.9,43.7 31,48.5 40.8,46.3 47.5,38.5 44.9,34.7 		"/>
		<path class="st1" d="M22.1,14.3c1.3-0.6,2.5-1.2,3.9-1.6L25.6,12l-6.8-2.8l-4.4,2.6L12.7,19l1.1,1.8
			C16.1,18.1,18.9,15.9,22.1,14.3z"/>
	</g>
</g>
</svg>
