<?xml version="1.0" encoding="utf-8"?>
<!-- Generator: Adobe Illustrator 24.1.2, SVG Export Plug-In . SVG Version: 6.00 Build 0)  -->
<svg version="1.1" id="Layer_1" xmlns="http://www.w3.org/2000/svg" xmlns:xlink="http://www.w3.org/1999/xlink" x="0px" y="0px"
	 viewBox="0 0 54 54" style="enable-background:new 0 0 54 54;" xml:space="preserve">
<style type="text/css">
	.st0{opacity:0.4;enable-background:new    ;}
</style>
<g id="Layer_2_1_">
	<g id="Layer_2-2">
		<path d="M27.6,32.4C27.5,33,22,47.7,22,47.7h9.8L27.6,32.4z"/>
		<path class="st0" d="M43.2,21.6c-0.2-3.3-1.2-6.5-2.9-9.3c5.8,4.2,7.2,12.3,3,18.1c-0.8,1.2-1.8,2.2-3,3
			C42.5,29.8,43.5,25.7,43.2,21.6z"/>
		<path class="st0" d="M50.1,20.9c-0.3-5.1-1.8-10.1-4.5-14.5c9.1,6.6,11.1,19.3,4.6,28.4c-1.3,1.8-2.8,3.3-4.6,4.6
			C48.9,33.8,50.5,27.3,50.1,20.9z"/>
		<path class="st0" d="M10.8,24.1c0.2,3.3,1.2,6.4,2.9,9.2c-5.9-4.2-7.2-12.3-3.1-18.1c0.8-1.2,1.8-2.2,3-3
			C11.5,15.8,10.5,20,10.8,24.1z"/>
		<path class="st0" d="M3.9,24.9C4.3,30,5.8,35,8.5,39.4C-0.6,32.8-2.8,20.1,3.7,11C5,9.2,6.6,7.6,8.3,6.4C5,11.9,3.5,18.4,3.9,24.9
			z"/>
		<path d="M27.5,26.5l-5-5c0,0.2,0,0.4,0,0.6c0,2.4,2,4.4,4.4,4.4C27.1,26.5,27.3,26.5,27.5,26.5z"/>
		<path d="M26.2,28.3c-5.4-0.3-9.4-4.3-10.5-5.7c1.2-1.5,2.5-2.8,4-4l-1-1.1c-1.7,1.3-3.2,2.9-4.5,4.7l-0.3,0.4l0.3,0.4
			c0.2,0.3,4.9,6.3,11.9,6.7h0.7c1.2,0,2.4-0.2,3.6-0.5L29.1,28C28.1,28.3,27.2,28.3,26.2,28.3z"/>
		<path d="M39.6,22.2c-4-5.3-8.3-7.9-12.8-7.9c-1.8,0.1-3.6,0.5-5.2,1.3l-1.9-1.9L18.5,15l1.6,1.6l1.1,1.1l2.1,2.1l6.1,6.1l1.7,1.7
			l1.1,1.1l1.3,1.3l0,0l1.2-1.2l-0.9-0.9c2.1-1.2,4.1-2.8,5.8-4.6l0.4-0.5L39.6,22.2z M28.3,20.7c-0.4,0-0.8-0.3-0.8-0.8
			s0.3-0.8,0.8-0.8s0.8,0.3,0.8,0.8S28.7,20.7,28.3,20.7L28.3,20.7z M32.7,26.7l-2.2-2.2c1.3-2,0.8-4.8-1.3-6.1c-1.5-1-3.4-1-4.8,0
			l-1.7-1.7c1.3-0.6,2.7-0.9,4.1-0.9c3.9-0.1,7.6,2.2,11.2,6.8C36.5,24.2,34.7,25.6,32.7,26.7L32.7,26.7z"/>
	</g>
</g>
</svg>
