<?xml version="1.0" encoding="utf-8"?>
<!-- Generator: Adobe Illustrator 24.1.2, SVG Export Plug-In . SVG Version: 6.00 Build 0)  -->
<svg version="1.1" id="Layer_1" xmlns="http://www.w3.org/2000/svg" xmlns:xlink="http://www.w3.org/1999/xlink" x="0px" y="0px"
	 viewBox="0 0 50.8 50.8" style="enable-background:new 0 0 50.8 50.8;" xml:space="preserve">
<style type="text/css">
	.st0{fill:#555555;}
	.st1{opacity:0.4;}
</style>
<g id="Layer_2_1_">
	<g id="Layer_2-2">
		<path class="st0" d="M46.3,24.4C45.8,13.6,37.2,5,26.4,4.4V0h-2v4.4C13.6,5,4.9,13.6,4.4,24.4H0.3v2h4.2
			c0.5,10.8,9.1,19.5,19.9,20v4.4h2v-4.5c10.8-0.5,19.5-9.1,20-20h4.2v-2L46.3,24.4z M41.9,25.4L41.9,25.4L41.9,25.4
			c0,0.3,0,0.6,0,1h2.5c-0.5,9.7-8.2,17.5-18,18v-2.5c-0.3,0-0.7,0-1,0s-0.7,0-1,0v2.5c-9.7-0.5-17.5-8.3-18-18h2.5c0-0.3,0-0.6,0-1
			l0,0l0,0c0-0.3,0-0.7,0.1-1H6.4C7,14.7,14.7,7,24.4,6.4v2.5c0.3,0,0.7,0,1,0s0.7,0,1,0V6.4c9.7,0.5,17.5,8.3,18,18h-2.5
			C41.8,24.7,41.9,25,41.9,25.4z"/>
		<path class="st0" d="M21.8,24.9h-2.5v1h3.5c-0.1-0.3-0.1-0.7,0-1H21.8z"/>
		<path class="st0" d="M24.9,28v3.6h1V28c-0.2,0-0.3,0-0.5,0C25.2,28,25,28,24.9,28z"/>
		<path class="st0" d="M24.9,20.8v2c0.2,0,0.3,0,0.5,0c0.2,0,0.3,0,0.5,0v-3.6h-1V20.8z"/>
		<path class="st0" d="M30,24.9h-2c0.1,0.3,0.1,0.7,0,1h3.5v-1H30z"/>
		<g class="st1">
			<path class="st0" d="M25.9,29v1c2.1-0.2,3.8-1.9,4.1-4.1h-1C28.7,27.5,27.5,28.8,25.9,29z"/>
			<path class="st0" d="M21.8,25.9h-1c0.2,2.2,1.9,3.9,4.1,4.1v-1C23.3,28.8,22,27.5,21.8,25.9z"/>
			<path class="st0" d="M29,24.9h1c-0.2-2.1-1.9-3.8-4.1-4.1v1C27.5,22,28.7,23.3,29,24.9z"/>
			<path class="st0" d="M20.8,24.9h1c0.2-1.6,1.5-2.9,3.1-3.1v-1C22.7,21,21,22.7,20.8,24.9z"/>
			<path class="st0" d="M25.4,8.9c-9.1,0-16.5,7.4-16.5,16.5l0,0c0,9.1,7.4,16.5,16.5,16.5s16.5-7.4,16.5-16.5l0,0
				C41.9,16.3,34.5,8.9,25.4,8.9z M25.4,40.9c-8.6,0-15.5-6.9-15.5-15.5S16.8,9.9,25.4,9.9s15.5,6.9,15.5,15.5
				C40.9,33.9,33.9,40.9,25.4,40.9z"/>
		</g>
	</g>
</g>
</svg>
