<?xml version="1.0" encoding="utf-8"?>
<!-- Generator: Adobe Illustrator 24.1.2, SVG Export Plug-In . SVG Version: 6.00 Build 0)  -->
<svg version="1.1" id="Layer_1" xmlns="http://www.w3.org/2000/svg" xmlns:xlink="http://www.w3.org/1999/xlink" x="0px" y="0px"
	 viewBox="0 0 130.5 130.5" style="enable-background:new 0 0 130.5 130.5;" xml:space="preserve">
<g id="Layer_2_1_">
	<g id="Layer_4">
		<path d="M62.8,65.5c-0.9-0.1-4.4-0.3-5.6-0.4l-1.1-3l-4.5,2l-1.3-1.3l-1.4-0.6c-0.7-0.7-6.6,0.1-6.6,0.1s-3.6-1.1-5.9-0.2
			c-2.3,0.9-9.7-1.1-13.4-4.2s1.8,3.3,1.8,3.3l-3.4-0.1c0,0,0.6,0.5,1.3,1.1h-2l-5.3-0.1L13.2,62c-0.7-0.1-1.8-0.3-3.3-0.4
			c-2.5-0.2-9.9-3.4-9.9-3.4S-0.7,60,3.6,62c4.3,2,4.5,3.6,4.7,3.8c0.2,0.2,0.8,3.2,2.2,2c0.7-0.6,1.4-1,2.2-1.4
			c1.1-0.2,2.3-0.2,3.3,0.2h0.1l0.2,0.1l0,0c0.1,0,0.2,0,0.3,0l7.3-0.3h2.3c0.1,0.2,0.2,0.5,0.3,0.8c0.2,0.8,0.9,0.1,0.9,0.1
			c1.8-0.7,3.9-0.7,5.7,0c3.4,1.1,3,1.1,3,1.1c0.6,0.4,1.4,0.6,2.2,0.4c1.1-0.3,5.1,3.5,5.1,3.5s1.7,2.1,1.7,3s6.9-1.1,6.9-1.1
			c2.6-1,5.1-2.2,7.5-3.6c3.7-2.3,2.8-2,2.8-2s0.9-0.8,2,0.6c1.1,1.3,1.7,1.3,1.7,1.3s0.5,0.3,0.6-0.6c0.1-0.5,0-0.9-0.1-1.3
			C66.4,68.5,63.9,65.7,62.8,65.5z M57.6,67.4c-0.4,1.2-1.4,4-8.6,4.7c0,0-7.8-1.3-5.3-4c1.2-1,2.8-1.5,4.3-1.1
			c0.8,0.5,1.6,1,2.3,1.6c0,0.1,0.1,0.1,0.2,0.1l0,0l0,0c0.4,0,1.2-0.9,1.4-0.8c1.2-0.3,2.4-0.7,3.5-1.2l-0.3,1l-1.8,0.5
			c0,0-1.5,1.4-0.3,0.9c0.9-0.3,2-0.3,2.9,0c0.1-1,0.3-2,0.6-3l0.2,0.2c0.2,0.1,0.5,0.1,0.7,0.1C57.7,66.6,57.7,67,57.6,67.4z"/>
		<path d="M85,62.7c3.2,0.1,6.9-0.2,6.9-0.2c1.2-0.5,2.5-0.8,3.7-1h0.6l0,0c0,0,0.1-0.1,0-0.1l0.1-0.1l-3.5-1.9
			c-0.7-0.3-1.4-0.7-2-1.3c-1.5,0.5-3.1,0.3-4.6-0.3l-0.9-0.7l-2-0.4l-5,2.6l-0.8-1c-0.9,0-1.7-0.4-2.2-1l-13.8,0.2h-0.7L60,57
			c0,0-1.2,0.4-1.1,0.5l-0.3,1.3l-1.8,1.9l1,2.6l5.5,0.9c0,0,4.4,0.6,5.4,1.3c1,0.7,2.7,2.2,2.7,2.2s0.1,0,0.5-0.3
			c2-1.5,4.3-2.7,6.6-3.7C80.5,62.9,82.8,62.6,85,62.7z"/>
		<path d="M109.2,66.2c0,0-0.4,0.2-1-0.9s-1,1.2-1,1.2c0.5,0.4,0.7,1.2,0.3,1.8c-0.6,1.1-2.4,4.7-3.4,5.6s1.5-0.1,2.5-1.2
			c1.1-1.4,2.2-2.9,3.1-4.4c0.3-0.6,0.3-1.3-0.1-1.9L109.2,66.2z"/>
		<path d="M116.4,66.5c0,0-2.9,0-2.9,0l0,0l-1.3,1.3l-0.3,0.7l0.1-0.1l-0.2,1.3v0.1l0,0l0,0l3.4-0.1l0.1,0.4l0.6,0.3h4.1l2.3-1.7
			l-5.9-0.1L116.4,66.5z"/>
		<path d="M124.9,65.2h-6.5v-0.3l1.9-1.2l-5.9-0.2c-0.1,0.3-0.1,0.5-0.2,0.8h2.8v1.9l5.8,0.1l5.9,0l1.9-0.6L124.9,65.2z"/>
		<path d="M105.9,69.1c0.6-0.7-0.2-1.9-0.2-1.9c-0.2-0.9,1.1-2.3,1.1-2.4l2.1-0.7c0.2,0.1,0.3-0.3,0.5-0.4c0.4-0.7,0.7-1.4,1-2.2
			c-0.3-0.6-0.7-1.3-1.1-1.8c-1.2-1.9-3.2-4.7-3.2-4.7l0.3,2.9c0.1,0.8,0.5,1.4,1.1,1.8c0.3,0.1,0.9,1.5,0.6,1.7
			c-0.4,0.2-0.9,0.3-1.4,0.4l-0.6-0.9h-6c-0.2,0.2-0.3,0.5-0.2,0.7c0.2,0.4-0.7,1.8-0.7,1.8l-0.3,0.1h-3.1l-3.1,1.1
			c0,0-7.1,0.1-9.5,0c-2.4-0.1-6.3,2.1-6.3,2.1h0.1l-2,1.4l-1.2,0.9l25.9,0.1l0.6,0.6l1.1-0.1c1.4,0.1,1.4,0.8,1.8,1.3
			c0.2,0.2,0.5,0.3,0.7,0.1c0,0,0.1-0.1,0.1-0.1C104.5,70.4,105.2,69.8,105.9,69.1z"/>
		<path d="M112.6,62.5c-0.2-0.6-0.4-0.7-0.4-0.7l-0.6,0.1c-0.4,0.9-0.8,1.8-1.3,2.6c-0.2,0.1-0.3,0.4-0.2,0.6c0,0,0,0,0,0.1h1.1
			l1.3-1.7C112.7,63.1,112.7,62.8,112.6,62.5z"/>
	</g>
</g>
</svg>
