<svg version="1.1" id="Layer_1" xmlns="http://www.w3.org/2000/svg" x="0" y="0" viewBox="0 0 43.1 43.1" xml:space="preserve">
  <style>
    .st0{opacity:.4;enable-background:new}
  </style>
  <path d="M31.9 14.5l-3.4-3.4-2.1 2.1c-2.5-.7-5.1.8-5.8 3.4s.8 5.1 3.4 5.8 5.1-.8 5.8-3.4c.2-.8.2-1.7 0-2.5l2.1-2zm-5 5c-.9.9-2.4.9-3.4 0-.9-.9-.9-2.4 0-3.4.9-.9 2.4-.9 3.4 0 .9 1 .9 2.5 0 3.4 0 0 0 .1 0 0z"/>
  <path class="st0" d="M21 25.5l1.6-1.7-3.3-3.4-.4.4-1.3 1.3-.8.8-1.7 1.7-.8.9-1.7 1.6-.9.9-1.7 1.7-.8.8-1.7 1.7L5 34.7l3.4 3.4 2.5-2.6 1.7-1.6.8-.9 1.7-1.6.8-.9 1.7-1.7.9-.8 1.6-1.7.9-.8z"/>
  <path transform="rotate(-45.001 5.05 38.032)" class="st0" d="M3.9 35.7h2.4v4.8H3.9z"/>
  <path transform="rotate(-45.001 2.518 40.545)" class="st0" d="M1.3 38.2h2.4V43H1.3z"/>
  <path d="M35.1 2.5L11.6 0 .1 15.3h11.5l-3.8-3.9 3.8-3.8 15.8-.8zM40.5 8l2.6 23.5L27.8 43V31.5l3.8 3.8 3.8-3.8.9-15.9zM37.8 3.6h-.1l-10 5.1 2.6 2.5 1.5 1.6 2.6 2.5 5.1-10-.1-.1-1.6-1.5z"/>
</svg>