<svg xmlns="http://www.w3.org/2000/svg" viewBox="0 0 54.54 54.54">
  <defs>
    <style>
      .cls-1{fill:#5c5857;opacity:.4}
    </style>
  </defs>
  <g id="Layer_2" data-name="Layer 2">
    <g id="Layer_2-2" data-name="Layer 2">
      <path class="cls-1" d="M26.25 25.66a9.27 9.27 0 001.31-.1l-10-10a9.27 9.27 0 00-.1 1.31 8.84 8.84 0 008.79 8.79zM3.7 17.84a45 45 0 018.1-8.06L9.67 7.65A44.71 44.71 0 00.6 17.08l-.6.86.64.85A38.94 38.94 0 0015.44 30a15.84 15.84 0 012.83-2.12A36 36 0 013.7 17.84zM26.15 1.21a24.89 24.89 0 00-10.39 2.63L11.92 0 9.43 2.49l3.13 3.14 2.17 2.17 4.14 4.14L31.12 24.2l3.45 3.46 1.22 1.21a16.44 16.44 0 013.28 3.28l.35.35 2.51-2.5-1.73-1.74a47.88 47.88 0 0011.56-9.34l.86-.91-.74-1c-8-10.68-16.64-15.96-25.73-15.8zM38 26.07l-4.38-4.38A8.83 8.83 0 0026.25 8a8.72 8.72 0 00-4.88 1.47L18 6.09a21.63 21.63 0 018.22-1.91C34 4 41.59 8.58 48.75 17.81A42.75 42.75 0 0138 26.07z"/>
      <path d="M26.31 28.72a12.9 12.9 0 00-10 4.7A13.77 13.77 0 0015 35.48a12.88 12.88 0 00-1.56 6.15 13.1 13.1 0 00.26 2.6c.09.42.2.83.32 1.23a12.81 12.81 0 001 2.32 13.18 13.18 0 001.39 2 12.21 12.21 0 00.84.92 12.63 12.63 0 001.91 1.58 12.88 12.88 0 0014.43 0 13.7 13.7 0 001.91-1.58 12.09 12.09 0 00.83-.92 12.52 12.52 0 001.39-2 12.81 12.81 0 001-2.32 12.32 12.32 0 00.28-1.23 13.1 13.1 0 00.26-2.6 12.77 12.77 0 00-1.56-6.15 13.05 13.05 0 00-1.39-2.06 12.88 12.88 0 00-10-4.7zM35.42 44h-6.84v6.83h-4.56v-6.9h-6.84v-4.56h6.9V32.5h4.56v6.77h6.84z" fill="#5c5857"/>
    </g>
  </g>
</svg>