<?xml version="1.0" encoding="utf-8"?>
<!-- Generator: Adobe Illustrator 24.1.2, SVG Export Plug-In . SVG Version: 6.00 Build 0)  -->
<svg version="1.1" id="Layer_1" xmlns="http://www.w3.org/2000/svg" xmlns:xlink="http://www.w3.org/1999/xlink" x="0px" y="0px"
	 viewBox="0 0 54.6 54.6" style="enable-background:new 0 0 54.6 54.6;" xml:space="preserve">
<style type="text/css">
	.st0{fill:none;}
	.st1{opacity:0.4;fill:#555555;enable-background:new    ;}
	.st2{fill:#555555;}
</style>
<g id="Layer_2_1_">
	<g id="Layer_2-2">
		<polygon class="st0" points="12.2,40.9 12.2,40.9 12.6,40.8 12.6,40.8 		"/>
		<polygon class="st0" points="44,24.7 44,24.7 44.2,26.6 44.2,26.6 		"/>
		<polygon class="st0" points="47.7,31.2 47.7,31.2 47.7,31.2 		"/>
		<polygon class="st0" points="35,36.5 35,36.5 41.8,35.2 41.8,35.2 		"/>
		<polygon class="st1" points="9.3,29.8 8.2,30.5 9.4,30.3 		"/>
		<polygon class="st1" points="3,40.6 2.8,39.6 2.3,36.4 2.3,41.6 4.3,40.4 4,40.4 		"/>
		<polygon class="st1" points="45.1,31.9 45.1,31.9 47.7,31.2 47.7,31.2 		"/>
		<polygon class="st1" points="48,32.2 45.3,32.8 45.6,34.5 45.7,35.5 44.8,35.7 43.1,36 52.3,41.6 52.3,34 48.8,31.9 48.8,32 		"/>
		<polygon class="st1" points="41.8,35.2 41.8,35.2 44.5,34.7 44.5,34.7 		"/>
		<polygon class="st1" points="27.3,18.9 15.5,26 33.4,22.6 		"/>
		<polygon class="st1" points="21.2,39.2 22.7,38.9 24.2,38.6 22.7,38.9 		"/>
		<polygon class="st1" points="28.4,37.8 27.3,38 25.8,38.3 24.2,38.6 25.8,38.3 27.3,38 28.4,37.8 29,37.7 29,37.7 		"/>
		<polygon class="st1" points="12.6,40.8 19.7,39.5 12.6,40.8 		"/>
		<polygon class="st1" points="30.1,37.5 30.1,37.5 35,36.5 35,36.5 		"/>
		<polygon class="st1" points="28.8,38.7 28.6,38.8 27.4,39 25.9,39.3 24.4,39.6 22.9,39.8 21.4,40.1 19.9,40.4 12.4,41.9 
			11.4,42.1 11.3,41.6 2.3,47 2.3,54.6 27.3,39.5 52.3,54.6 52.3,47 36.2,37.3 29.8,38.5 		"/>
		<polygon class="st1" points="52.3,15.1 27.3,0 2.3,15.1 2.3,29.5 27.3,14.4 37.5,20.5 38.8,18.5 38.8,15.8 38.8,14.8 39.8,14.8 
			40.8,14.8 41.6,14.8 41.8,15.6 42.8,20.6 42.8,20.8 43.4,21.7 43.7,23.7 43.8,23.7 46.4,23.2 47.4,23 47.6,24 48,26.9 52.3,29.5 
					"/>
		<polygon class="st2" points="41.8,20.8 40.8,15.8 39.8,15.8 39.8,18.8 37.8,21.8 38.3,21.7 		"/>
		<polygon class="st2" points="45.1,31.9 47.7,31.2 47.7,31.2 46.6,24.2 44,24.7 44.2,26.6 		"/>
		<polygon class="st2" points="2.7,32.5 3.8,39.4 10.7,38.1 9.6,31.2 		"/>
		<path class="st2" d="M41.8,35.2l2.7-0.5l-1.1-3.9L31.1,33l-1.1,4.5l4.9-0.9L41.8,35.2z M40.5,32.6c0.2-0.4,0.7-0.5,1.1-0.3
			c0,0,0.1,0,0.1,0.1c0.4,0.3,0.5,0.9,0.2,1.4c-0.2,0.4-0.7,0.5-1.1,0.3c0,0-0.1,0-0.1-0.1C40.4,33.7,40.3,33.1,40.5,32.6z
			 M38.3,34.5c-0.2,0.4-0.7,0.5-1.1,0.3c0,0-0.1,0-0.1-0.1c-0.4-0.3-0.5-0.9-0.2-1.4c0.2-0.4,0.7-0.5,1.1-0.3c0,0,0.1,0,0.1,0.1
			C38.5,33.4,38.6,34,38.3,34.5z M32.7,35.5c-0.4-0.3-0.5-0.9-0.2-1.4c0.2-0.4,0.7-0.5,1.1-0.3c0,0,0.1,0.1,0.1,0.1
			c0.4,0.3,0.5,0.9,0.2,1.4c-0.2,0.4-0.7,0.5-1.1,0.3C32.8,35.6,32.8,35.6,32.7,35.5L32.7,35.5z"/>
		<polygon class="st2" points="27.3,38 28.4,37.8 29,37.7 30.3,32.1 43.8,29.8 42.4,21.9 10,28.1 12.2,40.9 12.6,40.8 19.7,39.5 
			21.2,39.2 22.7,38.9 24.2,38.6 25.8,38.3 		"/>
	</g>
</g>
</svg>
