<?xml version="1.0" encoding="utf-8"?>
<!-- Generator: Adobe Illustrator 24.1.2, SVG Export Plug-In . SVG Version: 6.00 Build 0)  -->
<svg version="1.1" id="Layer_1" xmlns="http://www.w3.org/2000/svg" xmlns:xlink="http://www.w3.org/1999/xlink" x="0px" y="0px"
	 viewBox="0 0 53.9 53.9" style="enable-background:new 0 0 53.9 53.9;" xml:space="preserve">
<style type="text/css">
	.st0{opacity:0.4;fill:#555555;enable-background:new    ;}
	.st1{fill:#555555;}
</style>
<g id="Layer_2_1_">
	<g id="Layer_2-2">
		<path class="st0" d="M37.8,12c-0.2-4.8,0.5-4.1-3.9-5.6C35.2,6.9,37.8,12,37.8,12z M33.6,37.1c0,0.1-0.1,0.1-0.1,0.2
			C33.5,37.2,33.5,37.1,33.6,37.1z M22.4,43.6c0-0.4,0.2-0.7,0.5-1C22.6,42.9,22.4,43.3,22.4,43.6z M24.8,42.7
			c0-0.1-0.1-0.2-0.1-0.2C24.7,42.5,24.8,42.6,24.8,42.7z M33.8,27.5L32.4,29h0h0L33.8,27.5z M29.8,31.6l-8.2,8.1l0.3,0.7l8.5-8.7
			C30.2,31.7,30,31.6,29.8,31.6z"/>
		<path class="st0" d="M17.3,42.7l0.5,0.1l1.6,0.2l1.1-1.1l-1.3-0.5l-0.4-0.2l-0.2-0.4L17.9,39l-0.3-0.6l0.5-0.5l7.9-8.1
			c-1.1-1.2-1.7-2.8-1.4-4.4c0.2-1.1,0.7-2.1,1.3-3c1.1-1.4,2.5-2.4,4.2-3c0.5-0.2,0.9-0.3,1.4-0.4l0.3,0H32
			c0.4-0.1,0.6-0.1,0.9-0.1h1.4c0.2,0,0.4,0,0.5,0.1c0.3,0,0.6,0,1,0.1h0.1c0.4,0.1,0.8,0.3,1.2,0.5l0.1,0.1c0.4,0.2,0.7,0.4,1,0.6
			l0.2,0.1c0.1,0.1,0.3,0.2,0.4,0.4c-0.5-3-2.8-11.5-10.9-15.3c1.7,4.2,0,6,0,6S26.4,7,20.6,4c-4.9-2.4-6.3-3.6-6.5-4
			c0.1,0.3,7.2,10.2,2.2,10.2c-1.4,0-2.7-0.8-3.3-2.2c-1.1,3.3-0.6,6.9,1.2,9.8c0,0-2.5,0.1-4.7-3.8c-2.7,10.7,5.7,19,5.7,19
			s-4.4,0-8.4-5c1.1,7.2,3.7,11.5,6.4,14l2.7,2.1l1-1.1L17.3,42.7z M30.8,34.5c-0.1,0.1-0.2,0.3-0.3,0.5
			C30.6,34.8,30.7,34.7,30.8,34.5z"/>
		<path class="st0" d="M27.2,26.4c0,0.2,0.1,0.5,0.2,0.7c0.1,0.3,0.3,0.6,0.5,0.8c-0.2-0.2-0.4-0.5-0.5-0.8
			C27.2,26.9,27.2,26.6,27.2,26.4z M21.1,41.1l-1.5-0.6L21.1,41.1z M36,23.1c-0.1-0.1-0.2-0.2-0.3-0.3l-0.1,0
			c-0.1-0.1-0.2-0.1-0.3-0.1l-0.2-0.1l-0.4-0.1h-0.4l-0.4,0h-1l-0.5,0.1h-0.3c-0.3,0.1-0.5,0.1-0.8,0.3c-1.1,0.4-2,1.1-2.7,2
			c-0.5,0.6-0.6,1.3-0.4,2c0.1,0.2,0.2,0.3,0.3,0.5l3.2-3.3l0.3-0.3h0.5l3.9,0.3c0-0.1,0-0.2-0.1-0.3C36.3,23.5,36.2,23.3,36,23.1z
			 M39.8,22.4c0.2,0.6,0.3,1.2,0.3,1.8l1.7,0.1h0.3l0.3,0.2l4.7,4c0.4-4-0.6-9.7-6.7-16.5c0.8,3.1,0.4,6.4-1.1,9.2
			C39.5,21.6,39.7,22,39.8,22.4z M37.1,22.8c-0.1-0.2-0.2-0.3-0.4-0.4l-0.2-0.2l0.2,0.2C36.8,22.5,37,22.7,37.1,22.8z M35.3,26.2
			l0.4,0.5l5.6,5.7l-5.6-5.7C35.7,26.6,35.3,26.2,35.3,26.2z M26.2,28.5c0.2,0.3,0.4,0.5,0.6,0.7c0.2,0.2,0.4,0.4,0.7,0.5
			c-0.2-0.2-0.5-0.4-0.7-0.5C26.6,29,26.4,28.7,26.2,28.5z M31.2,30.7c0.3,0,0.5,0,0.8,0c-0.4,0-0.8,0-1.1,0H31.2z M33.6,19.7h-0.1
			h0.7H33.6z"/>
		<path class="st1" d="M39,25.2c0.2-0.8,0.1-1.6-0.2-2.4c-0.1-0.2-0.1-0.3-0.2-0.5c-0.1-0.1-0.2-0.3-0.3-0.4c0,0,0,0,0,0v0
			c-0.2-0.3-0.4-0.5-0.6-0.7L37.5,21c-0.3-0.2-0.5-0.4-0.8-0.5l-0.1-0.1c-0.3-0.2-0.6-0.3-1-0.4h-0.1c-0.3-0.1-0.5-0.1-0.8-0.2H33
			c-0.3,0-0.6,0.1-0.8,0.1L31.7,20c-0.2,0-0.4,0.1-0.6,0.2l-0.6,0.2c-1.4,0.5-2.7,1.4-3.7,2.6c-0.6,0.8-1,1.6-1.1,2.6
			c0,0.2,0,0.4,0,0.5c0,0.4,0,0.7,0.1,1.1c0,0.2,0.1,0.4,0.2,0.5c0.1,0.3,0.2,0.5,0.4,0.8c0.2,0.3,0.4,0.5,0.6,0.7
			c0.2,0.2,0.4,0.4,0.7,0.5l-8.6,8.9l0.8,1.8l1.5,0.6l-0.7-1.5l9.1-9h0.3c0.3,0.1,0.7,0.1,1,0.1h0.1c0.4,0,0.8,0,1.1,0l0.1,0.8
			L19.8,44l-2.1-0.3l-2.2,2.2l0.6,2.8l4.6,4.5l2.8,0.7l1.1-1.2l1.2-1.1l-0.1-1.8l12.1-12.5l2.5,0.3l2-2l-0.1-1l-7-7.1h-1.4L32.4,29
			c-0.2,0-0.5,0.1-0.7,0.1h-0.8L34,26l1.3,0.2l0.4,0.5l5.6,5.7l1,1l2.6-2.3l1.7,0.7l0.1-2l-4.9-4.2L39,25.2z M24.8,43.8
			c-0.1,0.2-0.2,0.3-0.3,0.5c-0.1,0.1-0.3,0.2-0.4,0.3H24c-0.1,0.1-0.3,0.1-0.4,0.1h-0.2c-0.1,0-0.1,0-0.2,0H23
			c-0.1,0-0.3-0.1-0.4-0.2c-0.2-0.2-0.3-0.5-0.3-0.9c0-0.4,0.2-0.7,0.5-1c0.1-0.1,0.3-0.2,0.4-0.3h0.1c0.1-0.1,0.3-0.1,0.5-0.1H24
			c0.1,0,0.1,0,0.2,0h0.1c0.1,0,0.3,0.1,0.4,0.2c0.1,0.1,0.1,0.1,0.1,0.2c0.1,0.1,0.1,0.3,0.1,0.4c0,0.1,0,0.2,0,0.2
			C24.9,43.5,24.9,43.6,24.8,43.8z M27.5,46.3c-0.1,0.2-0.2,0.3-0.4,0.5c-0.1,0.1-0.3,0.2-0.4,0.3h-0.1c-0.1,0.1-0.3,0.1-0.4,0.2
			h-0.5c-0.1,0-0.3-0.1-0.4-0.2c-0.2-0.2-0.3-0.5-0.2-0.8c0.1-0.4,0.2-0.7,0.5-1c0.1-0.1,0.3-0.2,0.4-0.3h0.1
			c0.1-0.1,0.3-0.1,0.4-0.2h0.5c0.1,0,0.2,0.1,0.3,0.2C27.8,45.3,27.8,45.8,27.5,46.3L27.5,46.3z M28.4,40.3
			c-0.1,0.1-0.3,0.2-0.4,0.3h-0.1c-0.1,0.1-0.3,0.1-0.4,0.1h-0.2c-0.1,0-0.1,0-0.2,0h-0.1c-0.1,0-0.3-0.1-0.4-0.2
			c-0.4-0.6-0.3-1.4,0.2-1.8c0.1-0.1,0.3-0.2,0.4-0.3h0.1c0.1-0.1,0.3-0.1,0.4-0.1h0.4c0,0,0.1,0,0.1,0c0.1,0,0.3,0.1,0.4,0.2
			c0.2,0.2,0.3,0.5,0.3,0.9C28.8,39.7,28.7,40,28.4,40.3L28.4,40.3z M31,42.8c-0.1,0.1-0.3,0.2-0.4,0.3h-0.1
			c-0.1,0.1-0.3,0.1-0.4,0.2h-0.5c-0.1,0-0.2-0.1-0.4-0.2c-0.2-0.2-0.3-0.5-0.2-0.8c0.1-0.4,0.3-0.7,0.5-1c0.1-0.1,0.3-0.2,0.4-0.3
			H30c0.1-0.1,0.3-0.1,0.4-0.2h0.3c0.1,0,0.1,0,0.2,0H31c0.1,0,0.3,0.1,0.4,0.2c0.2,0.2,0.3,0.5,0.2,0.8
			C31.5,42.2,31.3,42.5,31,42.8L31,42.8z M33.3,37.5l0.2-0.2c0-0.1,0.1-0.1,0.1-0.2c0.1-0.1,0.3-0.2,0.4-0.3l0.1-0.1
			c0.1-0.1,0.3-0.1,0.4-0.2h0.3c0.1,0,0.1,0,0.2,0h0.1c0.1,0,0.3,0.1,0.3,0.2c0.1,0.1,0.1,0.2,0.1,0.2c0.1,0.2,0.1,0.4,0.1,0.6
			c0,0.2-0.1,0.3-0.2,0.5c-0.1,0.2-0.2,0.3-0.4,0.5c-0.1,0.1-0.3,0.2-0.4,0.3l-0.1,0.1c-0.1,0.1-0.3,0.1-0.4,0.2h-0.3
			c-0.1,0-0.1,0-0.2,0h-0.1c-0.1,0-0.3-0.1-0.3-0.2c-0.2-0.2-0.3-0.5-0.2-0.8C33.1,37.9,33.2,37.7,33.3,37.5L33.3,37.5z M32.3,34.1
			c0.1,0,0.3,0.1,0.4,0.2c0.2,0.2,0.3,0.6,0.3,0.9c0,0.4-0.2,0.7-0.5,1c-0.1,0.1-0.3,0.2-0.4,0.3H32c-0.1,0.1-0.3,0.1-0.4,0.1H31
			c-0.1,0-0.3-0.1-0.4-0.2c-0.2-0.2-0.3-0.5-0.3-0.9c0-0.4,0.2-0.7,0.5-1c0.1-0.1,0.3-0.2,0.4-0.3h0.1c0.1-0.1,0.3-0.1,0.4-0.1h0.2
			c0.1,0,0.1,0,0.2,0H32.3z M37.4,25.1l-4.9-0.4l-3.8,3.9c-0.3-0.2-0.6-0.4-0.8-0.6c-0.2-0.2-0.4-0.5-0.5-0.8
			c-0.1-0.2-0.1-0.5-0.2-0.7c0-0.8,0.2-1.6,0.7-2.2c0.4-0.5,0.8-1,1.3-1.3c0.3-0.2,0.6-0.4,0.9-0.5c0.3-0.2,0.7-0.3,1-0.5
			c0.3-0.1,0.6-0.2,0.9-0.3l0.3-0.1l0.6-0.1h1.2l0.5,0.1c0.1,0,0.1,0,0.2,0h0h0.1l0.2,0.1l0.4,0.1l0.2,0.1c0.1,0.1,0.3,0.1,0.4,0.2
			l0.2,0.1l0.2,0.2l0.2,0.2c0.3,0.3,0.5,0.6,0.6,1c0.1,0.3,0.2,0.6,0.2,0.8C37.5,24.5,37.4,24.7,37.4,25.1L37.4,25.1z"/>
	</g>
</g>
</svg>
