<?xml version="1.0" encoding="utf-8"?>
<!-- Generator: Adobe Illustrator 24.1.2, SVG Export Plug-In . SVG Version: 6.00 Build 0)  -->
<svg version="1.1" id="Layer_1" xmlns="http://www.w3.org/2000/svg" xmlns:xlink="http://www.w3.org/1999/xlink" x="0px" y="0px"
	 viewBox="0 0 52 52" style="enable-background:new 0 0 52 52;" xml:space="preserve">
<style type="text/css">
	.st0{fill:#555555;}
</style>
<g id="Layer_2_1_">
	<g id="Layer_2-2">
		<path class="st0" d="M27,30.8c1.3-3.3,2.8-10.5-2.2-16.8c0.6,3.4-0.5,6.8-2.9,9.3c-1.9,2.1-5.6-12.2-3.4-18.1
			c-2,2.7-7,9.8-7.7,18.9C9,21,8.3,17.4,8.9,13.8c-5,6.3-5.1,13.8-3.8,17.1c-3.5-0.1-3.4-5.4-3.4-5.4s-4,4,0.1,13.5
			c4.4,10.3,24.8,10.5,29.4,0.3c4.2-9.4,0.3-13.5,0.3-13.5S30.5,30.8,27,30.8z M12.6,26.3c1.2,0,1.6,2.2,1.8,3.6h-3.5
			C11,28.5,11.4,26.3,12.6,26.3z M14.4,42h-3.6v-2.1h3.6L14.4,42z M14.4,31.1v8.3h-3.6v-8.6l0,0c0-0.1,0-0.3,0-0.4h3.6
			c0,0.2,0,0.3,0,0.4l0,0L14.4,31.1z M19.6,26.3c1.2,0,1.6,2.2,1.8,3.6h-3.5C18,28.5,18.4,26.3,19.6,26.3z M21.4,42h-3.6v-2.1h3.6
			L21.4,42z M21.4,31.1v8.3h-3.6v-8.6l0,0c0-0.1,0-0.3,0-0.4h3.6c0,0.2,0,0.3,0,0.4l0,0L21.4,31.1z"/>
		<rect x="36.3" y="40.9" class="st0" width="3.6" height="2.1"/>
		<path class="st0" d="M38.1,27.3c-1.2,0-1.6,2.2-1.8,3.6h3.5C39.7,29.5,39.3,27.3,38.1,27.3z"/>
		<path class="st0" d="M39.9,31.4h-3.6c0,0.2,0,0.3,0,0.4l0,0v8.6h3.6v-8.6l0,0C39.9,31.7,39.9,31.6,39.9,31.4z"/>
		<rect x="42.3" y="40.9" class="st0" width="3.6" height="2.1"/>
		<path class="st0" d="M44.2,27.3c-1.2,0-1.6,2.2-1.8,3.6h3.5C45.8,29.5,45.4,27.3,44.2,27.3z"/>
		<path class="st0" d="M45.9,31.4h-3.6c0,0.2,0,0.3,0,0.4l0,0v8.6H46v-8.6l0,0C46,31.7,46,31.6,45.9,31.4z"/>
		<rect x="48.3" y="40.9" class="st0" width="3.6" height="2.1"/>
		<path class="st0" d="M52,31.8c0-0.1,0-0.3,0-0.4h-3.6c0,0.2,0,0.3,0,0.4l0,0v8.6H52V31.8z"/>
		<path class="st0" d="M50.2,27.3c-1.2,0-1.6,2.2-1.8,3.6h3.5C51.8,29.5,51.4,27.3,50.2,27.3z"/>
	</g>
</g>
</svg>
