<?xml version="1.0" encoding="utf-8"?>
<!-- Generator: Adobe Illustrator 24.1.2, SVG Export Plug-In . SVG Version: 6.00 Build 0)  -->
<svg version="1.1" id="Layer_1" xmlns="http://www.w3.org/2000/svg" xmlns:xlink="http://www.w3.org/1999/xlink" x="0px" y="0px"
	 viewBox="0 0 48.5 48.5" style="enable-background:new 0 0 48.5 48.5;" xml:space="preserve">
<style type="text/css">
	.st0{opacity:0.4;}
	.st1{fill:none;}
	.st2{fill:#555555;}
</style>
<g id="Layer_2_1_">
	<g id="Layer_2-2">
		<g class="st0">
			<path class="st1" d="M18,24.4L18,24.4c0,0-0.1,0-0.2,0H18z"/>
			<path class="st2" d="M7.8,11.8l-1.1,1.7l5.1,3.5c0.3-0.6,0.6-1.2,1-1.7L7.8,11.8z M16.6,12L10.5,0L8.7,0.9L14.9,13
				c0.3-0.2,0.5-0.4,0.8-0.6C16,12.3,16.3,12.1,16.6,12z M41.8,38.8l-9.4-9.9l-0.8,1.3l-0.3,0.4l9,9.5L41.8,38.8z M21.8,10.8
				l-0.9-6.5l-2,0.3l0.9,6.3c0.5-0.1,0.9-0.1,1.4-0.1C21.4,10.8,21.5,10.8,21.8,10.8z M33.6,27l-0.3,0.5l6.7,0.7l0.2-2l-7.1-0.7
				l0,0.3l0.1,0.4C33.3,26.1,33.6,27,33.6,27z M27.7,32.5l0.9,5.6l2-0.3l-1.1-6.6l-1,0.1L27.7,32.5z"/>
		</g>
		<path class="st2" d="M28.8,16.9l-2.7,0.3c0-1.2-0.4-2.3-1.3-3.1L24.7,14c-0.2-0.2-0.5-0.4-0.8-0.5l-0.1-0.1
			c-0.3-0.2-0.6-0.3-0.9-0.4h-0.2c-0.3-0.1-0.7-0.1-1-0.2h0c-0.3,0-0.6,0-0.9,0h-0.5c-0.2,0-0.5,0.1-0.7,0.1l-0.5,0.1
			c-0.3,0.1-0.5,0.2-0.8,0.3c-0.1,0.1-0.3,0.1-0.4,0.1c-0.4,0.2-0.8,0.4-1.2,0.6c-1.3,0.8-2.4,2-3.1,3.4c-0.4,0.9-0.6,1.8-0.6,2.8
			c0.1,1.3,0.8,2.6,1.9,3.3c0.2,0.2,0.5,0.3,0.7,0.4L9,34.4l1.1,1.7l1.6,0.3L10.7,35l7.1-10.6c0.1,0,0.2,0,0.3,0c0.3,0,0.7,0,1-0.1
			h0.1c0.4-0.1,0.7-0.1,1.1-0.3l0.2,0.8L11,39.6l-2.1,0.1l-1.6,2.5l1.1,2.6l5.4,3.5l2.9,0.2l1.7-2.7L18,44l9.4-14.6l2.5-0.2l1.5-2.4
			l-0.4-1l-8.3-5.5h-0.1l-1.2,0.2l-1.1,1.8c-0.5,0.2-1,0.3-1.5,0.4l2.5-3.7l1.3-0.1l0.5,0.4l7.8,5.2l2-2.8l1.8,0.3l-0.3-2L28.8,16.9
			z M23.2,29.9c0.5-0.7,1.2-1,1.7-0.7c0.5,0.5,0.6,1.3,0.1,1.9c-0.5,0.7-1.2,1-1.7,0.7S22.7,30.7,23.2,29.9z M15.7,38.8
			c-0.3,0.6-1.1,0.9-1.7,0.6c-0.5-0.5-0.6-1.3-0.2-1.8c0.3-0.6,1.1-0.9,1.8-0.6c0,0,0,0,0,0C16.1,37.5,16.1,38.3,15.7,38.8z
			 M16.8,32.9c0.3-0.6,1.1-0.9,1.7-0.6c0.5,0.5,0.6,1.3,0.2,1.8c-0.3,0.6-1.1,0.9-1.7,0.6C16.4,34.2,16.4,33.4,16.8,32.9L16.8,32.9z
			 M18.8,40.7c-0.5,0.7-1.2,1-1.7,0.7c-0.5-0.5-0.6-1.3-0.1-1.9c0.5-0.7,1.2-1,1.7-0.7C19.2,39.3,19.3,40.1,18.8,40.7L18.8,40.7z
			 M21.8,36.1c-0.5,0.7-1.2,1-1.7,0.7c-0.5-0.5-0.6-1.3-0.1-1.9c0.5-0.7,1.2-1,1.7-0.7C22.2,34.7,22.3,35.5,21.8,36.1L21.8,36.1z
			 M21.7,27.4c0.6,0.6,0.6,1.5,0,2.1c-0.4,0.4-1,0.5-1.5,0.3c-0.5-0.5-0.6-1.3-0.2-1.8C20.3,27.4,21,27.1,21.7,27.4z M24.5,17.4
			L19.6,18l-3,4.6c-0.6-0.2-1.2-0.6-1.6-1.1c-1.1-1.7,0.1-4.4,2.6-6c0.3-0.2,0.6-0.3,0.8-0.4l0.3-0.1c0.2-0.1,0.4-0.2,0.6-0.2
			l0.3-0.1l0.5-0.1l0.3-0.1h1.1c0.1,0,0.3,0,0.4,0h0.2l0.4,0.1l0.2,0.1c0.2,0.1,0.3,0.2,0.5,0.3c0.3,0.2,0.6,0.5,0.8,0.8
			C24.4,16.2,24.5,16.8,24.5,17.4L24.5,17.4z"/>
	</g>
</g>
</svg>
