<?xml version="1.0" encoding="utf-8"?>
<!-- Generator: Adobe Illustrator 24.1.2, SVG Export Plug-In . SVG Version: 6.00 Build 0)  -->
<svg version="1.1" id="Layer_1" xmlns="http://www.w3.org/2000/svg" xmlns:xlink="http://www.w3.org/1999/xlink" x="0px" y="0px"
	 viewBox="0 0 46.8 46.8" style="enable-background:new 0 0 46.8 46.8;" xml:space="preserve">
<style type="text/css">
	.st0{fill:#555555;}
	.st1{opacity:0.3;fill:#4D4D4D;enable-background:new    ;}
</style>
<g id="Layer_2_1_">
	<g id="Layer_2-2">
		<path class="st0" d="M36.7,16.4l5.8,2.3c2.1-5.5-1.8-12.2-8.9-16C37.9,8.9,37.3,14.1,36.7,16.4z"/>
		<path class="st0" d="M31.6,1.8l-4.3,10.9l8.5,3.3C36.4,13.7,36.9,8.2,31.6,1.8z M28.6,0.8c-7.8-2.1-15.3,0.2-17.4,5.6L17,8.7
			C18.1,6.6,21.2,2.3,28.6,0.8z"/>
		<path class="st0" d="M30.7,1.4c-8.2,1.1-11.6,5.5-12.7,7.6l8.4,3.3L30.7,1.4z"/>
		<path class="st1" d="M27.1,22.4l1.1,0.7L41,19.6L39.5,19C39.5,19,27.1,22.4,27.1,22.4z M12.8,8.5L11.3,8l6,10.7l1.1-0.2
			C18.3,18.5,12.8,8.5,12.8,8.5z"/>
		<path class="st0" d="M8.8,21l4.4,3.9v0l12.9-2l-5.3-3.8C20.7,19.2,8.8,21,8.8,21z M14.1,25.8l5,4.5l13.5-2.7l-5.3-3.7
			C27.2,23.8,14.1,25.8,14.1,25.8z M8,21.7l-0.2,0.5L3.8,37.3l10.4,9.2l4.2-15.7L8,21.7z M9.7,40.3l-4.3-3.8L6,33.9l4.3,3.8
			L9.7,40.3z M19.3,31.2l-4.2,15.7l13.6-2.8L32.8,29l0.2-0.5L19.3,31.2z M29.2,36.7c-0.7,3.4-3.6,6.6-6.5,7.1s-4.5-1.9-3.8-5.3
			c0.7-3.4,3.6-6.6,6.5-7.1S29.9,33.3,29.2,36.7z"/>
		<path class="st0" d="M25.9,34.2l-2.2,0.3l-0.5,1.9l-1.7,0.2l-0.6,2.6l1.7-0.2l-0.5,1.9l2.2-0.3l0.5-1.9l1.7-0.2l0.6-2.5l-1.7,0.2
			C25.5,36.1,25.9,34.2,25.9,34.2z"/>
	</g>
</g>
</svg>
