<?xml version="1.0" encoding="utf-8"?>
<!-- Generator: Adobe Illustrator 24.1.2, SVG Export Plug-In . SVG Version: 6.00 Build 0)  -->
<svg version="1.1" id="Layer_1" xmlns="http://www.w3.org/2000/svg" xmlns:xlink="http://www.w3.org/1999/xlink" x="0px" y="0px"
	 viewBox="0 0 130 130" style="enable-background:new 0 0 130 130;" xml:space="preserve">
<style type="text/css">
	.st0{fill:#555555;}
</style>
<g id="Layer_2_1_">
	<g id="Layer_2-2">
		<path class="st0" d="M40.2,62.1l19.3-0.2l3.1-1.7l8.7,1.6l4.6-0.1L75.4,59l-15.7-2.4l0.7-1.7h-2L57,54l0.3-7.1H56l-2.2,6.2
			l-6.2,0.7l0.5,0.9h-8.6c0,0-2,1.7-4.4,3.3l1.8,4.1H40.2z M79.6,61.7l-0.4-2.8l-2.5-0.4l0.6,3.2C77.4,61.7,79.6,61.7,79.6,61.7z
			 M108.8,61.3l-0.7-0.8h-10l-0.9-0.7h-5.5l-1.8-0.4v0.4l-2.2-0.4v0.4l-1.8-0.4v0.4L84,59.4v0.4l-1.8-0.4v0.4l-1.4-0.3l0.3,2.2
			L108.8,61.3L108.8,61.3z M61.8,64.1L57.4,67v2.6l11.1-0.1l1,0.6L67,71.9l-1.2,3.3c0,0,12.9,0.2,13.8,0s3.2-2.9,3.2-2.9L98.3,71
			l1.2-2.1l1.9-1.5l4.5-3.8L61.8,64.1z M52.1,66.9l3.1,1.1v-2.2l2.6-1.7l-17.2,0.2L32.8,70L18,69.8l0.2,6.2l0.1,1.7l1.8,1.3l3.8,2.2
			h7.5l0.7-1.1v-1.5l5.8-4.4l-1.5-0.9l4.2-3.3l2.4,0.2l3.9-3.1C47.1,67.1,52.1,66.9,52.1,66.9z"/>
		<path class="st0" d="M51.8,69.1l-3.8,0.1l-1.5,1.2l2,0.1l0.4,2l-5.3,4.7L40,75.4l-2.5,2l3.3,1.6l0.9,4.2h4.7l2.7-3.7l-0.4-2.5
			l4.2-4.5l1.7-2.2C54.7,70.2,51.8,69.1,51.8,69.1z M15.6,71.1l-0.5,1.5l-6.6-0.4l-0.2-3.1l2-2.9l6.7,0.2l-0.1,0.9l0.1,0.4l15.1,0.2
			l4.7-3.5h-1.3L33,58.5l-14,0.2c-1.1,0.2-1.9,1.1-1.9,2.3l-6.9-0.2c0.2-0.8-0.2-1.7-1.1-2c-0.1,0-0.1,0-0.2,0H0l0.4,19.3
			c0.4,0.1,4,1.4,5.1,0.9c1.3-0.8,2.5-1.7,3.6-2.7l-0.6-2l7.4,0.2l-0.1-3.4L15.6,71.1z M57.4,73.4c-0.7-0.7-1.1-1.7-1.3-2.6
			l-1.3,1.6C55.6,73,56.5,73.3,57.4,73.4z M129.4,62.9h-12.7l-1.1,0.9l-5.5-0.2l-0.2-0.1h-1.7l-7.7,6.5v0.1h7.6l2.8-3.1h4.9l1.2,0.8
			h12.7c0.4-0.8,0.5-1.6,0.5-2.5C130,64.5,129.8,63.7,129.4,62.9z"/>
	</g>
</g>
</svg>
