<?xml version="1.0" encoding="utf-8"?>
<!-- Generator: Adobe Illustrator 24.1.2, SVG Export Plug-In . SVG Version: 6.00 Build 0)  -->
<svg version="1.1" id="Layer_1" xmlns="http://www.w3.org/2000/svg" xmlns:xlink="http://www.w3.org/1999/xlink" x="0px" y="0px"
	 viewBox="0 0 55.2 55.2" style="enable-background:new 0 0 55.2 55.2;" xml:space="preserve">
<style type="text/css">
	.st0{fill:#555555;}
	.st1{opacity:0.4;fill:#555555;enable-background:new    ;}
</style>
<g id="Layer_2_1_">
	<g id="Layer_2-2">
		<path class="st0" d="M33.8,5.7l0.7-1.1L33.8,5.7z M39.7,17.5c-0.1-0.2-0.2-0.4-0.3-0.5c-0.1-0.1-0.2-0.2-0.3-0.3
			c0.1,0.1,0.2,0.2,0.3,0.3C39.6,17.2,39.7,17.3,39.7,17.5z"/>
		<path class="st1" d="M35.6,4.8l-0.7,1l0.9,1.5l5.5-3.6L40,1.5l0.7-1.1L39.3,0l-3.7,2.9l-0.1,0.5l0.9,0.2
			C36.4,3.6,35.6,4.8,35.6,4.8z"/>
		<path class="st0" d="M38.5,16.2"/>
		<path class="st1" d="M36.6,8.1h0.3L38,8.2h0.5l0.3,0.4l1.6,2.4c0-0.2,0.1-0.3,0.3-0.4c0.5-0.2,1,0,1.3,0.4c0.4,0.4,0.4,1,0,1.4
			c0,0,0,0,0,0c-0.5,0.2-1,0-1.3-0.4c0,0,0-0.1-0.1-0.1v0.1L40.1,13l5.7,8.3l-0.3,0.9l1.6,2.4h1.5l3.8-2.6l0.9-1.9L52,18.1l-1.3-0.2
			L43.6,7.4l0.6-1.8L43,4l-0.8-0.1l-6,4l0.2,0.3L36.6,8.1z M47.5,15.9c0.5-0.2,1,0,1.3,0.5c0.4,0.4,0.4,1,0,1.4
			c-0.3,0.3-0.9,0-1.3-0.5C47.2,16.9,47.2,16.3,47.5,15.9z M46.5,19.2c-0.6,0.2-1.2-0.1-1.4-0.6c-0.1-0.4-0.1-0.8,0.2-1.1
			c0.5-0.2,1,0,1.3,0.4C46.9,18.3,46.9,18.9,46.5,19.2L46.5,19.2z M45.2,12.6c0.4-0.3,0.9,0,1.3,0.5c0.3,0.4,0.3,1,0,1.4
			c-0.4,0.3-0.9,0-1.3-0.5C44.9,13.5,44.9,13,45.2,12.6L45.2,12.6z M44.2,15.9c-0.5,0.2-1,0-1.3-0.4c-0.3-0.3-0.4-0.9,0-1.2
			c0.3-0.3,0.9-0.4,1.2,0c0.1,0.1,0.2,0.2,0.2,0.3C44.6,14.9,44.6,15.5,44.2,15.9L44.2,15.9z M42.9,9c0.4-0.3,0.9,0,1.3,0.5
			c0.3,0.4,0.3,1,0,1.4c-0.3,0.3-0.9,0-1.3-0.5C42.5,10,42.5,9.4,42.9,9z"/>
		<path class="st0" d="M30.9,11.9l1-0.7L30.9,11.9z"/>
		<path class="st1" d="M51.1,34.3l1.3-2.6L50.6,29l-1.8-0.3l-10-14.6l0.8-2.4l-1.7-2.4l-1-0.1L31.1,13l2.1,3l0.3,0.4l-0.1,0.5
			l-0.9,2.7l9.5,13.8l-0.1,0.4l2.8,4.2h1.2L51.1,34.3z M36.3,21c-0.1,0-0.2,0.1-0.2,0.1h-0.7c-0.1,0-0.2-0.1-0.3-0.1l-0.1,0
			c-0.1,0-0.1-0.1-0.2-0.1l-0.1-0.1c-0.1-0.1-0.2-0.2-0.2-0.3c-0.1-0.2-0.2-0.3-0.2-0.5c-0.1-0.3-0.1-0.7,0.1-1
			c0.1-0.1,0.2-0.3,0.3-0.4c0.1-0.1,0.2-0.1,0.2-0.1h0.7c0.1,0,0.2,0.1,0.3,0.1l0.1,0c0.1,0,0.1,0.1,0.2,0.1l0.1,0.1
			c0.1,0.1,0.2,0.2,0.2,0.3c0.2,0.3,0.3,0.6,0.3,1C36.8,20.5,36.6,20.8,36.3,21z M37.4,16.6c0.1-0.1,0.2-0.3,0.3-0.3
			c0.1,0,0.1-0.1,0.2-0.1h0.3c0.1,0,0.1,0,0.2,0h0.1c0.1,0,0.2,0.1,0.3,0.1l0.2,0.2l0.1,0.1c0.1,0.1,0.2,0.2,0.3,0.3
			c0.1,0.2,0.2,0.3,0.3,0.5c0.1,0.2,0.1,0.4,0.1,0.5c0,0.3-0.1,0.6-0.4,0.8c-0.1,0-0.1,0.1-0.2,0.1h-0.6c-0.1,0-0.2-0.1-0.3-0.1
			c-0.1-0.1-0.2-0.1-0.2-0.2l-0.1,0c-0.1-0.1-0.2-0.2-0.3-0.3c-0.1-0.2-0.2-0.3-0.3-0.5C37.2,17.4,37.3,17,37.4,16.6L37.4,16.6z
			 M39.6,25.9c-0.1,0-0.2,0.1-0.2,0.1h-0.6c-0.1,0-0.2-0.1-0.3-0.1l-0.1,0c-0.1,0-0.1-0.1-0.2-0.1c0,0,0,0-0.1-0.1
			c-0.1-0.1-0.2-0.2-0.2-0.3c-0.2-0.3-0.3-0.6-0.3-1c0-0.3,0.2-0.6,0.4-0.8c0.1-0.1,0.2-0.1,0.2-0.1h0.6c0.1,0,0.2,0.1,0.3,0.1
			l0.1,0c0.1,0,0.1,0.1,0.2,0.1l0.1,0.1c0.1,0.1,0.2,0.2,0.2,0.3c0.1,0.2,0.2,0.3,0.2,0.5C40.2,25,40,25.6,39.6,25.9L39.6,25.9z
			 M40.8,21.6c0.1-0.1,0.2-0.3,0.3-0.3c0.1,0,0.1-0.1,0.2-0.1h0.6c0.1,0,0.2,0.1,0.3,0.1l0.2,0.2l0.1,0.1c0.1,0.1,0.2,0.2,0.3,0.3
			c0.1,0.2,0.2,0.3,0.3,0.5c0.1,0.3,0.1,0.7,0,1c-0.1,0.1-0.2,0.3-0.3,0.3c-0.1,0-0.1,0.1-0.2,0.1h-0.6c-0.1,0-0.2-0.1-0.3-0.1
			l-0.2-0.2l-0.1-0.1c-0.1-0.1-0.2-0.2-0.3-0.3c-0.2-0.3-0.4-0.7-0.4-1.1C40.7,21.9,40.7,21.8,40.8,21.6L40.8,21.6z M42.9,30.6
			c-0.1,0-0.2,0.1-0.2,0.1H42c-0.1,0-0.2-0.1-0.3-0.1h-0.1c-0.1,0-0.1-0.1-0.2-0.1c0,0-0.1,0-0.1-0.1c-0.1-0.1-0.2-0.2-0.2-0.3
			c-0.2-0.3-0.3-0.6-0.3-1c0-0.3,0.2-0.6,0.4-0.8c0.1-0.1,0.2-0.1,0.2-0.1h0.7c0.1,0,0.2,0.1,0.3,0.1h0.1l0.2,0.1l0.1,0.1
			c0.1,0.1,0.2,0.2,0.2,0.3c0.1,0.2,0.2,0.3,0.2,0.5C43.4,29.8,43.3,30.3,42.9,30.6z M45.7,28.6h-0.2c-0.1,0-0.2,0-0.2,0h-0.1
			c-0.1,0-0.2-0.1-0.3-0.1h0c-0.1-0.1-0.2-0.1-0.3-0.2l-0.1-0.1c-0.1-0.1-0.2-0.2-0.3-0.3c-0.1-0.1-0.1-0.2-0.2-0.4
			c-0.1-0.2-0.2-0.5-0.2-0.7c0-0.3,0.1-0.6,0.4-0.8c0.1,0,0.1-0.1,0.2-0.1h0.3c0.1,0,0.2,0,0.3,0h0.1c0.1,0,0.2,0.1,0.3,0.1h0
			c0.1,0.1,0.2,0.1,0.3,0.2l0.1,0.1c0.1,0.1,0.2,0.2,0.3,0.3c0.5,0.5,0.5,1.4,0,1.9L45.7,28.6L45.7,28.6z M27.6,12.3l0.2-0.1
			l0.3-0.2h0.3L30,12h0.5l0.4-0.3l1-0.7L34,9.8L35.3,9l0.3-0.2l-1.8-3l0.7-1.1l0.3-0.4l-1.9-0.5l-5.3,4.1l-0.7,2.7l-0.4-0.1l0.9,1.5
			L27.6,12.3z"/>
		<path class="st0" d="M14.4,40.9h-1.8c-0.9-0.1-1.8,0.3-2.4,0.8c-0.6,0.6-0.9,1.5-0.9,2.4v0.5c0,0.2,0.1,0.4,0.3,0.4
			c0,0,0.1,0,0.1,0h1.7c0.2,0,0.4-0.1,0.4-0.3c0,0,0-0.1,0-0.1v-0.5c0-0.3,0.1-0.6,0.3-0.9c0.2-0.2,0.6-0.3,0.9-0.3h1
			c0.4,0,0.7,0.1,1,0.3c0.2,0.2,0.3,0.6,0.3,0.9v0.9c0,0.3-0.1,0.6-0.3,0.9c-0.3,0.2-0.6,0.3-1,0.3h-1c-0.3,0-0.4,0.1-0.4,0.5V48
			c0,0.2,0.1,0.4,0.3,0.4c0,0,0.1,0,0.1,0h1c0.4,0,0.7,0.1,1,0.3c0.2,0.2,0.3,0.6,0.3,0.9v1c0,0.3-0.1,0.7-0.3,0.9
			c-0.3,0.2-0.6,0.3-1,0.3h-1c-0.3,0-0.6-0.1-0.9-0.3c-0.2-0.3-0.3-0.6-0.3-0.9V50c0-0.3-0.1-0.5-0.4-0.5H9.8
			c-0.3,0-0.4,0.2-0.4,0.5v0.5c-0.1,0.9,0.2,1.8,0.9,2.5c0.7,0.6,1.5,0.9,2.4,0.8h1.8c0.9,0.1,1.8-0.2,2.5-0.8
			c0.6-0.7,0.9-1.5,0.9-2.4v-1c0.1-1-0.6-2-1.6-2.2c1-0.2,1.7-1.2,1.6-2.2v-1c0.1-0.9-0.3-1.8-0.9-2.4
			C16.2,41.2,15.3,40.9,14.4,40.9z M5.9,47.2l1.8-3.5c0-0.1,0-0.1,0-0.2c0-0.1-0.1-0.1-0.2-0.1H6.4c-0.2,0-0.3,0.1-0.4,0.3l-1.1,2.6
			H4.8l-1.1-2.6c-0.1-0.2-0.2-0.3-0.4-0.3H2.1c-0.1,0-0.1,0-0.2,0.1c0,0.1,0,0.1,0,0.2l1.8,3.5l-1.9,3.7c0,0.1,0,0.1,0,0.2
			c0,0.1,0.1,0.1,0.2,0.1h1.2c0.2,0,0.3-0.1,0.4-0.2l1.2-2.6h0.1l1.2,2.6c0,0.1,0.2,0.2,0.3,0.2h1.2c0.1,0,0.2,0,0.2-0.1
			s0-0.1,0-0.2L5.9,47.2z M48.5,42l-2.7-0.4L31.1,20.2l0.5-1.5l0.7-2.1l-2.1-3.1l-0.4-0.5L29.1,13h-0.8l-12.4,8.2v0.2l-0.4,1.8
			l1.8,2.6c0,0.8-0.1,1.5-0.3,2.3l-3.7-5.5l0.7-1.8l0.8-0.5l4.3-2.9l1-0.6l1.7-1.2l1.2-0.8l1.9-1.2l1.3-0.9l0.2-0.2l-0.1-0.2
			L26.3,12l-1.1-1.9l-0.6-1L23.9,8l1.5-2.2L22.4,5l-7.7,6l-1.1,3.9c-0.3-0.1-0.5-0.2-0.8-0.3l-0.2-0.1c-0.2-0.1-0.4-0.1-0.6-0.1
			h-0.2c-0.3,0-0.5,0-0.8,0c-0.3,0-0.6,0-0.9,0.1c-0.2,0-0.5,0.1-0.7,0.2l-0.7,0.3L8.5,15c-0.4,0.2-0.8,0.5-1.2,0.7l-0.2,0.1
			c-0.4,0.3-0.7,0.6-1,1L6,17.1c-0.3,0.4-0.6,0.8-0.8,1.3c0,0-0.1,0.1-0.1,0.1c-0.2,0.4-0.4,0.8-0.5,1.2c0,0.1-0.1,0.2-0.1,0.3
			s-0.1,0.2-0.1,0.3c-0.1,0.4-0.2,0.7-0.3,1.1C4,21.8,4,21.9,4,22.1c0,0.4-0.1,0.8-0.1,1.3V24c0,0.7,0.1,1.3,0.2,2
			C4.3,27.8,5,29.5,5.9,31c0.3,0.5,0.6,0.9,1,1.3c0.1,0.1,0.3,0.3,0.4,0.4c0.4,0.4,0.8,0.8,1.2,1.1c0.6,0.4,1.2,0.8,1.8,1
			c0.3,0.1,0.6,0.2,0.9,0.3h0.3c0.3,0,0.5,0.1,0.8,0.1h0.2c0.3,0,0.6,0,0.9-0.1c0.4-0.1,0.9-0.2,1.3-0.4c0.4-0.2,0.8-0.4,1.2-0.6
			c0.4-0.2,0.7-0.5,1-0.8l10.4,15.1l2.9-0.5l1.4-2l-2.5,0.6L18.7,30.4c0-0.1,0.1-0.2,0.1-0.4c0.2-0.5,0.4-1,0.5-1.5v-0.1
			c0.1-0.3,0.1-0.5,0.2-0.8s0.1-0.6,0.1-0.9l1.2,0.1l14.8,21.6l-1,3l2.5,3.7l4.3-0.1l7.9-5.4l1.9-3.8L48.5,42z M13.1,32.5
			c-0.2,0-0.4,0-0.6,0H12c-0.2,0-0.4-0.1-0.5-0.1h-0.1l-0.4-0.1l-0.2-0.1c-0.1-0.1-0.2-0.1-0.3-0.2l-0.2-0.1l-0.3-0.2l-0.2-0.1
			l-0.3-0.2l-0.2-0.2L9,30.9l-0.2-0.2l-0.2-0.3l-0.2-0.2l-0.2-0.3c-0.1-0.1-0.1-0.2-0.2-0.3c-0.1-0.1-0.1-0.2-0.2-0.3l-0.2-0.3
			l-0.2-0.4c0-0.1-0.1-0.2-0.1-0.3S7.2,28.2,7.2,28L7,27.8l-0.2-0.4L6.8,27c0-0.2-0.1-0.3-0.1-0.5s0-0.2-0.1-0.3
			c-0.1-0.3-0.1-0.5-0.2-0.8c-0.1-0.5-0.1-0.9-0.1-1.4v-0.5v-0.9l0.1-0.5c0-0.3,0.1-0.5,0.1-0.8s0.1-0.3,0.1-0.5s0.2-0.5,0.2-0.7
			s0.1-0.2,0.1-0.3c0-0.1,0-0.1,0.1-0.2l0.2-0.3c0.1-0.2,0.2-0.4,0.3-0.5c0.1-0.1,0.1-0.2,0.2-0.3c0.1-0.2,0.2-0.3,0.4-0.5
			c0.1-0.1,0.1-0.1,0.2-0.2c0.2-0.2,0.4-0.4,0.7-0.6c0.2-0.2,0.5-0.3,0.8-0.4c0.3-0.1,0.5-0.2,0.8-0.2c0.2,0,0.4,0,0.6,0h0.2
			c0.1,0,0.3,0,0.4,0h0.2l0.4,0.1l0.2,0.1c0.2,0.1,0.4,0.1,0.6,0.2l-2,7.1l4.6,6.8C15,31.8,14.1,32.3,13.1,32.5z M28,29.9
			c-0.1,0.2-0.3,0.4-0.5,0.5c-0.1,0.1-0.2,0.1-0.4,0.2h-0.1c-0.1,0-0.2,0-0.3,0h-0.1c-0.1,0-0.2,0-0.4-0.1h-0.1
			c-0.1,0-0.3-0.1-0.4-0.2l-0.1-0.1c-0.1-0.1-0.2-0.1-0.3-0.2l-0.1-0.1c-0.1-0.1-0.2-0.3-0.4-0.4c-0.7-0.8-0.6-2,0.2-2.7
			c0.1-0.1,0.2-0.1,0.4-0.2h0.1c0.1,0,0.2,0,0.3,0H26c0.1,0,0.2,0,0.4,0h0.1c0.1,0,0.3,0.1,0.4,0.2l0.1,0.1c0.1,0.1,0.2,0.1,0.3,0.2
			c0,0,0.1,0.1,0.1,0.1c0.1,0.1,0.2,0.3,0.3,0.4C28.3,28.3,28.3,29.1,28,29.9z M29,24.7c0-0.2,0-0.5,0.1-0.7
			c0.1-0.2,0.2-0.4,0.4-0.5c0.1-0.1,0.2-0.1,0.3-0.1H30c0.1,0,0.2,0,0.2,0h0.1l0.4,0.1h0.1c0.2,0.1,0.3,0.1,0.4,0.2l0.1,0
			c0.1,0.1,0.2,0.2,0.4,0.3l0.1,0.1c0.1,0.1,0.3,0.3,0.4,0.5c0.3,0.4,0.4,0.8,0.5,1.2c0.1,0.4,0,0.7-0.1,1.1
			c-0.1,0.2-0.2,0.4-0.4,0.5c-0.1,0.1-0.2,0.1-0.3,0.1h-0.1c-0.1,0-0.2,0-0.2,0h-0.1c-0.1,0-0.2,0-0.4,0h-0.1
			c-0.2-0.1-0.3-0.1-0.4-0.2h-0.1c-0.1-0.1-0.2-0.2-0.4-0.3l-0.2-0.2c-0.1-0.1-0.3-0.3-0.4-0.4c-0.2-0.2-0.3-0.5-0.4-0.8
			C29,25.2,29,24.9,29,24.7L29,24.7z M33,36.7c-0.1,0.3-0.3,0.6-0.6,0.8c-0.1,0.1-0.2,0.1-0.4,0.2h-0.5c-0.1,0-0.2,0-0.4,0h-0.1
			c-0.2,0-0.3-0.1-0.4-0.2l-0.1-0.1c-0.1-0.1-0.2-0.1-0.3-0.2l-0.1-0.1c-0.1-0.1-0.2-0.3-0.4-0.4c-0.7-0.8-0.6-2,0.2-2.7
			c0.1-0.1,0.2-0.1,0.4-0.2h0.1c0.1,0,0.2,0,0.3,0h0.1c0.1,0,0.2,0,0.4,0h0.1c0.1,0,0.3,0.1,0.4,0.2l0.1,0c0.1,0.1,0.2,0.1,0.3,0.2
			l0.1,0.1c0.1,0.1,0.2,0.3,0.4,0.4c0.2,0.2,0.3,0.5,0.4,0.8c0.1,0.3,0.1,0.5,0.1,0.8C33.1,36.4,33.1,36.5,33,36.7L33,36.7z
			 M34.5,30.8c0.1-0.1,0.2-0.1,0.3-0.1h0.1c0.1,0,0.2,0,0.2,0h0.1c0.1,0,0.2,0,0.4,0.1h0.1c0.2,0,0.3,0.1,0.4,0.2c0,0,0.1,0,0.1,0
			c0.1,0.1,0.3,0.2,0.4,0.3c0,0,0.1,0.1,0.1,0.1c0.1,0.1,0.3,0.3,0.4,0.4c0.1,0.1,0.2,0.3,0.2,0.4c0.1,0.3,0.2,0.5,0.3,0.8
			c0,0.2,0,0.5,0,0.8c0,0.2-0.1,0.4-0.3,0.6c-0.1,0.1-0.1,0.2-0.2,0.2c-0.1,0.1-0.2,0.1-0.3,0.2h-0.5c-0.1,0-0.2,0-0.4-0.1h-0.1
			c-0.2,0-0.3-0.1-0.4-0.2l-0.1,0c-0.1-0.1-0.2-0.2-0.4-0.3L34.9,34c-0.1-0.1-0.3-0.3-0.4-0.4C33.8,32.5,33.8,31.2,34.5,30.8
			L34.5,30.8z M37.2,44.4c-0.1,0.1-0.2,0.1-0.4,0.2h-0.5c-0.1,0-0.2,0-0.4,0h-0.1c-0.2,0-0.3-0.1-0.4-0.2l-0.1-0.1
			c-0.1-0.1-0.2-0.1-0.3-0.2L34.9,44c-0.1-0.1-0.2-0.3-0.3-0.4c-0.2-0.3-0.4-0.7-0.4-1.1c0-0.4,0-0.7,0.2-1.1
			c0.1-0.2,0.3-0.4,0.5-0.5c0.1-0.1,0.2-0.1,0.4-0.2h0.1c0.1,0,0.2,0,0.3,0h0.1c0.1,0,0.2,0,0.4,0h0.1c0.1,0,0.3,0.1,0.4,0.2
			l0.1,0.1c0.1,0.1,0.2,0.1,0.3,0.2l0.1,0.1c0.1,0.1,0.2,0.3,0.3,0.4c0.1,0.1,0.1,0.2,0.2,0.4c0.1,0.2,0.2,0.5,0.2,0.8
			C37.8,43.4,37.6,44,37.2,44.4z M42.2,40.4c0,0.1-0.1,0.2-0.1,0.3c-0.1,0.2-0.2,0.4-0.4,0.5c-0.1,0.1-0.2,0.1-0.3,0.2H41l-0.4-0.1
			h-0.1c-0.2-0.1-0.3-0.1-0.4-0.2H40c-0.1-0.1-0.2-0.2-0.4-0.3l-0.1-0.1c-0.1-0.1-0.3-0.3-0.4-0.5c-0.1-0.1-0.2-0.3-0.2-0.4
			c-0.1-0.1-0.1-0.3-0.2-0.4c0-0.1-0.1-0.3-0.1-0.4c0-0.1,0-0.3,0-0.4c0-0.2,0-0.5,0.2-0.7c0.1-0.2,0.2-0.4,0.4-0.5
			c0.1-0.1,0.2-0.1,0.3-0.1H40c0.1,0,0.2,0,0.4,0h0.1c0.2,0.1,0.3,0.1,0.4,0.2c0,0,0,0,0.1,0c0.1,0.1,0.2,0.2,0.4,0.3l0.1,0.1
			c0.1,0.1,0.3,0.3,0.4,0.4c0.2,0.4,0.4,0.8,0.5,1.2c0,0.1,0,0.3,0,0.4C42.3,40.1,42.3,40.3,42.2,40.4z"/>
	</g>
</g>
</svg>
