<?xml version="1.0" encoding="utf-8"?>
<!-- Generator: Adobe Illustrator 24.1.2, SVG Export Plug-In . SVG Version: 6.00 Build 0)  -->
<svg version="1.1" id="Layer_1" xmlns="http://www.w3.org/2000/svg" xmlns:xlink="http://www.w3.org/1999/xlink" x="0px" y="0px"
	 viewBox="0 0 50 50" style="enable-background:new 0 0 50 50;" xml:space="preserve">
<style type="text/css">
	.st0{fill:none;}
	.st1{fill:#555555;}
	.st2{fill:#999999;}
</style>
<g id="Layer_2_1_">
	<g id="Layer_2-2">
		<path class="st0" d="M25.4,13c-5.8,0-10.5,4.7-10.5,10.5S19.6,34,25.4,34s10.5-4.7,10.5-10.5C35.9,17.7,31.2,13,25.4,13z M25.4,32
			c-4.7,0-8.5-3.8-8.5-8.5s3.8-8.5,8.5-8.5s8.5,3.8,8.5,8.5C33.9,28.2,30.1,32,25.4,32z"/>
		<path class="st0" d="M25.9,18h-1v7.1l6.4-3.1l-0.4-0.9C30,19.2,28,18,25.9,18z"/>
		<path class="st1" d="M25,0L5.3,9.4l3.8,20.8c0.8,2.3,1.8,4.4,3,6.5c0.1,0.3,0.3,0.5,0.4,0.8c0.3,0.5,0.6,1,1,1.6
			c0.5,0.8,1.1,1.6,1.8,2.4l0.7,0.8c1,1.2,2,2.2,3.1,3.3c1.8,1.7,3.8,3.2,6,4.5c2.2-1.3,4.2-2.8,6-4.5c1.1-1,2.1-2.1,3.1-3.3
			l0.7-0.8c0.6-0.8,1.2-1.6,1.8-2.4c0.4-0.5,0.7-1,1-1.6c0.2-0.3,0.3-0.5,0.4-0.8c1.2-2.1,2.2-4.2,3-6.5l3.7-20.8L25,0z M25.4,34
			c-5.8,0-10.5-4.7-10.5-10.5S19.6,13,25.4,13s10.5,4.7,10.5,10.5C35.9,29.3,31.2,34,25.4,34z"/>
		<path class="st2" d="M25.4,15c-4.7,0-8.5,3.8-8.5,8.5s3.8,8.5,8.5,8.5s8.5-3.8,8.5-8.5C33.9,18.8,30.1,15,25.4,15z M24.9,25.1V18
			h1c2.1,0,4,1.2,4.9,3.1l0.5,0.9L24.9,25.1z"/>
	</g>
</g>
</svg>
