<svg xmlns="http://www.w3.org/2000/svg" viewBox="0 0 57.5 57.5"><defs><style>.cls-1{fill:none;}.cls-2{fill:#4d4d4d;}.cls-3{fill:#555;}.cls-4{opacity:0.4;}</style></defs><title>01_Mark 20 Accu-Scope</title><g id="Layer_2" data-name="Layer 2"><g id="Layer_2-2" data-name="Layer 2"><path class="cls-1" d="M33.9,28a5.5,5.5,0,0,0-4.4-4.4V28Z"/><path class="cls-1" d="M12,29h0A16.52,16.52,0,0,1,28.5,12.5c-.34,0-.67,0-1,.05v-2.5A19,19,0,0,0,9.55,28h2.5C12,28.33,12,28.66,12,29Z"/><path class="cls-1" d="M29.5,34.4A5.5,5.5,0,0,0,33.9,30H29.5Z"/><path class="cls-1" d="M27.5,23.6A5.5,5.5,0,0,0,23.1,28h4.4Z"/><path class="cls-1" d="M12,29c0,.33,0,.64.05,1H9.55a19,19,0,0,0,18,18v-2.5c.33,0,.66,0,1,0A16.53,16.53,0,0,1,12,29Z"/><path class="cls-1" d="M23.1,30a5.5,5.5,0,0,0,4.4,4.4V30Z"/><path class="cls-2" d="M27.5,35.41V38.5h2V35.41a5.6,5.6,0,0,1-2,0Z"/><path class="cls-2" d="M29.5,22.59V19.5h-2v3.09a5.6,5.6,0,0,1,2,0Z"/><path class="cls-2" d="M33.9,28H29.5V23.6a5.05,5.05,0,0,0-2,0V28H23.1a5,5,0,0,0,0,2h4.4v4.4a5,5,0,0,0,2,0V30h4.4a5,5,0,0,0,0-2Z"/><path class="cls-2" d="M35,29a5.55,5.55,0,0,1-.09,1H38V28H34.91A5.55,5.55,0,0,1,35,29Z"/><path class="cls-2" d="M22.09,28H19v2h3.09a5.6,5.6,0,0,1,0-2Z"/><path class="cls-3" d="M34.91,28a6.49,6.49,0,0,0-5.41-5.41,5.6,5.6,0,0,0-2,0A6.49,6.49,0,0,0,22.09,28a5.6,5.6,0,0,0,0,2,6.49,6.49,0,0,0,5.41,5.41,5.6,5.6,0,0,0,2,0A6.49,6.49,0,0,0,34.91,30a5.6,5.6,0,0,0,0-2ZM29.5,34.4A5.55,5.55,0,1,1,33.9,30,5.47,5.47,0,0,1,29.5,34.4Z"/><g class="cls-4"><path class="cls-1" d="M45,29h0c0-.34,0-.67,0-1h2.5a19,19,0,0,0-18-17.95v2.5c-.33,0-.66-.05-1-.05A16.52,16.52,0,0,1,45,29Z"/><path class="cls-1" d="M45,30c0-.32,0-.63,0-1A16.53,16.53,0,0,1,28.5,45.5c.34,0,.67,0,1,0V48a19,19,0,0,0,18-18Z"/><path class="cls-1" d="M28.5,13.5A15.5,15.5,0,1,0,44,29,15.51,15.51,0,0,0,28.5,13.5ZM38,30H34.91a6.49,6.49,0,0,1-5.41,5.41V38.5h-2V35.41A6.49,6.49,0,0,1,22.09,30H19V28h3.09a6.49,6.49,0,0,1,5.41-5.41V19.5h2v3.09A6.49,6.49,0,0,1,34.91,28H38Z"/><path class="cls-3" d="M49.45,30h4.17V28H49.45a21,21,0,0,0-20-19.95V3.62h-2V8.05A21,21,0,0,0,7.55,28H3.38v2H7.55a21,21,0,0,0,20,20v4.43h2V50A21,21,0,0,0,49.45,30Zm-22-19.95v2.5c.33,0,.66-.05,1-.05s.67,0,1,.05v-2.5a19,19,0,0,1,18,18H45c0,.33,0,.66,0,1h0a16.5,16.5,0,0,0-33,0h0c0-.34,0-.67.05-1H9.55A19,19,0,0,1,27.5,10.05ZM44,29A15.5,15.5,0,1,1,28.5,13.5,15.51,15.51,0,0,1,44,29ZM29.5,48v-2.5c-.33,0-.66,0-1,0s-.67,0-1,0V48A19,19,0,0,1,9.55,30h2.5c0-.32-.05-.63-.05-1a16.5,16.5,0,0,0,33,0c0,.33,0,.64,0,1h2.5A19,19,0,0,1,29.5,48Z"/><polygon class="cls-3" points="45.5 12 57.5 6.86 49.79 0 45.5 12"/><polygon class="cls-3" points="12 45.5 0 50.64 7.71 57.5 12 45.5"/><polygon class="cls-3" points="45.5 45.5 50.64 57.5 57.5 49.79 45.5 45.5"/><polygon class="cls-3" points="12 12 6.86 0 0 7.71 12 12"/></g></g></g></svg>