<svg xmlns="http://www.w3.org/2000/svg" viewBox="0 0 56 56"><defs><style>.cls-1{fill:#555;}</style></defs><title>01_Headlong_Rush</title><g id="Layer_2" data-name="Layer 2"><g id="Layer_2-2" data-name="Layer 2"><path class="cls-1" d="M18.19,34.51h0c-.08,0-.14,0-.15,0A.2.2,0,0,0,18.19,34.51Z"/><path class="cls-1" d="M56,27.53,35.51,0l1.21,13.77H0l1.08,1.91L2,17.12,9.74,27.53,2,37.94l-.91,1.45L0,41.3H36.72L35.51,55.07ZM32.51,35c-.48-.08-1-.18-1.52-.31s-1.11-.29-1.69-.48-.89-.31-1.35-.5-.93-.39-1.4-.62h-.64l-.71.09h0c-.58.09-1.26.21-2,.35L21.1,34l-1.27.27-.62.12-.16,0-.34.06-.15,0-.23,0h-.14a.2.2,0,0,1-.11,0c-1.34-1.2-1.88-9.34-1.88-9.34l1.59-.06.78,0c1.66-.09,3.88-.23,5.65-.45a6.78,6.78,0,0,0,2.85-.69c.09-.11.25-.28.45-.48.71-.7,2-1.85,3.06-2.83l.88-.77.68-.61.45-.39,7.67,1.91.35.09-.84,6.24h-.52l-.18,0-.22,0a1.52,1.52,0,0,1-.21,0l-.26-.05-.22-.05-.28-.08-.2-.06-.3-.14-.15-.07a2.33,2.33,0,0,1-.4-.27,1.36,1.36,0,0,1-.47-1.07,1.89,1.89,0,0,1,.09-.5h0a1.89,1.89,0,0,1,.13-.35l0-.06a3.65,3.65,0,0,1,.23-.43l.06-.1a4.52,4.52,0,0,1,.35-.49h0a.21.21,0,0,0,0-.06h0a.16.16,0,0,0-.05-.11h0l-.06,0h-.25l-.14,0h0l-.22.09-.06,0-.2.1-.1,0-.18.11-.06,0-.05,0-.06,0-.23.15-.17.11h0s0,0-.05,0a.26.26,0,0,0-.06.14,3.46,3.46,0,0,0-.07.68q0,.09-.06.21l0,.08a.64.64,0,0,1-.06.18l0,.11a1.59,1.59,0,0,0-.07.2l-.06.14-.06.14a.64.64,0,0,0,0,.07l-.07.15-.1.22-.08.16c0,.07-.07.15-.11.22l-.1.17-.13.23c0,.05-.07.11-.11.17l-.15.21-.13.18-.16.2-.15.16L33.3,28l-.17.15-.2.17-.18.14-.23.14-.19.11-.25.11-.22.09-.27.07-.23.05-.31,0-.24,0-.55,0h0l-.06.38-.06.39h0a4.26,4.26,0,0,0,.61,0l.16,0a2,2,0,0,0,.35,0,2.22,2.22,0,0,0,.45-.07l.33-.08.4-.15.3-.14a2.6,2.6,0,0,0,.36-.21l.27-.17.33-.27.23-.2.3-.33.19-.21.29-.39.14-.19c.13-.2.25-.4.36-.61,0,.06,0,.12,0,.18h0l0,.42c0,.18,0,.34,0,.5v0a6.38,6.38,0,0,0-.92.89,4.55,4.55,0,0,0-.32.49,2.14,2.14,0,0,0-.22.61,1.62,1.62,0,0,0,.06.93h0l-.22.24a3.59,3.59,0,0,0-.74,1.24,1.64,1.64,0,0,0-.08.65,1.53,1.53,0,0,0,.29.8,2.51,2.51,0,0,0,.28.29,8.76,8.76,0,0,0,1.86,1.12l-.55,0H34.6l-.78-.06-.66-.09ZM44,22.2s0,.06,0,.17.06.26.08.44a4.2,4.2,0,0,1,0,1.33,2.73,2.73,0,0,1-.1.41l0,.08c-.48-.11-1.27-.24-2.65-.43l.3-2.27Zm-2.8,3.09.25,0,.57.08a18.75,18.75,0,0,1,1.92.35.35.35,0,0,1,.12,0h0a.1.1,0,0,1,0,.05l0,0a.64.64,0,0,1,0,.07s0,0,0,.06a.28.28,0,0,1,0,.09v.18a4.55,4.55,0,0,1-.19.9c-.05.16-.11.33-.17.49l-.21.49-.07.14,0,.05,0,.05a1,1,0,0,1-.08.14v0l0,.05-.09.13,0,.06-.1.12s0,0,0,0,0,0,0,0h0l-.05,0-.06.05-.09,0a4.64,4.64,0,0,0-.75-.34c-.37-.13-.79-.26-.93-.3s-.53-.19-.85-.28h.48l.13-1Zm1.06,5a.07.07,0,0,0,0,.05s0,.07,0,.1,0,0,0,.06l0,.13s0,0,0,.06a1.42,1.42,0,0,1-.05.16v0l-.06.17,0,.05-.08.21h0l-.15.38,0,.05-.14.33c-.05.09-.08.18-.11.24l0,.07,0,.07h0l0,0,0,0-.1.07-.07,0-.13,0-.1,0a.5.5,0,0,1-.21,0l-.11,0-.8-.27-1-.36-1.08-.39-.81-.3-.86-.31-.07,0L36,31h-.1l-.14,0h-.06l-.12,0-.11,0h0a.67.67,0,0,1-.2-.12.38.38,0,0,1-.11-.11h0a.36.36,0,0,1,0-.11h0a.63.63,0,0,1,0-.39,1.1,1.1,0,0,1,.12-.33,2.82,2.82,0,0,1,.21-.31,5.86,5.86,0,0,1,1.35-1.14l1,.22.82.2.5.13.52.15.66.2.6.2.29.09.6.21a2.52,2.52,0,0,1,.58.26h0a0,0,0,0,0,0,0h0s0,0,0,0v0h0v0S42.3,30.26,42.3,30.29Zm-7.22,3.59-.47-.28a3.78,3.78,0,0,1-.34-.25l-.06-.07-.06-.06a.54.54,0,0,1-.09-.25,1,1,0,0,1,0-.29,2.33,2.33,0,0,1,.22-.45,3.43,3.43,0,0,1,.32-.41l0-.05.13.08,0,0,.13.05a2.33,2.33,0,0,0,.44.11l.12,0h.14l.86.32.8.29,2.1.75.57.2-.06.14a4.08,4.08,0,0,1-.29.62c-.07.12-.14.24-.22.36a3.92,3.92,0,0,1-.27.33,1.51,1.51,0,0,1-.66.44h0l-.39-.19,0,0-.48-.22L37,34.83l-.1,0-.42-.19-.14-.07-.09,0C35.85,34.28,35.43,34.07,35.08,33.88Z"/></g></g></svg>