<svg xmlns="http://www.w3.org/2000/svg" viewBox="0 0 54.46 54.46"><defs><style>.cls-1{fill:none;}.cls-2,.cls-3{fill:#555;}.cls-3{opacity:0.4;}</style></defs><title>02_Stimu-Health packs</title><g id="Layer_2" data-name="Layer 2"><g id="Layer_2-2" data-name="Layer 2"><path class="cls-1" d="M27.42,36.29h0l.71,7.6s.62,1,1.63,2.39c-1-1.36-1.63-2.39-1.63-2.39Z"/><path class="cls-1" d="M30.88,47.73c-.41-.5-.79-1-1.12-1.45C30.09,46.74,30.47,47.23,30.88,47.73Z"/><path class="cls-1" d="M40.76,50.22A15.1,15.1,0,0,1,38.37,52,15.1,15.1,0,0,0,40.76,50.22Z"/><polygon class="cls-1" points="48.24 29.35 48.24 29.35 45.91 44.44 48.24 29.35"/><path class="cls-1" d="M17.42,4.55a12.49,12.49,0,0,0-1.64,24.88l2.38-2.38H14.92v-7.5H7.42v-5h7.5V7.05h5v7.5h7.5v3.24l2.38-2.38A12.51,12.51,0,0,0,17.42,4.55Z"/><polygon class="cls-1" points="19.92 25.29 25.66 19.55 19.92 19.55 19.92 25.29"/><polygon class="cls-1" points="42.93 27.03 38.58 25.14 38.58 25.14 42.93 27.03"/><path class="cls-1" d="M31.51,48.49a22,22,0,0,0,2.14,2.18A22,22,0,0,1,31.51,48.49Z"/><path class="cls-1" d="M41.52,49.53c.49-.47,1-1,1.41-1.43C42.49,48.58,42,49.06,41.52,49.53Z"/><polygon class="cls-2" points="19.92 14.55 19.92 7.05 14.92 7.05 14.92 14.55 7.42 14.55 7.42 19.55 14.92 19.55 14.92 27.05 18.16 27.05 19.92 25.29 19.92 19.55 25.66 19.55 27.42 17.79 27.42 14.55 19.92 14.55"/><path class="cls-2" d="M4.92,17.05A12.49,12.49,0,0,1,29.8,15.41l.87-.88A13.49,13.49,0,1,0,14.9,30.3l.88-.87A12.51,12.51,0,0,1,4.92,17.05Z"/><path class="cls-2" d="M37.62,24.71l0,0h0l-8.76,3.19h0l-.65.23h0l-1.45.53.5,5.39h0l.08.93h0l.12,1.29h0l.71,7.6s.62,1,1.63,2.39c.33.46.71.95,1.12,1.45.2.25.41.51.63.76a22,22,0,0,0,2.14,2.18,9.63,9.63,0,0,0,3.11,2A7.65,7.65,0,0,0,38.37,52a15.1,15.1,0,0,0,2.39-1.74c.26-.22.51-.45.76-.69.49-.47,1-1,1.41-1.43a39.29,39.29,0,0,0,3-3.66l2.33-15.09L42.93,27l-4.35-1.9h0Z"/><path class="cls-2" d="M54.32,8.69,45.77.15a.5.5,0,0,0-.71,0l-.61.61a.5.5,0,0,0,0,.71l3.61,3.61-6.51,6.51L38.29,8.33a1,1,0,0,0-.39-.23A1.2,1.2,0,0,0,37.58,8a.94.94,0,0,0-.37.07,1,1,0,0,0-.34.22L9.38,35.82A4.92,4.92,0,0,0,8,38.4a5.2,5.2,0,0,0-.09,1,5.07,5.07,0,0,0,.36,1.88,4.54,4.54,0,0,0,.46.87,2.88,2.88,0,0,0,.22.27l0-.06.15-.15a.41.41,0,0,1,.58,0l0,0c-.64.64,2.24,2.85,2.55,2.54l0,0a.41.41,0,0,1,0,.58l-.15.15-.07.06a5.2,5.2,0,0,0,2.07,1,5,5,0,0,0,4.49-1.37l7.86-7.87-.12-1.29-8.45,8.45a4,4,0,0,1-5.65,0l-2.19-2.18a4,4,0,0,1,0-5.66L37.58,9h0l7.84,7.84L38.36,24l1,.43,6.79-6.79a1,1,0,0,0,0-1.42l-3.26-3.26L49.38,6.4,53,10a.51.51,0,0,0,.71,0l.62-.62A.51.51,0,0,0,54.32,8.69Z"/><path class="cls-2" d="M0,54.46c1.83-1.22,5.49-4.27,5.49-4.27l-.61-.61L4.27,49h0S1.22,52.63,0,54.46Z"/><path class="cls-2" d="M9,45.23a1.89,1.89,0,0,1-.41-.6L4.27,49l1.22,1.22,4.34-4.34a2,2,0,0,1-.6-.41Z"/><path class="cls-2" d="M12.15,45.44l.15-.15a.41.41,0,0,0,0-.58l0,0c-.31.31-3.19-1.9-2.55-2.54l0,0a.41.41,0,0,0-.58,0L9,42.32l0,.06a2,2,0,0,0-.36,2.25,1.89,1.89,0,0,0,.41.6l.21.21a2,2,0,0,0,.6.41,2.06,2.06,0,0,0,2.25-.35Z"/><path class="cls-3" d="M26.94,27.54l-4.56-2.28-11,11a4.39,4.39,0,0,0,0,6.2l.63.62a4.38,4.38,0,0,0,6.19,0L26.3,35l-.58-6.21L25.65,28l.73-.27Z"/></g></g></svg>