<?xml version="1.0" encoding="utf-8"?>
<!-- Generator: Adobe Illustrator 24.1.2, SVG Export Plug-In . SVG Version: 6.00 Build 0)  -->
<svg version="1.1" id="Layer_1" xmlns="http://www.w3.org/2000/svg" xmlns:xlink="http://www.w3.org/1999/xlink" x="0px" y="0px"
	 viewBox="0 0 46.8 46.8" style="enable-background:new 0 0 46.8 46.8;" xml:space="preserve">
<style type="text/css">
	.st0{fill:#555555;}
	.st1{opacity:0.3;fill:#4D4D4D;enable-background:new    ;}
</style>
<g id="Layer_2_1_">
	<g id="Layer_2-2">
		<path class="st0" d="M28.5,0.8c-7.8-2.1-15.3,0.2-17.4,5.6l5.8,2.3C18,6.6,21.1,2.3,28.5,0.8z M33.5,2.7
			c4.3,6.1,3.7,11.4,3.1,13.7l5.8,2.3C44.5,13.2,40.6,6.5,33.5,2.7z"/>
		<path class="st0" d="M31.5,1.8l-4.3,10.9l8.4,3.3C36.2,13.6,36.8,8.1,31.5,1.8L31.5,1.8z M17.9,9.1l8.4,3.3l4.3-10.9
			C22.3,2.5,19,6.9,17.9,9.1z"/>
		<path class="st1" d="M25.5,23.8L25.5,23.8L25.5,23.8z M26.6,22.6h-0.2c0.1,0,0.2,0,0.3,0L26.6,22.6z M12.7,8.5L11.2,8l5.6,10.2
			c0.2-0.3,0.4-0.6,0.6-0.9L12.7,8.5z M27.7,22.2l0.1,0.1l0.3,0.2c0.2,0.1,0.4,0.3,0.6,0.5l12.3-3.4L39.4,19L27.7,22.2z"/>
		<path class="st0" d="M23.5,22.9c0,0-0.1,0-0.1-0.1h0c-0.1,0-0.1-0.1-0.2-0.2c-0.1-0.1-0.1-0.2-0.2-0.2h-0.1l-0.2-0.1h-0.1l-0.2,0
			l-0.3-0.2h-0.2l-0.1,0.1l-0.1,0.1c0,0.1-0.1,0.1-0.1,0.2c0,0,0,0.1,0,0.1v0.1c0,0-0.1-0.1-0.1-0.1c-0.1-0.1-0.1-0.2-0.1-0.4
			c0-0.1,0-0.1,0.1-0.2c0-0.1-0.8-1.4-0.8-1.6v-0.5c0-0.2,0.1-0.4,0.2-0.5c0.3-0.2,0.3-0.4,0.4-0.6c0.1,0,0.2-0.1,0.2-0.1
			c0.7-0.1,1-0.5,0.7-1.2c0-0.1-0.1-0.2-0.1-0.3c0,0,0,0,0-0.1L21.8,17l-0.1-0.1c0,0-0.1-0.1-0.1-0.1l-0.1,0l-0.1,0h-0.1
			c-0.1,0-0.3,0-0.5,0h-0.4c-0.2,0-0.4,0.1-0.6,0.2c0,0.1,0,0.1-0.1,0.1s-0.1-0.1,0.1-0.1c0,0,0,0,0,0.1c0-0.1-0.1-0.2-0.1-0.3
			c0,0-0.1-0.1-0.1-0.1c0,0-0.1,0-0.1,0h-0.1c-0.1,0-0.2,0.1-0.2,0.2c-0.2,0.2-0.5,0.4-0.7,0.6c-0.6,0.6-1.1,1.4-1.4,2.2
			c0,0.1-0.1,0.2-0.1,0.2L16.9,20c0,0-0.1,0-0.1,0c-0.1,0-0.1,0-0.2-0.1c-0.1-0.1-0.2-0.1-0.3-0.1h-0.5c-0.1,0-0.2,0-0.2,0h-0.1
			c-0.1,0-0.1-0.1-0.2-0.1l-0.3-0.1l-0.2-0.1c-0.1-0.1-0.2-0.1-0.3-0.2c-0.2-0.1-0.3-0.2-0.5-0.3c-0.1-0.2-0.1-0.4,0.1-0.9
			c0-0.1,0.1-0.3,0.1-0.4c0-0.4-0.1-0.8-0.3-1c-0.1-0.2-0.3-0.3-0.4-0.5L13.1,16H13c-0.1,0-0.1-0.1-0.2-0.1c-0.1,0-0.1,0-0.2,0h-0.1
			c0,0-0.1,0-0.1,0.1l-0.1,0l-0.1,0.1l-0.1,0.1c-0.1,0.1-0.1,0.2-0.2,0.3l-0.2,0.3c0,0,0,0.1,0,0.1l-0.1,0.1c0,0,0,0-0.1,0.1
			c0,0-0.1,0.1-0.1,0.1c0,0-0.1,0-0.1,0c-0.1,0-0.2-0.1-0.2-0.1h-0.1l-0.3-0.2c-0.4-0.3-0.8-0.4-1.1-0.7C9.3,16,9,15.9,8.7,15.9
			c0,0-0.1,0-0.1,0l-0.1,0.1c0,0-0.1,0.1-0.1,0.1l-0.1,0.1c-0.4,0.6-0.7,1.3-0.8,2c0,0.1,0,0.2,0,0.3c0,0.1,0,0.3,0.1,0.4
			c0,0.1,0.1,0.1,0.2,0.1c0.2,0.2,0.5,0.4,0.7,0.6c0.3,0.2,0.6,0.4,0.8,0.7l0.3,0.3c0.1,0.1,0.2,0.1,0.3,0.2h0.1
			c0.1,0,0.1,0.1,0.2,0.1h0.1c0.1,0,0.2,0,0.4,0c0.1,0,0.2,0,0.3,0h0.1l0.2,0.1l0.4,0.1c0.1,0,0.1,0.2,0,0.3
			c-0.1,0.1-0.2,0.3-0.3,0.4c-0.1,0.1-0.2,0.1-0.4,0.1c-0.2,0-0.5,0-0.6,0.1c0,0.1-0.1,0.1-0.1,0.2c0,0,0,0.1,0,0.1c0,0,0.1,0,0.1,0
			c0.1,0,0.2,0,0.2,0c0.1,0,0.2,0,0.2,0c0.1,0,0.2,0,0.3,0c0.2-0.1,0.4-0.2,0.5-0.3c0.1-0.1,0.1-0.2,0.2-0.3c0-0.1,0.1-0.1,0.2-0.2
			c0,0,0,0,0,0h0.2l0.2,0.1c0.6,0.3,1.1,0.6,1.7,0.9c0.2,0.1,0.4,0.3,0.5,0.5c0.1,0.3,0.4,0.6,0.7,0.7c0.1,0,0.2,0.1,0.3,0.1
			c0.1,0,0.1,0.1,0.2,0.1c0.1,0.2,0.1,0.4-0.1,0.7c-0.1,0.1-0.1,0.1-0.2,0.2c-0.1,0.1-0.2,0.3-0.1,0.5c0,0,0,0.1,0.1,0.1
			c0.1,0,0.1,0,0.2,0c0,0,0.1,0,0.1-0.1c0,0,0.1,0,0.1,0c0,0,0,0,0,0c0,0,0,0.1,0,0.1c0,0.4,0,0.8,0.2,1.1l0.1,0.4
			c0,0.1,0.1,0.3,0.1,0.3c-0.4,0.2-0.4,0.7-0.7,0.9c-0.1,0.1-0.2,0.2-0.3,0.2h-0.1c0,0-0.1,0-0.1,0c0,0-0.1,0-0.1-0.1
			c-0.1-0.1-0.1-0.2-0.1-0.3c-0.2-0.3-0.3-0.6-0.5-0.9c-0.1-0.1-0.1-0.2-0.2-0.2c-0.1-0.1-0.2-0.1-0.3-0.1h-0.1c-0.1,0-0.2,0-0.2,0
			h-0.1c-0.1,0-0.2,0-0.3,0.1c-0.3,0.3-0.5,0.5-0.7,0.8c-0.1,0.1-0.1,0.2-0.2,0.4c-0.1,0.3-0.2,0.6-0.3,0.9s-0.1,0.6-0.2,0.9
			c0,0.3-0.1,0.6-0.1,0.9c0,0.3,0,0.6,0.1,1c0,0.1,0,0.3,0,0.4c-0.3,0.9-0.6,1.7-0.7,2.6v0.2c0,0,0,0,0,0.1H11H11
			c-0.3-0.1-0.5-0.1-0.8-0.2c-0.3-0.1-0.7,0.1-0.8,0.4c-0.1,0.1-0.1,0.3-0.1,0.4c-0.1,0.8-0.2,1.5-0.2,2.3l9.3,1.8
			c0-0.1,0-0.1,0-0.2v-1c0-0.1,0-0.2,0.1-0.3c0-0.1,0-0.3,0-0.4c0-0.1-0.1-0.3-0.1-0.4c-0.1-0.3-0.3-0.5-0.6-0.6l-1.2-0.6l-0.1-0.1
			c0-0.1,0-0.1,0-0.2c0,0,0.1-0.1,0.1-0.1c0.6-0.3,1-0.9,1.6-1.3l0.1-0.1c0,0,0.1,0,0.1,0h0.1c0.1,0.1,0.2,0.1,0.4,0.1H19
			c0.1,0,0.2,0,0.2-0.1h0.1l0.3-0.2c0-0.2,0.1-0.4,0.1-0.6c0-0.2,0-0.1,0-0.2c0.1-0.1,0.1-0.3,0.1-0.4s0.1-0.1,0.1-0.2l0.1-0.3
			l0.1-0.2c0-0.1,0.1-0.2,0.1-0.2l0.1-0.2l0.1-0.2l0.1-0.1l0.1-0.2l0.1-0.1l0.1-0.1l0.1-0.1c0,0,0.1-0.1,0.1-0.1l0.1-0.1l0.1-0.1
			l0.1,0l0.1,0h1.6c0,0,0-0.1,0.1-0.1h0.1c0.1,0,0.1-0.1,0.2-0.1c0.1,0.1,0.2,0.1,0.3,0.2h0.1c0,0,0.1,0,0.1,0h0.2
			c0.1,0,0.2,0,0.3,0c0.1,0,0.2,0,0.4-0.1c0.1,0,0.1-0.1,0.2-0.1c0.1-0.1,0.1-0.1,0.2-0.2c0.1-0.1,0.2-0.3,0.3-0.4
			c0.2-0.4,0.5-0.7,0.7-1c0.7-1,0.9-2.2,0.7-3.4c0-0.1,0-0.3,0-0.4c0-0.1,0-0.2,0.1-0.4c0.1-0.2,0.2-0.4,0.4-0.6
			c0.2-0.2,0.3-0.5,0.3-0.8c0-0.2-0.2-0.4-0.4-0.5L27.3,23l-0.3-0.1L27,22.8l-0.2-0.1l-0.1,0c-0.1,0-0.2,0-0.3,0h-0.2L26,22.5
			l-0.4-0.3h-0.1c-0.1-0.1-0.2-0.1-0.3-0.1h-0.1c-0.1,0-0.1,0-0.2,0h-0.1c-0.1,0-0.1,0-0.2,0.1l-0.1,0c-0.1,0-0.1,0.1-0.2,0.1
			l-0.1,0.1l-0.3,0.3l-0.1,0.1h0l-0.1,0.1h0l-0.1,0C23.6,22.9,23.5,22.9,23.5,22.9L23.5,22.9z M20.2,18.9L20.2,18.9
			c0,0.1-0.2,0-0.1-0.1l0.1,0v0l-0.1-0.1c0,0,0,0,0-0.1v-0.1v-0.1c0-0.1,0-0.1,0-0.2c0-0.1,0.1-0.2,0.1-0.3l0-0.1l0.1-0.1
			c0,0,0.1-0.1,0.1-0.1h0.1c0,0,0.1,0,0.1,0h0.3c0.1,0,0.1,0,0.2,0c0,0,0.1,0,0.1,0.1c0,0.1,0.1,0.1,0.1,0.2c0,0.2,0,0.4-0.2,0.4
			c-0.2,0-0.4,0.1-0.5,0.2l-0.2,0.1c-0.1,0.1-0.2,0.1-0.3,0.2L20.2,18.9z M24.6,23L24.6,23c0.2-0.1,0.2-0.2,0.3-0.2H25
			c0.1,0,0.1,0,0.2,0h0.1c0.1,0,0.2,0,0.3,0.1c0.7,0.4,0.9,0.6,1.6,1c0,0,0.1,0,0.1,0.1v0.1c0,0.1-0.1,0.1-0.1,0.2
			c0,0.2-0.1,0.3-0.2,0.4c0,0.1-0.1,0.1-0.2,0.1h-0.3c-0.1,0-0.1-0.1-0.2-0.1l0,0c-0.1-0.1-0.1-0.1-0.2-0.2
			c-0.1-0.1-0.1-0.2-0.2-0.3l-0.1-0.1c-0.1-0.1-0.1-0.1-0.2-0.1h0c-0.1,0-0.1,0-0.2,0h-0.1c-0.1,0-0.2,0-0.3,0h-0.2
			c-0.1,0-0.1,0-0.1-0.1c0,0-0.1-0.1-0.1-0.1l-0.1-0.1c-0.1,0-0.1-0.1-0.2-0.1C24.4,23.3,24.5,23.2,24.6,23z M3.9,43.3l18.3,3.5
			l-1.4-5.6L6.7,38.5L3.9,43.3z"/>
	</g>
</g>
</svg>
