<?xml version="1.0" encoding="utf-8"?>
<!-- Generator: Adobe Illustrator 24.1.2, SVG Export Plug-In . SVG Version: 6.00 Build 0)  -->
<svg version="1.1" id="Layer_1" xmlns="http://www.w3.org/2000/svg" xmlns:xlink="http://www.w3.org/1999/xlink" x="0px" y="0px"
	 viewBox="0 0 72.7 72.7" style="enable-background:new 0 0 72.7 72.7;" xml:space="preserve">
<style type="text/css">
	.st0{opacity:0.4;enable-background:new    ;}
</style>
<g id="Layer_2_1_">
	<g id="Layer_4">
		<polygon class="st0" points="24.1,33.9 47,23.6 36.6,13.6 39.7,26.8 21.9,26.4 		"/>
		<polygon class="st0" points="56.9,34.2 56.7,33.4 55.2,34.6 54.2,35.5 53.9,34.8 53.7,35 53.6,35.1 53.4,35.2 44,39.3 44,39.3 
			44,39.4 43.1,39.8 27.8,46.5 27.8,46.8 44.4,46.8 47.3,58.7 61.8,37.8 57.5,33.7 		"/>
		<polygon class="st0" points="14.6,43.9 14.9,43.6 14.8,43.3 14.9,42.9 15.2,42 10.6,26.1 6.8,26 12.4,46.2 		"/>
		<path class="st0" d="M18.1,36.6l2.6-1.2l-2.6-9.1l-3.6-0.1L17.5,37C17.7,36.8,17.8,36.7,18.1,36.6z"/>
		<path d="M17,45.8c-0.3,0-0.6,0-0.8-0.2l0,0c-0.4-0.2-0.7-0.6-0.9-1l-2.1,2.2l-0.9,0.9l-2.4-1l-8.8,3.1L0,53.4l4.5,5.7l1-2.5
			l7.4-3.8l3.6-0.5l3.2-5.5L18,45.5C17.7,45.7,17.4,45.8,17,45.8z"/>
		<path d="M17.9,38.3C17.4,39,16.8,40,16.8,40l-0.9,3.2c0.3,0.7,0.9,1.1,1.6,1.2c0.1,0,0.2,0,0.3,0c0.1,0,0.2,0,0.4-0.1
			c0.1-0.1,0.3-0.1,0.4-0.2l1-0.4l2.2-0.9l0,0l1-0.4l2.7-1.1l0.2,0.4l0.3,0.6l0.5,0.9l0.4-0.2l17.9-7.8l4.9-9.2l0.4-0.8l1.6-1
			l0.8-2.1l-4.7,2.1L24.4,34.8L21,36.4l-2.5,1.1C18.2,37.7,18.1,38,17.9,38.3z"/>
		<path d="M70.3,23.7l-1-1.6l1-1.7L70,19.7l-1.5,0.6l-0.3-0.6l1.8-4.5l-13.5,6.2c-0.3,1-0.6,2-1,3c-0.2,0.1-3,1.8-3,1.8l-1,1.6
			l-2.6,4.4l0,0L47.2,35l0,0l0.2,0.4l-0.9,0.4l-0.3,0.1l-3.1,1.3l0.5,1.1l9.4-4.1l1.2-1.3l0.4,0.8l1.7-1.4l1-0.8l0.2,0.8l2.8-2.1
			l0.4,0.9l2.9-2l0.4,0.9l2.7-1.9l0.3,0.6l2.7-1.9l0.4,0.8l2.8-3L70.3,23.7z"/>
		<polygon points="42.1,37.6 27.1,44.2 25.9,44.7 25.9,44.5 25.5,43.6 25.4,43.6 25.4,43.7 23.4,44.5 20.3,45.9 21.2,46.8 
			22.2,47.8 27.5,45.5 42.7,38.9 		"/>
	</g>
</g>
</svg>
