<?xml version="1.0" encoding="utf-8"?>
<!-- Generator: Adobe Illustrator 24.1.2, SVG Export Plug-In . SVG Version: 6.00 Build 0)  -->
<svg version="1.1" id="Layer_1" xmlns="http://www.w3.org/2000/svg" xmlns:xlink="http://www.w3.org/1999/xlink" x="0px" y="0px"
	 viewBox="0 0 70.2 70.2" style="enable-background:new 0 0 70.2 70.2;" xml:space="preserve">
<style type="text/css">
	.st0{opacity:0.4;enable-background:new    ;}
</style>
<g id="Layer_2_1_">
	<g id="Layer_4">
		<path class="st0" d="M19.1,40.3v-0.1v-0.1l-0.7,0.3c0,0,0,0,0,0.1c0.1,0.3,0.4,1,0.8,1.8l0.6-0.3C19.3,41.5,19.1,40.9,19.1,40.3z
			 M24.9,44l-0.6-1.2l-0.1-0.3l0,0c-0.3,0-0.6-0.1-0.9,0c-0.6,0-1.2,0-1.2,0l-2.7,0.3c1.1,2.2,2.5,4.4,4,6.3
			c0.1-1.3,0.3-2.6,0.6-3.9l0,0C24.2,44.7,24.5,44.3,24.9,44z M50.9,42l-0.2-0.2v-0.3v-0.7v-0.1l0.2-2l-1-2h-0.3l-0.3-0.3l-0.3-0.4
			L49,36v-0.1l-0.2-0.4L48.6,35l-5.8,2.5l-0.7,0.3l-0.3-0.7l-0.6-1.3l0-0.1l-0.1,0.1L41,36.1l-0.3,0.1l-0.3,0.1l-8.6,3.4
			c0.1,0.1,0.2,0.2,0.3,0.4l1.2,1.6l-1.5,0.2c-0.8,0-1.5-0.4-2-0.9c-0.1-0.1-0.1-0.2-0.2-0.3l-0.3,0.1l1,1.8v0.1l0.7,1.2l-0.4,0.2
			l-0.1,2l0.2,0.5l0.1,0.4l-0.2,0.3l-0.2,0.3l0,0.9l0.2,0.6l0.1,0.4l-0.2,0.3l-0.3,0.4l0.5,2l0.7,0.4l0.4,0.2v0.5l-0.1,0.8v0.4
			l-0.3,0.2L31,54.9l-0.2,0.2h-0.3C30,55,29.6,55,29.3,54.9c0.5,0.4,1.1,0.9,1.7,1.3c0.8,0.6,1.6,1.1,2.4,1.6c1.2,0.7,2.8,0.7,4,0
			c0.8-0.5,1.7-1,2.4-1.6c4.9-3.6,8.8-8.4,11.4-13.9L50.9,42z M53.1,19.2l-16.4-7.1c-1-0.4-2.1-0.4-3.1,0l-16.4,7.1
			c-1.7,0.7-2.6,2.6-2.3,4.4l2.5,12.6l2.2-1l0.5-0.2l0,0l-0.7-0.2l-0.8-0.3l0.4-0.8l0.5-1.1l0.1-0.3l0.3-0.1l1.7-0.8
			c0.1-0.3,0.4-0.8,0.7-1.2l0.1-0.2l0.2-0.1l0.2-0.2l0-0.1l0.1-0.2l0.2-0.1l1.6-0.6l0.1-0.2l0.3-0.1l1.6-0.7l0.3-0.1l0.3,0.1
			l1.1,0.5l0.3,0.1l0.1,0.3l0.4,0.9c0.6,0.3,0.9,0.5,1,0.8l11-4.9l1.4-0.6l0.6-0.3l0.3,0.4l0.1-0.1l0,0l0.1-0.2l0.2-0.1l2.6-1.1
			l1.8-0.7l4.5-2l0.2-0.4l0.3-0.7l0.1-0.2C53.4,19.3,53.3,19.2,53.1,19.2z"/>
		<path d="M0,44l1,10.1c1.7,0.4,2.7,0.7,2.7,0.7c0.1,0,0.1,0,0.2,0c0.3,0,0.5-0.2,0.5-0.5c0,0,0,0,0,0c0.1-0.5,0-0.6-0.1-0.6l0,0
			l-1-0.9l0.2-2.6c0-0.5,0-1-0.1-1.4c-0.2-0.7-0.6-2.1-0.6-2.1l4.6-2l1-3.9l-0.6-0.2L0,44z"/>
		<polygon points="17.7,36.9 10.3,40.1 10.1,41.1 17.9,37.8 19.5,37 20.1,35.8 		"/>
		<polygon points="9.9,42.4 9.6,43.4 18.2,39.6 19,39.3 19.5,38.1 18.1,38.8 		"/>
		<path d="M21.4,33.8l0.3,0l7.9-3.5c-0.3-0.2-0.5-0.3-0.8-0.5l-0.5-1.1l-1.1-0.5l-1.6,0.7l-0.1,0.2l-1.8,0.8l-0.2,0.3L23,30.7
			c0,0-0.7,1.3-0.8,1.4h-0.1l-1.8,0.8L19.8,34l0.7,0.2L21.4,33.8z"/>
		<path d="M29.3,50l0.5-0.7l-0.3-0.8l0.1-1.3l0.3-0.4l-0.2-0.7l0.2-2.6l0,0l-1.3-2.4l-0.9,0.3c-0.1,0.1-0.3,0.1-0.4,0.1
			c-0.2,0-0.4-0.1-0.4-0.3c-0.2-0.5-0.3-0.9-0.4-1.4l-3.9,1.8c0.2,0,0.6,0,0.9,0c0.6,0,1.1,0,1.7,0.3l0.1,0.1L25,42.5l0.6,1.3
			c0,0,0.4,0.3-0.2,0.8c-0.3,0.2-0.6,0.6-0.8,0.9c0,0-0.4,2.8-0.6,4.5C24,50.5,24,51,24,51l-0.6,1l0.6,1.2l0.3,1.3
			c0,0,0,0.2,0.4,0.2c0.2,0,0.3,0,0.5-0.1c0.9-0.3,1.9-0.5,2.9-0.5h0.1c0.7,0,1.5,0.1,2.2,0.2l0.4-0.3l0.1-0.8l-0.9-0.6L29.3,50z"/>
		<path d="M26.6,38.9l0.6-2.4l-7.1,3.1l-0.2,0.7c0,0,0,1.3,0.9,1.3l0,0c0.1,0,0.3,0,0.4-0.1C22.3,41,26.6,38.9,26.6,38.9L26.6,38.9z
			"/>
		<path d="M43.4,29.6l0.5-0.9l0.1-0.2l0,0l0.1-0.1l0.1-0.2l0.9-1.8l0.6-0.3l0.5-0.3l0.8-1.6l-2.6,1.1l-0.2,0.3l-0.9,0.4l-0.3-0.4
			L41.7,26l-13.1,5.8l-6.2,2.8l-0.2,0.6l-1.3,2.3l0.2,0.4c0,0,0,0.1,0.2,0.1c0.2,0,0.4-0.1,0.5-0.1l15.7-7c0.2-0.6,0.6-1.1,1.1-1.4
			c0.9-0.5,2.9-1.3,2.9-1.3c0.4-0.2,0.8-0.3,1.2-0.4l0,0l-0.2,0.3l-0.1,0.1l-0.8,1.3l-1.7,0.7l0,0L38,31.2l-0.2,0.4l2.4,0.9
			l-0.4,0.7l-2.7-1l0.2-0.3l-8.9,4l-0.1,0.3l-0.6,2.5c0,0,0.7,1.6,1.2,1.6l0,0c0.4-0.1,0.8-0.3,1.2-0.5c0,0-0.2,1.3,1.8,1.5
			c0,0-1.9-1.5-0.7-2l9-3.5l0,0l0.1-0.1c0.1-0.1,0.3-0.1,0.4-0.1l0.2-0.4L43.4,29.6z"/>
		<path d="M40.5,35.5L40.5,35.5L40.5,35.5z"/>
		<path d="M69.5,23.8h-0.7l-0.6-0.3l-0.4-1.1l0.5-1.8l-13.4,5.9l-2.1,0.9l0.2,0.7l-0.5,0.2L52,28.8l0.1,0.4l-6.8,3
			c-0.3-0.1-0.7-0.1-1-0.2h-0.5c-0.3,0-0.3,0-0.3,0L42,35.5l0.5,1.3l7.8-3.4l0.4,0.3l3-1.3l1.7-0.7l1.3-1.3l0.4,0.5l1.7-1.5l0.1,0.3
			l0.5,0.2l1.6-1.4l0.1,0.4l0.6,0.1l1.5-1.6l0.2,0.4l0.5,0.2l1.6-1.5l0.1,0.3l0.5,0.2l1.6-1.5l0.5,0.7l2-1.6L69.5,23.8z"/>
		<path d="M46.3,26.5L46.3,26.5l-0.9,1.6l-0.1,0.2l0.3-0.1l0,0l1.6-0.7l3.3-1.4V26l0.7-0.3l4.2-1.8l9.8-4.3l0.6-0.3
			c0.2-0.5,0.8-2.7,1-3.2c0.2-0.5,0-0.5-0.1-0.5h-0.1l-1.3,0.6l0.1,0.3l-0.6,0.3L55,20.9l-0.9,0.4l-1.8,0.8l0.2-0.4l-3.8,1.7
			l-1.1,2.5l-0.7,0.3L46.3,26.5z"/>
		<polygon points="64.5,15.9 64.4,15.7 64.4,15.4 54.2,19.9 54.1,19.9 54,20.3 53.8,20.6 54.6,20.3 		"/>
		<polygon points="55.2,24.7 51.4,26.3 51.4,26.4 51.7,27 55,25.5 65.8,20.8 65.5,20.2 65.5,20.1 		"/>
		<polygon points="55.6,32.9 53.3,33.9 50.7,35.1 50.7,35.1 50.1,34.9 49.5,35.2 49.6,35.6 49.9,36 50.3,35.9 51.7,38.6 51.4,40.9 
			51.4,41.5 51.5,41.6 51.9,42.1 54.4,42.6 55.5,41.4 55.3,40.6 55.7,34.9 56.3,33.9 56.2,33.4 		"/>
	</g>
</g>
</svg>
