<?xml version="1.0" encoding="utf-8"?>
<!-- Generator: Adobe Illustrator 24.1.2, SVG Export Plug-In . SVG Version: 6.00 Build 0)  -->
<svg version="1.1" id="Layer_1" xmlns="http://www.w3.org/2000/svg" xmlns:xlink="http://www.w3.org/1999/xlink" x="0px" y="0px"
	 viewBox="0 0 53.8 53.8" style="enable-background:new 0 0 53.8 53.8;" xml:space="preserve">
<style type="text/css">
	.st0{opacity:0.4;enable-background:new    ;}
</style>
<g id="Layer_1_1_">
	<path class="st0" d="M13.6,12.8l-1.9-1.8c-3.4,2.4-6.3,5.4-8.8,8.7l-0.5,0.8L3,21.1c1.7,2.1,3.7,4,5.9,5.6l2.4-1.5
		c-2-1.4-3.9-3.1-5.6-4.9C7.9,17.5,10.6,15,13.6,12.8z M17.6,19.5c0,2.4,1.2,4.7,3.2,6.1l3.8-2L18,17.2
		C17.7,17.9,17.6,18.7,17.6,19.5z M40.4,15.3l2.4-1.3c-5.5-5.4-11.4-8-17.5-7.9c-2.6,0.1-5.2,0.6-7.6,1.6l-4.5-4.3l-2.3,2.3
		l16.7,16.3l5.5-2.9c-0.2-4.1-3.6-7.3-7.7-7.2c-1,0-2,0.2-2.9,0.6l-2.8-2.8c1.8-0.7,3.7-1,5.7-1.1C30.5,8.6,35.5,10.8,40.4,15.3z
		 M30.3,15.3c0.7,0,1.3,0.6,1.3,1.3c0,0.7-0.6,1.3-1.3,1.3c-0.7,0-1.3-0.6-1.3-1.3C29,15.9,29.6,15.3,30.3,15.3z"/>
	<path d="M22.3,42.2l-5.5-11L15,27.6c0-0.1-0.1-0.1-0.1-0.1c-0.2-0.3-0.5-0.4-0.8-0.4v0.1c-0.1,0-0.2,0-0.4,0.1l-1.6,0.8
		c-0.3,0.1-0.4,0.4-0.5,0.7c0,0.2,0,0.5,0.1,0.7l1.8,3.6L2.9,38.4c-0.6,0.3-1.1,0.8-1.4,1.4c-0.2-0.2-0.4-0.3-0.7-0.3
		c-0.1,0-0.3,0-0.4,0.1c-0.4,0.3-0.5,0.8-0.3,1.3l4.6,9c0.2,0.3,0.5,0.6,0.9,0.6c0.1,0,0.3,0,0.4-0.1c0.5-0.3,0.6-0.9,0.4-1.3
		l-0.7-1.4c0,0-0.7-1.3,3.4-3.3l8.2-4.1l1.8,3.6c0.2,0.3,0.5,0.6,0.9,0.6c0.1,0,0.3,0,0.4-0.1l1.6-0.8
		C22.3,43.2,22.5,42.6,22.3,42.2z M18.4,29l-0.5,0.3l1.3,2.6l3.7,7.3l11.8-5.9l3-1.5l3-1.5L45,28c0,0,7.9-5.1,8.9-14.7
		c-3.7,2.6-6.1,3.6-7.8,3.6h-0.4c-0.7-0.1-1.3-0.3-1.9-0.8l-1.6,0.8l-8.3,4.2l-1.1,0.6l-3.6,1.8l-0.7,0.4l0.9,1.8
		c0,0.1,0.1,0.1,0.1,0.2c0.2,0.4,0,0.9-0.4,1.1c-0.1,0.1-0.2,0.1-0.3,0.1c-0.3,0-0.6-0.2-0.8-0.5l-0.1-0.1L27,24.8l-0.8,0.4
		l-0.8,0.2l0.8,1.6l0.1,0.3c0.3,0.4,0.1,1-0.3,1.3c-0.1,0.1-0.2,0.1-0.3,0.1c-0.4,0-0.7-0.2-0.9-0.6l-0.5-1l-0.4-0.8l-1,0.5L22.3,27
		l0.9,1.8c0.3,0.4,0.1,1-0.3,1.3c-0.1,0.1-0.2,0.1-0.3,0.1c-0.2,0-0.4-0.1-0.6-0.2c-0.1-0.1-0.2-0.2-0.3-0.4l-0.9-1.8
		C20.8,27.8,18.4,28.9,18.4,29z M27,32.6l4.4-2.2l3-1.6l8.7-4.4l4-2.7l2.8-1.9c-1.6,2.5-3.6,4.7-6,6.4l-5,2.5l-3,1.5l-3,1.5
		l-9.5,4.8l-0.9-1.8C22.5,34.7,27,32.5,27,32.6z"/>
</g>
</svg>
