<svg xmlns="http://www.w3.org/2000/svg" viewBox="0 0 31.4 31.4">
  <defs>
    <style>
      .cls-1{fill:#565656}.cls-2{opacity:.4}
    </style>
  </defs>
  <g id="Layer_3" data-name="Layer 3">
    <path class="cls-1" d="M25 16.58l.36-.38-.31-.41c-3.35-4.48-7-6.69-10.76-6.62-6.21.14-10.52 6.39-10.7 6.64l-.25.36.27.36c.16.21 4.07 5.28 10.05 5.59h.57c3.71.02 7.33-1.85 10.77-5.54zm-11.25 4.31c-4.53-.23-7.86-3.64-8.84-4.75 1-1.31 4.68-5.63 9.43-5.72 3.26 0 6.41 1.83 9.42 5.72-3.26 3.31-6.61 4.92-10.01 4.75z"/>
    <path class="cls-1" d="M14.35 12a3.7 3.7 0 103.7 3.7 3.7 3.7 0 00-3.7-3.7zm1.41 2.92a.64.64 0 01-.64-.64.64.64 0 011.28 0 .64.64 0 01-.64.64z"/>
    <g class="cls-2">
      <path class="cls-1" d="M4.14 13.16l-.75-.71L0 16.02l3.66 4.21.78-.68-3.04-3.5 2.74-2.89z"/>
    </g>
    <g class="cls-2">
      <path class="cls-1" d="M24.41 19.55l.78.68 3.66-4.21-3.39-3.57-.75.71 2.74 2.89-3.04 3.5z"/>
    </g>
    <g class="cls-2">
      <path class="cls-1" d="M.78 3.52c.32 1.15.7 2.26 1.11 3.35l.58 1.42 1.22-1.08c.45-.39.88-.79 1.3-1.2.3.43.62.87 1 1.29s.66.8 1 1.18a11 11 0 001.14 1.11A10.82 10.82 0 007.8 8a13 13 0 00-.46-1.5 24.32 24.32 0 00-1.21-2.82l-.65-1.29-1.16 1c-.4.37-.8.76-1.19 1.15-.29-.54-.61-1.08-.95-1.66s-.65-1-1-1.46A15.18 15.18 0 00.06 0a13.65 13.65 0 00.3 1.79c.12.58.26 1.21.42 1.73z"/>
    </g>
    <g class="cls-2">
      <path class="cls-1" d="M10.85 4.61l.08.39c.07.33.18.65.27 1a12.64 12.64 0 00.73 1.94A13 13 0 0012 5.86a5.76 5.76 0 00-.06-1c-.06-.34-.06-.68-.1-1l-.09-.57-.62.14c-.42.1-.84.21-1.25.33v-.2l-.11-.94A13.17 13.17 0 009.39.73 14.47 14.47 0 009 2.58l-.1.93-.08.91-.05.69L9.5 5c.5-.15.9-.26 1.35-.39z"/>
    </g>
    <g class="cls-2">
      <path class="cls-1" d="M27.38 27.85a30.72 30.72 0 00-1.15-3.35l-.58-1.42-1.22 1.09c-.47.41-.92.85-1.36 1.28-.38-.47-.79-.95-1.21-1.41s-.75-.79-1.16-1.15a11.2 11.2 0 00-1.3-1.07 12.48 12.48 0 00.49 1.61c.19.53.4 1 .63 1.52a27.86 27.86 0 001.53 2.85l.69 1.2 1-.95c.41-.38.8-.77 1.19-1.16.32.58.64 1.12 1 1.66s.65 1 1 1.48a17.39 17.39 0 001.15 1.42 18.06 18.06 0 00-.3-1.79c-.1-.66-.24-1.25-.4-1.81z"/>
    </g>
  </g>
</svg>