<?xml version="1.0" encoding="utf-8"?>
<!-- Generator: Adobe Illustrator 24.1.2, SVG Export Plug-In . SVG Version: 6.00 Build 0)  -->
<svg version="1.1" id="Layer_1" xmlns="http://www.w3.org/2000/svg" xmlns:xlink="http://www.w3.org/1999/xlink" x="0px" y="0px"
	 viewBox="0 0 60.9 60.9" style="enable-background:new 0 0 60.9 60.9;" xml:space="preserve">
<style type="text/css">
	.st0{opacity:0.4;enable-background:new    ;}
</style>
<g id="Layer_2_1_">
	<g id="Layer_4">
		<path class="st0" d="M60.8,30.6h-0.2L23.5,10l3.8,11.4L8.2,21.3l9.1,9.2l-9.1,9l19.1,0.1l-3.9,11.4l37.4-20.2L60.8,30.6L60.8,30.6
			L60.8,30.6z M28.3,44.3l2.6-7.6L18,36.6l6.1-6.1l-6.1-6.2L31,24.4l-2.6-7.7l25,13.9l0,0L28.3,44.3z"/>
		<path d="M60.8,30.7L60.8,30.7C60.9,30.8,60.8,30.7,60.8,30.7z"/>
		<path d="M60.8,30.6C60.9,30.6,60.9,30.6,60.8,30.6L60.8,30.6z"/>
		<polygon points="31.9,24.1 32.3,25.4 31,25.4 20.5,25.3 24.9,29.8 25.6,30.5 24.9,31.2 20.5,35.6 30.9,35.6 32.3,35.6 31.9,37 
			30,42.2 51.4,30.6 30.2,18.8 		"/>
		<polygon class="st0" points="8.8,30.6 0,39.4 0,36.4 5.8,30.6 0,24.7 0,21.8 		"/>
		<polygon class="st0" points="14.2,30.6 5.4,39.4 5.4,36.4 11.2,30.6 5.4,24.8 5.4,21.8 		"/>
	</g>
</g>
</svg>
