<?xml version="1.0" encoding="utf-8"?>
<!-- Generator: Adobe Illustrator 24.1.2, SVG Export Plug-In . SVG Version: 6.00 Build 0)  -->
<svg version="1.1" id="Layer_1" xmlns="http://www.w3.org/2000/svg" xmlns:xlink="http://www.w3.org/1999/xlink" x="0px" y="0px"
	 viewBox="0 0 57.7 57.7" style="enable-background:new 0 0 57.7 57.7;" xml:space="preserve">
<g id="Layer_2_1_">
	<g id="Layer_4">
		<path d="M34.8,30.4c0-0.3-0.3-0.6-0.6-0.6h-3l-6.4,0.1h-0.3c-0.3,0-0.6,0.3-0.6,0.6c0,0,0,0,0,0v1.2c0,0.3,0.3,0.6,0.6,0.6
			c0,0,0,0,0,0h2.4L27,40c0,0.4,0.1,0.9,0.4,1.3C27,41.4,26.9,41.7,27,42c0.1,0.2,0.3,0.4,0.6,0.4h6.1c0.3,0,0.6-0.2,0.7-0.5
			s-0.2-0.6-0.5-0.7c-0.1,0-0.1,0-0.2,0h-1c0,0-0.8,0-0.9-2.7c0-0.1,0-0.2,0-0.3l-0.1-6h2.4l0,0c0.3,0,0.6-0.3,0.6-0.6L34.8,30.4
			L34.8,30.4z"/>
		<path d="M26,16.8v2.9v1h1.2c0.3,0,0.6,0.2,0.6,0.5s-0.2,0.6-0.5,0.6c-0.1,0-0.1,0-0.2,0H26V23h1.2c0.3,0,0.6,0.2,0.6,0.5
			c0,0,0,0,0,0c0,0.3-0.2,0.5-0.5,0.5h-0.1H26v1.1h1.2c0.1,0,0.3,0.1,0.4,0.1c0.1,0.1,0.2,0.2,0.2,0.4c0,0.3-0.3,0.6-0.6,0.6
			c0,0,0,0,0,0H26v2.3h0.2h4.1H31h1.8v-0.3l-0.1-6.9v-0.6l-0.1-6.5v-2c0,0-0.7-6.2-5.7-9.5c0.7,4.5,0.1,6.2-1.1,6.7
			c0,0.7,0,3.2,0,5.1C25.9,15.9,26,16.8,26,16.8z M31.4,12.3v3v4.3v2.7v2.1v3h-1.1v-2v-1.1v-1l0-4.8v-2.1v-4.1l-0.7-5.3
			C30.5,8.6,31.2,10.4,31.4,12.3L31.4,12.3z"/>
		<path d="M20.6,45.9l-0.1-0.8l-0.2-1.8c-0.2,0.1-0.5,0.2-0.8,0.2l0,0c-0.2,0-0.3-0.1-0.5-0.2c-0.2-0.1-0.3-0.3-0.4-0.5l-1.2,0.1
			l-0.4,3.8l1.5,1.5l2.1,4.5l-0.4,1.5l4.2-1.1l0.8-2.1l-3.1-4.6L20.6,45.9z"/>
		<path d="M9.6,28.5l5.8,10.1l0.1,0.2l0.5-0.3l0.3-0.2l0.3-0.1l0.9,1.5l0.4,0.6l0,0l0.7,1.2l0.3,0.5c0,0.1,0.1,0.2,0.1,0.2
			c0,0.1,0.1,0.1,0.1,0.2l0.1,0.1c0.4,0.2,0.8,0.2,1.2,0l0.7-1.8c0,0,0.1-0.7,0.1-1.3c0-0.2,0-0.4,0-0.6l-0.8-1.4l-1.1-1.9
			l-7.4-13.3l-1.5-2.7l-0.4,1.3l0.4,1l-0.1,0.5L9.6,28.5z"/>
		<path d="M8.6,28.2L8.5,28l-0.3-0.5l0.2-0.1l0,0l0.2-1.9l0,0l0.3-3l0.1-1.1c0,0-0.7-1.8-0.8-2c0.2-0.6,0.3-1.2,0.6-1.8L4.6,9.9
			l-0.8,2.8l-0.4,0.2L3,12l-0.4,0.2l-0.1,1.2l-1,0.4L0,13.4l0.3,2.4l0.5-0.3l0.6,1.9l0.4-0.2l0.6,1.9l0.5-0.3l0.7,2l0.5-0.3l0.6,2
			l0.4-0.3L5.1,23l0.3,1.2l0.5-0.3L6,25l3,5.3L9.6,30L8.6,28.2z"/>
		<polygon points="16.5,40.5 15.8,39.3 15.8,39.3 15.8,39.3 15.3,39.6 15.2,39.6 14.9,39 10,30.5 9.3,30.9 14.2,39.5 15.9,42.5 
			16.7,42.3 17.5,42.2 		"/>
		<path d="M41.4,53.3L41.4,53.3h-0.8l-1-1.2c-0.2-0.2-0.4-0.4-0.7-0.5l-1.1-0.6l1.1-2.8l-1.2-2l-0.3,0.2L35.5,51l4.6,3.8l1.4-0.9
			c0,0,0.1,0,0.1-0.1c0.1-0.1,0.1-0.3,0-0.4c0,0,0,0,0,0C41.5,53.2,41.4,53.3,41.4,53.3z"/>
		<polygon points="40.4,41 40.8,40 40.5,39.3 40,40.7 38.2,45.1 38.6,45.6 		"/>
		<polygon points="39.3,46.8 41.3,41.6 41.5,41.2 41.3,40.4 40.9,41.3 39,46.2 		"/>
		<path d="M39.4,37.9l0.2,0.7l0.4-0.2l0.2-0.6l0.2-0.1l1.8-4.7c-0.2,0-0.4,0.1-0.5,0.2L41,32.9l-0.6,0.3L40,34.1l0.1,0.1l-0.4,1.1
			l0.1,0.2l-0.1,0.3c0,0,0.2,0.8,0.3,0.9v0.1L39.4,37.9z"/>
		<path d="M51.6,42.1l-1.3-0.8l-0.1-0.5l-0.4-0.2l-0.5-0.6l-0.1-0.3l-0.4-0.2l-1-1.2l0,0L46.3,38L46,38.5c0,0.1-0.1,0.2-0.1,0.2
			c-0.1,0.1-0.2,0.1-0.3,0c-0.3-0.1-0.5-0.3-0.8-0.4L44,40.7l0.4-0.4c0.2-0.3,0.5-0.5,0.8-0.6h0.1l0.1,0.2l0.8,0.3
			c0,0,0.3,0,0.3,0.4c0,0.2,0,0.5,0.1,0.7c0,0,1,1.3,1.6,2.1l0.4,0.5l0.2,0.7l0.8,0.2l0.7,0.4c0,0,0.1,0.1,0.3-0.1
			c0.1-0.1,0.1-0.2,0.2-0.3c0.2-0.5,0.6-1,1-1.4l0,0c0.3-0.3,0.6-0.6,1-0.8l0-0.3L52.3,42L51.6,42.1z"/>
		<path d="M44.5,37.8l-0.8-1.3l-1.7,4.3l0.2,0.4c0,0,0.5,0.5,0.9,0.2l0,0c0.1-0.1,0.1-0.1,0.1-0.2C43.6,40.5,44.5,37.8,44.5,37.8
			L44.5,37.8z"/>
		<path d="M45.7,29.8c-0.2-0.3-0.2-0.7-0.1-1c0.2-0.6,0.7-1.8,0.7-1.8c0.1-0.2,0.2-0.5,0.3-0.7l0,0l0.1,0.2v0.1l0.2,0.9l-0.4,1l0,0
			L46,29.8l0,0.2l1.4-0.6l0.1,0.5L46,30.6v-0.2l-2,5.4l0.1,0.2l0.8,1.3c0,0,1,0.3,1.2,0.2l0,0c0.1-0.2,0.2-0.5,0.3-0.7
			c0,0,0.5,0.6,1.4-0.1c0,0-1.4,0.2-1.2-0.5l2.3-5.3l0,0v-0.1c0-0.1,0.1-0.1,0.1-0.2l-0.1-0.2l-1.2-3.5l-0.2-0.6v-0.1l0,0V26l0-0.1
			L47,24.8l0.2-0.4l0.1-0.4l-0.3-1l-0.6,1.5v0.2l-0.2,0.5h-0.3l-0.3,0.9L42.4,34L41,37.7l0.2,0.3l0.4,1.5l0.3,0.1c0,0,0.1,0,0.2,0
			c0.1-0.1,0.1-0.2,0.2-0.3L45.7,29.8z"/>
		<path d="M48.9,30.6L48.9,30.6z"/>
		<path d="M50.7,22.1l0.3,0.2l-0.1,0.3V23l0.2,0.1l-1.5,4.1c-0.2,0.1-0.3,0.2-0.5,0.3c-0.1,0.1-0.1,0.1-0.2,0.2
			c-0.1,0.1-0.1,0.1-0.1,0.1l0.8,2.1l0.8,0.3l1.8-4.6l0.3-0.1l0.7-1.8l0.4-1v-1.1l0.4,0l0.1-1.3l0.2,0.1l0.3-0.1l0.1-1.3l0.2,0.1
			L55,19v-1.3l0.3,0.1l0.3-0.1l0.1-1.3l0.2,0.1l0.3-0.1V15l0.5,0.1l0.1-1.5h-0.6l-0.3,0.3l-0.4,0.1l-0.6-0.3l-0.5-1l-3.1,8
			L50.7,22.1z"/>
		<path d="M47.7,24.1l-0.1,0.3l0,0l0.3,1v0.1l0.1-0.2l0,0l0.4-0.9l0.8-2l0,0l0.2-0.4l1-2.6l2.3-5.9l0.2-0.4
			c-0.2-0.3-0.8-1.4-0.9-1.7s-0.2-0.2-0.3-0.1l0,0L51.2,12l0.1,0.1l-0.1,0.3l-2.3,5.9l-0.2,0.6l-0.4,1.1l-0.1-0.1l-0.9,2.3l0.6,1.5
			L47.7,24.1z"/>
		<polygon points="48.3,18.8 48.4,18.3 50.8,12.4 50.6,12.3 50.5,12.2 48.1,18.3 48.1,18.4 48.2,18.6 		"/>
		<polygon points="49.6,22.2 49.7,22.2 50,22.3 50.8,20.3 53.3,13.9 53,13.7 52.9,13.7 50.5,19.9 		"/>
		<polygon points="57.6,26.8 57.2,26.5 55,24 54.9,23.3 54.6,23.1 54.1,23.2 53.6,24.5 53,26.1 53,26.1 52.7,26.3 52.5,26.7 
			52.8,26.8 53,26.8 53.2,26.6 54.9,27.2 55.7,28.3 56,28.5 56,28.5 56.4,28.5 57.7,27.7 		"/>
	</g>
</g>
</svg>
