<?xml version="1.0" encoding="utf-8"?>
<!-- Generator: Adobe Illustrator 24.1.2, SVG Export Plug-In . SVG Version: 6.00 Build 0)  -->
<svg version="1.1" id="Layer_1" xmlns="http://www.w3.org/2000/svg" xmlns:xlink="http://www.w3.org/1999/xlink" x="0px" y="0px"
	 viewBox="0 0 51.8 51.8" style="enable-background:new 0 0 51.8 51.8;" xml:space="preserve">
<style type="text/css">
	.st0{opacity:0.4;fill:#555555;enable-background:new    ;}
	.st1{fill:#AFAFAF;}
	.st2{fill:#555555;}
</style>
<path class="st0" d="M51.7,29L51.7,29l-11.9-6.5c-1.2,0.5-2.5,0.8-3.8,0.8h-1l10.4,5.8L24.1,40.8l2.3-6.5l-10.9-0.1l5.2-5.2
	l-5.2-5.2l11,0.1l-2.2-6.5l4.2,2.3c-1-1.3-1.7-2.8-1.9-4.4L20,11.5l3.2,9.7L7,21.1l7.7,7.8l-7.8,7.7l16.3,0.1l-3.4,9.7l31.8-17.2
	C51.6,29.2,51.7,29,51.7,29z M25.8,38.7l17.6-9.5l-17.5-9.7l1.4,4.1l0.4,1.3h-9.9l3.5,3.5L22,29l-0.7,0.7l-3.5,3.5h9.9l-0.5,1.3
	C27.2,34.5,25.8,38.7,25.8,38.7z"/>
<path class="st1" d="M51.7,29.1C51.8,29.3,51.8,29.1,51.7,29.1z"/>
<path class="st2" d="M27.3,34.5l0.4-1.3h-1.4l-8.5-0.1l3.5-3.5l0.7-0.7l-0.7-0.7l-3.5-3.5h9.9l-0.4-1.3l-1.4-4.1L43.4,29l-17.6,9.6
	L27.3,34.5z"/>
<path class="st0" d="M7.5,29L0,36.5V34L4.9,29L0,24v-2.5L7.5,29z"/>
<path class="st0" d="M12.1,29l-7.5,7.5V34l4.9-5l-4.9-4.9v-2.6L12.1,29z"/>
<path class="st2" d="M36,5.4c-4.5,0-8.2,3.7-8.2,8.2c0,0.8,0.1,1.7,0.4,2.4c1.3,4.3,5.9,6.7,10.3,5.4s6.7-5.9,5.4-10.3
	C42.8,7.7,39.6,5.4,36,5.4z M39.2,17.3c0,0.1,0,0.2-0.1,0.2c-0.1,0.1-0.1,0.1-0.2,0.1h-5.7c-0.1,0-0.3-0.1-0.3-0.2v-0.6
	c0-0.2,0.1-0.4,0.3-0.6l1.8-1.9c0.6-0.4,1-0.8,1.3-1.1c0.3-0.2,0.5-0.5,0.7-0.8c0.1-0.2,0.2-0.5,0.2-0.7c0-0.3,0-0.6-0.2-0.9
	c-0.3-0.2-0.6-0.4-1-0.3c-0.4,0-0.7,0.1-0.9,0.4c-0.2,0.2-0.4,0.6-0.4,0.9c0,0.1-0.1,0.2-0.1,0.2c-0.1,0-0.1,0.1-0.2,0.1h-1
	c-0.1,0-0.1,0-0.2-0.1c0-0.1-0.1-0.1,0-0.2c0-0.5,0.2-0.9,0.4-1.3c0.3-0.4,0.6-0.8,1-1c0.5-0.3,1-0.4,1.6-0.4s1.1,0.1,1.6,0.3
	c0.4,0.2,0.8,0.5,1,0.9c0.1,0.4,0.2,0.8,0.2,1.3c0,0.5-0.2,1-0.5,1.5c-0.4,0.5-0.9,1-1.4,1.4l-1.7,1.7h3.4c0.1,0,0.2,0,0.2,0.1
	c0.1,0.1,0.1,0.1,0.1,0.2C39.1,16.4,39.2,17.2,39.2,17.3z"/>
</svg>
