<?xml version="1.0" encoding="utf-8"?>
<!-- Generator: Adobe Illustrator 24.1.2, SVG Export Plug-In . SVG Version: 6.00 Build 0)  -->
<svg version="1.1" id="Layer_1" xmlns="http://www.w3.org/2000/svg" xmlns:xlink="http://www.w3.org/1999/xlink" x="0px" y="0px"
	 viewBox="0 0 34.6 34.6" style="enable-background:new 0 0 34.6 34.6;" xml:space="preserve">
<g id="Layer_2_1_">
	<g id="Layer_3">
		<path d="M14.9,3c0.3,1,1.3,1.7,2.4,1.5c2,0,2.3-1.4,2.4-1.5l0.1-0.4h5.6C25,1.7,24.6,0.8,24.1,0H10.4C10,0.8,9.6,1.7,9.2,2.6h5.6
			L14.9,3z"/>
		<path d="M27.6,32.7h0.5l0.1-0.2c0.5-0.6,0.7-1.9,0.7-3.9V28l0,0V16l0,0V7c-0.1-0.8-0.5-1.6-1.1-2.2l-1-0.6h-1
			c0-0.2-0.1-0.4-0.1-0.7h-5.1c-0.6,1.3-1.8,2-3.2,1.9c-1.4,0.1-2.7-0.7-3.2-1.9H8.9c0,0.2-0.1,0.4-0.1,0.7H7.8L6.9,4.7L6.8,4.8
			C6.2,5.4,5.8,6.2,5.7,7v9l0,0v12.6c0,2,0.2,3.3,0.7,3.9l0.1,0.2H7l-1.8,1.9h24.3L27.6,32.7z M22.4,31.7L21.6,30H13
			c0,0.7,0,0.1,0,0c-0.2,0.6-0.4,1.2-0.8,1.6H7.1c-0.3-1-0.4-2-0.3-3.1V28l0,0V7.1C6.8,6.5,7,6,7.4,5.6L8,5.2h3.4
			c0.4,0.3,1.8-0.5,1.6,1.6c0,0.3,0-0.3-0.1,0.2h8.8c0-0.5,0,0.1-0.1-0.2c-0.2-2.1,1.2-1.3,1.6-1.6h3.4l0.6,0.3
			C27.5,6,27.8,6.5,27.9,7v21.6c0.1,1,0,2.1-0.4,3.1L22.4,31.7z"/>
		<path d="M13,30"/>
		<polygon points="17,16.6 12.7,21.2 8.4,25.8 26.2,25.8 21.6,21.2 		"/>
		<polygon points="16.6,14.3 17,13.9 17.3,14.1 17.5,14.3 20.4,17.2 23.7,17.2 17.1,10.6 10.9,17.2 13.9,17.2 		"/>
	</g>
</g>
</svg>
