<?xml version="1.0" encoding="utf-8"?>
<!-- Generator: Adobe Illustrator 24.1.2, SVG Export Plug-In . SVG Version: 6.00 Build 0)  -->
<svg version="1.1" id="Layer_1" xmlns="http://www.w3.org/2000/svg" xmlns:xlink="http://www.w3.org/1999/xlink" x="0px" y="0px"
	 viewBox="0 0 60.2 60.2" style="enable-background:new 0 0 60.2 60.2;" xml:space="preserve">
<style type="text/css">
	.st0{opacity:0.4;}
	.st1{fill:none;}
</style>
<g id="Layer_2_1_">
	<g id="Layer_4">
		<g class="st0">
			<path d="M17.5,33.2l-1.1,0.9l-1.7-13.8L8.4,34c-0.2,0.4-0.5,0.6-0.9,0.6H2.4c-0.6,0-1-0.4-1-1s0.4-1,1-1h4.5l7.5-16.3
				c0.2-0.5,0.8-0.7,1.3-0.5c0.3,0.1,0.5,0.4,0.6,0.8L18,30.7l0,0l-0.1,0.4l-0.3,1.3L17.5,33.2z"/>
			<path d="M19.5,39.9l0.2,0.1L19.3,42c-0.1,0.5-0.5,0.8-1,0.8c-0.5,0-0.9-0.4-0.9-0.9l-0.3-2.1l1.4-1.1
				C18.7,39.2,19.1,39.6,19.5,39.9z"/>
			<path d="M29.5,23.5l-2,1.5L27.1,8.8l-3.9,16.3l-2.5,2L27,0.8C27.1,0.3,27.5,0,28,0c0.5,0.1,0.9,0.5,0.9,1L29.5,23.5z"/>
			<path d="M37.1,31.3l0.4-0.3l-7.2,28.5c-0.1,0.5-0.5,0.8-1,0.8h-0.1c-0.5-0.1-0.9-0.5-0.9-1L28.1,48c0.2-0.1,0.5-0.2,0.7-0.2
				c0.4-0.1,0.9-0.2,1.3-0.2l0.1,4.3l1.3-5l0.1-0.1l0.2-0.2l0.3-0.4l-0.1-0.5v-0.3v-0.2l3.4-13.6l0.5,0.7l0.8-0.6L37.1,31.3z"/>
			<polygon points="43.1,31.2 43,30.1 43.2,31.4 			"/>
			<path d="M40.7,28.9l1.2,1.1l0.2,1.4v0.1v0.1l0.2,0.6l0.1,0.3l0.3,0.2l0.7,0.4l0.1,0.1l0.8,4.9l1.8-4.9l0.2-0.5l0,0l1-1.9
				l-0.2-0.3l0.2-0.6l0.2-0.6c0.2-0.5,0.8-0.8,1.3-0.6c0.1,0.1,0.2,0.1,0.3,0.2l4.6,4.6h4.1c0.6,0,1,0.4,1,1s-0.4,1-1,1h-4.5
				c-0.3,0-0.5-0.1-0.7-0.3l-3.8-3.8l-4.1,10.8c-0.2,0.5-0.8,0.8-1.3,0.6c-0.3-0.1-0.6-0.4-0.6-0.8L40.7,28.9"/>
		</g>
		<path class="st1" d="M22.9,26.8l0.4-0.3l1.1,0.2l0.6,0.7c0.6,0.1,0.7,0.2,0.8,0.3l1.9-1.5 M35.3,31.6l0.5,0.7l0.8-0.6l0.5-0.4
			l0.4-0.3 M18,30.7L18,30.7l-0.1,0.4l-0.3,1.3l-0.1,0.8l-1.1,0.9 M17.1,39.8l1.4-1.1c0.2,0.5,0.6,0.9,1.1,1.1l0.2,0.1 M28.1,48.1
			c0.2-0.1,0.5-0.2,0.7-0.2c0.4-0.1,0.9-0.2,1.3-0.2 M31.8,45.2v0.2v0.3l0.1,0.5l-0.3,0.4l-0.2,0.2l-0.1,0.1 M26.1,32L26.1,32"/>
		<path d="M54.4,15.4L53.8,15l-0.2-0.1l-0.3,0.1L52.9,15h-0.2l-0.3-0.4v-1.2v-1.2l-1,0.8l-0.9,0.7l-0.1-0.1l-0.1-0.4l0.1-0.1v-0.3
			c0-0.6,0.1-2.2,0.1-2.6c0.1-0.3,0-0.6-0.2-0.8c-0.1-0.1-0.3-0.2-0.5-0.2c-0.1,0-0.1,0-0.2,0c-0.1,0-0.2,0.1-0.2,0.1l0,0l0,0
			L48.7,10V10l-0.3-0.6l-0.5,0.4L41.2,15L41,15.1v0.2L41,15.9v0.3l-0.6,0.5c-0.1,0-0.2,0-0.3,0c-0.5,0-0.9,0.3-1,0.8L39,17.8l-1,0.8
			l-0.2,0.1l-0.9,0.7l-1.7,1.3l-0.2,0.1V21l0,0L35,21l-0.6-0.1L34,21.2l-0.9,0.7l-3.6,2.8l-2,1.5l-1.9,1.5c-0.1-0.2-0.2-0.2-0.8-0.3
			l-0.5-0.7l-1.1-0.2l-0.4,0.3L22,27.5v0.2l-1.2,0.9l-0.1,0.3l-0.3,0.3v0.1c-0.1,0.4-0.2,0.9-0.3,1.1L20,30.4l-1.1,0.9l-0.3,1.3h0.8
			L19.4,33l-1,0.8l-1.9,1.5L12,39h-0.9l-5.3,4.2l2.8,7.6h0.2h2.1h0.2c0.4-0.1,0.6-0.4,0.5-0.8c0-0.3-0.1-0.5-0.2-0.6l-0.1-0.1l0,0
			L10.6,49l-0.3-1.8c-0.1-0.4-0.2-0.8-0.4-1.1c-0.2-0.3-0.5-0.9-0.7-1.2l2.9-2.3l4.9-3.7l2.3-1.8v0.2v0.6v0.1V38
			c0.1,0.4,0.4,0.8,0.8,1.1h1.9c0.3-0.1,0.6-0.2,0.8-0.3c0.3-0.1,0.5-0.1,0.6-0.1v0l0.1,0.2l0.6,0.8c-0.2,0.3-0.4,0.6-0.4,1l0,0
			c0.1,1.4,0.2,2.8,0.5,4.2L24,45.6l-0.1,0.3l0.2,0.2l0.6,0.7l0.4,0.8c0.1,0.3,0.4,0.4,0.7,0.4h0.3c0.2-0.1,0.4-0.1,0.5-0.3
			c0.4-0.3,0.9-0.6,1.3-0.8l0.5-0.2c0.5-0.1,1-0.2,1.5-0.3h0.1h0.2l0.1-0.2l0.3-0.3l0.2-0.2l0-0.3L30.8,45l-0.1-0.3l-0.3-0.1
			L30,44.4l-0.2,0L29.1,43l0.1-0.4l0.1-0.3l-0.1-0.2l-0.3-0.4l-0.1-0.7l0.1-0.2l0.1-0.3l-0.1-0.2L28.5,40l-0.3-1.5l0.2-0.2l-0.7-0.6
			l-0.1-0.1v-0.1l-1.1-1.1L26.4,36L26,36.3l-0.6,0.4c-0.2-0.2-0.3-0.5-0.4-0.8v-0.1l0.1-0.1v-1.3l0.1,0.1c0.8,1,1.3,1.2,1.6,1.2
			c0.1,0,0.1,0,0.2,0l0,0H27c0.1-0.1,0.3-0.1,0.4-0.2c0.1,0.2,0.3,0.4,0.5,0.5c0.3,0.2,0.6,0.3,0.9,0.3c0.4,0,0.8-0.1,1.1-0.4h0.1
			h-0.1c-0.8-0.1-1.5-0.5-2-1.1c0.1-0.1,0.1-0.1,0.2-0.1l0,0l0.5-0.3l0.2-0.1l-0.3-0.1l0.3,0.1h0v0.1l0,0l0.9-0.7l0.8-0.6l3.9-2.8
			l0.2-0.1l0.2-0.1l0.1-0.2v-0.2l0.1,0.1l0.6,0.8l0,0.1L36,31l0.5-0.4l1.4-1.1l2.6-2l0.1-0.1l0.1,0.1l0.3,0.3l0.4,0.3l0.3-0.1
			l1.3,1.5l0.1,0.6l0.1,1l0.1,0.2l0.1,0.3l0.6,0.4l2.2-0.1l0.7-1.4l-0.3-0.6L45.7,26l0.3-0.9l-0.3-0.5L45,24.2l0.4-0.6l0.4,0.3
			l0.3-0.5l0.7-1h0.3h0.3l0.2-0.3l0.6-0.9H49l0.2-0.3l0.5-0.9h0.3h0.3l0.2-0.3l0.6-0.9h0.4h0.3l0.2-0.3l0.5-0.9l0.4,0.4l0.3-0.3
			l1.1-1.6l0.3-0.5L54.4,15.4z"/>
	</g>
</g>
</svg>
