<svg xmlns="http://www.w3.org/2000/svg" viewBox="0 0 48.85 48.84"><defs><style>.cls-1{opacity:0.4;}</style></defs><title>Asset 6</title><g id="Layer_2" data-name="Layer 2"><g id="Layer_2-2" data-name="Layer 2"><g class="cls-1"><path d="M24.43,0A24.39,24.39,0,0,0,5.13,39.36a2.72,2.72,0,0,1,.34-.42,1.61,1.61,0,0,1,.29-.24A23.49,23.49,0,0,1,38.93,5.94h0c.15-.17.3-.37.46-.57l.07-.08,0,0A24.29,24.29,0,0,0,24.43,0ZM44.09,10c0,.44-.11.88-.19,1.32A23.48,23.48,0,0,1,24.43,47.93a23.08,23.08,0,0,1-8.7-1.68v.23a2.29,2.29,0,0,1-.14.69,24,24,0,0,0,8.84,1.67A24.4,24.4,0,0,0,44.09,10Z"/></g><g class="cls-1"><path d="M24.43,4.61A19.73,19.73,0,0,0,4.72,24.32,19.5,19.5,0,0,0,8.48,35.86L9.3,35l.18-.18A18,18,0,0,1,6.12,24.32,18.33,18.33,0,0,1,24.43,6,18.11,18.11,0,0,1,33.8,8.6l.51-.51,1.19.41.18,0a.68.68,0,0,0,.21,0,.74.74,0,0,0,.18-.06A19.52,19.52,0,0,0,24.43,4.61ZM42.35,16.15c0,.07-.05.13-.08.19-.25.53-.5,1-.75,1.45a18,18,0,0,1,1.21,6.53A18.29,18.29,0,0,1,17.49,41.25l-.48.49-.57.57a19.41,19.41,0,0,0,8,1.71,19.73,19.73,0,0,0,19.7-19.7A19.44,19.44,0,0,0,42.35,16.15Z"/></g><g class="cls-1"><path d="M13,28.84a.75.75,0,0,0,.23.64l.1.1C13.19,29.34,13.08,29.09,13,28.84Zm11.45-19A14.28,14.28,0,0,0,10.17,24.11,14,14,0,0,0,11,28.83a1.09,1.09,0,0,1,0-.18A2.6,2.6,0,0,1,11.76,27l.51-.52A12.39,12.39,0,0,1,24.43,11.72a12.16,12.16,0,0,1,5.18,1.15l.39-.4,1-1A14.05,14.05,0,0,0,24.43,9.85ZM38.49,21.69l-.65.66-1.05,1.07q0,.34,0,.69A12.41,12.41,0,0,1,26.41,36.34a.13.13,0,0,1,0,.06,2.77,2.77,0,0,1-.64,1.91,14.27,14.27,0,0,0,12.91-14.2A14.73,14.73,0,0,0,38.49,21.69Z"/></g><path d="M24,36.47l-1.43-1.4-6.08-6L15.05,27.7l.34-.34-.05-.05a.79.79,0,0,0-1.09,0L13.19,28.4a.68.68,0,0,0-.21.44.75.75,0,0,0,.23.64l.1.1,2.11,2.07-.45.46-1.31,1.33-2.93,3-1,1L8.48,38.72a3,3,0,0,0-.78,1.47.87.87,0,0,0-.28,0,.71.71,0,0,0-.37.1.48.48,0,0,0-.17.12.76.76,0,0,0-.1.92.61.61,0,0,0,.12.16l5.53,5.42a.76.76,0,0,0,1.3-.49.79.79,0,0,0-.23-.59l-.87-.85a.42.42,0,0,1-.09-.24c-.07-.4.1-1.35,2-3.26l.06-.06,1-1,3.11-3.18L19.84,36l2.21,2.17h0a.79.79,0,0,0,.52.2.77.77,0,0,0,.34-.08.6.6,0,0,0,.21-.14l1.07-1.08a.77.77,0,0,0,.21-.57.79.79,0,0,0-.11-.36Z"/><path d="M41.93,5.37c-.31.42-.61.8-.9,1.16s-.39.49-.58.71A13.84,13.84,0,0,1,37.73,9.8a4.24,4.24,0,0,1-1.38.65,2.69,2.69,0,0,1-.67.09,2.65,2.65,0,0,1-.84-.15l-2.1,2.14-1.33,1.35L28.36,17l-3.49,3.56L26,21.64A.75.75,0,0,1,26,22.69a.68.68,0,0,1-.5.2.78.78,0,0,1-.56-.23l-1.1-1.08-1,1L24,23.68A.75.75,0,0,1,24,24.73a.7.7,0,0,1-.49.2A.82.82,0,0,1,23,24.7l-1.11-1.09-1,1L22,25.71A.75.75,0,0,1,22,26.76a.68.68,0,0,1-.5.2.78.78,0,0,1-.56-.23l-1.1-1.08-1.66,1.68-.34.35,6.08,6,.34-.35L36.41,21l1.49-1.52.53-.54a18.28,18.28,0,0,0,2-3.4c.22-.5.45-1,.66-1.62a16.93,16.93,0,0,0,1-4.86,12,12,0,0,0,0-1.34A14.3,14.3,0,0,0,41.93,5.37Zm-1.79,7.08L39.53,14a18.76,18.76,0,0,1-2.21,3.82l-.07.07L35.86,19.3l-12,12.24-1.11-1.08L35.11,17.84l1.18-1.2.15-.2L39,13.22l.88-1.14.66-.84C40.4,11.66,40.27,12.06,40.14,12.45Z"/></g></g></svg>