<?xml version="1.0" encoding="utf-8"?>
<!-- Generator: Adobe Illustrator 24.1.2, SVG Export Plug-In . SVG Version: 6.00 Build 0)  -->
<svg version="1.1" id="Layer_1" xmlns="http://www.w3.org/2000/svg" xmlns:xlink="http://www.w3.org/1999/xlink" x="0px" y="0px"
	 viewBox="0 0 55.9 55.9" style="enable-background:new 0 0 55.9 55.9;" xml:space="preserve">
<style type="text/css">
	.st0{opacity:0.4;enable-background:new    ;}
	.st1{opacity:0.4;}
</style>
<g id="Layer_2_1_">
	<g id="Layer_4">
		<path class="st0" d="M19.8,35L32,28.4l-12.1-6.7l0.8,2.4l0.4,1.3h-1.4h-5.8l2.2,2.2l0.7,0.7L16.1,29l-2.2,2.2h5.8h1.4l-0.5,1.4
			L19.8,35z M19.8,35L32,28.4l-12.1-6.7l0.8,2.4l0.4,1.3h-1.4h-5.8l2.2,2.2l0.7,0.7L16.1,29l-2.2,2.2h5.8h1.4l-0.5,1.4L19.8,35z
			 M38.7,28.4L38.7,28.4L15,15.3l2.4,7.3L5.2,22.5l5.8,5.8l-5.8,5.8l12.2,0.1l-2.5,7.2L38.7,28.4L38.7,28.4L38.7,28.4z M18,37.1
			l1.7-4.9l-8.2,0l3.9-3.9l-3.9-3.9h8.2l-1.6-4.9L34,28.4l0,0L18,37.1z M20.7,24.1l0.4,1.3h-1.4h-5.8l2.2,2.2l0.7,0.7L16.1,29
			l-2.2,2.2h5.8h1.4l-0.5,1.4l-0.9,2.4L32,28.4l-12.1-6.7L20.7,24.1z"/>
		<polygon points="20.6,32.6 21.1,31.3 19.7,31.3 13.9,31.2 16.1,29 16.8,28.3 16.1,27.6 13.9,25.4 19.7,25.4 21.1,25.5 20.7,24.1 
			19.9,21.7 32,28.4 19.8,35 		"/>
		<polygon class="st0" points="5.6,28.4 0,34 0,32.1 3.7,28.4 0,24.7 0,22.8 		"/>
		<polygon class="st0" points="9.1,28.4 3.5,34 3.5,32.1 7.1,28.4 3.5,24.7 3.5,22.8 		"/>
		<g class="st1">
			<path d="M45.8,27.6c0.1-1.1,4.7-4,4.7-4s-6.6,2-8.7-0.2s1.6-5.8,1.6-5.8s-3,3-4.3,2.7s-1.1-8.1-1.1-8.1s-1.1,7.2-2.7,7.2
				s-3.9-5.8-3.9-5.8c0.2,1.7,0.4,3.3,0.5,5l0,0c0.1,0.6,0.1,1.2,0,1.7c0,0.3-0.1,0.6-0.1,0.9c0,0,0,0.1,0,0.1c0,0,0,0.1,0,0.2l0,0
				c-0.1,0.3-0.2,0.5-0.3,0.8c0.3,0.3,0.6,1.4,1,1.1s0.8-0.8,1.3-3c0.4,0.4,1,0.6,1.6,0.6c0.6,0,1.3-0.2,1.7-0.6
				c0.2,0.4,0.4,0.7,0.7,1l0,0c0.3,0.3,0.7,0.5,1.1,0.6c0.2,0,0.4,0.1,0.6,0.1c0.1,1,0.5,1.9,1.2,2.6c0.1,0.1,0.2,0.2,0.3,0.3
				c1.1,0.8,2.5,1.3,3.9,1.2c-0.3,0.4-0.5,0.8-0.5,1.3c0,0.3,0,0.5,0,0.8c-1.1,0.2-2.1,0.9-2.6,1.9c-0.3,0.6-0.4,1.2-0.3,1.9
				c-1.5,0.2-2.7,1-3.5,2.3c-0.5,0.9-0.8,1.9-0.9,3c-0.4-0.1-0.8-0.1-1.1,0h-0.1c-0.1-0.4-0.4-0.7-0.7-1c-0.3-0.3-0.8-0.5-1.2-0.5
				c0-1-0.2-2.1-0.7-3c-0.2,2.5-0.9,4.9-2,7.1c0.8-1.2,2-2.7,2.6-2.6c0.9,0.1,1.5,7.2,1.5,7.2c0.1-1.9,0.4-3.7,0.9-5.5
				c0.8-2.3,5,4.3,5,4.3s-3.4-5.4-1.6-8.3s6.6-0.5,6.6-0.5s-3.8-1.8-2.9-3.6s9.2-0.8,9.2-0.8S45.7,28.7,45.8,27.6z"/>
			<polygon points="49,27.3 55.4,27.3 55.9,25.4 			"/>
			<polygon points="35.2,12 33.7,11.6 35.2,17 			"/>
			<polygon points="40.8,15.2 39.8,18.7 41.5,15.9 			"/>
			<polygon points="42.4,41 43.6,40.7 41.2,36.4 			"/>
			<polygon points="44.3,38.1 44.9,37.5 42.2,35.5 			"/>
			<polygon points="47.6,21.9 47.3,21 44.3,22.7 			"/>
			<polygon points="49.1,33.7 49.8,32.7 45.5,30.8 			"/>
			<polygon points="46.6,15.9 43.7,21.5 47.9,17 			"/>
		</g>
	</g>
</g>
</svg>
