<?xml version="1.0" encoding="utf-8"?>
<!-- Generator: Adobe Illustrator 24.1.2, SVG Export Plug-In . SVG Version: 6.00 Build 0)  -->
<svg version="1.1" id="Layer_1" xmlns="http://www.w3.org/2000/svg" xmlns:xlink="http://www.w3.org/1999/xlink" x="0px" y="0px"
	 viewBox="0 0 47.1 47.1" style="enable-background:new 0 0 47.1 47.1;" xml:space="preserve">
<style type="text/css">
	.st0{opacity:0.4;enable-background:new    ;}
</style>
<g id="Layer_2_1_">
	<g id="Layer_4">
		<path class="st0" d="M30.6,19.6l-3.2,0.2c-0.7-3.5-2.1-6.9-4-9.9C26.8,12.3,29.4,15.7,30.6,19.6z"/>
		<path class="st0" d="M27.1,27.9l3.4-0.1c-0.8,4.6-3.3,8.8-7,11.7C25.5,35.9,26.8,32,27.1,27.9z"/>
		<path class="st0" d="M36.9,17.4c-1-6.2-3.2-12.1-6.5-17.4c6,4.1,10.2,10.2,11.8,17.3c0.1,0.5,0.3,1.1,0.3,1.7l-4.8,0.3h-0.4h-0.2
			c0-0.3-0.1-0.5-0.1-0.5v-0.2C37.1,18.5,37,17.8,36.9,17.4z"/>
		<path class="st0" d="M41.4,27.6l0.6-0.1c-0.2,1.8-0.6,3.6-1.1,5.3c-1.8,5.7-5.3,10.7-10,14.3c3.4-5.9,5.3-12.5,5.8-19.3l0.7-0.2
			l1.2-0.3v0.6l0.9-0.2l1-0.3v0.4L41.4,27.6z"/>
		<path class="st0" d="M19.4,20.1l-2.1,0.1l0,0c-0.5-1.9-1.4-3.8-2.5-5.4C16.8,16.1,18.4,18,19.4,20.1z"/>
		<path class="st0" d="M17.2,28.6l2.4-0.1c-0.7,3-2.4,5.7-4.9,7.5C16,33.7,16.9,31.2,17.2,28.6z"/>
		<path d="M35.2,20.3l-0.9,1l-1,0.2l-2.2,1.9l-2.7,2.3h-0.6l-7.3,0.3L17.9,26H17v-1.2h-4.3h-0.2c-1,0-1-1-1-1l1.1-1.5
			c0.5-0.4,0.9-0.7,1.4-1l3.3-0.2l2.2-0.1l7.8-0.4l3.3-0.1L35.2,20.3z"/>
		<path d="M44.7,24.6l1.2,1.1l-2.3,1.1v-0.6l-1.1,0.3l-0.8,0.2v-0.4l-2,0.5v-0.6l-2.1,0.5v-0.6l-0.4,0.1l-1.6,0.5l0-0.5l-2,0.7v-0.6
			l-1,0.5L31,27l-3.4,0.1l-1.1,0h-0.1v-0.7h0.1h1.2l1.6-0.1V26l2-1.5l2.9-2.3c0,0,2-0.4,2.1-0.4c0.3-0.3,0.6-0.6,0.8-0.9l0.4-0.6
			l4.9-0.3l4.2-0.2l-2,2.2v0.4h1v0.4l-1,0.8L44.7,24.6z"/>
		<polygon points="12.1,26.4 12.1,26.5 12.1,26.5 		"/>
		<polygon points="25.9,27.2 25.8,27.2 20.3,27.4 17.9,27.5 13.2,27.6 12.8,26.7 13.2,26.4 13.1,26.2 15.8,26.1 15.8,26.8 18,26.7 
			20.4,26.6 25.8,26.4 25.9,26.4 		"/>
		<path d="M12.4,26.6L12.4,26.6l-0.3,0.2l-2.5,2l-2-0.5l-4.7,0.5L1.8,30l-1.2-4l1.3-1.7l5.3,0.2l1.1,1l2.2-1c0.1,0.9,0.7,1,1,1
			c0.1,0,0.2,0,0.3,0l0.2,0.3L12.4,26.6L12.4,26.6L12.4,26.6L12.4,26.6L12.4,26.6z"/>
	</g>
</g>
</svg>
