<?xml version="1.0" encoding="utf-8"?>
<!-- Generator: Adobe Illustrator 24.1.2, SVG Export Plug-In . SVG Version: 6.00 Build 0)  -->
<svg version="1.1" id="Layer_1" xmlns="http://www.w3.org/2000/svg" xmlns:xlink="http://www.w3.org/1999/xlink" x="0px" y="0px"
	 viewBox="0 0 51.8 51.8" style="enable-background:new 0 0 51.8 51.8;" xml:space="preserve">
<style type="text/css">
	.st0{opacity:0.4;enable-background:new    ;}
</style>
<g id="Layer_2_1_">
	<g id="Layer_10">
		<polygon class="st0" points="23.8,34.7 21,42.9 0,42.9 17.3,16.8 25.6,16.8 20.4,21.6 16.9,24.9 21.7,25.1 27,25.3 		"/>
		<polygon class="st0" points="51.8,16.8 33.8,42.9 21.2,42.9 27.1,36.8 43.2,20.1 46.4,16.8 		"/>
		<polygon points="51.4,38 46.5,38 46.5,33 44.5,33 44.5,38 39.6,38 39.6,39.9 44.5,39.9 44.5,44.9 46.5,44.9 46.5,39.9 51.4,39.9 
					"/>
		<polygon points="41.7,18.8 34.6,18.6 35.3,16.9 39.1,7 28.5,16.9 21.7,23.1 29.8,23.4 25.7,35.4 		"/>
	</g>
</g>
</svg>
