<?xml version="1.0" encoding="utf-8"?>
<!-- Generator: Adobe Illustrator 24.1.2, SVG Export Plug-In . SVG Version: 6.00 Build 0)  -->
<svg version="1.1" id="Layer_1" xmlns="http://www.w3.org/2000/svg" xmlns:xlink="http://www.w3.org/1999/xlink" x="0px" y="0px"
	 viewBox="0 0 36.8 36.8" style="enable-background:new 0 0 36.8 36.8;" xml:space="preserve">
<style type="text/css">
	.st0{opacity:0.4;enable-background:new    ;}
</style>
<g id="Layer_2_1_">
	<g id="Layer_3">
		<path class="st0" d="M35.3,15.1v5.9l1.5,1v3.3c0,1.7-1.4,3.2-3.2,3.2H32V7.3h1.7c0.2,0,0.4,0,0.5,0c0.3,0.1,0.6,0.2,0.9,0.3
			c1,0.6,1.6,1.6,1.6,2.8v3.8L35.3,15.1z M3.2,7.8h1V29h-1c-0.2,0-0.4,0-0.5,0c-0.3-0.1-0.6-0.2-0.9-0.3C0.7,28,0,27,0,25.8v-3.8
			l1.6-0.9v-5.9l-1.6-1v-3.3C0,9.2,1.4,7.8,3.2,7.8C3.2,7.8,3.2,7.8,3.2,7.8z"/>
		<path d="M30.5,7.3V5.4c0-2.1-1.6-3.7-3.7-3.7c0,0,0,0,0,0H23l-1.2,1.8h-7l-1-1.8H9.4c-1.3,0-2.6,0.7-3.2,1.9C6,3.7,6,3.9,5.9,4.1
			C5.8,4.5,5.7,4.9,5.7,5.3v26c0,2,1.7,3.7,3.7,3.7h0h3.9l1.1-1.8h7l1.1,1.8h4.4c1.3,0,2.5-0.7,3.1-1.9c0.2-0.3,0.3-0.7,0.4-1.1
			c0-0.2,0.1-0.4,0.1-0.6v-3L30.5,7.3z M24.9,23.5c-1.5,1.8-3.6,3-5.9,3.2c-0.3,0-0.6,0-0.9,0c-4.8,0-8.8-3.9-8.8-8.7
			c0-1.1,0.2-2.2,0.6-3.2c0.3-0.9,0.8-1.7,1.4-2.4c3.1-3.8,8.6-4.3,12.4-1.3S28,19.8,24.9,23.5z"/>
		<path d="M25.8,17.2c-0.4-4-3.7-7-7.7-7h-0.8c-4.3,0.4-7.4,4.3-7,8.5s4.3,7.4,8.5,7c4-0.4,7-3.7,7-7.7
			C25.9,17.7,25.9,17.4,25.8,17.2z M24.2,17.7v2h-4.4v4.4h-3.5v-4.4h-4.4v-3.4h4.4v-4.4h3.4v4.4h4.4L24.2,17.7z"/>
	</g>
</g>
</svg>
