<?xml version="1.0" encoding="utf-8"?>
<!-- Generator: Adobe Illustrator 24.1.2, SVG Export Plug-In . SVG Version: 6.00 Build 0)  -->
<svg version="1.1" id="Layer_1" xmlns="http://www.w3.org/2000/svg" xmlns:xlink="http://www.w3.org/1999/xlink" x="0px" y="0px"
	 viewBox="0 0 51.7 51.7" style="enable-background:new 0 0 51.7 51.7;" xml:space="preserve">
<style type="text/css">
	.st0{opacity:0.4;enable-background:new    ;}
</style>
<g id="Layer_2_1_">
	<g id="Layer_7">
		<polygon class="st0" points="10.7,34.3 37.1,34.3 34,38.9 0,39.2 17.3,13.1 23.7,13.1 14.4,22.2 15.9,22.2 22.8,22.2 		"/>
		<polygon class="st0" points="51.7,13.2 42.3,26.9 37.2,22.2 45.3,22.2 35.9,13.1 		"/>
	</g>
	<g id="Layer_10">
		<polygon points="51.4,34.2 46.5,34.2 46.5,29.3 44.5,29.3 44.5,34.2 39.6,34.2 39.6,36.2 44.5,36.2 44.5,41.1 46.5,41.1 
			46.5,36.2 51.4,36.2 		"/>
		<polygon points="40.4,29.6 36,25.2 32.9,22.2 29.6,18.9 26.5,22.2 26.5,22.2 23.6,25.2 17.6,31.6 39,31.6 42.5,31.6 		"/>
		<polygon points="32.3,13.1 29.7,10.6 27.4,13.1 21.2,19.6 25.4,19.6 29.1,15.6 29.7,15 30,15.3 30.3,15.6 34.4,19.6 38.9,19.6 		
			"/>
	</g>
</g>
</svg>
