<?xml version="1.0" encoding="utf-8"?>
<!-- Generator: Adobe Illustrator 24.1.2, SVG Export Plug-In . SVG Version: 6.00 Build 0)  -->
<svg version="1.1" id="Layer_1" xmlns="http://www.w3.org/2000/svg" xmlns:xlink="http://www.w3.org/1999/xlink" x="0px" y="0px"
	 viewBox="0 0 60.4 60.4" style="enable-background:new 0 0 60.4 60.4;" xml:space="preserve">
<style type="text/css">
	.st0{opacity:0.4;fill:#555555;enable-background:new    ;}
	.st1{fill:#555555;}
	.st2{fill:#565656;}
	.st3{opacity:0.4;fill:#565656;enable-background:new    ;}
</style>
<g id="Layer_2_1_">
	<g id="Layer_2-2">
		<path class="st0" d="M59.4,42.8c-0.5-0.4-1-0.7-1.6-1c-0.4-0.2-0.8-0.4-1.2-0.6l-0.6-0.3c-0.8-0.3-1.5-0.7-2.2-1.2
			c0-0.1-0.1-0.1-0.1-0.2c0-0.3,0.1-0.5,0.2-0.7c0.1-0.1,0.1-0.2,0.2-0.3c0,0,0-0.1,0-0.1c0-0.6-0.3-1.2-0.7-1.7
			c-1.5-1.2-3.3-2.1-5.2-2.4c-0.8-0.2-1.7-0.4-2.6-0.5h-0.1c-0.7,1.1-1.5,2.2-2.3,3.2c-1,1.2-2,2.2-3.2,3.2l-2.5,1.9
			c-1,0.7-2,1.3-3,1.8l-0.9,0.5L32.8,44c-1.2-0.6-2.4-1.3-3.5-2.2c-1.4-1-2.8-2.2-4-3.5c-1.9,4.8-7.3,7.2-12.1,5.3
			c-2.2-0.9-4-2.5-5-4.7l-0.6,0.3l-1.5,0.7c-1.7,0.7-3.2,1.5-4.7,2.5C0.5,43,0,43.6,0,44.3c0,0.2,0,0.5,0.1,0.7
			c0,0.1,0.1,0.2,0.1,0.2c0.1,0.2,0.1,0.3,0.2,0.5L0.6,46c0.1,0.1,0.2,0.3,0.3,0.4l0.3,0.3c0.1,0.1,0.2,0.3,0.4,0.4
			c0.1,0.1,0.2,0.2,0.3,0.3l0.5,0.4l0.4,0.3l0.6,0.4l0.4,0.3l0.7,0.4l0.4,0.2c0.3,0.1,0.6,0.3,0.9,0.4L6,49.8
			c0.4,0.2,0.9,0.3,1.4,0.5l0.4,0.1l1.1,0.3l0.6,0.1l1,0.2c0.2,0,0.4,0.1,0.7,0.1l1,0.2c0.2,0,0.5,0.1,0.7,0.1l1,0.1l0.8,0.1l1.1,0
			h2.6c0.6,0,1.3-0.1,1.9-0.1s1.3-0.1,2-0.1h5.3c0.3,0,0.7,0,1,0.1h0.1c0.4,0,0.7,0.1,1,0.1H30l0.7,0.1H31l0.6,0.1l0.3,0.1l0.6,0.1
			h0.3l0.6,0.1l1,0.2h0.2l0.5,0.1h0.3c0.2,0,0.3,0,0.5,0.1c0.1,0,0.2,0,0.3,0l0.5,0h1c1.4,0,2.8-0.1,4.1-0.5c0.5-0.1,1-0.3,1.5-0.5
			c0.5-0.2,0.9-0.4,1.3-0.7c0.6-0.3,1.1-0.7,1.7-1.2c0.8-0.5,1.7-0.8,2.7-1l1,0l1.7-0.4c1-0.3,2-0.5,3-0.8c0.4-0.1,0.8-0.2,1.2-0.3
			l0.6-0.2l1-0.4c0.3-0.1,0.6-0.3,0.9-0.4c0.4-0.2,0.7-0.4,1.1-0.6c0.3-0.2,0.5-0.4,0.6-0.7c0.1-0.2,0.1-0.3,0.1-0.5
			C60.2,43.7,59.9,43.2,59.4,42.8L59.4,42.8z"/>
		<path class="st1" d="M39.1,38.5c0.9-0.9,1.8-1.8,2.7-2.8C41,36.7,40.1,37.6,39.1,38.5z M29.1,39.1c0.4,0.4,0.9,0.7,1.4,1.1
			s1,0.7,1.5,1c-0.5-0.3-1-0.7-1.5-1S29.6,39.5,29.1,39.1z M36.9,40.3c-0.5,0.3-1,0.7-1.5,1C35.9,40.9,36.4,40.6,36.9,40.3z"/>
		<path class="st2" d="M41.8,35.7c0.3-0.4,0.6-0.8,0.9-1.1s0.5-0.7,0.8-1.1s0.4-0.6,0.6-0.9l0.1-0.2c0.2-0.4,0.5-0.8,0.7-1.2
			c0.3-0.5,0.5-1,0.7-1.4c0.4-0.8,0.5-1.3,0.5-1.3l2.9-14.4L33.8,7.6l-2.4,1l3.7,10l-6.4-8.8l-1,0.4l-1,0.4l9.6,22.9l2.9,4.9
			C40.1,37.6,41,36.7,41.8,35.7z M24.5,29.8l0.1,0.2c0.9,1.5,1.4,3.1,1.4,4.8c0,0.4,0,0.7-0.1,1.1c0.3,0.3,0.5,0.6,0.8,0.9
			c0.8,0.8,1.6,1.6,2.4,2.3c0.4,0.4,0.9,0.7,1.4,1.1s1,0.7,1.5,1c0.5,0.3,1.1,0.7,1.7,1c0.6-0.3,1.2-0.6,1.7-1s1-0.6,1.5-1H37
			l0.6-0.4l-3.1-5.3L34,33.6l-0.6-1L21.6,12.8l-3.1,1.3l1.9,9.2L24.5,29.8z"/>
		<path class="st3" d="M16.6,42.2c4.1,0,7.4-3.3,7.4-7.3c0-1.4-0.4-2.8-1.1-4l-6.2-9.8l-6.2,9.8c-2.2,3.4-1.2,8,2.3,10.2
			C13.8,41.8,15.2,42.2,16.6,42.2z"/>
	</g>
</g>
</svg>
