<?xml version="1.0" encoding="utf-8"?>
<!-- Generator: Adobe Illustrator 24.1.2, SVG Export Plug-In . SVG Version: 6.00 Build 0)  -->
<svg version="1.1" id="Layer_1" xmlns="http://www.w3.org/2000/svg" xmlns:xlink="http://www.w3.org/1999/xlink" x="0px" y="0px"
	 viewBox="0 0 54.2 54.2" style="enable-background:new 0 0 54.2 54.2;" xml:space="preserve">
<style type="text/css">
	.st0{fill:#565656;}
	.st1{opacity:0.4;fill:#565656;enable-background:new    ;}
</style>
<g id="Layer_2_1_">
	<g id="Layer_2-2">
		<path class="st0" d="M3.9,34.5C3.3,33.9,3,33.1,3,32.3c0-2,2.1-4,5.8-5.7c-0.4-0.9-0.7-1.9-0.9-2.9C2.9,25.8,0,28.8,0,32.3
			c0,1.6,0.6,3.1,1.7,4.3C2.3,35.8,3,35.1,3.9,34.5z"/>
		<path class="st0" d="M3.9,38.6c0.7-0.8,1.4-1.5,2.3-2.1c-0.9-0.6-1.7-1.3-2.3-2.1c-0.8,0.6-1.6,1.3-2.2,2.1
			C2.3,37.3,3.1,38,3.9,38.6z"/>
		<path class="st1" d="M3.9,38.6c0.7-0.8,1.4-1.5,2.3-2.1c-0.9-0.6-1.7-1.3-2.3-2.1c-0.8,0.6-1.6,1.3-2.2,2.1
			C2.3,37.3,3.1,38,3.9,38.6z"/>
		<path class="st0" d="M48,36.6c-4,2.6-11.5,4.7-20.9,4.7s-16.9-2.1-20.9-4.7c-0.9,0.6-1.7,1.2-2.3,2.1c4.7,3.4,13.1,5.7,23.2,5.7
			s18.5-2.2,23.2-5.6C49.6,37.9,48.9,37.1,48,36.6z M51.2,32.3c0,0.8-0.3,1.6-0.9,2.2c0.8,0.6,1.6,1.3,2.2,2.1
			c1-1.2,1.6-2.7,1.7-4.3c0-3.4-2.9-6.4-7.8-8.6c-0.2,1-0.5,2-0.9,2.9C49.1,28.2,51.2,30.3,51.2,32.3z"/>
		<path class="st1" d="M50.3,34.5c-2.3-1.6-4.8-2.7-7.4-3.5c-0.7,0.9-1.4,1.7-2.3,2.5c2.6,0.6,5.1,1.7,7.4,3.1
			C48.9,36,49.6,35.3,50.3,34.5z"/>
		<path class="st1" d="M27.1,52.8c15.4,0,27.1-5.2,27.1-12c0-1.6-0.6-3.1-1.7-4.3c-0.7,0.8-1.4,1.5-2.2,2.1c0.5,0.6,0.8,1.4,0.9,2.2
			c0,4.3-9.9,9-24.1,9S3,45.1,3,40.9c0-0.8,0.3-1.6,0.9-2.2c-0.8-0.6-1.6-1.3-2.2-2.1c-1,1.2-1.6,2.7-1.7,4.3
			C0,47.7,11.6,52.8,27.1,52.8z"/>
		<path class="st1" d="M11.3,31c-2.6,0.8-5.1,1.9-7.4,3.5c0.7,0.8,1.4,1.5,2.3,2.1c2.3-1.4,4.7-2.4,7.3-3.1
			C12.7,32.7,12,31.9,11.3,31z"/>
		<path class="st0" d="M50.3,34.5c-0.6,0.8-1.4,1.5-2.3,2.1c0.9,0.6,1.7,1.2,2.3,2.1c0.8-0.6,1.6-1.3,2.2-2.1
			C51.9,35.8,51.1,35.1,50.3,34.5z"/>
		<path class="st1" d="M50.3,34.5c-0.6,0.8-1.4,1.5-2.3,2.1c0.9,0.6,1.7,1.2,2.3,2.1c0.8-0.6,1.6-1.3,2.2-2.1
			C51.9,35.8,51.1,35.1,50.3,34.5z"/>
		<path class="st0" d="M27.1,1.3c-9.8,0-17.8,8-17.8,17.8s8,17.8,17.8,17.8c9.8,0,17.8-8,17.8-17.8C44.9,9.3,36.9,1.3,27.1,1.3z
			 M39.6,22.3h-9.4l0,8.4v1.1h-6.3v-1.1l0-8.4h-9.4v-6.3H24V6.6h6.3v1l0,8.4h9.4L39.6,22.3z"/>
	</g>
</g>
</svg>
