<?xml version="1.0" encoding="utf-8"?>
<!-- Generator: Adobe Illustrator 24.1.2, SVG Export Plug-In . SVG Version: 6.00 Build 0)  -->
<svg version="1.1" id="Layer_1" xmlns="http://www.w3.org/2000/svg" xmlns:xlink="http://www.w3.org/1999/xlink" x="0px" y="0px"
	 viewBox="0 0 52.1 52.1" style="enable-background:new 0 0 52.1 52.1;" xml:space="preserve">
<style type="text/css">
	.st0{opacity:0.4;fill:#555555;enable-background:new    ;}
	.st1{fill:#555555;}
	.st2{fill:#565656;}
</style>
<g id="Layer_2_1_">
	<g id="Layer_2-2">
		<path class="st0" d="M49.8,21.7c-0.1-0.1-0.1-0.2-0.1-0.3c0-0.1-0.1-0.2-0.1-0.3c0,0.1,0.1,0.2,0.1,0.3
			C49.7,21.5,49.7,21.6,49.8,21.7z M51.8,16.4L51.8,16.4L51.8,16.4z M49.1,18.9c0-0.2,0-0.3,0-0.5c0-0.4,0.1-0.9,0.2-1.3
			c-0.1,0.4-0.2,0.9-0.2,1.3C49.1,18.6,49.1,18.8,49.1,18.9z M51.6,16.8c-0.3-0.2-0.7-0.3-1-0.5c0,0-0.1,0-0.1,0
			c-0.1,0-0.2,0-0.3,0.1c-0.3,0.6-0.5,1.3-0.6,2.1c0,0.9,0.1,1.7,0.5,2.6l0.1,0.2c0.1,0.2,0.2,0.5,0.4,0.7l0.3-0.1
			c0.1-0.1,0.2-0.2,0.3-0.3c0.1-0.1,0.2-0.2,0.4-0.3c-0.4-1.4-0.4-2.9,0.2-4.3L51.6,16.8z M30.1,16L30,15.6
			c-0.1-0.2-0.1-0.5-0.1-0.7c-2.6,0-5.4-0.1-8.4-0.1C9.6,14.8,0,15.2,0,15.6c0,0.5,9.6,0.8,21.5,0.9c3.3,0,6.4,0,9.2-0.1l-0.3-0.2
			L30.1,16z M21.5,20.1c-4.6,0-8.3,0.3-8.3,0.7s3.7,0.7,8.3,0.7h0.1c0.5-0.5,1.1-1,1.6-1.4L21.5,20.1z M31,10.2l0.1-0.2
			c-1.5,0-3.2-0.1-5-0.1c-7.1,0-12.9,0.3-12.9,0.7c0,0.4,5.8,0.7,12.9,0.7h4.2l0.2-0.3L31,10.2z M18.3,25.2
			c-8.5,0-15.4,0.4-15.4,0.8s6.9,0.8,15.3,0.9h0.6c0.1-0.6,0.3-1.1,0.5-1.6H18.3z"/>
		<path class="st1" d="M29.1,25.9c-0.2,0-0.4,0-0.5,0C28.8,25.9,29,25.9,29.1,25.9L29.1,25.9z"/>
		<path class="st0" d="M29,40.3l0.2-0.6h-1c-8.5,0-15.4,0.3-15.4,0.8s6.9,0.8,15.3,0.8h2.5l-1-0.6L29,40.3z M25.1,44.4
			c-8.5,0-15.3,0.3-15.4,0.8S16.7,46,25.1,46c5.4,0,10.1-0.1,12.9-0.4l-1.7-1C33.5,44.5,29.5,44.4,25.1,44.4z"/>
		<path class="st1" d="M26.5,30.4l0.1,0.1L26.5,30.4L26.5,30.4z"/>
		<path class="st0" d="M18.7,30.3c-3.2,0.1-5.5,0.4-5.5,0.6s2.4,0.6,5.8,0.7c-0.1-0.3-0.1-0.6-0.2-0.8
			C18.8,30.6,18.7,30.5,18.7,30.3z"/>
		<path class="st1" d="M27.5,31.5"/>
		<path class="st0" d="M20.8,35.3h-2.5c-8.5,0-15.3,0.4-15.3,0.8c0,0.5,6.9,0.8,15.3,0.9h4.1C21.8,36.5,21.3,35.9,20.8,35.3z"/>
		<path class="st1" d="M23.7,36.7l0.3,0.2L23.7,36.7z M37.8,15.4c0-0.1,0-0.1,0.1-0.2c0.1-0.3,0.2-0.7,0.2-1c0-0.3,0.1-0.6,0.2-0.8
			c-1.3-0.9-2.6-1.7-4-2.4l-0.9-0.4h-0.7c-0.1,0-0.2,0-0.3,0H32l-0.5,0.9c0.1,0.5,0.3,0.9,0.5,1.4C33.7,13.5,36.5,14.8,37.8,15.4z
			 M46.7,7.1l0.4,0.6c0.2,0.3,0.5,0.8,0.8,1.2C48,9,48.1,9.2,48.2,9.4c0.7,1.3,1.2,2.7,1.4,4.2c0.5,0.3,0.9,0.6,1.3,0.9h0.5
			c0,0,0.1-0.1,0.1-0.1c0-1.1-0.2-2.2-0.6-3.3c-0.2-0.4-0.3-0.9-0.5-1.3c-0.6-1.4-1.5-2.6-2.6-3.7c-0.1,0-0.1,0-0.2,0
			c-0.1,0-0.1,0-0.2,0l-0.2,0.1h-0.1l-0.1,0.1h-0.1l-0.1,0.1h-0.1l-0.1,0.1h-0.1l-0.1,0.1c0,0,0,0.1,0,0.1v0.1
			C46.5,6.8,46.6,6.9,46.7,7.1z M48.8,13.1c-0.3-1.2-0.7-2.3-1.3-3.4c-0.2-0.4-0.4-0.7-0.7-1c0,0,0,0-0.1,0h-0.1v0.1l-0.1,0.1v0.1
			l-0.3,0.1v0.1c0,0,0,0.1,0,0.1c0,0,0,0,0,0.1c0,0,0,0.1,0,0.1v0.1c0,0,0.1,0.1,0.1,0.1c0.2,0.2,0.3,0.4,0.4,0.6
			c0.2,0.3,0.4,0.7,0.5,1c0.2,0.4,0.3,0.8,0.4,1.2l0.8,0.4L48.8,13.1z M32.5,17.5l-1.4,0.6l0.1,0.3c0.6,0.2,1.3,0.4,1.9,0.7
			c3.4,1.3,5.9,4.4,6.5,8c0.2,1.2,0.2,2.3,0,3.5l0.1,0.1l0.2,0.2l0.3,0.2l0.5,0.4l0.1-0.1c0.1-0.1,0.2-0.1,0.3-0.1h0.2
			c0.1,0,0.2,0,0.3,0.1c0.1,0.1,0.3,0.2,0.4,0.3l0.3,0.2c0.2,0.2,0.5,0.4,0.8,0.6s0.3,0.3,0.5,0.4l1,0.9c0.3,0.3,0.7,0.7,1,1.1
			c1,1,2,2.1,2.9,3.3c0-0.2-0.1-0.4-0.1-0.6s-0.1-0.5-0.2-0.7s-0.2-0.8-0.3-1.3l-0.1-0.5l-0.4-1.5c-0.1-0.5-0.3-1.1-0.4-1.6
			c-0.4-1.6-0.9-3.2-1.2-4.4l-0.6-2l-0.2-0.3l-0.1-0.4c-3.2-1.9-8.3-5-11.5-7L32.5,17.5z M39.4,44.2l-1.2-0.8L37,42.6
			c-1.2-0.9-2.3-1.6-2.6-1.8c-0.2-0.1-0.2-0.3-0.2-0.5c0-0.2,0.1-0.4,0.2-0.7c0.1-0.2,0.2-0.4,0.3-0.5l0.1-0.2l-0.6-0.6
			c-1,0.5-2,0.9-3.1,1.1c-0.2,0-0.5,0.1-0.7,0.1l-0.1,0.5l3.1,1.8l1.8,1.1l1.8,1.1l1.6,0.9l0.2,0.1l1,0.6l0.2,0.1l0.3,0.2
			c0,0,0.1,0,0.1,0h1.3l-0.1-0.1C40.7,45.2,40,44.7,39.4,44.2z"/>
		<path class="st2" d="M34.6,27.9c-0.5-3-3.5-5.1-6.5-4.5c-3,0.5-5.1,3.5-4.5,6.5s3.5,5.1,6.5,4.5c0,0,0,0,0,0
			C33.2,33.9,35.2,31,34.6,27.9z M31.6,30.6c-0.2,0.3-0.5,0.6-0.8,0.8c-0.3,0.2-0.7,0.4-1.1,0.4c-0.2,0-0.4,0-0.5,0h-0.2
			c-0.1,0-0.2,0-0.4,0l-0.2,0L28,31.7l-0.2-0.1c-0.1,0-0.2-0.1-0.3-0.1l-0.2-0.1l-0.3-0.3l-0.2-0.1c-0.1-0.1-0.1-0.2-0.2-0.3
			l-0.1-0.2l-0.1-0.1c0-0.1-0.1-0.2-0.1-0.2L26.3,30c-0.1-0.2-0.1-0.4-0.2-0.5c0-0.2,0-0.4,0-0.6c0-0.8,0.3-1.5,0.9-2.1
			c0.1-0.1,0.3-0.3,0.5-0.4c0.3-0.2,0.7-0.4,1.1-0.4c0.2,0,0.4-0.1,0.5,0h0.6l0.2,0.1c0.1,0,0.2,0.1,0.3,0.1c0.1,0,0.1,0.1,0.2,0.1
			l0.3,0.2l0.2,0.1l0.3,0.2c0.1,0,0.1,0.1,0.2,0.2c0.1,0.1,0.2,0.2,0.2,0.3l0.1,0.2c0.1,0.1,0.1,0.2,0.2,0.3c0,0.1,0,0.1,0.1,0.2
			c0.1,0.2,0.1,0.4,0.2,0.6C32.3,29.1,32.1,30,31.6,30.6L31.6,30.6z"/>
		<path class="st2" d="M29.6,38.4h0.3c0.3,0,0.6-0.1,0.9-0.1c5.2-0.9,8.6-5.9,7.7-11c0,0,0,0,0,0c-0.1-0.3-0.1-0.6-0.2-0.9l-0.1-0.2
			c-0.1-0.2-0.1-0.4-0.2-0.6c0-0.1-0.1-0.2-0.1-0.3c-0.1-0.2-0.1-0.3-0.2-0.5c-0.1-0.1-0.1-0.2-0.2-0.3c-0.1-0.2-0.2-0.3-0.3-0.5
			L37,23.6c-0.1-0.1-0.2-0.3-0.3-0.4l-0.2-0.3l-0.3-0.4l-0.2-0.3c-0.1-0.1-0.3-0.3-0.4-0.4c-0.1-0.1-0.1-0.1-0.2-0.2
			c-0.2-0.2-0.4-0.4-0.7-0.5c-0.2-0.2-0.5-0.3-0.7-0.5l-0.3-0.1l-0.5-0.3l-0.4-0.2l-0.5-0.2l-0.4-0.1l-0.5-0.1l-0.4,0l-0.5-0.1h-2.2
			c-0.3,0-0.6,0.1-0.9,0.1c-5.2,0.9-8.6,5.9-7.7,11.1c0,0,0,0,0,0c0.1,0.3,0.1,0.6,0.2,0.9l0.1,0.3c0.1,0.2,0.1,0.4,0.2,0.6
			c0.1,0.2,0.1,0.2,0.1,0.3s0.1,0.3,0.2,0.5s0.1,0.2,0.2,0.3s0.2,0.3,0.3,0.5l0.2,0.3c0.1,0.1,0.2,0.3,0.3,0.4l0.2,0.3l0.3,0.4
			l0.2,0.3l0.4,0.4l0.2,0.2c0.2,0.2,0.4,0.4,0.7,0.5l0.3,0.2l0.4,0.3l0.3,0.1l0.5,0.3l0.3,0.1l0.5,0.2l0.4,0.1l0.5,0.1l0.4,0.1
			l0.5,0.1L29.6,38.4L29.6,38.4z M22.6,30.1c-0.7-3.6,1.7-7,5.3-7.6c0,0,0.1,0,0.1,0c0.4-0.1,0.8-0.1,1.2-0.1c3.6,0,6.6,3,6.6,6.6
			c0,3.2-2.3,5.9-5.4,6.5c-0.4,0.1-0.8,0.1-1.2,0.1C26,35.5,23.2,33.2,22.6,30.1L22.6,30.1z"/>
		<path class="st1" d="M47.2,23.1V23L47,22.6c-0.6-1.5-1.5-2.9-2.6-4.1c-1.6-1.7-3.3-3.2-5.3-4.4c0,0,0,0.1,0,0.1v0.2
			c0,0.3-0.1,0.5-0.2,0.8c0,0.2-0.1,0.4-0.2,0.5l-0.2,0.4c-0.1,0.2-0.1,0.4-0.3,0.6h-0.1c0,0-0.1,0-0.1,0h-0.1l-0.5-0.3l-1.8-0.8
			l-1.2-0.4c-0.8-0.4-1.6-0.7-2.3-1l-0.6-0.3l-0.3-0.1l-0.4-0.1v0.6c0,0.1,0,0.2,0,0.3c0,0.2,0,0.3,0,0.5c0,0.2,0,0.3,0.1,0.5l1.6,1
			c0.4,0.2,0.8,0.5,1.2,0.8c3.3,2,8.7,5.3,11.9,7.2l1.4,0.9l0.6,0.4l0.3,0.2l0.2,0l0.5-0.1c0.3-0.1,0.6-0.3,0.9-0.5
			C48.8,24.5,48,23.8,47.2,23.1L47.2,23.1z"/>
		<path class="st1" d="M50.8,22.4h-0.3c-0.1,0-0.1,0-0.2,0c-0.1-0.1-0.3-0.2-0.3-0.4c-0.1-0.1-0.1-0.2-0.2-0.3
			c-0.1-0.1-0.1-0.2-0.1-0.3c0-0.1-0.1-0.2-0.1-0.3c0-0.1-0.1-0.3-0.2-0.5c-0.2-0.6-0.3-1.2-0.3-1.8c0-0.2,0-0.3,0-0.5
			c0-0.4,0.1-0.9,0.2-1.3c0.1-0.2,0.1-0.4,0.2-0.6c0.1-0.2,0.2-0.3,0.3-0.5c0.1-0.1,0.2-0.1,0.3-0.2h0.1c0.1,0,0.2,0,0.3-0.1h0.1
			c0.1,0,0.2,0,0.3,0.1l0.2,0.1l0.4,0.2l0.5,0.3l0.1,0.1H52v-0.3c0-0.1,0-0.1,0-0.2c0,0,0-0.1,0-0.1l-0.7-0.6l-0.4-0.2
			c-0.8-0.6-1.7-1.2-2.6-1.7l-0.4-0.3c-0.5-0.3-1-0.5-1.7-0.8c0-0.1,0-0.2,0-0.3c0-0.1,0-0.2,0-0.4c0-0.1-0.1-0.2-0.1-0.3
			c0,0,0-0.1,0-0.1c0-0.1-0.1-0.1-0.1-0.2l-0.1-0.1c0-0.1-0.1-0.1-0.1-0.2l-0.1-0.1l-0.2-0.1l-0.1-0.1l-0.2-0.1H45l-0.2-0.1h-0.1
			c-0.1,0-0.2,0-0.2,0h-0.1c-0.1,0-0.2-0.1-0.3-0.1c-0.5,0.1-1,0.4-1.2,0.8l-1-0.3l-0.4-0.1l-0.7-0.2l-0.4-0.1L39.5,10L39,9.9
			l-0.7-0.1l-0.5-0.1l-0.7-0.1l-0.4-0.1l-0.8-0.1h-2.6l-0.5,0.5l0.5,0.2l0.5,0.2l0.6,0.3c0.2,0.1,0.8,0.4,1.6,0.9
			c1.2,0.7,2.9,1.8,4.5,3c0.4,0.3,0.8,0.6,1.2,0.9c1.1,0.8,2.1,1.7,3,2.8c0.2,0.3,0.4,0.5,0.6,0.8c0.9,1.2,1.6,2.5,2.2,3.9l0.2,0.1
			l0.9,0.8l0.1,0.1l0.2,0.2l0.2,0.2l0.2,0.1l0.2,0.2l0.1,0.1l0.2,0.1h0.1l0.1-0.1c0.1-0.1,0.2-0.2,0.3-0.3l0.2-0.2
			c0.5-0.5,1.3-1.4,1.2-1.8v-0.1c0-0.1-0.1-0.2-0.1-0.4s0,0,0-0.1v0c0,0-0.1,0.1-0.3,0.3c-0.1,0.1-0.3,0.3-0.4,0.3L50.8,22.4z
			 M45.9,36.1c-0.7-0.7-1.4-1.5-2.1-2.2c-0.3-0.3-0.7-0.6-0.9-0.9c-0.3-0.3-0.6-0.5-0.9-0.7c-0.1,0-0.3-0.1-0.4-0.1h-0.1
			c-0.1,0-0.3,0-0.4,0.1c-0.1,0-0.2,0.1-0.3,0.2h-0.1c-0.1,0.1-0.2,0.1-0.3,0.2l-0.1,0.1L40,33.1c-0.1,0.1-0.4,0.4-0.8,0.9
			c-0.2,0.2-0.5,0.5-0.7,0.8l-0.8,0.9c-0.7,0.8-1.3,1.6-1.8,2.3l-0.3,0.4c-0.1,0.2-0.2,0.4-0.3,0.6c-0.5,1.2-0.1,1.8,0.4,2
			c0.4,0.2,0.7,0.5,1.1,0.7l0.5,0.3l3,2.2l1.1,0.8c0.1,0.1,0.2,0.1,0.3,0.2h1.1c0.1,0,0.2,0,0.3,0h0.2l0.3-0.1l0.1-0.1
			c0.1-0.1,0.3-0.1,0.4-0.2c0.1-0.1,0.2-0.2,0.4-0.3l0.5-0.4c0.2-0.1,0.4-0.3,0.6-0.5c0.5-0.4,0.9-0.9,1.3-1.5
			c0.1-0.2,0.2-0.3,0.3-0.5c0.2-0.3,0.4-0.7,0.5-1.1c0.2-0.4,0.3-0.8,0.4-1.3c0-0.2,0.1-0.5,0.1-0.7l-1.3-1.4L45.9,36.1z"/>
	</g>
</g>
</svg>
