<?xml version="1.0" encoding="utf-8"?>
<!-- Generator: Adobe Illustrator 24.1.2, SVG Export Plug-In . SVG Version: 6.00 Build 0)  -->
<svg version="1.1" id="Layer_1" xmlns="http://www.w3.org/2000/svg" xmlns:xlink="http://www.w3.org/1999/xlink" x="0px" y="0px"
	 viewBox="0 0 54.8 54.8" style="enable-background:new 0 0 54.8 54.8;" xml:space="preserve">
<style type="text/css">
	.st0{fill:#565656;}
	.st1{opacity:0.4;fill:#565656;enable-background:new    ;}
	.st2{fill:#CCCCCB;}
</style>
<g id="Layer_2_1_">
	<g id="Layer_2-2">
		<path class="st0" d="M25.3,22.1L23,19.8L25.3,22.1z"/>
		<path class="st0" d="M12.7,14.8h1.8c-0.3-1-0.3-2.1,0-3.1h-1.8c0.6-2.8,2.8-5,5.6-5.6v1.8c0.5-0.2,1-0.2,1.5-0.3
			c0.5,0,1,0.1,1.5,0.3V6.1c2.8,0.6,5,2.8,5.6,5.6h-1.8c0.2,0.5,0.2,1,0.2,1.6c0,0.5-0.1,1-0.2,1.5H27c-0.3,1.5-1.1,2.9-2.3,3.9
			l2.2,2.2c1.7-1.6,2.9-3.8,3.3-6.1H33v-3.1h-2.9c-0.7-4.5-4.2-8-8.7-8.7V0h-3.1v3c-4.5,0.7-8,4.2-8.7,8.7H6.7v3.1h2.9
			c0.4,2.4,1.6,4.6,3.4,6.2l2.2-2.2C13.9,17.8,13.1,16.4,12.7,14.8z M51,20.2h-1.9c-0.5-3-2.8-5.4-5.8-5.9v-2h-2.1v2
			c-3,0.5-5.4,2.8-5.8,5.9h-1.9v2.1h1.9c0.5,3,2.8,5.4,5.8,5.9v2h2.1v-2c3-0.5,5.4-2.8,5.8-5.9H51L51,20.2z M46,21.2
			c0,0.3-0.1,0.7-0.2,1H47c-0.4,1.9-1.9,3.3-3.7,3.8v-1.1C43,25,42.6,25,42.3,25c-0.3,0-0.7-0.1-1-0.2v1.2c-1.9-0.4-3.3-1.9-3.8-3.8
			h1.2c-0.2-0.7-0.2-1.4,0-2.1h-1.3c0.4-1.9,1.9-3.3,3.8-3.8v1.2c0.3-0.1,0.7-0.1,1-0.2c0.3,0,0.7,0.1,1,0.2v-1.2
			c1.9,0.4,3.3,1.9,3.7,3.8h-1.1C45.9,20.6,46,20.9,46,21.2L46,21.2z"/>
		<path class="st1" d="M21.9,34.4L22.2,24h5l-1.9-2L23,19.8l-3-3L12.8,24h5l-0.2,7C19.2,31.8,20.7,33,21.9,34.4z"/>
		<path class="st2" d="M20.5,35.9l-0.1-0.1C20.4,35.8,20.4,35.9,20.5,35.9L20.5,35.9z M17.5,33.2c0.3,0.2,0.5,0.3,0.8,0.5
			C18,33.5,17.8,33.4,17.5,33.2z"/>
		<path class="st0" d="M23.2,42.4c-0.1-0.5-0.2-1-0.3-1.4c0-0.1-0.1-0.3-0.1-0.4c-0.1-0.3-0.2-0.6-0.3-1c-0.1-0.1-0.1-0.3-0.2-0.4
			c-0.1-0.3-0.3-0.6-0.4-0.9l-0.1-0.3c-0.2-0.4-0.4-0.8-0.6-1.1L21,36.6c-0.2-0.2-0.3-0.5-0.5-0.7c0,0-0.1-0.1-0.1-0.1l-0.3-0.3
			c-0.2-0.2-0.4-0.4-0.6-0.6l-0.3-0.3c-0.3-0.2-0.5-0.5-0.8-0.7l-0.1-0.1c-0.3-0.2-0.5-0.3-0.8-0.5c-0.1-0.1-0.2-0.1-0.3-0.2
			C17.2,33,17,33,16.9,32.9c-0.3-0.1-0.5-0.3-0.8-0.4l-0.4-0.2h-0.1c-0.3-0.1-0.5-0.2-0.8-0.3L14.4,32c-0.4-0.1-0.9-0.2-1.4-0.3
			h-0.3c-0.4,0-0.8-0.1-1.2-0.1H9.4l-1.1,0.1l-0.7,0.1c-0.4,0.1-0.8,0.1-1.2,0.2C6.2,31.9,6,32,5.8,32c-0.6,0.1-1.3,0.3-1.9,0.5H3.8
			c0.3,0.7,0.6,1.4,0.8,2.1c0.1,0.2,0.2,0.4,0.3,0.7c0.2,0.4,0.4,0.9,0.6,1.3c0.1,0.2,0.2,0.5,0.3,0.7l0.5,1L6.6,39
			c0.2,0.3,0.3,0.6,0.5,0.9c0.2,0.3,0.2,0.4,0.3,0.6l0.5,0.8l0.4,0.5c0.2,0.2,0.3,0.5,0.5,0.7S9,42.9,9.1,43l0.5,0.6L9.9,44
			c0.2,0.2,0.4,0.4,0.6,0.6l0.3,0.3c0.3,0.3,0.5,0.5,0.8,0.7c0.3,0.2,0.5,0.4,0.8,0.6c0.1,0.1,0.2,0.1,0.3,0.2l0.6,0.3l0.4,0.2
			c0.2,0.1,0.3,0.1,0.5,0.2l0.4,0.1c0.2,0,0.3,0.1,0.5,0.1l0.4,0.1c0.2,0,0.4,0.1,0.5,0.1h1.3c0.3,0,0.6,0,0.9-0.1
			c0.6-0.1,1.1-0.3,1.7-0.6c0.6-0.3,1.1-0.6,1.6-0.9c-0.1-0.1-0.2-0.3-0.4-0.4c-0.9-0.7-2-1.2-3.2-1.4c-0.7-0.1-1.3-0.3-2-0.4
			c-0.2,0-0.3-0.1-0.5-0.2c-0.3-0.1-0.5-0.2-0.7-0.4c-0.2-0.1-0.4-0.3-0.6-0.5c-0.2-0.2-0.5-0.5-0.7-0.8c-0.4-0.5-0.7-1.1-1-1.7
			c-0.1-0.3-0.3-0.6-0.4-0.9c0.3,0.6,0.7,1.1,1.1,1.6c0.2,0.3,0.4,0.5,0.6,0.7c0.2,0.2,0.5,0.4,0.7,0.6c0.4,0.3,0.9,0.5,1.4,0.6
			c0.2,0,0.3,0.1,0.5,0.1c0.3,0,0.6,0,0.9,0.1H18c1.3,0,2.5,0.2,3.7,0.8c0.2,0.1,0.3,0.2,0.5,0.3c0.1,0,0.1,0.1,0.1,0.1
			c0.1,0.1,0.2,0.2,0.3,0.3c0.7,0.6,1.3,1.3,1.7,2.1c0.1,0.2,0.2,0.4,0.3,0.6s0.2,0.4,0.3,0.6c0.5,1.3,0.9,2.7,1.1,4.1
			c0,0.3,0.1,0.7,0.1,1c0,0.7,0.1,1.3,0.1,2l0.4-0.1c0.1,0,0.3,0,0.5,0h0.4c0.3,0,0.5,0.1,0.8,0.2c0.2,0.1,0.4,0.1,0.6,0.2v-0.5
			c-0.1-0.7-0.1-1.3-0.3-2s-0.2-1.3-0.4-2c0-0.2-0.1-0.4-0.2-0.7s-0.1-0.4-0.2-0.6s-0.1-0.4-0.1-0.7s-0.1-0.4-0.1-0.6
			c0-0.9,0.3-1.7,0.8-2.4c0.7-1,1.7-1.8,2.8-2.2c0.4-0.2,0.7-0.3,1.1-0.4c-0.4,0.1-0.7,0.3-1,0.5l-0.5,0.3c-0.8,0.5-1.4,1.2-1.9,2
			c0,0.1-0.1,0.2-0.1,0.3c-0.1,0.2-0.2,0.5-0.3,0.8c-0.1,0.3-0.1,0.7-0.1,1c0.1,0.3,0.1,0.6,0.2,0.9l0.1,0.3h2l0.4-0.1l0.3-0.1
			l0.4-0.1l0.3-0.1l0.3-0.1l0.3-0.1c0.1,0,0.2-0.1,0.3-0.2c0.1,0,0.2-0.1,0.2-0.2l0.3-0.2c0.1-0.1,0.1-0.1,0.2-0.2l0.2-0.2l0.2-0.2
			l0.2-0.2c0.1-0.1,0.1-0.1,0.2-0.2l0.2-0.2l0.1-0.2l0.2-0.3l0.1-0.2c0-0.1,0.1-0.2,0.1-0.3l0.1-0.3c0-0.1,0.1-0.2,0.1-0.3
			s0-0.2,0.1-0.3l0.1-0.3c0-0.1,0.1-0.2,0.1-0.3c0-0.1,0.1-0.2,0.1-0.3l0.1-0.3v-0.3v-0.3v-0.3c0-0.1,0-0.2,0-0.3v-0.3v-0.3V41v-0.3
			c0-0.1,0-0.2,0-0.2c0-0.1,0-0.2,0-0.3v-0.2c0-0.1,0-0.2,0-0.3c0-0.1,0-0.1,0-0.2v-0.7v-0.5L35.8,38v-0.3v-0.3v-0.2
			c-2.4,0.5-4.7,1.7-6.5,3.4c-0.5,0.5-1,1.1-1.4,1.8c-0.3,0.4-0.5,0.8-0.7,1.3c-0.3,0.6-0.5,1.3-0.6,1.9c-0.2-0.3-0.4-0.6-0.6-0.9
			c-0.2-0.3-0.5-0.5-0.8-0.8c-0.4-0.4-0.9-0.7-1.4-1C23.6,42.7,23.4,42.5,23.2,42.4L23.2,42.4z"/>
	</g>
</g>
</svg>
