<?xml version="1.0" encoding="utf-8"?>
<!-- Generator: Adobe Illustrator 24.1.2, SVG Export Plug-In . SVG Version: 6.00 Build 0)  -->
<svg version="1.1" id="Layer_1" xmlns="http://www.w3.org/2000/svg" xmlns:xlink="http://www.w3.org/1999/xlink" x="0px" y="0px"
	 viewBox="0 0 54 54" style="enable-background:new 0 0 54 54;" xml:space="preserve">
<style type="text/css">
	.st0{opacity:0.4;fill:#555555;enable-background:new    ;}
	.st1{fill:#565656;}
	.st2{opacity:0.4;fill:#565656;enable-background:new    ;}
</style>
<g id="Layer_2_1_">
	<g id="Layer_2-2">
		<path class="st0" d="M51.5,38.2c0,0-9.7-2.9-10.6-8.1s7.3-7.5,7.3-7.5s-6.4,1.9-7.3-1.3S51,10.7,51,10.7s-9.2,5.6-10.2,4.1
			s1.5-9.7,1.5-9.7s-5.8,9.4-10.5,8.9s-4.1-8.6-4.1-8.6s-0.4,6.7-2.3,7.7s-9.8-8.6-9.8-8.6s6.2,9.7,4.3,11.4S9.3,13.1,9.3,13.1
			l0.2,0.1l10.4,5.4c0.6-0.1,1.2-0.4,1.6-0.8c0.8-0.6,1.3-1.5,1.5-2.5c0.6,0.3,1.2,0.4,1.9,0.4c0.6,0,1.3-0.2,1.8-0.5
			c0.3-0.2,0.5-0.3,0.8-0.5c1.1,1.1,2.5,1.7,4.1,1.8h0.6c1.9,0,3.9-1,5.9-2.6c0,0.8,0.3,1.5,0.7,2.1c0.2,0.3,0.5,0.6,0.8,0.9
			c-1.2,1.9-1.6,3.5-1.2,5c0.3,1,0.8,1.9,1.6,2.5c-1.4,1.8-2,4.1-1.6,6.3c0.3,1.6,1,3.1,2,4.5c-0.6,0.3-1,0.7-1.4,1.2l-0.1,0.1
			c-0.6-0.3-1.2-0.4-1.8-0.4c-0.7,0-1.4,0.2-2,0.6c-0.4,0.6-0.8,1.3-1.2,2c0.9,1.9,1.6,3.8,2.3,5.8c-0.2-2.2-0.4-5.3,0.3-5.8
			c1.2-0.9,9.2,7,9.2,7c-1.9-2.3-3.4-4.8-4.6-7.4C39.7,34.8,51.5,38.2,51.5,38.2z"/>
		<path class="st0" d="M44.2,11.2l7.7-6.7l-1.4-2.8C50.5,1.6,44.2,11.2,44.2,11.2z M9.6,8.5l7.4,4.8l-5.2-5.9L9.6,8.5z M21.8,5.4
			l2.5,5.3l-0.9-5.1L21.8,5.4z M50.7,34.5l1.1-1.8l-7.3-2.6L50.7,34.5z M49.9,29l0.2-1.4l-5.3,0.5L49.9,29z M33.9,10.6l3-4.4
			l-1.2-0.7C35.7,5.5,33.9,10.6,33.9,10.6z M51,18.8l-0.2-2l-7.2,2.2C43.7,18.9,51,18.8,51,18.8z M32.1,0l-2.6,0.1l2.4,9.7L32.1,0z"
			/>
		<path class="st1" d="M35.8,24.1c-2.2,0.5-4.4,1.5-6.2,2.9c-1.8,1.5-3.1,3.6-3.6,5.9c-0.4-0.7-0.9-1.3-1.5-1.8
			c-0.6-0.5-1.2-1-1.9-1.4C21,20.6,14,15.8,2.1,19.2c5,13.2,9.5,16.6,15.3,15.7c1.3-0.3,2.4-0.8,3.5-1.6c-0.1-0.2-0.2-0.3-0.4-0.4
			c-1-0.8-2.1-1.3-3.4-1.4c-0.7-0.1-1.4-0.3-2.1-0.5c-0.8-0.2-1.4-0.6-2-1.1c-1-1-1.7-2.3-2.2-3.6c0.7,1.2,1.5,2.3,2.6,3.1
			c1,0.6,2.2,0.9,3.4,0.8h0.4c1.6,0,3.1,0.4,4.4,1.2c0.2,0.1,0.3,0.3,0.5,0.4c0.7,0.6,1.3,1.4,1.8,2.2c0.2,0.4,0.4,0.8,0.6,1.2
			c0.6,1.4,1,2.9,1.2,4.4c0.1,1.1,0.2,2.1,0.2,3.2c0.3-0.1,0.6-0.1,0.9-0.1c0.1,0,0.2,0,0.4,0c0.5,0.1,1,0.2,1.5,0.4v-0.5
			c-0.1-1.4-0.3-2.9-0.7-4.3c0-0.2-0.1-0.5-0.2-0.7c-0.2-0.4-0.3-0.9-0.4-1.4c0-0.2-0.1-0.4-0.1-0.7c0-0.9,0.3-1.8,0.8-2.5
			c1-1.4,2.5-2.4,4.1-2.8c-1.6,0.6-2.9,1.6-3.7,3.1c-0.4,0.7-0.5,1.4-0.5,2.2c0.1,0.4,0.2,0.9,0.4,1.3c3.7,0.3,5.7-1.1,6.8-3
			C37.3,30,35.8,24.1,35.8,24.1z M28.7,44.1L28.6,44L28.7,44.1L28.7,44.1z"/>
		<path class="st2" d="M36.3,49.9c0.1-0.2,0.1-0.4,0.1-0.6c0-0.3-0.1-0.5-0.3-0.7c-0.4-0.5-0.9-0.9-1.5-1.1c0.1-0.2,0.2-0.5,0.1-0.7
			c0-0.4-0.2-0.7-0.4-1c-0.2-0.3-0.5-0.5-0.8-0.6c-0.2-0.1-0.3-0.1-0.5-0.1h-0.1c-0.1,0-0.2-0.1-0.4-0.1h-0.1c-0.1,0-0.3,0-0.4,0
			c-0.2,0-0.3,0-0.5,0h-0.1L31.2,45l-0.3,0.1l-0.2,0.1c-0.1,0-0.2,0.1-0.4,0.1h-0.3L29.9,45c0,0-0.1,0-0.1-0.1l-0.2-0.1l-0.2-0.2
			l-0.2-0.2L29,44.3l-0.2-0.1l-0.1-0.1L28.6,44l-0.2-0.1c-0.1-0.1-0.3-0.1-0.4-0.2l-0.2-0.1c-0.2-0.1-0.5-0.1-0.7-0.1h-0.3
			c-0.1,0-0.2,0-0.3,0h-0.1l-0.2,0.1H26l-0.3,0.1h0l-0.2,0.1L25.2,44l-0.3,0.1h-0.1l-0.2,0.1h-0.1c-0.1,0-0.2,0-0.3,0
			c-0.1,0-0.3,0-0.4-0.1c-0.2-0.1-0.4-0.1-0.5-0.2c-0.1-0.1-0.2-0.1-0.4-0.2h-0.1c-0.1,0-0.2-0.1-0.3-0.1h-0.1l-0.4,0h-0.1
			c-0.1,0-0.2,0-0.4,0c-0.1,0-0.3,0-0.4,0H21c-0.1,0-0.2,0-0.3,0.1h-0.1l-0.4,0.1c-0.1,0-0.2,0.1-0.3,0.1h-0.1l-0.2,0.2c0,0,0,0,0,0
			c-0.1,0.1-0.2,0.1-0.2,0.2c0,0,0,0,0,0.1c0,0.1-0.1,0.1-0.1,0.2v0.1c0,0.1,0,0.2,0,0.3c-0.8,0-1.7,0.2-2.4,0.6
			c-0.3,0.2-0.5,0.4-0.6,0.7c-0.1,0.1-0.1,0.3-0.2,0.4c-0.2,0.5-0.3,1.1-0.3,1.6c-0.8,0-1.5,0.3-2.1,0.8c-0.2,0.2-0.4,0.5-0.5,0.8
			C13,50.2,12.9,50.6,13,51c0,0.2,0.1,0.5,0.1,0.7c0.1,0.3,0.2,0.7,0.4,1c0,0.1,0.1,0.1,0.1,0.2h0.1l0.1,0.1l0.1,0.1l0.2,0.1h0.2
			l0.3,0.1h0.2l0.3,0.1h0.2l0.4,0.1h0.2l0.5,0.1h0.2l0.8,0.1l0.8,0.1h13.9l1-0.1h0.3l0.7-0.1h1.2l0.5,0H36l0.4-0.1h0.3l0.3-0.1h0.2
			l0.3-0.1h0.2l0.2-0.1h0.1c0.1,0,0.1-0.1,0.2-0.1c0.1-0.1,0.2-0.3,0.2-0.4c0-0.1,0.1-0.3,0.1-0.4V52c0-0.1,0-0.3-0.1-0.4v-0.1
			c0-0.1-0.1-0.3-0.2-0.4c-0.1-0.1-0.2-0.3-0.3-0.4c-0.1-0.1-0.2-0.2-0.3-0.3c-0.1-0.1-0.2-0.2-0.3-0.2c-0.1,0-0.2-0.1-0.3-0.1h-0.1
			C36.8,49.9,36.5,49.8,36.3,49.9z"/>
	</g>
</g>
</svg>
