<?xml version="1.0" encoding="utf-8"?>
<!-- Generator: Adobe Illustrator 24.1.2, SVG Export Plug-In . SVG Version: 6.00 Build 0)  -->
<svg version="1.1" id="Layer_1" xmlns="http://www.w3.org/2000/svg" xmlns:xlink="http://www.w3.org/1999/xlink" x="0px" y="0px"
	 viewBox="0 0 45.7 45.7" style="enable-background:new 0 0 45.7 45.7;" xml:space="preserve">
<style type="text/css">
	.st0{opacity:0.4;fill:#565656;enable-background:new    ;}
	.st1{fill:#565656;}
</style>
<g id="Layer_2_1_">
	<g id="Layer_2-2">
		<path class="st0" d="M23.8,7.3l5-0.4l-1.2,6.5l1.9-0.3l1.1-0.1l1.1-0.1l3.7-0.5l0-0.2l0.8-5l0-0.2l0.1-0.6L41,5.9L33.3,0L23.8,7.3
			z M26.6,19l8-1l0.2-1.5l-7.9,1C26.9,17.6,26.6,19,26.6,19z M35.2,13.8l-7.9,1l-0.2,1.3l7.9-1C35,15.1,35.2,13.8,35.2,13.8z"/>
		<path class="st1" d="M16.1,20.4C15.6,20,15,19.5,14.5,19c-0.6-0.5-1-1.2-1.2-1.9c-0.4-1.4-0.5-2.8-0.3-4.2c0,1.4,0.4,2.7,0.9,4
			c0.6,1,1.6,1.8,2.7,2.2l0.3,0.2c1.4,0.6,2.6,1.7,3.4,3c0.1,0.2,0.3,0.5,0.4,0.8c0.3,0.8,0.5,1.6,0.5,2.5c0,0.5,0,0.9,0,1.4
			c-0.1,1.5-0.4,3-0.9,4.4c-0.3,1-0.7,1.9-1.2,2.8c0.9,0.1,1.8,0.4,2.6,1c0.5-1.3,0.9-2.6,1.2-4c0.1-0.2,0.1-0.5,0.1-0.7
			c0.1-0.5,0.1-0.9,0.3-1.4c0.1-0.2,0.1-0.4,0.2-0.6c0.4-0.8,1.1-1.5,1.9-1.9c1.5-0.8,3.3-1.1,4.9-0.7c-1.6-0.2-3.3,0.2-4.6,1.1
			c-0.6,0.4-1.1,1.1-1.4,1.8c-0.1,0.4-0.2,0.8-0.2,1.3c9.3,5.5,12.2-8,12.2-8c-6.1-1.4-10.4,0.6-12.7,3.5c-0.1-0.8-0.2-1.5-0.5-2.2
			c-0.2-0.7-0.6-1.4-1-2c2.6-9-1.6-16.4-13.7-18.6c-1.4,14,1.1,19.1,6.7,20.8c1.2,0.3,2.5,0.3,3.8,0.1c0-0.2-0.1-0.4-0.1-0.5
			C18.1,22,17.2,21.1,16.1,20.4z"/>
		<path class="st0" d="M18.7,35.3h-0.4l-0.2,0.1H18l-0.3,0.1h-0.1l-0.2,0.1l-0.3,0.1l-0.3,0.1h-0.1c-0.1,0-0.1,0-0.2,0.1h-0.1
			c-0.1,0-0.2,0-0.3,0c-0.2,0.1-0.4,0.1-0.6,0.1c-0.2-0.1-0.4-0.1-0.5-0.2c-0.1-0.1-0.2-0.1-0.4-0.2h-0.1c-0.1,0-0.2-0.1-0.3-0.1
			h-0.6c-0.1,0-0.2,0-0.4,0h-0.1c-0.1,0-0.3,0-0.4,0h-0.1c-0.1,0-0.2,0-0.3,0.1h-0.1l-0.4,0.1h-0.1l-0.3,0.1h-0.1L11.4,36h-0.1
			c-0.1,0.1-0.1,0.1-0.2,0.2v0.1c0,0.1-0.1,0.1-0.1,0.2c0,0,0,0.1,0,0.1c0,0.1,0,0.2,0,0.3c-0.9-0.1-1.9,0.2-2.6,0.8l-0.2,0.2
			C8.1,38,8,38.2,7.9,38.4c-0.2,0.5-0.3,1.1-0.3,1.7c-1-0.1-2,0.4-2.6,1.2c-0.2,0.4-0.3,0.8-0.3,1.2c0,0.3,0,0.5,0.1,0.8
			c0.1,0.5,0.2,0.9,0.4,1.3c0,0.1,0.1,0.1,0.1,0.2h0.1l0.2,0.1l0.1,0.1l0.2,0.1L6,45l0.3,0.1h0.2l0.3,0.1H7l0.4,0.1h0.2l0.5,0.1h0.2
			c0.5,0,1.1,0.1,1.6,0.1h12.8l0.9,0h0.2l1-0.1h0.3l0.6-0.1h2l0.4-0.1h0.3l0.3-0.1h0.2l0.3-0.1h0.2l0.2-0.1h0.1
			c0.1,0,0.1-0.1,0.2-0.1c0.1-0.1,0.2-0.3,0.2-0.4c0-0.1,0.1-0.3,0-0.4v-0.1c0-0.1,0-0.3-0.1-0.4c0,0,0,0,0-0.1
			c0-0.1-0.1-0.3-0.2-0.4v0c-0.1-0.1-0.2-0.3-0.3-0.4c-0.1-0.1-0.2-0.2-0.3-0.3c-0.1-0.1-0.2-0.2-0.3-0.2h0c-0.1,0-0.2-0.1-0.3-0.1
			h-0.1c-0.1,0-0.2,0-0.3,0.1c0.1-0.2,0.1-0.4,0.1-0.6c0-0.3-0.2-0.7-0.4-0.9c-0.1-0.1-0.2-0.2-0.3-0.3L27.5,40
			c-0.1-0.1-0.2-0.1-0.4-0.2c-0.2-0.1-0.3-0.1-0.5-0.2c0.3-0.7,0.1-1.5-0.5-2c-0.2-0.1-0.3-0.3-0.5-0.3c-0.2-0.1-0.3-0.1-0.5-0.2
			h-0.1c-0.1,0-0.2-0.1-0.4-0.1h-0.1c-0.1,0-0.3,0-0.4,0c-0.2,0-0.3,0-0.5,0h-0.1l-0.3,0.1L23,37.1l-0.2,0.1c-0.1,0-0.2,0.1-0.3,0.1
			h-0.3L22,37.2l-0.1-0.1c-0.1,0-0.1-0.1-0.2-0.2c-0.1,0-0.1-0.1-0.2-0.2l-0.2-0.2l-0.2-0.2c-0.1,0-0.1-0.1-0.2-0.1l-0.3-0.2
			c-0.1,0-0.1-0.1-0.2-0.1C20.3,36,20.1,36,20,35.9c-0.1,0-0.1-0.1-0.2-0.1c-0.2-0.1-0.5-0.1-0.8-0.2L18.7,35.3z"/>
	</g>
</g>
</svg>
