<?xml version="1.0" encoding="utf-8"?>
<!-- Generator: Adobe Illustrator 24.1.2, SVG Export Plug-In . SVG Version: 6.00 Build 0)  -->
<svg version="1.1" id="Layer_1" xmlns="http://www.w3.org/2000/svg" xmlns:xlink="http://www.w3.org/1999/xlink" x="0px" y="0px"
	 viewBox="0 0 45 45" style="enable-background:new 0 0 45 45;" xml:space="preserve">
<style type="text/css">
	.st0{fill:#565656;}
	.st1{opacity:0.4;}
</style>
<g id="Layer_2_1_">
	<g id="Layer_2-2">
		<path class="st0" d="M44.7,3.5c-0.3-0.2-0.7-0.3-1.1-0.3L17.1,4.6c-0.4,0-0.6,0.4-0.6,0.7c0,0.2,0.2,0.5,0.4,0.5l17.6,6l0.9,0.3
			c0,0,0.1,0,0.2,0.1s0.1,0.1,0.1,0.1l0.3,0.9l5.3,17.8c0.1,0.3,0.5,0.5,0.8,0.4c0.2-0.1,0.4-0.3,0.5-0.5L45,4.6
			C45,4.2,45,3.8,44.7,3.5z"/>
		<g class="st1">
			<path class="st0" d="M30.8,15.2l-18.5,1c-0.2,0-0.4,0.2-0.4,0.5c0,0.2,0.1,0.3,0.3,0.4l7.9,2.7l-4.9,5.4l-3.4,5l5.9-4.1l-3.5,5.1
				l6.9-3.7l-3,3.9l2.9-1.6l5.7-3.5l2.5,8.3c0.1,0.2,0.3,0.4,0.6,0.3c0.2-0.1,0.3-0.2,0.3-0.4l1.7-18.4c0-0.3,0-0.6-0.2-0.8
				C31.4,15.2,31.1,15.2,30.8,15.2z"/>
			<path class="st0" d="M1.3,34.5c-1.2,2.2-0.2,5.1,2.3,6.5c2.1,1.4,4.9,0.9,6.5-1c1.3,1.9,3.9,2.4,5.8,1.1c1.6-1.1,2.2-3.2,1.5-5.1
				c0.4,0.2,0.8,0.3,1.2,0.3c1.7,0,3-1.4,3-3c0-0.7-0.3-1.4-0.8-2l-5.6,2.5l2.4-3.1l-5.6,3l0.7-2.8l-4.2,2l5.4-7.8
				c-1.2-2.5-4.2-3.6-6.7-2.5c-1.6,0.7-2.7,2.2-2.9,4C1.8,26.9,0,28.4,0,30.2c0.1,1.4,1.1,2.6,2.4,3.1C2,33.6,1.6,34,1.3,34.5z"/>
		</g>
	</g>
</g>
</svg>
