<?xml version="1.0" encoding="utf-8"?>
<!-- Generator: Adobe Illustrator 24.1.2, SVG Export Plug-In . SVG Version: 6.00 Build 0)  -->
<svg version="1.1" id="Layer_1" xmlns="http://www.w3.org/2000/svg" xmlns:xlink="http://www.w3.org/1999/xlink" x="0px" y="0px"
	 viewBox="0 0 60.4 60.4" style="enable-background:new 0 0 60.4 60.4;" xml:space="preserve">
<style type="text/css">
	.st0{opacity:0.4;fill:#555555;enable-background:new    ;}
	.st1{fill:none;}
	.st2{fill:#555555;}
</style>
<g id="Layer_2_1_">
	<g id="Layer_2-2">
		<path class="st0" d="M39.9,12V7.3l-6.5,4l-6.5-4V12l6.5,4.4C33.4,16.4,39.9,12,39.9,12z"/>
		<path class="st1" d="M46.5,30.6L33.4,42.8C33.4,42.8,46.5,30.6,46.5,30.6z"/>
		<path class="st0" d="M55.2,40.5c-2.5-0.5-7.4-1.1-7.5-2.6l-0.1-0.4v-0.1c0-0.1,0-0.2,0-0.3V37c0,0-0.1-0.2-0.1-0.3
			c0-0.1-0.1-0.2-0.1-0.2c0,0,0-0.1,0-0.1c0-0.1-0.1-0.1-0.1-0.2L47,36.1c-0.1-0.1-0.1-0.1-0.2-0.2l-0.3-0.1h-0.1l-0.3-0.1H46
			l-0.5-0.1h-1.4l-9.4,8.7l-1.4,1.3L32,44.2L20.5,33.5h-0.7l-0.5,0.1l-0.8,0.1L18,33.8l-0.7,0.1L16.7,34l-0.7,0.1l-0.5,0.1l-0.6,0.2
			l-0.5,0.1l-0.6,0.2l-0.4,0.2l-0.5,0.2l-0.4,0.2l-0.5,0.2l-0.4,0.2c-0.1,0.1-0.3,0.2-0.4,0.2L11,36.1l-0.4,0.2l-0.3,0.2l-0.3,0.3
			l-0.2,0.2c-0.1,0.1-0.2,0.2-0.2,0.3l-0.1,0.2c-0.1,0.1-0.1,0.2-0.1,0.3c0,0-0.1,0.1-0.1,0.1c-0.1,0.1-0.1,0.3-0.1,0.4
			c0,0,0,0.1,0,0.1c0,0.1,0.1,0.2,0.1,0.3c0.1,0.1,0.1,0.3,0.1,0.4c0,0.2,0,0.3-0.1,0.5c0,0.1-0.1,0.2-0.1,0.3
			C9.2,40,9.1,40.1,9,40.1c-0.3,0.2-0.6,0.3-0.9,0.4l-0.6,0.3l-1.5,0.6c-0.5,0.2-1.1,0.4-1.7,0.7s-1.1,0.5-1.6,0.8
			C1.2,43.7,0,44.6,0,45.5c0,0.2,0,0.4,0.1,0.6c0,0.1,0.1,0.2,0.1,0.2c0.1,0.1,0.1,0.3,0.2,0.4L0.6,47c0.1,0.1,0.2,0.3,0.3,0.4
			l0.3,0.3c0.1,0.1,0.2,0.2,0.4,0.4l0.3,0.3l0.5,0.3l0.4,0.2l0.6,0.3l0.4,0.2c0.2,0.1,0.5,0.2,0.7,0.3L4.7,50
			c0.3,0.1,0.6,0.2,0.9,0.3L6,50.4c0.4,0.2,0.9,0.3,1.4,0.4L7.7,51c0.4,0.1,0.7,0.2,1.1,0.3l0.6,0.1l1,0.2l0.7,0.1l1,0.1l0.7,0.1
			l1,0.1h4.5c0.6,0,1.3-0.1,1.9-0.1s1.3-0.1,2-0.1h5.3l1,0.1h0.1l1,0.1H30l0.7,0.1H31l0.6,0.1h0.3l0.6,0.1h0.3l0.8,0.1l0.8,0.1h0.2
			l0.5,0.1h0.3l0.5,0.1h1.8c1.2,0,2.4-0.1,3.6-0.3c0.4-0.1,0.8-0.2,1.1-0.3l0.5-0.2c0.3-0.1,0.6-0.2,0.9-0.4s0.6-0.3,0.9-0.4
			s0.6-0.3,0.9-0.5l0.9-0.5c0.4-0.2,0.8-0.4,1.2-0.5l0.5-0.2c0.5-0.1,1-0.3,1.5-0.4c1.3-0.3,2.7-0.6,4.1-0.9l1.2-0.3L56,48
			c2.5-0.7,4.4-1.4,4.4-2.5C60.4,43.8,57.6,41.1,55.2,40.5z M39.9,18.3v-5.1l-6.5,4.4l-6.5-4.4v5.1l6.5,4.4
			C33.4,22.7,39.9,18.3,39.9,18.3z"/>
		<path class="st0" d="M33.4,27.8l5.3-3.6l1.1-0.8v-3.9l-6.5,4.4l-6.5-4.4v3.9l1.1,0.8C28,24.1,33.4,27.8,33.4,27.8z"/>
		<path class="st2" d="M46.5,30.6h-6.7v-4.9l-6.5,4.4l-6.5-4.4v4.9h-6.6l13.1,12.2C33.4,42.8,46.5,30.6,46.5,30.6z"/>
	</g>
</g>
</svg>
