<?xml version="1.0" encoding="utf-8"?>
<!-- Generator: Adobe Illustrator 24.1.2, SVG Export Plug-In . SVG Version: 6.00 Build 0)  -->
<svg version="1.1" id="Layer_1" xmlns="http://www.w3.org/2000/svg" xmlns:xlink="http://www.w3.org/1999/xlink" x="0px" y="0px"
	 viewBox="0 0 49.2 49.2" style="enable-background:new 0 0 49.2 49.2;" xml:space="preserve">
<style type="text/css">
	.st0{fill:#565656;}
	.st1{fill:#555555;}
</style>
<g id="Layer_2_1_">
	<g id="Layer_1-2">
		<g id="Layer_2-2">
			<path class="st0" d="M28.2,29.6c0.2,0.4,0.4,0.8,0.6,1.2c0.6,1.4,1,2.9,1.2,4.4c0.1,1.1,0.2,2.1,0.2,3.2c0.3-0.1,0.6-0.1,0.9-0.1
				h0.4c0.5,0.1,1,0.2,1.5,0.4v-0.5c-0.1-1.4-0.3-2.9-0.7-4.3c0-0.2-0.1-0.5-0.2-0.7c-0.2-0.4-0.3-0.9-0.4-1.4
				c0-0.2-0.1-0.4-0.1-0.7c0-0.9,0.3-1.8,0.8-2.5c1-1.4,2.5-2.4,4.1-2.8c-1.5,0.6-2.8,1.6-3.7,3.1c-0.4,0.7-0.5,1.4-0.5,2.2
				c0.1,0.4,0.2,0.9,0.4,1.2H35l0.4-0.1l0.3-0.1l0.4-0.1l0.3-0.1c0.1,0,0.2-0.1,0.4-0.1l0.3-0.1l0.4-0.2c0.1,0,0.2-0.1,0.3-0.1
				l0.3-0.2l0.2-0.2l0.2-0.3l0.2-0.2l0.2-0.2l0.2-0.2l0.2-0.3l0.2-0.2l0.2-0.3l0.1-0.3l0.1-0.3l0.1-0.3c0-0.1,0.1-0.2,0.1-0.3
				c0-0.1,0.1-0.2,0.1-0.3l0.1-0.3c0-0.1,0-0.2,0.1-0.3c0.1-0.1,0-0.2,0.1-0.3l0.1-0.3v-5.4c0-0.1,0-0.2,0-0.2v-0.5
				c0-0.1,0-0.1,0-0.2v-0.3c0,0,0-0.1,0-0.1v-0.3c-6.1,1.5-9,5.2-9.8,8.8c-0.4-0.7-0.9-1.2-1.5-1.8c-0.5-0.5-1.2-1-1.9-1.4
				c-0.1-0.5-0.2-1-0.3-1.5c0-0.2-0.1-0.3-0.1-0.5c-0.1-0.3-0.2-0.7-0.3-1c0-0.1-0.1-0.3-0.2-0.5c-0.1-0.3-0.3-0.7-0.4-1
				c0-0.1-0.1-0.2-0.1-0.3c-0.2-0.4-0.4-0.8-0.7-1.2L25,19.2c-0.2-0.3-0.4-0.6-0.6-0.9c-0.1-0.1-0.2-0.2-0.3-0.3s-0.4-0.5-0.6-0.7
				l-0.3-0.3c-0.3-0.3-0.6-0.5-0.9-0.7l-0.1-0.1c-0.4-0.3-0.7-0.5-1.1-0.7l-0.4-0.2c-0.3-0.1-0.6-0.3-0.9-0.4L19,14.7
				c-0.3-0.1-0.7-0.2-1-0.3l-0.4-0.1c-0.5-0.1-0.9-0.2-1.4-0.3h-0.3c-0.4-0.1-0.9-0.1-1.3-0.1h-2.3c-0.4,0-0.8,0.1-1.1,0.1L10.5,14
				c-0.4,0.1-0.9,0.1-1.3,0.2l-0.7,0.1c-0.7,0.1-1.4,0.3-2,0.5c0.3,0.7,0.5,1.3,0.8,2c0,0.1,0.1,0.2,0.1,0.2
				c0.2,0.6,0.5,1.2,0.7,1.7l0.1,0.3c0.2,0.5,0.5,1,0.7,1.5L9,20.9c0.2,0.5,0.5,1,0.7,1.4l0.1,0.2c0.3,0.5,0.5,0.9,0.8,1.3
				c0.3,0.4,0.5,0.8,0.8,1.2l0.1,0.1c0.2,0.4,0.5,0.7,0.7,1l0.1,0.2c0.2,0.3,0.5,0.6,0.7,0.9l0.1,0.1c0.3,0.3,0.5,0.5,0.7,0.8
				l0.1,0.1c0.5,0.5,1,0.9,1.6,1.2l0.1,0.1c0.2,0.2,0.5,0.3,0.8,0.4l0.1,0.1c0.2,0.1,0.5,0.2,0.8,0.3h0.1c0.3,0.1,0.5,0.2,0.8,0.2
				h0.1c0.3,0.1,0.6,0.1,0.8,0.1c0.3,0,0.6,0,0.9,0h1l0.8-0.1c1.3-0.3,2.4-0.8,3.5-1.6c-0.1-0.2-0.2-0.3-0.4-0.4
				c-1-0.8-2.1-1.2-3.4-1.4c-0.7-0.1-1.4-0.3-2.1-0.5c-0.8-0.2-1.4-0.6-2-1.1c-1-1-1.7-2.3-2.2-3.6c0.6,1.2,1.5,2.3,2.6,3.1
				c1,0.6,2.2,0.9,3.4,0.8h0.4c1.6,0,3.1,0.4,4.4,1.2c0.2,0.1,0.3,0.3,0.5,0.4C27.2,28,27.8,28.8,28.2,29.6z M33.1,39.8l-0.1-0.1
				L33.1,39.8L33.1,39.8z"/>
			<path class="st1" d="M26.3,39.2h-0.9c-0.1,0-0.2,0-0.3,0.1h-0.1l-0.4,0.1l-0.3,0.1h-0.1l-0.2,0.2c-0.1,0.1-0.2,0.1-0.2,0.2V40
				c0,0.1-0.1,0.1-0.1,0.2v0.1c0,0.1,0,0.2,0,0.3c-0.8,0-1.7,0.2-2.4,0.6c-0.2,0.2-0.5,0.4-0.6,0.7c-0.1,0.1-0.1,0.3-0.2,0.4
				c-0.2,0.5-0.3,1.1-0.3,1.6c-1.6,0.1-2.3,0.8-2.6,1.6c-0.1,0.4-0.2,0.8-0.1,1.2c0,0.2,0.1,0.5,0.1,0.7c0.1,0.3,0.2,0.7,0.4,1
				c0,0.1,0.1,0.1,0.1,0.2l0.1,0l0.1,0.1h0.1l0.2,0.1h0.2l0.3,0.1h0.2l0.3,0.1h0.2L20,49h0.2l0.5,0.1H21l0.8,0.1h13.5l1-0.1h0.1
				l1-0.1h2.1l0.5-0.1h1l0.3-0.1h0.2l0.3-0.1h0.2l0.2-0.1c0,0,0.1,0,0.1,0c0.1,0,0.1-0.1,0.2-0.1c0.1-0.1,0.2-0.3,0.2-0.4
				c0-0.1,0.1-0.3,0.1-0.4v-0.1c0-0.1,0-0.3-0.1-0.4v-0.1c0-0.1-0.1-0.3-0.2-0.4v0c-0.1-0.1-0.2-0.3-0.3-0.4
				c-0.1-0.1-0.2-0.2-0.3-0.3c-0.1-0.1-0.2-0.1-0.3-0.2c-0.1,0-0.2-0.1-0.3-0.1h-0.1c-0.1,0-0.2,0-0.3,0.1c0.1-0.2,0.1-0.4,0.1-0.6
				c0-0.3-0.1-0.5-0.3-0.7c-0.4-0.5-0.9-0.9-1.5-1.1c0.1-0.2,0.2-0.5,0.1-0.7c0-0.4-0.2-0.7-0.4-1c-0.2-0.3-0.5-0.5-0.8-0.6
				c-0.2-0.1-0.3-0.1-0.5-0.2h-0.1l-0.4-0.1h-1l-0.3,0.1l-0.3,0.1h-0.2c-0.1,0-0.2,0.1-0.3,0.1h-0.2c0,0-0.1,0-0.1,0l-0.5-0.3
				c0,0-0.1,0-0.1-0.1L34,40.5l-0.2-0.2l-0.2-0.2L33.4,40l-0.2-0.1l-0.1-0.1l-0.1-0.1l-0.2-0.1l-0.4-0.1l-0.2-0.1
				c-0.2-0.1-0.4-0.1-0.7-0.2h-0.7l-0.2,0.1h0l-0.3,0.1h0l-0.2,0.1l-0.3,0.1l-0.3,0.1h-0.1l-0.2,0.1h-0.4c-0.1,0-0.3,0-0.4-0.1
				c-0.2-0.1-0.4-0.1-0.5-0.2c-0.1-0.1-0.2-0.1-0.4-0.2h-0.1L27,39.2h-0.5L26.3,39.2z"/>
		</g>
		<path class="st0" d="M31.8,18.3c2,0,3.7-1.6,3.6-3.7v-0.3c0-0.6-0.2-1.2-0.5-1.7l-3.1-4.8l-3.1,4.8c-0.1,0.2-0.3,0.4-0.3,0.7
			c-0.1,0.3-0.2,0.7-0.2,1v0.3C28.2,16.7,29.8,18.3,31.8,18.3C31.8,18.3,31.8,18.3,31.8,18.3z M28.9,5.8c1.1,0,2-0.9,2-2V3.7
			c0-0.4-0.1-0.7-0.3-1L28.9,0l-1.7,2.7C27.1,2.8,27,3,27,3.1c-0.1,0.2-0.1,0.4-0.1,0.6v0.2C26.8,4.9,27.7,5.8,28.9,5.8
			C28.8,5.9,28.9,5.9,28.9,5.8z M23.9,12.3c1.5,0,2.6-1.2,2.6-2.6V9.5c0-0.4-0.2-0.8-0.4-1.2l-2.2-3.5l-2.2,3.5
			c-0.1,0.2-0.2,0.3-0.2,0.5c-0.1,0.2-0.1,0.5-0.2,0.7v0.2C21.3,11.2,22.4,12.3,23.9,12.3z"/>
	</g>
</g>
</svg>
