<?xml version="1.0" encoding="utf-8"?>
<!-- Generator: Adobe Illustrator 24.1.2, SVG Export Plug-In . SVG Version: 6.00 Build 0)  -->
<svg version="1.1" id="Layer_1" xmlns="http://www.w3.org/2000/svg" xmlns:xlink="http://www.w3.org/1999/xlink" x="0px" y="0px"
	 viewBox="0 0 54.2 54.2" style="enable-background:new 0 0 54.2 54.2;" xml:space="preserve">
<style type="text/css">
	.st0{fill:#565656;}
	.st1{opacity:0.4;fill:#565656;enable-background:new    ;}
</style>
<g id="Layer_2_1_">
	<g id="Layer_2-2">
		<path class="st0" d="M3.9,33C3.3,32.4,3,31.6,3,30.8C3,28,7.3,25,14.3,23.2l-0.5-3C5.4,22.3,0,26.1,0,30.8c0,1.6,0.6,3.1,1.7,4.3
			C2.3,34.3,3.1,33.6,3.9,33z"/>
		<path class="st0" d="M3.9,37.2c0.7-0.8,1.4-1.5,2.3-2.1c-0.9-0.6-1.7-1.2-2.3-2.1c-0.8,0.6-1.6,1.3-2.2,2.1
			C2.3,35.9,3,36.6,3.9,37.2z"/>
		<path class="st1" d="M3.9,37.2c0.7-0.8,1.4-1.5,2.3-2.1c-0.9-0.6-1.7-1.2-2.3-2.1c-0.8,0.6-1.6,1.3-2.2,2.1
			C2.3,35.9,3,36.6,3.9,37.2z"/>
		<path class="st0" d="M6.2,35.1c-0.9,0.6-1.7,1.3-2.3,2.1c4.7,3.4,13.1,5.6,23.2,5.6s18.5-2.2,23.2-5.6c-0.6-0.8-1.4-1.5-2.3-2
			c-4.1,2.7-11.5,4.7-20.9,4.7S10.2,37.8,6.2,35.1z M40.2,20.2l-0.5,3c7.1,1.7,11.5,4.8,11.5,7.5c0,0.8-0.3,1.6-0.9,2.2
			c0.8,0.6,1.6,1.3,2.2,2.1c1-1.2,1.6-2.7,1.7-4.3C54.2,26.1,48.7,22.2,40.2,20.2z"/>
		<path class="st1" d="M34.2,29.8c0.2-0.3,0.4-0.5,0.6-0.8s0.5-0.7,0.7-1c-0.2,0.3-0.4,0.7-0.7,1S34.4,29.5,34.2,29.8z M18.6,28
			c0.2,0.3,0.4,0.7,0.6,1C19,28.7,18.8,28.3,18.6,28z M17.6,30.1c-0.3-0.4-0.5-0.8-0.7-1.1c-0.1-0.2-0.2-0.4-0.3-0.5
			c0,0,0-0.1-0.1-0.1c-5.3,1-9.7,2.6-12.6,4.7c0.7,0.8,1.4,1.5,2.3,2.1c2.7-1.7,6.8-3.2,12.1-4C18,30.8,17.8,30.4,17.6,30.1z
			 M50.3,37.2c0.5,0.6,0.8,1.4,0.9,2.2c0,4.3-9.9,9-24.1,9S3,43.6,3,39.4c0-0.8,0.3-1.6,0.9-2.2c-0.8-0.6-1.6-1.3-2.2-2.1
			c-1,1.2-1.6,2.7-1.7,4.3c0,6.8,11.6,12,27.1,12s27.1-5.2,27.1-12c0-1.6-0.6-3.1-1.7-4.3C51.8,35.9,51.1,36.6,50.3,37.2z
			 M37.4,28.4c-0.1,0.2-0.2,0.4-0.3,0.5c-0.2,0.4-0.5,0.7-0.7,1.1s-0.5,0.6-0.7,0.9c5.3,0.8,9.5,2.3,12.2,4.1
			c0.9-0.6,1.7-1.2,2.3-2.1c-2.9-2.2-7.4-3.8-12.8-4.8C37.5,28.3,37.5,28.4,37.4,28.4z"/>
		<path class="st0" d="M50.3,33c-0.6,0.8-1.4,1.5-2.3,2.1c0.9,0.6,1.7,1.3,2.3,2.1c0.8-0.6,1.6-1.3,2.2-2.1
			C51.9,34.3,51.1,33.6,50.3,33z"/>
		<path class="st1" d="M50.3,33c-0.6,0.8-1.4,1.5-2.3,2.1c0.9,0.6,1.7,1.3,2.3,2.1c0.8-0.6,1.6-1.3,2.2-2.1
			C51.9,34.3,51.1,33.6,50.3,33z"/>
		<path class="st0" d="M16.3,23.1c0,0.2,0.2,0.6,0.4,1.2c0.4,1.1,1,2.1,1.5,3.1l0.3,0.5v0c0.2,0.3,0.4,0.7,0.6,1s0.4,0.5,0.6,0.8
			s0.4,0.5,0.6,0.8l0.5,0.6c0.7,0.8,1.4,1.5,2.2,2.2c0.3,0.3,0.6,0.5,0.9,0.8c0.3,0.3,0.6,0.5,1,0.8c0.7,0.5,1.4,1,2.1,1.4
			c0.7-0.4,1.5-0.9,2.2-1.4c0.3-0.3,0.7-0.5,1-0.8c0.3-0.3,0.6-0.5,0.9-0.8c0.7-0.7,1.4-1.4,2.1-2.2c0.2-0.2,0.3-0.4,0.5-0.6
			s0.4-0.5,0.6-0.8s0.4-0.5,0.6-0.8s0.5-0.7,0.7-1c0.1-0.2,0.2-0.3,0.3-0.5c0.4-0.6,0.7-1.2,0.9-1.7s0.5-1,0.6-1.4
			c0.2-0.6,0.4-1,0.4-1.2v-0.1l2.5-14L27,2.8L13.8,9.1L16.3,23.1L16.3,23.1z"/>
	</g>
</g>
</svg>
