<?xml version="1.0" encoding="utf-8"?>
<!-- Generator: Adobe Illustrator 24.1.2, SVG Export Plug-In . SVG Version: 6.00 Build 0)  -->
<svg version="1.1" id="Layer_1" xmlns="http://www.w3.org/2000/svg" xmlns:xlink="http://www.w3.org/1999/xlink" x="0px" y="0px"
	 viewBox="0 0 63.7 63.7" style="enable-background:new 0 0 63.7 63.7;" xml:space="preserve">
<style type="text/css">
	.st0{fill:#565656;}
</style>
<g id="Layer_2_1_">
	<g id="Layer_2-2">
		<path class="st0" d="M28.3,45.7H28c0,0-0.1,0-0.1,0h0l0,0.1c0,0.1,0,0.1,0,0.2v3.4c0,0.9,0,0.9,0.9,1.2h0.4c0,0,0.1-0.1,0.1-0.1
			c0-0.1,0.1-0.1,0-0.2v-3.6C29.3,45.5,29.5,45.7,28.3,45.7z M26.5,20c0,0,0.1,0,0.1-0.1v-1.6v-1.5c-0.1-0.1-0.3-0.2-0.8-0.4
			c-1.7-0.6-3.4-1-5.2-1.4c-0.1,0-0.2,0-0.3-0.1c0-0.1-0.1-0.2-0.2-0.2H20l-0.1-0.1h-0.8c2.4,1.8,4.9,3.6,7.3,5.5
			C26.4,20.1,26.4,20,26.5,20z"/>
		<path class="st0" d="M24.1,43.1c0.3,4.9,0.7,11.1,0.8,12.5c0,0.2,0.1,0.5,0.2,0.7c0.6,0.7,1.2,1.3,1.8,2l0.2,0.2h0.1l0.1,0.1h0.1
			l0.1,0h14.3l0.1-0.1H42c0.1,0,0.1-0.1,0.2-0.2l2-2.3c0.1-0.1,0.1-0.2,0.1-0.3c0-0.3,0.4-7.3,0.8-12.7L24.1,43.1L24.1,43.1z
			 M29.3,48.2v2.1c0,0.1,0,0.1,0,0.2c0,0-0.1,0.1-0.1,0.1h-0.4c-0.9-0.3-0.9-0.3-0.9-1.2v-3.4c0-0.1,0-0.1,0-0.2l0-0.1h0
			c0,0,0.1,0,0.1,0h0.2c1.2,0,1-0.2,1.1,1L29.3,48.2z M45.6,34.6h-4.7c0,1.5-0.5,3-1.3,4.2c-1.2,1.5-3,2.4-5,2.4h-0.2
			c-1.8-0.1-3.5-0.9-4.7-2.3c-1.6-1.4-3.2-2.8-4.7-4.4h-1.6c0,0-0.1,0-0.1,0h-0.1c0,0,0,0.1-0.1,0.1c0,0,0,0.1,0,0.1
			c0,0.1,0,0.2,0,0.4v5.9c0,0.7,0.2,0.9,0.9,0.9h21.4c0.6,0,0.8-0.2,0.8-0.7v-6.1C46.3,34.9,46.1,34.6,45.6,34.6z M8.2,15.5
			c0,0-0.1,0-0.1,0.1c0,0.1-0.1,0.2-0.1,0.3v15.8c0,0.6,0.2,0.8,0.8,0.8h4.4c0.4,0.1,0.7-0.2,0.8-0.6c0-0.1,0-0.1,0-0.2v-0.3v-1.6
			v-4.3v-1.7v-2.3c0-0.1,0-0.2,0-0.3v-0.7c0-0.1,0-0.1,0-0.2L8.2,15.5z M27.7,20.5h11.6v-2.8v-1.2l-0.8-0.3
			c-2.7-1.1-5.5-1.8-8.4-2.1h-1.2c-0.2,0-0.4,0.1-0.5,0.2c-0.5,0.2-0.8,0.6-0.8,1.1v5.2H27.7z M6.2,16.3H4.5c-0.4,0-0.7,0.2-0.7,0.6
			c0,0,0,0.1,0,0.1v13.7c0,0.1,0,0.2,0,0.3v0.1c0,0.1,0.1,0.1,0.1,0.1c0,0,0.1,0,0.1,0.1c0,0,0.1,0.1,0.1,0.1h1.9
			c0.6,0,0.8-0.2,0.8-0.8V17C6.9,16.7,6.6,16.4,6.2,16.3C6.2,16.3,6.2,16.3,6.2,16.3z M14.9,21.3c0,0.1,0,0.2,0,0.3v10.2
			c0.1,0.5,0.3,0.7,0.8,0.7h4.4c0.4,0.1,0.7-0.2,0.8-0.6c0-0.1,0-0.1,0-0.2v-1.3c-1.5-1.5-2.7-3.2-3.7-5.1
			C16.7,23.8,15.9,22.5,14.9,21.3z M2,17.3H0.9c-0.7,0-0.9,0.2-0.9,0.9v11.5c0,0.5,0.2,0.8,0.6,0.8s1,0,1.6,0c0.3,0,0.6-0.2,0.6-0.6
			c0,0,0,0,0,0V18.1C2.8,17.7,2.5,17.3,2,17.3z M40.1,27.5C40.1,27.6,40.1,27.6,40.1,27.5v3.9c0.3,0.5,0.5,1.1,0.7,1.7h1.5
			c0.2,0,0.4,0,0.5-0.1c-0.1-0.2-0.1-0.3-0.1-0.5c-0.1-1.1,0-2.1,0-3.1v-1.7v-0.1L40.1,27.5z M43.6,18v2.5h2.3v-0.1v-4.9
			c0-0.6-0.3-0.8-0.8-0.8h-0.8c-0.5,0-0.7,0.2-0.7,0.7C43.6,15.9,43.6,17,43.6,18z M40.3,20.4L40.3,20.4l2.3,0.1c0,0,0-0.1,0-0.1
			v-4.9c0-0.6-0.2-0.8-0.8-0.8H41c-0.4,0-0.7,0.2-0.7,0.6c0,0.1,0,0.1,0,0.2C40.2,16.3,40.3,19.6,40.3,20.4z M43.6,27.5v4.8
			c0,0.4,0.3,0.7,0.7,0.7H45c0.5,0,0.8-0.2,0.9-0.5v-5L43.6,27.5z M62.8,33.9c-0.2-0.3-0.6-0.5-0.9-0.6c-2.3-0.8-4.7-1.5-7-2.2
			c-0.3-0.1-0.6-0.3-0.7-0.6c-0.5-1-1.1-1.9-1.6-2.9H47v5c-0.1,2,1.6,2.5,2.6,2.8c2.8,0.9,5.5,1.8,8.3,2.7c0.6,0.2,1.1,0.7,1.2,1.3
			c0.1,0.6,0.3,1.1,0.4,1.7c0.2,0.6,0.5,1.1,1,1.5c0.2,0.1,0.4,0.3,0.6,0.3l0.2,0.1l0.4,0.2l0.2,0c0.1,0,0.2,0.1,0.4,0.1h0.3
			c0.2,0,0.3,0,0.5,0c0.6,0,0.6,0,0.6-0.6v-6C63.6,35.6,63.3,34.7,62.8,33.9z M54.1,17.6c0.1-0.3,0.4-0.5,0.7-0.5l7.2-2.3
			c0.3-0.1,1.3-0.4,1.5-2.3c0,0,0.1-6.4,0.1-7.2c0-0.1,0-0.1,0-0.2c0,0,0-0.1,0-0.1c0,0-0.1,0-0.1,0h-1c-1.4,0.1-2.7,1.1-3,2.5
			c-0.1,0.4-0.2,0.8-0.3,1.2c-0.1,0.7-0.6,1.3-1.3,1.5c-2.7,0.9-5.3,1.8-8,2.6c-0.8,0.2-1.5,0.7-2,1.3c-0.5,0.4-0.8,1-0.9,1.7v4.8
			h5.5C53,19.5,53.6,18.6,54.1,17.6z M53,26.5h1.1c0.3,0,0.6-0.2,0.7-0.5c0,0,0,0,0,0v-3.8c0-0.3-0.2-0.6-0.5-0.6
			c-0.1,0-0.3-0.1-0.4,0H28.3c2.3,1.8,4.5,3.5,6.5,5h17.3L53,26.5z"/>
		<path class="st0" d="M34.6,40.3c-1.1,0-2.1-0.3-3-0.9c0.8,0.5,1.8,0.8,2.8,0.9h1.4l0.3-0.1l0.3-0.1c0.1,0,0.2-0.1,0.3-0.1l0.3-0.1
			l0.3-0.2c0.1,0,0.2-0.1,0.2-0.1l0.2-0.1C36.6,40,35.6,40.3,34.6,40.3z M5.5,8.6c0,0.6-0.2,1.2-0.6,1.6l-0.1-0.1L2.2,11l-0.1,0.2
			c0.6,0.1,1.2,0.3,1.7,0.3c0.7,0.1,1.3,0.3,1.9,0.7c1.3,1.1,9.1,7.7,9.5,8c1.3,1.3,2.3,2.9,2.9,4.7c0.4,1.1,2.7,3.9,5.2,6.6
			c-0.2-0.3-0.4-0.5-0.5-0.8c-0.1-0.4-3.8-4.2-4.3-5c-1-1.5,10.1,9.2,10.1,9.2l0.3,0.4c0-0.2,0-0.3,0-0.5c0-2.8,2.1-5.2,4.9-5.5
			l-0.6-0.6l0.6-1.5C25.1,20.1,9.9,9.1,7.7,7.1C7.5,7,7.3,6.8,7.1,6.7L7,6.6C6.9,6.6,6.8,6.5,6.7,6.5c0,0-0.1,0-0.1,0H6.2
			C5.1,6.1,3.9,6,2.7,6.1l2.3,1C5.3,7.5,5.5,8.1,5.5,8.6z"/>
		<path class="st0" d="M35.8,30.9L34,29.3c-2.8,0.3-5,2.7-5,5.5c0,0.2,0,0.3,0,0.5l2.5,4.2c1.8,1.2,4.1,1.2,5.9,0
			c2.6-1.7,3.3-5.1,1.6-7.6c-0.1-0.2-0.3-0.5-0.5-0.7C39.5,32.1,35.8,30.9,35.8,30.9z M34.6,38.3c-2,0-3.5-1.6-3.5-3.5
			c0-2,1.6-3.5,3.5-3.5c2,0,3.5,1.6,3.5,3.5c0,0,0,0,0,0C38.1,36.7,36.5,38.3,34.6,38.3z M2.1,11.2L2.2,11l2.5-0.8l0.1,0.1
			C5.6,9.4,5.7,8.1,5,7.1L2.7,6C1.3,6,0.1,7.2,0.1,8.7C0.2,9.9,1,10.9,2.1,11.2z M2.8,7.2c0.8-0.1,1.5,0.5,1.6,1.3
			C4.4,9.3,3.9,10,3,10.1c-0.1,0-0.2,0-0.2,0c-0.8,0-1.4-0.6-1.5-1.4c0,0,0-0.1,0-0.1C1.3,7.9,1.9,7.2,2.8,7.2
			C2.7,7.2,2.7,7.2,2.8,7.2L2.8,7.2z"/>
		<path class="st0" d="M34,29.3l1.9,1.7c0,0,3.6,1.2,2.9,0.2c-1.5-1.4-3.1-2.7-4.8-3.9l-0.6,1.5L34,29.3z M29.1,35.3l-0.3-0.4
			c0,0-11.1-10.7-10.1-9.2c0.5,0.8,4.1,4.6,4.3,5c0.1,0.3,0.3,0.6,0.5,0.8c2.4,2.9,5.2,5.6,8.2,7.9L29.1,35.3z"/>
	</g>
</g>
</svg>
