<svg xmlns="http://www.w3.org/2000/svg" viewBox="0 0 33.01 33.01">
  <defs>
    <style>
      .cls-1{fill:#565656}.cls-2{opacity:.4}
    </style>
  </defs>
  <g id="Chracter_Icons" data-name="Chracter Icons">
    <path class="cls-1" d="M18.8 13.78a3.59 3.59 0 00-5.88 3.94 4 4 0 00.77 1.14 3.6 3.6 0 005.07 0 3.7 3.7 0 00.73-1.14 3.6 3.6 0 00-.73-3.94zM17.57 6.26h2.37a.19.19 0 00.19-.2.24.24 0 000-.09L18.4 3 16.69.1a.18.18 0 00-.26-.1.16.16 0 00-.07.07L14.63 3l-1.71 2.94a.21.21 0 00.08.27.16.16 0 00.09 0h2.2v3.25h2.27v-3.2M17.56 26.43v-3.2h-2.27v3.2h-2.2a.19.19 0 00-.19.2.24.24 0 000 .09l1.71 2.94 1.71 2.94a.19.19 0 00.27.06l.06-.06 1.71-2.94 1.71-2.94a.2.2 0 00-.07-.27H17.57M26.76 15.22h-3.45v2.26h3.45v2.29A.19.19 0 0027 20a.17.17 0 00.1 0l2.9-1.78 2.94-1.71a.19.19 0 00.06-.27.12.12 0 00-.06-.06L30 14.47l-2.93-1.71a.21.21 0 00-.27.07.36.36 0 000 .1v2.28M6.26 15.21v-2.28a.19.19 0 00-.2-.19h-.09L3 14.47.09 16.18a.19.19 0 00-.06.27.17.17 0 00.06.06L3 18.22l3 1.71a.2.2 0 00.27-.07.29.29 0 000-.09v-2.29h3.27v-2.26H6.26"/>
    <g class="cls-2">
      <path class="cls-1" d="M11 7.85L9.05 7.3l-2-.5a.13.13 0 00-.05.09v.05l.53 1.94.47 1.95a.11.11 0 00.15.07l.95-1 1.36 1.37.94-.94L10.08 9l1-1a.11.11 0 000-.16z"/>
    </g>
    <g class="cls-2">
      <path class="cls-1" d="M22 24.85l1.94.52 2 .52a.11.11 0 00.13-.09v-.05l-.52-1.94-.55-1.94a.1.1 0 00-.13-.08.09.09 0 00-.06 0l-.95.95-1.43-1.43-.94.94 1.43 1.43-1 .95a.12.12 0 000 .16.07.07 0 00.08.06z"/>
    </g>
    <g class="cls-2">
      <path class="cls-1" d="M22.44 11.29L23.76 10l1 1a.11.11 0 00.16 0v-.05L25.46 9 26 7a.13.13 0 00-.09-.14h-.05l-1.94.52-1.92.53a.11.11 0 00-.08.13.06.06 0 000 .06l.92.92-1.34 1.33z"/>
    </g>
    <g class="cls-2">
      <path class="cls-1" d="M10.51 21.34l-1.33 1.32-.92-.91a.1.1 0 00-.16 0l-.52 1.94L7 25.68a.12.12 0 00.09.14l1.94-.52 1.94-.52a.1.1 0 00.09-.11.07.07 0 000-.07l-1-1 1.33-1.32z"/>
    </g>
  </g>
</svg>