<?xml version="1.0" encoding="utf-8"?>
<!-- Generator: Adobe Illustrator 24.1.2, SVG Export Plug-In . SVG Version: 6.00 Build 0)  -->
<svg version="1.1" id="Layer_1" xmlns="http://www.w3.org/2000/svg" xmlns:xlink="http://www.w3.org/1999/xlink" x="0px" y="0px"
	 viewBox="0 0 52.5 52.5" style="enable-background:new 0 0 52.5 52.5;" xml:space="preserve">
<style type="text/css">
	.st0{opacity:0.4;fill:#565656;enable-background:new    ;}
	.st1{fill:#565656;}
</style>
<path class="st0" d="M36.5,0L21.8,6.7l2.8,14.8c0.2,0.7,0.5,1.4,0.8,2l0.4,0.8c0.2,0.3,0.4,0.7,0.6,1l1.2-1.2c2-1.6,4.4-2.8,7-3.3
	l1.9-0.5l0.5,1.9c0.2,0.7,1.6,6.8-0.8,11.1c-0.3,0.5-0.6,1-1,1.4c0.5,0.3,0.9,0.6,1.4,0.8c0.9-0.5,1.8-1.1,2.7-1.7
	c0.3-0.2,0.5-0.4,0.8-0.6s0.7-0.6,1-0.8c0.8-0.7,1.5-1.5,2.2-2.3c0.2-0.2,0.3-0.4,0.5-0.6s0.5-0.6,0.7-0.9l0.6-0.9
	c0.2-0.3,0.5-0.8,0.8-1.1l0.4-0.6c0.4-0.7,0.7-1.3,1-1.8c0.1-0.3,0.3-0.5,0.4-0.8c0.3-0.6,0.6-1.3,0.8-2l2.8-14.7L36.5,0z
	 M37.3,49.9c0-0.1-0.1-0.3-0.2-0.4c-0.1-0.1-0.2-0.3-0.3-0.4l-0.3-0.3c-0.1-0.1-0.2-0.1-0.3-0.2c-0.1,0-0.2-0.1-0.3-0.1h-0.1
	c-0.1,0-0.2,0-0.2,0.1c0.1-0.5,0.1-0.9-0.2-1.4c-0.4-0.5-0.9-0.9-1.5-1.1c0.1-0.2,0.2-0.5,0.1-0.7c0-0.4-0.2-0.7-0.4-1
	s-0.5-0.5-0.8-0.6c-0.2-0.1-0.3-0.1-0.5-0.2h-0.1l-0.4-0.1h-1.1l-0.3,0.1l-0.1,0.1h-0.1c-0.2,0-0.6-0.1-1.1-0.2l-0.1-0.1l-0.2-0.2
	L28.5,43h-0.3L28,42.9l-0.1-0.1l-0.2-0.1l-0.2-0.1l-0.4-0.1l-0.2-0.1c-0.2-0.1-0.5-0.1-0.7-0.1h-0.6l-0.2,0.1h-0.2L25,42.5h-0.1
	l-0.2,0.1l-0.3,0.1l-0.2,0.1H24l-0.2,0.1h-0.4c-0.1,0-0.3,0-0.4-0.1l-0.1,0.1h-0.1c-0.2-0.1-0.4-0.1-0.5-0.2
	c-0.1-0.1-0.2-0.1-0.4-0.2h-0.1l-0.3-0.1h-1.3L20,42.5h-0.1c-0.1,0-0.3,0.1-0.4,0.1s-0.2,0.1-0.3,0.1h-0.1c-0.1,0-0.2,0.1-0.2,0.2
	c-0.1,0.1-0.2,0.1-0.2,0.2v0.1c0,0.1-0.1,0.1-0.1,0.2v0.4c-0.8,0-1.7,0.2-2.4,0.6c-0.3,0.2-0.5,0.4-0.6,0.7
	c-0.1,0.1-0.1,0.3-0.2,0.4c-0.2,0.5-0.4,1.1-0.5,1.6c-0.8,0-1.5,0.3-2.1,0.8c-0.2,0.2-0.4,0.5-0.5,0.8c-0.1,0.4-0.2,0.8-0.1,1.2
	c0,0.2,0.1,0.5,0.1,0.7c0.1,0.3,0.2,0.7,0.3,1c0,0.1,0.1,0.1,0.1,0.2l0.1,0.1c0,0,0.1,0.1,0.2,0.1h0.1l0.2,0.1l0.3,0.1h0.2l0.3,0.1
	h0.2l0.4,0.1h0.2l0.5,0.1h0.2l0.8,0.1l0.8,0.1H30l1-0.1h0.1l1-0.1h1.3l0.5-0.1H35l0.4-0.1h0.3l0.3-0.1h0.2l0.3-0.1h0.2L37,52H37
	c0.1,0,0.1-0.1,0.2-0.1V51c0-0.1,0.1-0.3,0.1-0.4v-0.1C37.3,50.3,37.3,50.2,37.3,49.9z"/>
<path class="st1" d="M12.1,33.1c0.3,0.1,0.5,0.2,0.8,0.2h0.1c0.3,0,0.6,0.1,0.8,0.1h1.9c0.2,0,0.5,0,0.8-0.1
	c1.3-0.3,2.4-0.8,3.5-1.6c-0.1-0.1-0.2-0.3-0.4-0.4c-1-0.8-2.1-1.2-3.4-1.4c-0.7-0.1-1.4-0.3-2.1-0.5c-0.8-0.2-1.4-0.6-2-1.1
	c-0.9-0.9-1.5-2-2-3.2C10,25,10,24.9,9.9,24.7c0.7,1.2,1.5,2.3,2.6,3.1c1,0.6,2.2,0.9,3.4,0.8h0.4c1.6,0,3.1,0.4,4.4,1.2
	c0.2,0.1,0.3,0.3,0.5,0.4c0.7,0.6,1.3,1.4,1.8,2.2l0.6,1.2c0.6,1.4,1,2.9,1.2,4.4c0.1,1.1,0.2,2.1,0.2,3.2c0.3-0.1,0.6-0.2,0.9-0.2
	h0.3c0.5,0.1,1,0.2,1.5,0.4V41c-0.1-1.4-0.3-2.9-0.7-4.2c-0.1-0.2-0.1-0.5-0.2-0.7c-0.2-0.4-0.3-0.9-0.4-1.4c0-0.2-0.1-0.4-0.1-0.7
	c0-0.9,0.3-1.8,0.8-2.5c1-1.4,2.5-2.4,4.1-2.8c-0.7,0.3-1.3,0.6-1.9,1.1c-0.4,0.3-0.7,0.6-1,0.9s-0.5,0.7-0.8,1.1
	c-0.3,0.5-0.5,1.1-0.5,1.7v0.6l0.3,1.2h1.6c0.2,0,0.4,0,0.6-0.1l0.4-0.1l0.6-0.1l0.4-0.1c0.2-0.1,0.3-0.1,0.5-0.2l0.4-0.2
	c0.1-0.1,0.3-0.2,0.4-0.3l0.3-0.2c0.1-0.1,0.3-0.2,0.4-0.3l0.2-0.2c0.1-0.1,0.2-0.3,0.4-0.4l0.2-0.2c0.2-0.2,0.3-0.4,0.4-0.7
	c0.8-1.7,1.2-3.6,1.1-5.4c0-1.4-0.2-2.8-0.5-4.1c-2.2,0.5-4.3,1.5-6.1,2.9c-0.5,0.4-1,0.9-1.4,1.4c-1.1,1.3-1.9,2.8-2.2,4.5
	c-0.4-0.7-0.9-1.3-1.5-1.8c-0.5-0.6-1.2-1-1.9-1.4l-0.3-1.5c0-0.2-0.1-0.3-0.1-0.4c-0.1-0.3-0.2-0.7-0.3-1c0-0.2-0.1-0.3-0.2-0.5
	c-0.1-0.3-0.3-0.7-0.4-1l-0.1-0.3c-0.2-0.4-0.4-0.8-0.7-1.2l-0.2-0.2l-0.6-0.9L18.4,21c-0.2-0.2-0.4-0.5-0.6-0.7L17.5,20
	c-0.3-0.3-0.6-0.5-0.9-0.8l-0.1-0.1c-0.4-0.3-0.7-0.5-1.1-0.7l-0.3-0.2c-0.3-0.2-0.6-0.3-0.9-0.4l-0.4-0.2c-0.3-0.1-0.6-0.2-1-0.3
	l-0.4-0.1c-0.5-0.1-0.9-0.2-1.4-0.3h-0.3c-0.4-0.1-0.9-0.1-1.3-0.1H7.1c-0.4,0-0.8,0.1-1.1,0.1L5.3,17c-0.4,0.1-0.9,0.1-1.3,0.2
	l-0.7,0.1c-0.7,0.1-1.3,0.3-2,0.5c0.3,0.7,0.5,1.3,0.8,2V20c0.2,0.6,0.5,1.2,0.7,1.7c0,0.1,0.1,0.2,0.1,0.3l0.7,1.5
	c0,0.1,0.1,0.2,0.1,0.2c0.2,0.5,0.5,1,0.7,1.4l0.1,0.2c0.5,0.9,1,1.8,1.5,2.5l0.3,0.3c0.2,0.4,0.5,0.7,0.7,1L7,29.3
	c0.2,0.3,0.5,0.6,0.7,0.9l0.1,0.1c0.2,0.3,0.5,0.5,0.7,0.8l0.1,0.1c0.5,0.5,1,0.9,1.6,1.2l0.1,0.1c0.3,0.2,0.5,0.3,0.8,0.4l0.1,0.1
	c0.2,0.1,0.5,0.2,0.8,0.3h0.1L12.1,33.1z"/>
</svg>
