<?xml version="1.0" encoding="utf-8"?>
<!-- Generator: Adobe Illustrator 24.1.2, SVG Export Plug-In . SVG Version: 6.00 Build 0)  -->
<svg version="1.1" id="Layer_1" xmlns="http://www.w3.org/2000/svg" xmlns:xlink="http://www.w3.org/1999/xlink" x="0px" y="0px"
	 viewBox="0 0 50 50" style="enable-background:new 0 0 50 50;" xml:space="preserve">
<style type="text/css">
	.st0{fill:#565656;}
</style>
<path class="st0" d="M9.3,33c0.2,0.3,0.3,0.7,0.5,1.1c0.4,0.8,0.9,1.6,1.4,2.6c0.1,0.3,0.3,0.5,0.5,0.8c0.3,0.5,0.7,1,1,1.6
	c0.3,0.4,0.6,0.8,0.9,1.2s0.6,0.8,1,1.2s0.5,0.5,0.7,0.8c1,1.2,2.1,2.2,3.3,3.3c0.4,0.4,0.9,0.8,1.4,1.2s0.7,0.6,1.1,0.9
	c1.2,0.9,2.5,1.7,3.8,2.4c1.3-0.7,2.6-1.5,3.8-2.4c0.4-0.3,0.8-0.6,1.1-0.9s1-0.8,1.4-1.2c1.2-1,2.2-2.1,3.3-3.3
	c0.2-0.3,0.5-0.5,0.7-0.8s0.7-0.8,1-1.2s0.6-0.8,0.9-1.2s0.7-1,1-1.6c0.2-0.3,0.3-0.5,0.5-0.8c0.6-0.9,1-1.8,1.4-2.6
	c0.2-0.4,0.4-0.8,0.5-1.1c0.4-0.9,0.8-1.9,1.1-2.8l4-20.8L25,0L4.2,9.4l4,20.8C8.6,31.1,8.9,32.1,9.3,33z M25,27.9H12.5L25,15.6l3,3
	l1.6,1.6l7.9,7.8L25,27.9z M30.2,17.5l-4.1-4.1L25,12.4l-1.1,1.1l-4.1,4.1h-4.2L25,8.3l9.4,9.3H30.2z"/>
</svg>
