<?xml version="1.0" encoding="utf-8"?>
<!-- Generator: Adobe Illustrator 24.1.2, SVG Export Plug-In . SVG Version: 6.00 Build 0)  -->
<svg version="1.1" id="Layer_1" xmlns="http://www.w3.org/2000/svg" xmlns:xlink="http://www.w3.org/1999/xlink" x="0px" y="0px"
	 viewBox="0 0 50.6 50.6" style="enable-background:new 0 0 50.6 50.6;" xml:space="preserve">
<style type="text/css">
	.st0{opacity:0.4;fill:#565656;enable-background:new    ;}
	.st1{fill:#555555;}
	.st2{fill:#565656;}
</style>
<g id="Layer_2_1_">
	<g id="Layer_2-2">
		<path class="st0" d="M9.8,30.1c-0.8,0.7-1.4,1.6-1.7,2.7C8,33.9,8.2,35,8.9,35.9C11.1,39,17.9,41,25.3,41c1.5,0,3.1-0.1,4.6-0.3
			c6.5-0.7,11-2.9,12.3-5.7c0.6-1.3,0.4-2.8-0.5-3.9c-0.4-0.6-0.9-1.1-1.5-1.5c-0.5,0.4-1,0.9-1.4,1.5c0.5,0.3,0.9,0.7,1.2,1.2
			c0.5,0.5,0.6,1.3,0.3,1.9C39.6,36,36,38,29.6,38.7c-8.1,0.9-16.9-0.9-19.1-4c-0.4-0.4-0.5-1-0.4-1.5c0.2-0.6,0.5-1.1,1-1.6
			C10.8,31.1,10.4,30.6,9.8,30.1z"/>
		<path class="st0" d="M45.1,28.5c-0.2,0-0.4-0.1-0.6-0.1c1.3,0.8,2.4,2,3.3,3.3c0.3,0.5,0.5,1.1,0.7,1.7c0.3,1.5,0,3.1-1,4.4
			c-2.4,3.5-8.3,6.2-15.7,7.3c-12.5,1.8-25.6-1.7-29.1-7.7c-0.8-1.2-1-2.7-0.6-4.1c0.5-1.6,1.6-3.1,3-4.1c-0.7-0.2-1.3-0.6-1.8-1
			c-1.4,1.2-2.5,2.8-3.1,4.6c-0.5,1.9-0.2,3.9,0.8,5.6c3.3,5.6,13.1,9.2,24.1,9.2c2.3,0,4.7-0.2,7-0.5c8-1.1,14.3-4.2,17-8.1
			c1.3-1.7,1.7-3.9,1.3-6c-0.2-0.8-0.5-1.5-0.9-2.2c-0.5-0.9-1.2-1.8-2-2.5c-0.6,0.2-1.3,0.3-1.9,0.3L45.1,28.5z"/>
		<path class="st1" d="M7.5,27.4h1.4l0.2,0h0.2l0.2,0.1l0.2,0.1l0.2,0.1l0.2,0.1l0.2,0.1l0.2,0.1c0.1,0,0.2,0.1,0.2,0.1l0.2,0.1
			l0.2,0.2l0.2,0.2l0.2,0.2l0.2,0.2l0.2,0.3l0.2,0.2c0.1,0.1,0.2,0.2,0.2,0.3l0.2,0.2l0.2,0.4l0.2,0.3c0.1,0.1,0.2,0.3,0.3,0.5
			s0.1,0.2,0.1,0.3c0.1,0.3,0.2,0.5,0.4,0.8c1.5-5.3-3.5-10.9-6.3-11.5H7.3c-0.2,0-0.3,0-0.5,0c-1.8,0-3.3,1.5-3.3,3.3
			s1.5,3.3,3.3,3.3C7.1,27.4,7.3,27.4,7.5,27.4z M11.4,14.7h-0.1c-0.1,0-0.2,0-0.3-0.1c-1-0.2-2,0.5-2.2,1.5c-0.2,1,0.5,2,1.5,2.2
			c0.1,0,0.1,0,0.2,0h0.4c0.8,0.1,2.5,0.5,3.3,3.4C15.4,18.8,12.9,15.2,11.4,14.7z M42.5,16.2c0.6-0.1,1.1-0.7,1-1.3
			c-0.1-0.6-0.7-1.1-1.3-1c-0.1,0-0.1,0-0.2,0.1c-1.6,0.9-2.3,2.7-1.8,4.5C40.8,16.1,42.3,16.1,42.5,16.2z M45.9,18.1
			c-0.2,0-0.4,0-0.7,0h-0.3c-0.3,0.1-0.6,0.1-0.9,0.3c-0.4,0.1-0.7,0.3-1.1,0.5c-3.7,2-8.4,7.8-7.2,13.5c0.2-0.3,0.3-0.7,0.5-1
			l0.2-0.3c0.1-0.2,0.2-0.4,0.4-0.6l0.2-0.3l0.3-0.5l0.2-0.3l0.3-0.4l0.2-0.3l0.3-0.3l0.2-0.2l0.4-0.3l0.2-0.2l0.4-0.3l0.2-0.1
			c0.2-0.1,0.4-0.2,0.6-0.3l0.1,0l0.5-0.2l0.2-0.1l0.3-0.1l0.2-0.1l0.3-0.1l0.2,0l0.3,0h1.2c0.2,0,0.4,0,0.6,0
			c0.3,0.1,0.6,0.1,0.9,0.2h0c0.2,0,0.4,0,0.5,0h0.4c0.1,0,0.3-0.1,0.4-0.1l0.3-0.1c0.1-0.1,0.3-0.1,0.4-0.2l0.3-0.2
			c0.1-0.1,0.3-0.2,0.4-0.3c0.1-0.1,0.2-0.1,0.3-0.2c0.1-0.1,0.2-0.2,0.3-0.3c0.1-0.1,0.2-0.2,0.2-0.3c0.1-0.1,0.2-0.3,0.3-0.4
			l0.2-0.3c0.1-0.2,0.1-0.3,0.2-0.5c0-0.1,0.1-0.2,0.1-0.3c0.1-0.3,0.1-0.5,0.2-0.8c0.1-1.1-0.3-2.2-1-3.1
			C48.1,18.7,47,18.2,45.9,18.1z"/>
		<path class="st2" d="M22.2,11.4C20.1,1,14.7,2.8,13.9,4.1c-1.4,2.8-0.6,6.2,2,8c3.6,2.9,5.9,14.7,5.4,17.2
			C23.2,23.6,23.5,17.4,22.2,11.4z M32.9,19.1c1.8-0.8,2.8-2.7,2.3-4.6c-0.3-0.9-3.4-2.6-6,3.4c-1.5,3.5-2.1,7.2-1.7,11
			C27.5,27.4,30.3,20.4,32.9,19.1z"/>
	</g>
</g>
</svg>
