<?xml version="1.0" encoding="utf-8"?>
<!-- Generator: Adobe Illustrator 24.1.2, SVG Export Plug-In . SVG Version: 6.00 Build 0)  -->
<svg version="1.1" id="Layer_1" xmlns="http://www.w3.org/2000/svg" xmlns:xlink="http://www.w3.org/1999/xlink" x="0px" y="0px"
	 viewBox="0 0 51.5 51.5" style="enable-background:new 0 0 51.5 51.5;" xml:space="preserve">
<style type="text/css">
	.st0{fill:#565656;}
	.st1{opacity:0.4;fill:#565656;enable-background:new    ;}
</style>
<g id="Layer_2_1_">
	<g id="Layer_2-2">
		<path class="st0" d="M23.7,14.2l11.7,4l0.6,0.2H36c0,0,0,0.1,0,0.1l0.2,0.6l3.6,11.9c0.1,0.2,0.3,0.3,0.5,0.3
			c0.2,0,0.3-0.2,0.3-0.4l1.7-17.5c0-0.3,0-0.5-0.2-0.8c-0.2-0.2-0.5-0.2-0.8-0.2l-17.6,0.9c-0.2,0-0.4,0.3-0.3,0.5
			C23.5,14.1,23.6,14.2,23.7,14.2z"/>
		<path class="st0" d="M50.6,3.1L33,4c-0.2,0-0.4,0.2-0.4,0.4c0,0.2,0.1,0.3,0.3,0.4l11.7,4L45.2,9c0,0,0.1,0,0.1,0c0,0,0,0.1,0,0.1
			l0.2,0.6L49,21.6c0.1,0.2,0.3,0.3,0.5,0.3c0.2,0,0.3-0.2,0.3-0.4L51.5,4c0.1-0.3,0-0.5-0.2-0.8C51.1,3.1,50.8,3,50.6,3.1z"/>
		<path class="st1" d="M10.1,46.7c1.4,1.9,4,2.3,5.8,0.9c1.6-1.1,2.1-3.2,1.4-4.9c0.4,0.2,0.8,0.3,1.2,0.3c1.7,0,3-1.4,3-3
			c0-0.7-0.3-1.4-0.8-2l-6.3,2.9l1.7-1.7l1.5-2.3l-6.3,3.5l2-3.1L8,39.6l5.8-7.9c-1.2-2.5-4.2-3.6-6.8-2.4c-1.6,0.7-2.6,2.2-2.9,3.9
			C1.8,33.6,0,35.1,0,36.9c0.1,1.4,1.1,2.6,2.4,3.1c-0.4,0.3-0.8,0.7-1.1,1.2c-1.2,2.2-0.2,5.1,2.3,6.5C5.7,49,8.5,48.6,10.1,46.7z"
			/>
		<path class="st1" d="M18.7,32.3l-4.8,6l7.2-4l-3,3.9l-2,1.1l4.9-2.7l5.7-3.5l2.5,8.3c0.1,0.2,0.3,0.4,0.6,0.3
			c0.2-0.1,0.3-0.2,0.3-0.4l1.7-18.4c0-0.3,0-0.6-0.2-0.8c-0.2-0.2-0.5-0.2-0.8-0.2l-18.5,1c-0.2,0-0.4,0.2-0.4,0.5
			c0,0.2,0.1,0.3,0.3,0.4l7.9,2.7l-4.9,5.5l-3.7,5.4L18.7,32.3z"/>
	</g>
</g>
</svg>
