<svg xmlns="http://www.w3.org/2000/svg" viewBox="0 0 54.37 54.37">
  <defs>
    <style>
      .cls-1{fill:none}.cls-3{fill:#565555}
    </style>
  </defs>
  <g id="Layer_2" data-name="Layer 2">
    <g id="Disturbing_Strike" data-name="Disturbing Strike">
      <path class="cls-1" d="M12.58 19.93a17.5 17.5 0 00.92-5.36l-2.92-2.78a23.86 23.86 0 01-1.47 7 26.13 26.13 0 01-3.79 5.71h3.95a20.42 20.42 0 003.31-4.57zM33.17 39.92a19.88 19.88 0 00-4.78 3.28v3.67a26.09 26.09 0 016.3-4 29.61 29.61 0 017-1.49l-2.61-2.48a23.6 23.6 0 00-5.91 1.02zM41.79 31.74a17.38 17.38 0 00-.91 5.36l2.91 2.77a24.25 24.25 0 011.47-7 26.62 26.62 0 013.79-5.71H45.1a20.28 20.28 0 00-3.31 4.58z"/>
      <path class="cls-1" d="M28.39 8.64a21.59 21.59 0 004.83 3.12l.61.2a13.09 13.09 0 00-3 1.5 26.64 26.64 0 01-2.45-1.6v3.6a1.54 1.54 0 00-.22.27l-1.78.95L26 17l-.05.05v-5.28a17.25 17.25 0 01-4 2.44 19.1 19.1 0 01-4.21 1l4.58 4.35a6.68 6.68 0 001.39-.23l-2.49 2.49-1.06 1.06a6.43 6.43 0 00.41-1.49l-4.88-4.64a15.43 15.43 0 01-1 4.33 16.82 16.82 0 01-2.21 3.47h6l-2.62 2.62h-3.38a19.45 19.45 0 011.46 2l-.25.25a2.61 2.61 0 00-.31.25c-.31.28-.59.57-.86.84l-.39.4a23.17 23.17 0 00-3.06-3.78H5.16a23.91 23.91 0 013.92 5.65 26.42 26.42 0 011.62 7L13.62 37v-.54c.86.87 1.73 1.74 2.6 2.6h-1l-2.59 2.46a26.73 26.73 0 017.05 1.35A29.32 29.32 0 0126 46.69V43a28.66 28.66 0 00-2.72-2c.16-.17.33-.33.49-.47a3.65 3.65 0 00.51-.55l.8-.8.88.62v-1.49c.8-.79 1.61-1.59 2.41-2.4v4a17.57 17.57 0 014-2.43 19.1 19.1 0 014.21-1l-4.48-4.26c.31-.31.63-.62.94-.94l.2-.2.65-.65L38.61 35a15.43 15.43 0 011-4.33 17.15 17.15 0 012.21-3.48H37l.84-1.51.27-.22.11-.11q.34-.36.69-.75h2.92a20.46 20.46 0 01-1.44-1.95 13.91 13.91 0 001.18-2.42c0-.11.07-.24.11-.36 0 .06 0 .13.07.18a18.85 18.85 0 003.47 4.55h3.93a24.15 24.15 0 01-3.92-5.64 26.91 26.91 0 01-1.62-7l-1.38 1.31a3.31 3.31 0 00-.81-1.3 1.87 1.87 0 00-1-.49l1.38-1.28a26.33 26.33 0 01-7-1.35A29.56 29.56 0 0128.39 5zm-6 30.42a15.87 15.87 0 00-1.16 1.16.83.83 0 01-.55.29.9.9 0 01-.28 0l-7.22-7.22a.7.7 0 01.22-.79c.45-.43.87-.89 1.33-1.31a.67.67 0 01.17-.19l7.76 7.76a1.79 1.79 0 01-.24.3zm9.39-9.38L27 34.49l-2.68 2.67-7.79-7.79c2.07-2.05 4.12-4.11 6.18-6.17l4.74-4.74.22-.21L35.44 26zm5.92-16.43a13.34 13.34 0 011.89.05c.17 0 .34.06.5.09s.16.16.23.23a11.67 11.67 0 01-.59 5.83A11.18 11.18 0 0137.67 23c-.27.3-.54.6-.82.89l-.06.06-.1.07s-6.95-7.07-6.91-7.1a11.56 11.56 0 017.95-3.67z"/>
      <path class="cls-1" d="M21.2 11.74A19.59 19.59 0 0026 8.47V4.8a26.5 26.5 0 01-6.29 4 28.82 28.82 0 01-7 1.49l2.61 2.48a22.72 22.72 0 005.88-1.03z"/>
      <path d="M26 0v1.46c-1.21 1.08-4.45 3.85-7.12 4.9a34.06 34.06 0 01-8.74 1.54L8.76 6.58l-1.59 2 1.11 1.03c0 1.59-.28 5.62-1.35 8.08A30.67 30.67 0 012 24.52H0v2.62h1.71c1.09 1.09 4.08 4.22 5.19 6.77a28.32 28.32 0 011.57 8l-1.3 1.24 1.59 2L10 44c1.56 0 6.1.24 8.84 1.32A32 32 0 0126 50v1.71h2.41v-1.5c1.21-1.09 4.46-3.86 7.12-4.9a33.2 33.2 0 018.72-1.54l1.38 1.32 1.59-2-1.11-1.06c0-1.59.28-5.62 1.36-8.07a30.14 30.14 0 014.94-6.84h2v-2.6h-1.75c-1.09-1.09-4.08-4.22-5.19-6.77a28.62 28.62 0 01-1.57-8l1.3-1.24-1.59-2-1.19 1.2c-1.56 0-6.09-.24-8.84-1.32a32 32 0 01-7.19-4.67V0zm-6.31 8.82A26.5 26.5 0 0026 4.8v3.67a19.59 19.59 0 01-4.78 3.27 22.72 22.72 0 01-5.9 1l-2.61-2.48a28.82 28.82 0 006.98-1.44zm-10.58 10a23.86 23.86 0 001.47-7l2.92 2.78a17.5 17.5 0 01-.92 5.36 20.42 20.42 0 01-3.31 4.59H5.32a26.13 26.13 0 003.79-5.74zm25.58 24a26.09 26.09 0 00-6.3 4V43.2a19.88 19.88 0 014.78-3.28 23.6 23.6 0 015.9-1.05l2.61 2.48a29.61 29.61 0 00-6.99 1.49zm10.57-10a24.25 24.25 0 00-1.47 7l-2.91-2.72a17.38 17.38 0 01.91-5.36 20.28 20.28 0 013.31-4.6h3.95a26.62 26.62 0 00-3.79 5.71zm-10.51-24a26.33 26.33 0 007 1.35l-1.29 1.23a1.87 1.87 0 011 .49 3.31 3.31 0 01.81 1.3l1.38-1.31a26.91 26.91 0 001.62 7 24.15 24.15 0 003.92 5.64h-3.91A18.85 18.85 0 0141.81 20s0-.12-.07-.18c0 .12-.06.25-.11.36a13.91 13.91 0 01-1.18 2.42 20.46 20.46 0 001.44 1.95H39q-.34.39-.69.75l-.11.11-.27.22-.93 1.51h4.8a17.15 17.15 0 00-2.21 3.48 15.43 15.43 0 00-1 4.33l-4.74-4.51-.65.65-.2.2c-.31.32-.63.63-.94.94l4.48 4.26a19.1 19.1 0 00-4.21 1 17.57 17.57 0 00-4 2.43v-4c-.8.81-1.61 1.61-2.41 2.4v1.48l-.88-.62-.8.8a3.65 3.65 0 01-.51.55c-.16.14-.33.3-.49.47A28.66 28.66 0 0126 43v3.66a29.32 29.32 0 00-6.36-3.88 26.73 26.73 0 00-7-1.35L15.16 39h1c-.87-.86-1.74-1.73-2.6-2.6v.54l-2.86 2.82a26.42 26.42 0 00-1.62-7 23.91 23.91 0 00-3.92-5.65h3.93a23.17 23.17 0 013.06 3.78l.39-.4c.27-.27.55-.56.86-.84a2.61 2.61 0 01.31-.25l.25-.25a19.45 19.45 0 00-1.46-2h3.45l2.62-2.62h-6a16.82 16.82 0 002.21-3.47 15.43 15.43 0 001-4.33l4.88 4.64a6.43 6.43 0 01-.41 1.49l1.06-1.06 2.49-2.49a6.68 6.68 0 01-1.39.23l-4.58-4.35a19.1 19.1 0 004.21-1 17.25 17.25 0 004-2.44v5.32L26 17l.26-.25 1.78-.95a1.54 1.54 0 01.22-.27v-3.6a26.64 26.64 0 002.45 1.6 13.09 13.09 0 013-1.5l-.61-.2a21.59 21.59 0 01-4.83-3.12V5a29.56 29.56 0 006.48 3.85z" opacity=".4" fill="#565555"/>
      <path class="cls-3" d="M27.44 18.46L22.7 23.2c-2.06 2.06-4.11 4.12-6.18 6.17l7.79 7.79L27 34.49l4.82-4.81L35.44 26l-7.78-7.79zM14.76 31.15c-.46.42-.88.88-1.33 1.31a.7.7 0 00-.22.79l7.22 7.22a.9.9 0 00.28 0 .83.83 0 00.55-.29 15.87 15.87 0 011.16-1.16 1.79 1.79 0 00.24-.26L14.9 31a.67.67 0 00-.14.15zM29.78 16.9l6.91 7.1.1-.07.06-.06c.28-.29.55-.59.82-.89a11.18 11.18 0 002.09-3.53 11.67 11.67 0 00.59-5.83c-.07-.07-.14-.15-.23-.23s-.33-.07-.5-.09a13.34 13.34 0 00-1.89-.05 11.56 11.56 0 00-7.94 3.64z"/>
    </g>
  </g>
</svg>