<svg xmlns="http://www.w3.org/2000/svg" viewBox="0 0 47.76 47.76">
  <defs>
    <style>
      .cls-1{fill:none}.cls-2,.cls-4{fill:#565555}.cls-4{opacity:.4}
    </style>
  </defs>
  <g id="Layer_2" data-name="Layer 2">
    <g id="Disturbing_Strike" data-name="Disturbing Strike">
      <path class="cls-1" d="M47 19.45a20.49 20.49 0 01.79 6.16 20.49 20.49 0 00-.79-6.16zM27.1 4.5h-1.12 1.57zM19.49 34.37l-6.54-4.58 6.54 4.58zM36.03 28.95l-1.05-4.22 1.05 4.22zM43.39 24.3a16.1 16.1 0 00-.61-3.65 16.1 16.1 0 01.61 3.65zM23.61 4.81l-.75.19c.25-.08.5-.15.75-.19zM16.54 37.53a14.25 14.25 0 01-1.07-1l.86-.46-.86.46a14.25 14.25 0 001.07 1z"/>
      <path class="cls-2" d="M29.18 16.22h-4.35v15.53l2.67-.67 8.53-2.13-1.05-4.22-5.8 1.45v-9.96z"/>
      <path class="cls-2" d="M23 9.37c.4-.11.8-.19 1.21-.27l.4-.1c.48-.07.95-.13 1.43-.16H27.95c.32 0 .63 0 .95.08l.53.06c.33.05.66.11 1 .18l.45.09a17.26 17.26 0 012.74.91l.41.2.89.44.46.27c.26.15.53.32.79.49l.44.3c.26.19.53.39.78.6l.36.29a16.46 16.46 0 012 2.07l.29.37c.2.27.4.54.58.81s.2.31.3.46.33.55.48.83.18.32.26.49.3.62.43.93l.19.45c.19.47.35.95.5 1.44a16.1 16.1 0 01.61 3.65v1.21a16.39 16.39 0 01-4.89 11.28 17.07 17.07 0 01-2.47 2 16 16 0 01-2.88 1.5c-.51.2-1 .38-1.58.54-.37.11-.74.2-1.11.28l-.39.07-.73.13h-.46c-.22 0-.44.06-.66.07a3.85 3.85 0 01-.48 0H27c-.43 0-.87 0-1.3-.07h-.35q-.72-.08-1.41-.21h-.13c-.43-.09-.85-.2-1.27-.33l-.34-.1c-.46-.15-.9-.31-1.34-.49h-.08c-.42-.18-.82-.38-1.21-.59l-.32-.17a13.74 13.74 0 01-1.25-.73 13.08 13.08 0 01-1.12-.84l-.28-.24a14.25 14.25 0 01-1.07-1l.86-.46 3.16-1.71-6.55-4.6-3.27-2.3-2.97 13.76 4.75-2.57.91 1 .29.28.71.66.3.27c.31.26.61.51.93.75l.1.08c.35.26.71.51 1.07.75l.33.2.82.49.36.2c.32.18.65.34 1 .5l.19.09c.39.18.79.35 1.19.5l.35.13c.29.11.6.21.9.3l.4.13 1 .26.26.06c.42.1.85.18 1.27.24h.35l1 .11H28.46l.87-.08.59-.07c.31 0 .63-.1.95-.16l.51-.09c.45-.09.89-.21 1.34-.33h.11A20.67 20.67 0 0047 19.45q-.27-.93-.63-1.83c-.07-.19-.16-.37-.24-.56-.17-.4-.35-.8-.54-1.18-.1-.21-.22-.42-.33-.62-.19-.36-.39-.71-.61-1s-.24-.39-.37-.58c-.24-.35-.48-.68-.74-1-.12-.16-.24-.33-.37-.49-.35-.43-.72-.85-1.1-1.25l-.11-.12c-.43-.44-.88-.85-1.34-1.25l-.44-.35c-.32-.27-.66-.53-1-.77L38.59 8c-.33-.22-.66-.42-1-.62L37 7.05c-.35-.19-.71-.37-1.07-.55l-.57-.26c-.46-.2-.94-.39-1.42-.56l-.27-.1c-.58-.19-1.16-.36-1.75-.5L31.39 5c-.43-.09-.85-.17-1.28-.24l-.67-.08c-.4 0-.79-.08-1.19-.1h-2.42c-.59 0-1.19.11-1.79.2l-.43.07c-.25 0-.5.11-.75.16z"/>
      <path class="cls-2" d="M4.96 15.9l8.73-1.49.58-.1.67-5.91.04-.28.08-.78 5.44-.65L11 0 2.15 7.35 0 9.14l2.21-.26 3.78-.45-1.03 7.47z" opacity=".4"/>
      <path class="cls-4" d="M4.79 21.56l-.62.11-.06.42-.12.87 3.93-.63 5.53-.89.16-1.38-8.82 1.5zM14.03 16.38l-9.35 1.6-.07.47-.15 1.14 9.39-1.6.18-1.61z"/>
    </g>
  </g>
</svg>