<svg xmlns="http://www.w3.org/2000/svg" viewBox="0 0 54.35 54.35">
  <defs>
    <style>
      .cls-2{fill:#565555;opacity:.4}
    </style>
  </defs>
  <g id="Layer_2" data-name="Layer 2">
    <g id="Disturbing_Strike" data-name="Disturbing Strike">
      <path fill="none" d="M25.74 27.35h2.87v-4.33h4.32v-2.87h-4.32v-4.32h-2.87v4.32h-4.32v2.87h4.32v4.33z"/>
      <path class="cls-2" d="M35.87 28.35c-.19.38-.4.78-.65 1.21 9 .7 15.45 2.54 15.45 4.7 0 2.77-10.52 5-23.5 5s-23.5-2.23-23.5-5c0-2.16 6.44-4 15.46-4.7-.25-.43-.46-.83-.65-1.21C7.84 29.29.17 31.9.17 35c0 3.87 12.09 7 27 7s27-3.13 27-7c0-3.1-7.66-5.71-18.3-6.65z"/>
      <path d="M20.87 28.58l.23.4c.16.27.34.54.52.82s.6.85.94 1.29l.35.43a19 19 0 001.63 1.72 18.27 18.27 0 002.63 2 18.36 18.36 0 002.64-2 20.51 20.51 0 001.63-1.72l.35-.43q.51-.66.93-1.29c.19-.28.37-.56.53-.82l.23-.4A18.14 18.14 0 0035 25.25l1.93-10.66-9.76-4.68-9.76 4.68 1.93 10.66a17.82 17.82 0 001.53 3.33zm.55-8.43h4.32v-4.32h2.87v4.32h4.32V23h-4.32v4.33h-2.87V23h-4.32z" fill="#565555"/>
      <path class="cls-2" d="M39.3 3.1a25.26 25.26 0 00-24.25 0C4.7 8.7-.91 20.49.12 32.26a30.72 30.72 0 018.61-20.49 24.69 24.69 0 00-2.68 15 24.09 24.09 0 015.73-15 19.38 19.38 0 00-1.17 9.69A18.17 18.17 0 0119.78 6a19.09 19.09 0 017.39-1.5 19.09 19.09 0 017.4 1.5 18.19 18.19 0 019.17 15.5 19.27 19.27 0 00-1.18-9.69 24 24 0 015.73 15 24.54 24.54 0 00-2.68-15 30.68 30.68 0 018.62 20.49C55.26 20.49 49.65 8.7 39.3 3.1z"/>
    </g>
  </g>
</svg>