<svg xmlns="http://www.w3.org/2000/svg" viewBox="0 0 34.74 34.74">
  <defs>
    <style>
      .cls-1,.cls-2{fill:#565656}.cls-1{opacity:.4;isolation:isolate}
    </style>
  </defs>
  <g id="Disturbing_Strike" data-name="Disturbing Strike">
    <path class="cls-1" d="M18.39 32.69a16.35 16.35 0 100-32.69h-1.15a6.13 6.13 0 00-1 .1h-.08l.42 2.9c.31 0 .66-.07 1-.09h.85a13.4 13.4 0 11-12.7 17.74l3.36-.52-1.18-1.24-4.37-4.55-2.22 4.55L0 21.53l2.75-.45a16.36 16.36 0 0015.64 11.61zM8.66 7.14l-2.14-2-.08.09h-.18c-.35.39-.66.8-1 1.23l2.25 2.1a14.27 14.27 0 011.15-1.42z"/>
    <path class="cls-1" d="M14.8 3.44L14 .59a17.24 17.24 0 00-2.09.73L13.1 4a14.22 14.22 0 011.7-.56zM6.59 10.08L4 8.7c-.16.3-.31.6-.45.92-.12.28-.23.55-.33.83l2.77 1a13.54 13.54 0 01.6-1.37zM11.49 4.87L10 2.34h-.78c-.21.15-.41.3-.6.46L10 5.93a11.85 11.85 0 011.49-1.06z"/>
    <path class="cls-2" d="M13.53 18.41h-.1a.4.4 0 00-.23.12c-.22.19-.42.4-.66.6a.33.33 0 00-.12.17.31.31 0 000 .19q1.63 1.74 3.29 3.47H16a.38.38 0 00.12-.09c.19-.19.37-.36.56-.53l.11-.1a.31.31 0 00.09-.21l-3.18-3.52zM19.67 12.55h-.06a.21.21 0 00-.11 0 .12.12 0 00-.07.05l-.14.11-.76.72L17 14.91l-3.08 2.88 3.46 3.79 1.46-1.37L21.17 18l1.76-1.67v-.08a.3.3 0 000-.1v-.05a1.05 1.05 0 01-.39-.27l-2.72-2.89a1.18 1.18 0 01-.15-.39zM23.12 15.38a.63.63 0 00.12.11h.19a.42.42 0 00.14-.09L24 15a5.11 5.11 0 001-1.63 5.24 5.24 0 00.36-2.71l-.12-.12H25a6.41 6.41 0 00-.88 0 5.4 5.4 0 00-3.7 1.46l-.09.12a.2.2 0 000 .21.38.38 0 00.09.15z"/>
  </g>
</svg>