<svg xmlns="http://www.w3.org/2000/svg" viewBox="0 0 47.35 47.35">
  <defs>
    <style>
      .cls-2{fill:#565555;opacity:.4}
    </style>
  </defs>
  <g id="Layer_2" data-name="Layer 2">
    <g id="Disturbing_Strike" data-name="Disturbing Strike">
      <path d="M23.68 9.54l-13.25 6.35L13 30.23a25 25 0 002.05 4.48l.31.53c.22.36.45.72.7 1.1.41.59.83 1.17 1.25 1.72l.48.58A23.62 23.62 0 0020 40.93a23.2 23.2 0 003.7 2.82 23.58 23.58 0 003.69-2.82 26.35 26.35 0 002.18-2.29l.47-.58c.43-.55.85-1.13 1.25-1.72.25-.38.48-.74.7-1.1l.32-.54a24.29 24.29 0 002-4.47l2.59-14.34z" fill="#565555"/>
      <path class="cls-2" d="M44.03 6.54l1.5 1.89L47.35 0l-8.42 1.83 1.89 1.5-5.28 8.48 8.49-5.27zM3.32 40.81l-1.49-1.88L0 47.35l8.42-1.83-1.88-1.49 5.27-8.48-8.49 5.26zM38.93 45.53l8.42 1.82-1.83-8.42-1.49 1.89-8.48-5.28 5.26 8.49-1.88 1.5zM0 0l1.83 8.42 1.5-1.88 8.48 5.27-5.27-8.49 1.88-1.49L0 0z"/>
    </g>
  </g>
</svg>