<svg xmlns="http://www.w3.org/2000/svg" viewBox="0 0 54.35 54.35">
  <defs>
    <style>
      .cls-1{fill:#565555;opacity:.4}
    </style>
  </defs>
  <g id="Layer_2" data-name="Layer 2">
    <g id="Disturbing_Strike" data-name="Disturbing Strike">
      <path class="cls-1" d="M35.87 28.35c-.19.38-.4.78-.65 1.21 9 .7 15.45 2.54 15.45 4.7 0 2.76-10.52 5-23.5 5s-23.5-2.24-23.5-5c0-2.16 6.44-4 15.46-4.7-.25-.43-.46-.83-.65-1.21C7.84 29.29.17 31.9.17 35c0 3.87 12.09 7 27 7s27-3.13 27-7c0-3.1-7.66-5.71-18.3-6.65z"/>
      <path d="M20.87 28.58l.23.4c.16.27.34.54.53.82s.59.85.93 1.29l.35.43a20.51 20.51 0 001.63 1.72 18.27 18.27 0 002.63 2 18.36 18.36 0 002.64-2 18.91 18.91 0 001.62-1.72c.13-.14.24-.29.36-.43q.51-.66.93-1.29c.19-.28.37-.55.53-.82l.23-.4A18.14 18.14 0 0035 25.25l1.92-10.66-9.75-4.68-9.76 4.68 1.93 10.66a18.14 18.14 0 001.53 3.33zM29.2 27l-5.68.68.18-1 5.66-.68zm.32-2l-5.64.73.17-1 5.62-.73zm-1.26-10.8l5.5 4.23-3.26.25-.07.46v.17l-.56 3.58v.15l-2.65.35-.81.1-.78.1-1.35.18.83-4.66-3.58.28z" fill="#565555"/>
      <path class="cls-1" d="M39.3 3.1a25.26 25.26 0 00-24.25 0C4.7 8.7-.91 20.49.12 32.26a30.72 30.72 0 018.61-20.49 24.69 24.69 0 00-2.68 15 24.09 24.09 0 015.73-15 19.38 19.38 0 00-1.17 9.69A18.17 18.17 0 0119.78 6a19.09 19.09 0 017.39-1.5 19.09 19.09 0 017.4 1.5 18.19 18.19 0 019.17 15.5 19.27 19.27 0 00-1.18-9.69 24 24 0 015.73 15 24.54 24.54 0 00-2.68-15 30.68 30.68 0 018.62 20.49C55.26 20.49 49.65 8.7 39.3 3.1z"/>
    </g>
  </g>
</svg>