<svg xmlns="http://www.w3.org/2000/svg" viewBox="0 0 54.18 54.18">
  <defs>
    <style>
      .cls-1{fill:none}.cls-3{fill:#565555;opacity:.4}
    </style>
  </defs>
  <g id="Layer_2" data-name="Layer 2">
    <g id="Disturbing_Strike" data-name="Disturbing Strike">
      <path class="cls-1" d="M28.12 41.79a29.4 29.4 0 007.74-7 29.4 29.4 0 01-7.74 7zM34.93 17.53C32.68 21 28.38 25.75 20.41 30c7.97-4.25 12.27-9 14.52-12.47z"/>
      <path d="M1.65 49s-1 .5-1.56.76H0l.9 1.55h.07c12.09-4.68 26.46-16.84 26.85-17.19C22 42.33 9.64 49.3 4.47 51.58a18.89 18.89 0 01-2.83 1v.15l.87 1.49a9.28 9.28 0 011.11-.35 65.17 65.17 0 0022.32-12.78c11.76-13.5 9.7-18.58 9.7-18.58C28.14 33 19.7 32.89 19.7 32.89 12.23 44.21 4.09 48.08 1.65 49z" fill="#565555"/>
      <path class="cls-3" d="M20.41 30a12.84 12.84 0 004.44-1.27c.37-.16.74-.34 1.13-.55s.8-.44 1.22-.7c.21-.12.43-.26.64-.4.44-.28.88-.59 1.34-.93a35.42 35.42 0 007.37-7.7 11.42 11.42 0 011 5.07c0 4.15-1.76 10.57-9.38 18.26a29.4 29.4 0 007.74-7A22 22 0 0038.15 31a19.21 19.21 0 001-2.53c.09-.29.17-.59.24-.89a17.15 17.15 0 00.51-3.78 19.38 19.38 0 00-.9-6.28c0-.15-.12-.41-.23-.74s-.16-.46-.25-.73-.19-.53-.29-.81c-.45-1.25-.92-2.52-.92-2.52a5.9 5.9 0 01-.2.65c-.06.17-.13.37-.23.6a12.41 12.41 0 01-.54 1.19c-.15.3-.32.63-.51 1s-.53.9-.85 1.39c-2.3 3.45-6.6 8.2-14.57 12.45z"/>
      <path class="cls-3" d="M37.51 36.14c6.59-4.47 12.82-19.14.36-34.4C36.4 0 35.59 0 35.59 0s-1.05 16.15-12.7 25.78c0 0 12.26-7 14-20.61 1.68 3.12 13.11 20.05.62 30.97z"/>
    </g>
  </g>
</svg>