<svg xmlns="http://www.w3.org/2000/svg" viewBox="0 0 39.01 39.01">
  <defs>
    <style>
      .cls-1{fill:none}.cls-2{fill:#565555}
    </style>
  </defs>
  <g id="Layer_2" data-name="Layer 2">
    <g id="Disturbing_Strike" data-name="Disturbing Strike">
      <path class="cls-1" d="M32.46 4.27l.12-.62-9.18-1.34-5.96-.64 3.92.54 11.1 2.06zM13.26 19c3.27.48 11.71 1.06 17.57-.5-.31 0-11.69.88-19.08-.49-.05.2-.11.41-.16.62a13.24 13.24 0 001.67.37z"/>
      <path class="cls-2" d="M9.17 2.92l1.12 1 .36.32a2.79 2.79 0 011.19-1.37 4 4 0 011.74-.54h.22a4.27 4.27 0 011.94.39 3.25 3.25 0 01.74.48l.18.17a2.28 2.28 0 01.69 2 2.34 2.34 0 01-.61 1.2l.85.06.94-1 .89-1 13.83 1 .48-2.46.2-1-1.23-.46-1.65 1L13.46.24 11.4 0l-.22.58-.45 1.21L9 1.31 7.67 1 5 2.61l3.38.94zm14.23-.61l9.18 1.34-.12.62-11.1-2.06-3.92-.54zM8.5 10.88h.38a11.37 11.37 0 001.38 0l-.36-.36-.35-.36 1.63-3.57L9.1 4.73l-1 .75-.32.45c-.14.19-.29.42-.47.66l-.55.77-.59.82-1.47 2a12 12 0 002 .49 15.43 15.43 0 001.8.21z"/>
      <path class="cls-2" d="M15.39 4.09a.43.43 0 00-.1-.09 1.41 1.41 0 00-.35-.23h-.09a1.76 1.76 0 00-.44-.15h-.05a3.4 3.4 0 00-.45 0h-.09a2.44 2.44 0 00-.46.07h-.09a2.25 2.25 0 00-.45.19 1.55 1.55 0 00-.36.31.57.57 0 00-.11.11 1.37 1.37 0 00-.16.32.83.83 0 00-.06.21 1.14 1.14 0 00.27.94v.07l.1.09a1.38 1.38 0 00.35.22 2.15 2.15 0 00.45.14 2.12 2.12 0 00.44 0h.09a2.57 2.57 0 00.47-.08h.09a2.44 2.44 0 00.44-.19 1.55 1.55 0 00.62-.69 1.26 1.26 0 00.09-.54 1.33 1.33 0 00-.18-.54 1.5 1.5 0 00.03-.16zM10.58 22.42l.78-3a5.27 5.27 0 01-.57-.14 2.66 2.66 0 00.8-.71c.05-.21.11-.42.16-.62h-.19c0-.26.3-.55.21-.79H12c.16-.64.28-1.09.29-1.14l-1.42-.43-.49 1.78h.1L10.15 19H9.9l-.56 2L6 20.82l-4.06-4.28L0 16.05l5.69 5.85z"/>
      <path class="cls-2" d="M10.44 17.37h-.1l-6.1-.26 1.18 1.21 4.48.65.25.03.29-1.63zM11.77 17.15c.09.24-.17.53-.21.79h.19c7.39 1.37 18.77.52 19.08.49-5.86 1.56-14.3 1-17.57.5a13.24 13.24 0 01-1.67-.37 2.66 2.66 0 01-.8.71 5.27 5.27 0 00.57.14c.33.07.67.14.66.15a50.23 50.23 0 0015.23 1C38 18.55 39 16.12 39 16.12c-7.58 2-11.4-.23-11.4-.23-7.87 2.31-13.13 1.66-14.6 1.39l-1-.12z"/>
    </g>
  </g>
</svg>