<svg xmlns="http://www.w3.org/2000/svg" viewBox="0 0 50.59 50.59">
  <defs>
    <style>
      .cls-3{fill:#565555}
    </style>
  </defs>
  <g id="Layer_2" data-name="Layer 2">
    <g id="Disturbing_Strike" data-name="Disturbing Strike">
      <path fill="none" d="M13.58 5.36h-2.15v6.07H5.36v2.15h6.07v6.07h2.15v-6.07h6.07v-2.15h-6.07V5.36z"/>
      <path d="M22.87 19.49a9.77 9.77 0 00.63-1A12.47 12.47 0 0024.75 10a12.42 12.42 0 00-1.25-3.46 12.75 12.75 0 00-3-3.69 12.51 12.51 0 00-16.8 18.5 13.47 13.47 0 001.85 1.52 12.5 12.5 0 0014 0 13.47 13.47 0 001.85-1.52 13 13 0 001.47-1.86zm-3.22-5.91h-6.07v6.07h-2.16v-6.07H5.36v-2.15h6.06V5.36h2.16v6.07h6.07z" fill="#bebbbb"/>
      <path class="cls-3" d="M12.18 29.15H4.67v9.47H18.2v-9.46h-6zM1 38.62h1.42a1.37 1.37 0 00.3 0v-9.45H.95a.58.58 0 00-.6.34v8.78a1.73 1.73 0 00.15.2.71.71 0 00.5.13zM28.49 33.42a11.44 11.44 0 00-1.12-1.18 10 10 0 00-7-2.62h-.12v8.51h1.22a9.59 9.59 0 003.41-.87 10 10 0 003.91-3.19v-.28zM12.18 41.12H4.67v9.46H18.2v-9.46h-6zM.44 50.43a.71.71 0 00.51.16 13.45 13.45 0 011.42 0 1.43 1.43 0 00.3 0v-9.45H.9a.58.58 0 00-.6.35v8.77a1.15 1.15 0 00.14.17zM28.49 45.39a11.56 11.56 0 00-1.12-1.19 9.92 9.92 0 00-7-2.61h-.17v8.51h1.22a9.6 9.6 0 003.41-.88A10 10 0 0028.74 46v-.28c-.08-.09-.16-.22-.25-.33z"/>
    </g>
  </g>
</svg>