<svg version="1.1" id="Layer_1" xmlns="http://www.w3.org/2000/svg" x="0" y="0" viewBox="0 0 53.4 53.4" xml:space="preserve">
  <style>
    .st0,.st1{fill:#555}.st1{opacity:.4;enable-background:new}
  </style>
  <path class="st0" d="M37.6 37.3c.1-.7.2-1.5.4-2.2-.2.8-.4 1.5-.4 2.2zM40.5 41.3h.3-.5.2zM37.9 35.2c.1-.5.3-1 .4-1.5-.1.4-.3.9-.4 1.5zM47.7 43.9h.2-.2zM37.7 8.8l-.5.6c.1-.1.2-.3.3-.4l.2-.2zM34.1 30.3c-.3.4-.7.9-1 1.3.3-.5.7-.9 1-1.3zM20.4 22.1c0-.1.1-.2.1-.3 0 .1-.1.2-.1.3zM42.5 36.2c.2.4.4.8.5 1.3v0c-.1-.4-.3-.9-.5-1.3z"/>
  <path class="st0" d="M42.5 36.2c-.1-.2-.2-.4-.3-.5-.1-.2-.2-.4-.3-.5-.7-1.3-1.7-2.7-2.3-3.5-.3-.5-.6-.8-.6-.8v.2c-.1.2-.2.6-.3 1.1-.1.5-.3.9-.4 1.4s-.3 1-.4 1.5c-.2.7-.3 1.5-.4 2.2v1c0 .2.1.4.2.7 0 .1 0 .1.1.2 0 .1.1.3.2.4l.1.2c.1.1.1.2.2.3l.2.2c.1.1.2.2.2.3l.2.2c.1.1.2.1.3.2l.2.1.3.1.2.1.3.1h.7c1.4-.4 2.3-1.7 2.2-3.1v-.7c-.2-.5-.4-1-.6-1.4zM48.1 37.9c-.1-.1-.2-.3-.3-.4-.6-.9-1.1-1.6-1.1-1.6s-.3 1.1-.7 2.3c-.3 1-.5 2-.5 3.1v.3c0 .2.1.3.1.5l.1.2c0 .1.1.2.1.3l.1.2c0 .1.1.2.2.2l.1.2.2.2.1.1.2.2.2.1.2.1.2.1h.7c.3 0 .6-.1.8-.3.4-.3.6-.6.8-1.1.1-.3.2-.7.2-1v-.5c-.5-1.3-1-2.3-1.7-3.2z"/>
  <path class="st1" d="M35 29zM35.6 28.2zM23.9 35C18.2 41.2 12 46.9 5.3 51.9l2.9 1.4c5.7-2.8 11.4-6.8 19.4-15.5-1.6-.5-2.9-1.5-3.7-2.8zM28.2 37.1L28 37l.2.1zM22.3 27.2v-1.3c-.1-2.2-1.2-2.6-2.1-2.8L20 23C13.3 37.3 4.8 46 0 49.7l3.3 1.2C11 46 17.9 39.4 23.2 33.6c-.1-.2-.1-.3-.2-.5-.5-2-.7-3.9-.7-5.9z"/>
  <path class="st0" d="M43 0c-1.2 2.6-2.7 5.1-4.3 7.5-.3.5-.7.9-1 1.3l-.2.2c-.1.1-.2.3-.3.4l-.4.5L35 12l-1.2 1.2-.3.3-.3.3c-.3.3-.6.6-.9.8-6 5.1-11.1 5.9-11.1 5.9-.1.3-.2.5-.4.8l-.1.2-.2.4c0 .1-.1.2-.1.3.2.1.5.1.7.2 1.1.4 1.9 1.4 2 2.6.1.3.1.6.1.9 0 2.3.2 4.6.8 6.9.1.2.1.4.2.6.1.3.2.6.4.9.3.6.7 1.1 1.3 1.6.2.1.3.3.5.4.5.3 1.1.6 1.7.8l.2.1.6-.6c1-1.1 2-2.2 3-3.4l1.3-1.5c.3-.4.7-.9 1-1.3l1-1.3c.2-.3.4-.5.6-.8.4-.5.7-1.1 1-1.6l.4-.7.8-1.3.4-.7.7-1.2c.2-.3.3-.6.4-.9s.3-.7.5-1c.3-.6.5-1.3.8-1.9 1.2-3.2 2.1-6.4 2.5-9.8.1-.7.2-1.4.2-2s.1-1.3.1-1.8v-.8-.8c-.3-1.5-.4-2.6-.6-3.8z"/>
</svg>