<svg xmlns="http://www.w3.org/2000/svg" viewBox="0 0 49.32 49.32">
  <defs>
    <style>
      .cls-2{fill:#565555}
    </style>
  </defs>
  <g id="Layer_2" data-name="Layer 2">
    <g id="Disturbing_Strike" data-name="Disturbing Strike">
      <path d="M14.86 17.77l-1 1.28L7 24.66l7 5.44 5.42 7 4.64-5.61 1-1.17 6.78-5.61-7.15-5.31-5.27-7.14zm7.39 4.06v5.66h-5.66v-5.66h5.66z" fill="none"/>
      <path class="cls-2" d="M0 9.31l3.7 20.47a32.9 32.9 0 002.91 6.41c.14.25.29.49.44.74.31.51.63 1 1 1.55.53.78 1.11 1.59 1.76 2.4.21.27.43.55.66.82a36.53 36.53 0 003.06 3.23 33.24 33.24 0 005.91 4.39 33 33 0 005.92-4.39 38.05 38.05 0 003.04-3.23l.66-.82c.64-.81 1.22-1.62 1.75-2.4.35-.53.68-1 1-1.55.15-.25.3-.49.44-.74a32.9 32.9 0 002.91-6.41l3.7-20.47L19.42 0zm31.83 15.35l-6.78 5.61-1 1.17-4.64 5.61L14 30.1l-7-5.44 6.79-5.61 1-1.28 4.56-5.51 5.27 7.14z"/>
      <path class="cls-2" d="M17.59 21.83h-1v5.66h5.66v-5.66H17.59z"/>
    </g>
  </g>
</svg>