<svg xmlns="http://www.w3.org/2000/svg" viewBox="0 0 56.49 56.49">
  <defs>
    <style>
      .cls-1{fill:none}.cls-2,.cls-3{fill:#565555}.cls-2{opacity:.4}
    </style>
  </defs>
  <g id="Layer_2" data-name="Layer 2">
    <g id="Disturbing_Strike" data-name="Disturbing Strike">
      <path class="cls-1" d="M19.76 48.29h.32l.75-.3zM23.8 42.79a.54.54 0 00-.07.78c.59.65.52.75 1.14.11 7.29-7.51 15.09-14.23 19-25.78-.34.58-8.54 14.96-20.07 24.89z"/>
      <path class="cls-2" d="M55.47 34.88c-1.25-.13-6.28-1.76-6.28-1.76a.77.77 0 01.05-.94c.37-.57 4.15-7.81 4.15-7.81s0-.26-.19-.15c0 0-6.4 7.07-8 9.59 0 0-.13.33 1.06 0 1.51-.35 3.17 1.62 3.17 1.62s.94.61-.53 1.2-7.11 2.08-7.84 2.65-.09 1.36.3 2 .36 1-.22 1S32 45.94 32 45.94s-1 .52-.33.73 14.14-2.57 14.14-2.57 1-.17.23-.83-2-1.77-2-1.77-.49-.37.66-.92 11.25-4.86 11.25-4.86.76-.72-.48-.84zM38.29 1.87L19 8.73l-1.77.6s-4.65-4.66-5.67-6-1.61.07-1.61.07-1 13.45-1.25 15-.91 1.08-.91 1.08S6 18.38 5 17.65s-.92.54-.92.54S1 49.11 1.47 49.88s.78-.63.78-.63S7.56 24 7.66 23.22s.31-.87 1.17-.6 2 .79 2.46-.26.44-8.27.69-10.22c.1-1 .27-4.29 1.58-2.81 1.15.91 2.61 5.56 4.38 3.74S38.52 2 38.52 2c.07-.24-.23-.13-.23-.13z"/>
      <path class="cls-3" d="M47.34 23.87C56.31 4 49.94 0 49.94 0 49.63 13.69 35 17.71 35 17.71c-4.71 15.76-10.95 22.13-13.2 24l-5.17-1.21 1.84 3.13-2.53 1.57s-3.36 2.1-7.71 4.48c-6 3.26-7.75 5.09-8.1 5.42s.12.5.12.5c1.22.28 2.24.46 3.13.58l.59.07a13.61 13.61 0 002.52 0c2.11-.19 2.39-1 2.39-1s.38-.57.23-.8a.35.35 0 010-.3.84.84 0 01.15-.25 10.15 10.15 0 012.67-2.05c1.23-.69 5.42-2.5 8.17-3.63h-.32l1.07-.35-.75.3a10.66 10.66 0 002.59-.71l1.85 1.76-9.08 7.2L29 50.41l-3-3.36v-.62a79 79 0 0021.34-22.56zM24.89 43.7c-.62.64-.55.54-1.14-.11a.54.54 0 01.07-.78c11.53-9.93 19.73-24.31 20.06-24.87C40 29.47 32.18 36.19 24.89 43.7zM12.65 29.09a.38.38 0 00-.18 0 .37.37 0 00-.14.07.74.74 0 00-.16.18c-.09.11-.17.23-.26.35l-.5.7a.48.48 0 00-.08.18v.09a.51.51 0 00.06.29L17.12 35h.2a.58.58 0 00.35-.26c.1-.16.22-.31.33-.47s.21-.31.33-.46a.77.77 0 00.21-.45l-5.66-4.18zM19.89 18.76a.22.22 0 00-.08 0 .28.28 0 00-.15.08.38.38 0 00-.09.09l-.05.06-.12.16L16.7 23l-3.65 5.11 6.15 4.55.86-1.2.88-1.22 2.75-3.85 2.09-2.95.05-.1a.31.31 0 000-.16.29.29 0 000-.09 1.79 1.79 0 01-.67-.29l-4.81-3.44a1.68 1.68 0 01-.46-.6zM23.84 20.53l1.92 1.37a.68.68 0 00.24.1.38.38 0 00.15 0l.09-.05a.68.68 0 00.17-.17c.06-.08.11-.16.16-.24l.31-.47a8 8 0 00.86-2c.06-.23.12-.46.16-.7a7.11 7.11 0 00.13-1 8.22 8.22 0 00-.16-2.37c-.05-.23-.1-.45-.17-.67l-.19-.13h-.35a9 9 0 00-1.3.18 8.09 8.09 0 00-5 3.41v.06a1 1 0 00-.07.15.34.34 0 000 .14.48.48 0 00.24.3z"/>
    </g>
  </g>
</svg>