<svg xmlns="http://www.w3.org/2000/svg" viewBox="0 0 55.86 55.86">
  <defs>
    <style>
      .cls-1{opacity:.4}.cls-2{fill:#565555}
    </style>
  </defs>
  <g id="Layer_2" data-name="Layer 2">
    <g id="Disturbing_Strike" data-name="Disturbing Strike">
      <g class="cls-1">
        <path class="cls-2" d="M40.62 23.64l6.89-3.35-6.95-2.56L51.5 6l-15.45 7.5-.42-6.4-5.31 3.9L28 0l-4.15 11.36-4.73-4.66-.07 6.05-8.36-5.4 4 9.83-6.69.59 5.66 4.42L0 25.72l13.67 2.72-9.28 6.63 10.79-1.7-6.94 7.55 8.94-3-2.88 5.1 6-2.05-1.38 14.89 5.63-13.29L27 46l1.75-3.27 8.23 10.46-4-12.76L41.69 43l-5.25-6.83 8.74.89-6.84-7.76 15.66.1zm-1.87-4.09l-1.87 10.37V30.13a19.27 19.27 0 01-1.66 3.68l-.25.42c-.17.28-.35.56-.55.85-.31.47-.64.92-1 1.35-.12.15-.24.31-.37.46a21.23 21.23 0 01-1.72 1.82A19.15 19.15 0 0128 41.2l-1 .58-1-.58a18.86 18.86 0 01-3.36-2.49 21.23 21.23 0 01-1.72-1.82c-.13-.15-.25-.31-.37-.46-.34-.43-.67-.88-1-1.34-.2-.3-.38-.58-.55-.87l-.24-.41a18.53 18.53 0 01-1.66-3.68V29.92l-1.97-10.37-.27-1.5 1.38-.66 9.84-4.72.86-.41.87.41 9.84 4.72 1.37.66z"/>
      </g>
      <g class="cls-1">
        <path class="cls-2" d="M32.86 33.74l.35-.55.17-.29-.17.29z"/>
      </g>
      <g class="cls-1">
        <path class="cls-2" d="M20.45 32.81a16.77 16.77 0 01-.93-1.81 16.77 16.77 0 00.93 1.84l.22.38.34.54-.34-.54z"/>
      </g>
      <g class="cls-1">
        <path class="cls-2" d="M31.49 35.6c.23-.28.23-.27.33-.41.28-.35.52-.69.75-1-.23.34-.47.68-.75 1-.1.14-.22.28-.33.41z"/>
      </g>
      <g class="cls-1">
        <path class="cls-2" d="M21.5 34.43c.18.25.35.5.56.76l.33.41-.33-.41c-.21-.26-.38-.51-.56-.76z"/>
      </g>
      <path class="cls-2" d="M17.1 19.19L19 29.57s.06.19.19.54.2.52.36.86a16.77 16.77 0 00.93 1.84l.22.38.34.54c.06.08.1.16.16.24s.22.3.33.46.35.5.56.76l.33.41q.33.39.69.78h.05q.39.42.81.81a16.71 16.71 0 003 2.23 16.71 16.71 0 003-2.23c.29-.27.56-.54.82-.81s.5-.55.73-.83.23-.27.33-.41c.28-.35.52-.69.75-1l.14-.19.15-.23.35-.55.17-.29v-.09c.2-.34.37-.66.52-1s.17-.33.24-.49c.15-.32.28-.61.38-.85l.15-.39c.13-.35.19-.54.19-.54l1.87-10.38-9.84-4.71zm13.1 3.09l4.13 3-3.93 3.29-.56.67-2.7 3.26-3.14-4-4-3.15 3.94-3.25.6-.74 2.64-3.19z"/>
      <path class="cls-2" d="M28.28 26.96h.5v-3.28H25.51v3.28h2.77z"/>
    </g>
  </g>
</svg>