<svg xmlns="http://www.w3.org/2000/svg" viewBox="0 0 47.02 47.02">
  <defs>
    <style>
      .cls-1{fill:none}.cls-2,.cls-3{fill:#565555}.cls-2{opacity:.4}
    </style>
  </defs>
  <g id="Layer_2" data-name="Layer 2">
    <g id="Disturbing_Strike" data-name="Disturbing Strike">
      <path class="cls-1" d="M14.48 23.47l-2.26.63 2.26-.63zM19.91 28.48a58.15 58.15 0 0018.43-11.67c4.46-5.51 6.54-9.44 7.47-12.12-.93 2.68-3 6.61-7.47 12.12a58.15 58.15 0 01-18.43 11.67zM19.24 27l.38-.16.91-.46-.91.46zM0 34.32l9 2.13-9-2.13zM2.87 33.35l-1.1.37 1.1-.37zM16.8 31.75l.9 1.48-.9-1.48zM39.06 11.63zM6.45 32.12l1.94-1.29-1.94 1.29zM21 30.21l.3.49.56-.82c-.31.12-.6.22-.86.33zM13.14 33.77l1.84-1.18-.11-.18-2.44 1.18.71.18z"/>
      <path class="cls-2" d="M16.57 8.34H28.42l3.78-5.51H20.03L21.62.31l-10.4 4.21 3.84 6.21 1.51-2.39z"/>
      <path class="cls-3" d="M17.56 36.11l3.5-1.92-3.5 1.92z"/>
      <path class="cls-2" d="M21.27 30.7c.5.83 1 1.65 1.49 2.45l1.09 1.78-1.83 1-2.39 1.31h14.68L32 40.89l15-6.06-5.55-9-2.15 3.49H23.13c-.43.19-.85.38-1.3.56z"/>
      <path class="cls-3" d="M2.87 33.35l-1.1.37-1.77.6 9 2.13 5.56 1.31 1.54-.85 1.46-.8 3.5-1.92-2-3.26L18 29.19l.38-.15h.1l.2-.08h.3l.93-.36a58.15 58.15 0 0018.43-11.79c4.46-5.51 6.54-9.44 7.47-12.12.16-.44.28-.85.38-1.23s.17-.72.22-1 .07-.5.09-.71a5.88 5.88 0 000-.83 3.88 3.88 0 000-.4 2.15 2.15 0 00-.14-.52c-4 6-8.36 8.3-11.12 9.18a10.81 10.81 0 01-2.7.56 41.4 41.4 0 01-11.06 12.31 25.53 25.53 0 01-4 2.41l-.42.2-.12.08-1.16.59-.08.05-.06-.1-.43-.7-.38-.58-.29-.46v-.06l-2.25.63.71 1.27.41.67.54.91.08.14-5.64 3.73-1.94 1.29 1.55.35 1.51.35 4.38-2.14 1.11-.57.62-.31 1.17 1.95.89 1.48-4.2 2.69-7.32-1.81L3 33.32zm13.63-6.61c10.59-4.55 23-15.81 23.29-16.14-.23.35-.48.69-.73 1-.42.58-.87 1.15-1.35 1.72a44.4 44.4 0 01-5.25 5.08 70.83 70.83 0 01-7.14 5.16l-1.32.85c-.86.52-1.67 1-2.41 1.4l-1 .56-.91.46-.38.16h-.07l-.12.05h-.05l-.2.08-.13.06-.28.11h-.13l-.27.11-.16.06-.21.08H17.19c-.27-.12-.48-.47-.69-.8z"/>
    </g>
  </g>
</svg>