<svg xmlns="http://www.w3.org/2000/svg" viewBox="0 0 70.64 70.64">
  <defs>
    <style>
      .cls-1{fill:none}.cls-2{fill:#565555;opacity:.4}
    </style>
  </defs>
  <g id="Layer_2" data-name="Layer 2">
    <g id="Disturbing_Strike" data-name="Disturbing Strike">
      <path class="cls-1" d="M40.67 30.4l-5.65 2.72 5.65-2.72zM40.85 19.47l-6.26-.35 6.26.35zM29.08 0L16.76 7.63 29.08 0zM50.55 15.69z"/>
      <path class="cls-2" d="M39.76 48.08l.61-11.85.21-4.08.09-1.75-5.65 2.72 4.74 14.96zM41.87 6.99l-12.83 8.25L29.08 0 16.76 7.63l1.64 22.91 13.23-8.1.76 2.39 8.46-5.36-6.26-.35 6.92-4.23.36-7.9z"/>
      <path d="M50.13 16l-1.05.67-.49.31L44 19.87l-.39.25-24 15.25L0 47.75l51-24.52-8 8.76-.34.37h.08l.13-.09.19-.12.58-.38.25-.16.27-.18 1.39-.91 1.23-.8.45-.3.8-.53.6-.39.2-.13L52 26.11c1.11-.78 2.24-1.58 3.36-2.39l2-1.47 2-1.49c.87-.67 1.72-1.33 2.54-2l.61-.49.61-.49c.6-.49 1.17-1 1.73-1.46s1.09-1 1.59-1.43c.34-.31.66-.61 1-.92l.71-.71c.21-.21.4-.42.6-.63s.49-.54.71-.8l.27-.32.11-.13c.09-.11.17-.22.24-.32l.2-.3.06-.11.11-.2.11-.24v-.08a.53.53 0 000-.12v-.13a.49.49 0 010-.12v-.13a1.05 1.05 0 000-.19.85.85 0 00-.1-.19 1.85 1.85 0 00-.14-.14 1.1 1.1 0 00-.18-.11l-.22-.08-.16-.05H67.6l-.6-.02h-.42l-.75.15h-.09l-.38.07-.47.09-.38.08-.22.05-.22.05-.47.1-.47.11-.28.07h-.17l-1 .26h-.16l-.27.07-.71.2-.41.11h-.14l-.26.07-1.2.35h-.11l-.27.07-.87.27-.38.11h-.09l-.27.09-.27.08-.18.06-.87.27-.31.1-.75.24-.28.09-.35.12-.25.08-1.45.74H51.62l-.72.25-.72.24-.16.06-.62.22-.24.08-.56.19-.13.05-1.47.55-.28.1-.73.26-.94.34-.85.31-.86.32-.39.15-1 .39c-.61.22-1.14.43-1.61.61l-.81.3h-.09l-.41.16h-.09l-.15.06-.19.07-.11.05h-.16l.36-.07 2.9-.52 2.9-.52 6.16-1.11zm.42-.26z" fill="#565555"/>
    </g>
  </g>
</svg>