
<svg xmlns="http://www.w3.org/2000/svg" viewBox="0 0 15.02 15.02">
    <path d="M14.83 6.08a7.32 7.32 0 0 0-2.35-4.15l-.43-.35-.39-.27-.19-.13a3.24 3.24 0 0 0-.36-.2l-.18-.1a6.68 6.68 0 0 0-.78-.35A7.43 7.43 0 0 0 7.06 0a5.36 5.36 0 0 0-1.2.2A4.84 4.84 0 0 1 7.38.14a8 8 0 0 1 1.54.25 6.38 6.38 0 0 1 2.46 1.25 6.63 6.63 0 0 1 2.17 3.53 6.42 6.42 0 0 1 .13.66 6.81 6.81 0 0 1-.5 3.62 7.66 7.66 0 0 1-1 1.64 5.59 5.59 0 0 1-6.88 1.45 3.45 3.45 0 0 1-.5-.35 4.34 4.34 0 0 1-1.38-4.82 2.71 2.71 0 0 1 1.47-1.7.74.74 0 0 1 .7.16c.22.22.13.44 0 .67a2.33 2.33 0 0 0-.19 1A2.53 2.53 0 0 0 8 10h.33a2.62 2.62 0 0 0 1.76-1.11 3.85 3.85 0 0 0 .68-1.78 4.32 4.32 0 0 0 0-1.68 4.7 4.7 0 0 0-1.38-2.3A4.81 4.81 0 0 0 7 1.89a4.94 4.94 0 0 0-2.23 0L4.5 2l-.5.14-.39.17-.13.07a4.31 4.31 0 0 0-.89.56l-.31.26a4.07 4.07 0 0 0-.42.41l-.15.17-.3.36c-.14.18-.33.43-.52.73a5.41 5.41 0 0 0-.69 1.5A5.29 5.29 0 0 0 0 8.1a5 5 0 0 0 .1.9l.06.24a6.76 6.76 0 0 0 .92 2.18 8.2 8.2 0 0 0 .71 1A7.5 7.5 0 0 0 6.53 15 7.16 7.16 0 0 0 12 13.54a8.52 8.52 0 0 0 2.9-5 7.12 7.12 0 0 0 0-2c-.02-.17-.04-.32-.07-.46z"/>
</svg>