<svg xmlns="http://www.w3.org/2000/svg" viewBox="0 0 52.2 52.2">
  <defs>
    <style>
      .cls-1{fill:#555}
    </style>
  </defs>
  <g id="Layer_2" data-name="Layer 2">
    <g id="Layer_4" data-name="Layer 4">
      <path class="cls-1" d="M19.05 4.32l.36-.05.31.19 2.1 1.31.27.06h.17l.41.1h.13l.62.15.9.24.83.23.23.07 1 .29c.05-.05.09-.1.15-.15A3.3 3.3 0 0128 6.15L17.37 1.1l-.21-.4-.11-.2-.9-.5-2.51 2.35-.51.55-2.39 2.59zM39.12 12.47l-.01 1.16.04.05-.05.83-.02 1.54 7.38.06 2.79 1.11 2.95-1.53-.04-3.43-2.32-1.37-3.23.98-7.56.07.07.06v.47zM45.87 23.76l2.92.88 3-1.29.09-3.08c-1.68-.89-2.42-1.29-2.76-1.51l-3.31.75-6.81.07v4.57zM38.91 31.12l6.32.34 3.32 1.11 2.72-1.26.09-3.58-2.55-1.34-3.01.99-6.85-.01-.04 3.59v.16zM32.62 15.22l-2.82 1 .06 2.44 2.76 1v2.89l-2.65 1 .03 2.57 2.6.95V30l-2.49.92v.18l-.61.27-3.42 1.56v.71a.7.7 0 000 .21 1.09 1.09 0 000 .24 2.61 2.61 0 00.26.58A6.91 6.91 0 0027.52 36h1.65l.24-.06.27-.06.26-.07.28-.08.29-.08.31-.08.3-.09.32-.1.31-.09.36-.11.32-.1.34-.11.35-.11.36-.11.34-.11.41-.14.3-.1.43-.15.29-.1.57-.2h.14l.72-.26.05-1.37L37.91 31V29.39l.19-16.88-.91-.78v-.2a9 9 0 00-.37-1.79l-.32-.17-.25-.11c-.34-.15-.79-.34-1.32-.55l-1.06-.4-.5-.19-1.07-.39-2.22-.77a8.65 8.65 0 00-1-.08 5.16 5.16 0 00-.71 0h-.17a2.13 2.13 0 00-.45.13 1 1 0 00-.16.06 2.43 2.43 0 00-.47.28 2 2 0 00-.63 1.13l2.7 1.68.46.29v.57l2.93 1.07z"/>
      <path class="cls-1" d="M20.72 34.23l4.41-2 1-.47 1.6-.76-3-1.09v-2.84l3.93-1.44.33.12.01-1.83-.28.11-3.93-1.44V19.7l3.93-1.44.16.06v-1.7h-.12l-3.93-1.44v-2.85l3.5-1.33-9.14-5.69-13 1.84-2.38-2.4-2.9.19L0 34.53 2.52 36l1.19-.89 2.37-1.79 9.09 1.48.63 1.12 5.2 9.26 10 .87 8-3-.76-3.41-9.13-.87-5.69 1-2.23-4.65-.43-.9zm-6.83-6l-.35.1-.24.07-.38.1-.24.06-.45.12-.23.02-.58.14h-.12l-.7.16h-.12l-.57.11h-.23l-.45.07-.23.12-.4.05h-.25L8 29.4h-.51a4.67 4.67 0 01-.69-.06c0-.28 0-.59-.06-.92s0-.78-.06-1.21c0-1-.06-2.18-.07-3.39v-.74-1.49-3-2.1c0-2.89.1-5.06.1-5.06h4.37c.21 0 .42.06.63.1h.21a7.27 7.27 0 01.8.22l.17.06a4.87 4.87 0 01.57.24l.24.14a4 4 0 01.43.28l.21.17a3.24 3.24 0 01.36.38l.15.19a2.73 2.73 0 01.35.68 20 20 0 01.65 5.37v3.98c-.09 2.49-.27 4.44-.27 4.44h-.07l-.18.06h-.07l-.22.07h-.15l-.25.08-.18.05-.31.09z"/>
    </g>
  </g>
</svg>