<svg xmlns="http://www.w3.org/2000/svg" viewBox="0 0 48 48">
  <defs>
    <style>
      .cls-1{fill:#333}
    </style>
  </defs>
  <g id="Layer_2" data-name="Layer 2">
    <g id="Layer_4" data-name="Layer 4">
      <path class="cls-1" d="M27.08 9.25L29.59 8l-2.51 1.25-.24 1.11.24-1.11zM32.51 9.25L29.59 8l2.92 1.25z"/>
      <path d="M27.1 48v-5.42A18.89 18.89 0 0042.58 27.1H48V21h-5.42A18.89 18.89 0 0027.1 5.42V0H21v5.42A18.88 18.88 0 005.42 20.94H0v6.16h5.42a18.89 18.89 0 0015.52 15.48V48zM12.62 32l-4.07-.39-1.25-.09.4-1.19 1.07-3.21.23-.73.77.05h.51a13.54 13.54 0 01-.22-2.44A13.94 13.94 0 0124 10.06a14.13 14.13 0 011.85.14l.26-1.2.1-.46.43-.21 2.5-1.25.41-.21.43.18 2.92 1.28.92.4-.39.92-1.31 3a13.92 13.92 0 015.67 9.38l1.51.97 1.46.92-1.52.81-1.1.59-.29.16a13.94 13.94 0 01-9.36 11.69l-.69 3.3-.27 1.26-1.15-.58-3.21-1.6-.7-.35.17-.76.12-.58A13.91 13.91 0 0112.62 32z" opacity=".4" fill="#555"/>
      <path d="M21.6 29.11a32.75 32.75 0 003.64 2.07l-1.63 7.49 3.21 1.6L29 30.12 26.12 26l2.63-3.42 4.18-.42 4.74 2.26 1.1-.59-6.68-4.17.1-.62L30.84 18l-1.67.83-.83-.83.41-3.76 1.25.83 2.51-5.84L29.59 8l-2.51 1.25-.24 1.11-.59 2.64h-1.86l-2.53-1.22-3.54 8.35 2.62 1.42v.05L17.73 28l-8-.53-1.08 3.18 11.22 1.06z" fill="#555"/>
    </g>
  </g>
</svg>