<svg xmlns="http://www.w3.org/2000/svg" viewBox="0 0 52.51 52.51">
  <defs>
    <style>
      .cls-1{fill:none}.cls-2,.cls-3{fill:#555}.cls-2{opacity:.4}
    </style>
  </defs>
  <g id="Layer_2" data-name="Layer 2">
    <g id="Layer_4" data-name="Layer 4">
      <path class="cls-1" d="M2.25 15.78L2 15.65zM30.2 9.92z"/>
      <path class="cls-2" d="M51.77 0L36.83 4a.58.58 0 00-.26 1L39 7.35a.59.59 0 010 .83l-3.22 3.35a.57.57 0 000 .8l4.56 4.79a.58.58 0 00.84 0l3.5-3.6a.58.58 0 01.84 0L47.83 16a.58.58 0 001-.26l3.67-15a.59.59 0 00-.73-.74z"/>
      <rect class="cls-2" x="35.54" y="12.37" width="2.1" height="7.86" rx=".56" transform="rotate(-43.82 36.583 16.302)"/>
      <rect class="cls-2" x="33.04" y="14.48" width="2.1" height="7.86" rx=".56" transform="rotate(-43.82 34.091 18.405)"/>
      <path class="cls-3" d="M23.73 1.46l.41.3a1.32 1.32 0 00-.41-.3zM23.69 1.45a2.46 2.46 0 00-1.13-.2c-1.9.07-11.83 1.3-14 1.57l-.43.05zM26.48 20.28a6.77 6.77 0 01-3.2 5.91v.56c0 2.1 2.16 9.8 3.67 9.4S29.09 32 29 25.81c-.11-3.74-1.46-5.07-2.52-5.53zM15.15 27.29a33.73 33.73 0 01.85 4.22c.12.77.24 1.48.35 2.17.09.5.17 1 .24 1.43a1.71 1.71 0 00.59 0c1.07-.1 2.15-4.41 1.51-7.43a9.19 9.19 0 01-3.54-.39zM11.71 21.52l.12.05h.07l.11.06h.08l.1.07.07.06.1.09a.46.46 0 01.07.07l.09.09.07.08.09.11.06.09.09.12.06.09a.64.64 0 01.08.14l.06.09a1.09 1.09 0 01.08.15l.06.11c0 .05.05.11.08.16a.54.54 0 00.05.11c0 .06 0 .12.08.19v.09l.11.27a3 3 0 01.11.32v.07l.06.2c.14.32.27.66.4 1a7.28 7.28 0 003.16 1 4.36 4.36 0 00.51 0 8 8 0 001.28-.07c3.79-.49 6.55-3.38 6.15-6.45a4.7 4.7 0 00-1-2.27l-5.55 1.09-6.27-.57a3.51 3.51 0 00-.27.4 5.11 5.11 0 00-.37.74c0 .09-.07.19-.11.28s-.1.34-.14.52a4.48 4.48 0 00-.09 1.22h.16z"/>
      <path class="cls-3" d="M14.67 29.86v-.1-.38a1.23 1.23 0 000-.19v-.28a1.49 1.49 0 000-.21V27.78v-.44a2 2 0 000-.24v-.19-.23a1.06 1.06 0 000-.19v-.23a1.16 1.16 0 000-.18 1.74 1.74 0 00-.05-.22v-.17l-.62-.22v-.16l-.06-.22v-.14a1.55 1.55 0 00-.07-.23v-.13a.14.14 0 010-.06l-.06-.2v-.07a3 3 0 00-.11-.32l-.11-.27v-.09c0-.07-.05-.13-.08-.19a.54.54 0 01-.05-.11s-.05-.11-.08-.16l-.27-.12a1.09 1.09 0 00-.08-.15l-.03-.12a.64.64 0 00-.08-.14l-.06-.09-.09-.12-.06-.09-.09-.11-.07-.08-.12-.1a.46.46 0 00-.07-.07l-.1-.09-.07-.06-.1-.07h-.08l-.11-.06h-.07l-.12-.05h-.23a.76.76 0 00-.21 0H10.61l-.25.07a3.3 3.3 0 00-1.78 2.65 7.89 7.89 0 00-.14.89 21.28 21.28 0 00.19 5.23l.06.36a.43.43 0 010 .11c0 .09 0 .18.05.26v.13c0 .08 0 .16.05.25v.13c0 .08 0 .16.05.24a.83.83 0 010 .15 2 2 0 00.07.23v.16l.06.22.06.17.06.21.06.16c0 .07.05.14.07.21l.06.16a1.8 1.8 0 00.08.21l.06.16a1.8 1.8 0 00.08.21l.06.16.09.2a.77.77 0 00.07.16 1.67 1.67 0 00.08.2l.08.16.09.19.07.15.09.19.08.15a1.62 1.62 0 00.1.18 1 1 0 00.08.14l.09.18.09.14a1.4 1.4 0 00.1.16l.08.14a.86.86 0 01.1.16l.09.13.1.14.09.13a.71.71 0 01.1.14l.09.11a1.47 1.47 0 00.1.13l.09.11.11.12.09.1.11.11.09.09.11.1.09.08.11.09.1.07.1.07.1.06.1.06.1.05H13.63c.77-.13 1.15-.64 1.31-1.5.43-1.44.06-3.96-.27-7.36zM8.48 10.41L8.2 8.17l.28 2.24zM25.23 11.94l.31 1.41-.31-1.41zM24.7 4.14l.26-.7-.26.7zM8.33 4.19l1-.09.12 1 .31 2.41.06.47-.31.34-.22.24.4 3.44 3.18 1.43.51.23.07.56.37 2.78L24 15.73l1-.5-.13-.23-.62-2.83-.11-.51.35-.39L26 9.62l-.49-3.79L24.17 5l-.68-.43.27-.76.51-1.39.15-.42-.28-.21-.41-.3L8.12 2.87 7.57 4l-.15.3zm12.6 6.63a.87.87 0 01-.07.17l-.06.13-.09.16c0 .05-.05.09-.07.13l-.1.15-.09.12-.11.14-.11.11-.12.13-.11.1-.13.12-.13.09-.14.1-.13.08-.16.09-.14.07-.16.07-.14.05-.18.06h-.78a3.35 3.35 0 01-1.05-.09 3.45 3.45 0 01-1.48-.77 3.66 3.66 0 01-.55-.63 2.73 2.73 0 01-.26-.43 2.92 2.92 0 01-.14-.31c0-.12-.08-.23-.11-.36a3.47 3.47 0 01-.11-.67 1.93 1.93 0 010-.34.49.49 0 010-.12 1.79 1.79 0 010-.23.59.59 0 010-.13 1.42 1.42 0 010-.2.74.74 0 010-.14 1.21 1.21 0 01.05-.18.78.78 0 000-.14.87.87 0 00.07-.17l.25.02.08-.16.08-.13.1-.15.09-.12.07-.15.1-.11.13-.13.11-.1.13-.11.13-.1.14-.1.13-.08.15-.08.14-.07.17-.08h.14l.17-.06h.79a3.43 3.43 0 012 .47 3.48 3.48 0 011.4 1.54l.12.3a3.47 3.47 0 01.13.46 3.85 3.85 0 01.07.49V9.99a1.79 1.79 0 010 .23.59.59 0 010 .13 1.18 1.18 0 010 .2v.14c0 .05 0 .12-.05.18z"/>
      <path class="cls-3" d="M12.82 17.1l.01.06-.01-.06-.36-2.79-1.84-.84 1.84.84.36 2.79zM8.73 7.59l-.1-.8.1.8zM29.69 4.67l-2.42-2.19-2.06.27-.21.69-.26.7 1.75 1.1.58 4.76-1.84 2 .31 1.41.31 1.41s.4-.2 1-.55l.35-.22a11.82 11.82 0 001.93-1.48 3.1 3.1 0 001.07-1.78v-.87-.46c0-.31 0-.65-.06-1-.14-1.83-.45-3.79-.45-3.79z"/>
      <path class="cls-3" d="M2 15.65l.22.13c.31.16.63.32 1 .46.31.13.63.24 1 .35l.24.07a8.94 8.94 0 001 .27h.08q.46.11.93.18h.23l.95.12h.12l.83.06h3.11c.55 0 .93-.1 1.09-.13h.08v-.06l-.36-2.79-1.84-.84-1.85-.83-.29-2.23-.35-2.24.54-.58-.1-.8-.21-1.61-6 .52L0 8.37l1.12 6.69a10.06 10.06 0 00.88.59z"/>
    </g>
  </g>
</svg>