<svg xmlns="http://www.w3.org/2000/svg" viewBox="0 0 52.72 52.72">
  <defs>
    <style>
      .cls-1{fill:#555}
    </style>
  </defs>
  <g id="Layer_2" data-name="Layer 2">
    <g id="Layer_4" data-name="Layer 4">
      <path class="cls-1" d="M21.22 28.74q.23.53.54 1.14c.19.38.41.79.67 1.21s.67 1 1.07 1.56a16.62 16.62 0 001.33 1.52l.05.06a15.3 15.3 0 002.7 2.18 16.13 16.13 0 005-4.15A18.88 18.88 0 0035 28.49a9.47 9.47 0 00.4-1l1.07-4.78L37.5 18l-9-4.76-9.32 4 1.34 9.71a14.44 14.44 0 00.7 1.79z"/>
      <g opacity=".4">
        <path class="cls-1" d="M27.92 0h-1.75c-.5 0-1 .08-1.47.15h-.13l.6 4.45c.47-.07 1-.11 1.45-.14.43 0 .86-.07 1.3-.07A20.33 20.33 0 118.69 31.34l5.1-.79L12 28.68l-6.62-6.92L2 28.68l-2 4L4.18 32A24.81 24.81 0 1027.92 0zM9.77 7.89H9.5c-.53.6-1 1.22-1.5 1.87L11.4 13a19.7 19.7 0 011.75-2.12L9.9 7.75z"/>
        <path class="cls-1" d="M22.47 5.22L21.28.9A24.25 24.25 0 0018.11 2l1.77 4.12a19.89 19.89 0 012.59-.9zM5.3 14.6c-.18.42-.34.84-.5 1.26l4.21 1.55A19.4 19.4 0 0110 15.3l-4-2.1c-.25.46-.48.92-.7 1.4zM15.12 3.55h-1.13c-.31.23-.61.46-.9.7L15.18 9a18.66 18.66 0 012.26-1.58l-2.32-3.87z"/>
      </g>
    </g>
  </g>
</svg>