<svg xmlns="http://www.w3.org/2000/svg" viewBox="0 0 53.38 53.38">
  <defs>
    <style>
      .cls-2{fill:#555}
    </style>
  </defs>
  <g id="Layer_2" data-name="Layer 2">
    <g id="Layer_4" data-name="Layer 4">
      <path d="M53.38 17.68s-2.46.26-4.78.26c-1.81 0-3.54-.16-4-.72-.92-1.29 7.58-9.15 7.58-9.15a33.85 33.85 0 01-8 4.42 1.59 1.59 0 01-.43.08C41.24 12.57 49.59 0 49.59 0s-8.53 11.62-14.17 12.28a4.4 4.4 0 01-.62 0c-4.94 0-7.15-7.16-7.35-7.85.18.63 1.78 6.67-1.4 7.38h-.33c-3.52 0-11-10.91-11-10.91s5.94 9.68 4.35 10.69a1 1 0 01-.53.11c-2.63 0-11.44-5-11.44-5s8 6.35 10.39 11.27l3.26.1A15 15 0 0019 14.75a3.81 3.81 0 001.66-.56 3.66 3.66 0 001-.86 7 7 0 004.06 1.55 4.59 4.59 0 001-.1 5.12 5.12 0 002.67-1.52 8.3 8.3 0 005.43 2.06 7.89 7.89 0 001-.06 11.62 11.62 0 004.78-1.93c.07.16.15.3.22.44a3.41 3.41 0 001.28 1.33 3.57 3.57 0 00.1 3.9 7.29 7.29 0 00-3.2 5.69 9.23 9.23 0 001.89 5.17 4.2 4.2 0 00-.78.43c-1.82 1.26-1.84 3.39-1.18 5.65a6 6 0 00-1.7-.27 5.88 5.88 0 00-.6 0l-.2 3.13a2.11 2.11 0 01.8-.16C41 38.67 48 46.74 48 46.74s-8.09-12.64-6.15-14a1.84 1.84 0 011.07-.26c3 0 9.55 3.4 9.55 3.4S42 29.65 42 24.7s11.38-7.02 11.38-7.02z" opacity=".4" fill="#555"/>
      <path class="cls-2" d="M23.62 42.86c0-.23 0-.46-.05-.68v-.31c0-.33-.07-.65-.12-1-.05-.31-.11-.62-.17-.92 0-.1 0-.2-.07-.3s-.1-.42-.16-.63-.06-.23-.1-.34-.12-.38-.19-.57-.07-.22-.11-.33l-.24-.59-.12-.27c-.12-.28-.26-.55-.4-.82-.14-.25-.29-.5-.45-.74l-.17-.24a5.6 5.6 0 00-.36-.49l-.21-.26c-.12-.15-.25-.3-.38-.44l-.32-.27q-.23-.22-.45-.42l-.22-.2c-.23-.19-.47-.38-.72-.55h-.05c-.24-.16-.49-.32-.75-.47l-.27-.14-.54-.32-.33-.14-.67-.23-.35-.11-.7-.19-.32-.08c-.35-.08-.71-.14-1.08-.19h-.07c-.35 0-.71-.08-1.08-.1h-1.11c-.53 0-1.07 0-1.64.08H9.6c-.58.06-1.19.15-1.81.26l-.56.11c-.47.09-1 .2-1.46.32l-.59.15c-.69.18-1.38.38-2.11.63h3.06l.47.08h.23l.67.13h.07l.79.19.19.05.63.16.3.1.54.16.35.12.52.19.37.15.5.2.39.18.5.23.4.2.49.26.4.23.48.29.4.27.47.32.39.29.46.36.38.33.44.39.37.37.42.43c.12.13.24.26.35.4s.27.32.4.48.23.28.34.43l.37.53.31.47.34.57.28.51c.11.2.21.42.31.63s.17.35.25.54.19.46.28.69.15.38.22.58.16.5.23.75.13.4.18.61.14.55.2.83.1.42.14.63.1.63.15 1 .07.41.09.62c0 .37.07.75.1 1.14 0 .18 0 .35.05.54 0 .58.05 1.17.05 1.79.1-.32.2-.65.29-1l.09-.31c.06-.23.12-.46.17-.69l.09-.37c0-.22.1-.43.14-.65s0-.25.07-.38l.12-.7c0-.1 0-.21.05-.32.09-.67.16-1.35.2-2v-.32-.7-.37-.65c0-.22.01-.03.01-.17z"/>
      <path class="cls-2" d="M14.84 46.06c0-.33-.05-.65-.1-1a9 9 0 00-.2-.93 1 1 0 000-.17 7.69 7.69 0 00-.28-.85l-.1-.11a8.67 8.67 0 00-.38-.82q-.22-.39-.48-.75l-.1-.14c-.18-.22-.37-.44-.57-.64l-.12-.11a5.5 5.5 0 00-.69-.57 5.78 5.78 0 00-.8-.47.8.8 0 01-.16-.08 6.27 6.27 0 00-.89-.33h-.18a8 8 0 00-1-.22 8.71 8.71 0 00-1.16-.07h-.31c-.32 0-.65 0-1 .05-.35 0-.72.08-1.1.15h-.39c-.29 0-.58.12-.88.19l-.37.1c-.42.11-.84.23-1.28.38h2.29L5 40h.07l.47.11h.16l.34.09.21.07.31.09.22.08.31.11.24.09.3.12.24.11.3.14.25.13.29.16a2 2 0 01.25.14l.29.18.25.16.28.19.25.18.27.22.24.2.27.25c.07.07.15.14.22.22a3.19 3.19 0 01.26.26c.07.08.15.16.22.25l.24.29.21.27.22.31.19.29.21.35c.06.11.12.21.17.32s.13.25.19.38l.16.33c.06.14.11.28.16.42a3.84 3.84 0 01.14.36c0 .15.1.3.14.46s.08.24.11.37l.12.51c.04.17.06.25.09.39l.09.57a3.26 3.26 0 01.05.33l.06.69V51.62c.1-.32.19-.64.28-1v-.18q.12-.48.21-1v-.09-.1a15.2 15.2 0 00.2-2v-.19-.95a1.09 1.09 0 00.09-.05zM32 44.93a41.638 41.638 0 001.31-4.43 26.68 26.68 0 00.55-3.17 22 22 0 00.15-3 16 16 0 00-.29-2.81c-.06-.3-.12-.6-.2-.89a12.53 12.53 0 00-6.06-7.86 12 12 0 00-1.73-.84l-.23-.1-.66-.22-.37-.13c-.19-.06-.39-.1-.58-.15l-.48-.13-.6-.11c-.16 0-.32-.07-.49-.09s-.45-.06-.68-.09l-.43-.06-.65-.05h-4.05l-1 .11h-.05l-1 .13h-.31l-.75.12-.3.06-1 .2c-.32.06-.63.13-.94.21l-.3.07-.7.18-.29.07-.92.26-.95.39-.28.08-.63.2-.23.12-.81.27h-.06l-.74.27-.25.07-.54.21-.21.08-.67.26h-.06l-.52.26-.19.08-.42.17-.16.07-.5.22-.44.19-.12.06-.26.12-.12.06-.23.1-.11.06-.16.07H.06l.4-.11.29-.08.41-.1h.14l.43-.09h.1l.55-.11.62-.07h.14l1.39-.23h.17l.69-.1h.1l.81-.1h.18l.72-.07h.18l.88-.06h4.14l.72.06h.16l.89.1h.24l.65.1.31.05a6.18 6.18 0 01.62.12l.28.05c.29.07.59.13.88.21h.1c.26.06.51.14.77.21l.29.1.58.19.31.12c.21.07.41.16.61.24l.24.1c.27.12.54.24.81.38l.23.12.58.31.29.18.51.32.28.19.63.46.13.1c.23.18.46.38.68.58l.24.23.45.44.25.27c.15.16.29.33.44.5l.19.24c.2.25.4.52.59.79l.14.22c.14.21.27.42.41.65l.18.33a6.25 6.25 0 01.33.63 3.78 3.78 0 01.17.35c.13.26.24.53.35.8 0 .08.07.15.1.22.13.35.26.71.37 1.08 0 .12.07.24.11.36s.16.54.23.82.07.29.1.44.13.58.18.88c0 .13 0 .27.08.4.07.44.14.88.19 1.34v.21c0 .4.07.8.1 1.22V44.93c0 .55-.06 1.12-.11 1.7v.46c0 .45-.09.9-.15 1.37 0 .2-.05.41-.08.62-.06.45-.13.9-.21 1.36 0 .2-.06.4-.1.6s-.12.7-.19 1.06-.12.64-.19 1c1-2 2-3.91 2.76-5.83.3-.82.59-1.59.88-2.34z"/>
    </g>
  </g>
</svg>