<svg xmlns="http://www.w3.org/2000/svg" viewBox="0 0 58.07 58.07">
  <defs>
    <style>
      .cls-2{fill:#555;opacity:.4}
    </style>
  </defs>
  <g id="Layer_2" data-name="Layer 2">
    <g id="Layer_4" data-name="Layer 4">
      <path d="M34.91 29.41l7.45-13.57-14.69 6 2.91 2.89L14 37.3l-5.57-16L7.62 39 0 34.6l3.61 10.07a4.87 4.87 0 015.48 6.47l12.36 4.28-4.81-7.12 13.49-.39-13-6.56 14.92-15.08z" fill="#555"/>
      <path class="cls-2" d="M17 20.38l16.55-10S23.63 3 24.08 3s13.44 4.1 13.44 4.1L40 0l2.21 12.74zM45.66 17.82L34.37 43.39l11.81-16.92S47.83 40.73 48 40.31s2-15.83 2-15.83l8.07 1.63z"/>
    </g>
  </g>
</svg>