<svg xmlns="http://www.w3.org/2000/svg" viewBox="0 0 56 56">
  <defs>
    <style>
      .cls-2{fill:#555}
    </style>
  </defs>
  <g id="Layer_2" data-name="Layer 2">
    <g id="Layer_4" data-name="Layer 4">
      <path class="cls-2" d="M24.73 11.1L15.25 0 5.77 11.1l9.48-6.09 9.48 6.09z" opacity=".4"/>
      <path class="cls-2" d="M18.12 54.32a25.43 25.43 0 002.21-1.85c.45-.42.88-.85 1.29-1.28s.8-.87 1.16-1.31l.18-.22.35-.43c.26-.33.51-.65.74-1s.46-.65.67-1 .54-.84.79-1.24l.35-.59c.21-.37.4-.73.58-1.07s.44-.86.62-1.25c.36-.77.63-1.41.81-1.9s.33-.93.33-.93l2.43-13.46.54-3L26 21.41l-10.39-5-10.39 5L0 23.89l3 16.43a24.86 24.86 0 001.72 4.08c.18.34.38.7.59 1.07l.35.59c.24.4.5.82.79 1.24l.66 1c.24.32.48.64.74 1l.36.43.17.22a26.291 26.291 0 002.46 2.59c.46.42.69.63 1.06.94s1.08.86 1.65 1.27 1.32.9 2 1.32a24.83 24.83 0 002.57-1.75z"/>
      <path fill="#555" opacity=".4" d="M6.29 17.47l1.79-.78.47-.2 6.7-2.88 7.71 3.32 4.92 2.12-.12-.11L15.25 6.93l-4.21 4.04-8.43 8.08 3.68-1.58z"/>
    </g>
  </g>
</svg>