<svg xmlns="http://www.w3.org/2000/svg" viewBox="0 0 51.15 51.15">
  <defs>
    <style>
      .cls-1,.cls-2{fill:none}.cls-2,.cls-4{opacity:.4}.cls-3,.cls-4{fill:#555}
    </style>
  </defs>
  <g id="Layer_2" data-name="Layer 2">
    <g id="Layer_2-2" data-name="Layer 2">
      <path class="cls-1" d="M14.3 4.55l-1.93-1.47 1.93 1.47z"/>
      <path class="cls-2" d="M4.66 22.58l-.23 1.29.23-1.29z"/>
      <path class="cls-1" d="M12.44 28.72l.14 1.28a35.83 35.83 0 003.05 7.62A35.83 35.83 0 0112.58 30z"/>
      <path class="cls-2" d="M3.74 27.74l.1-.6-.1.6z"/>
      <path class="cls-1" d="M19.55 43.6a41.09 41.09 0 01-3.92-6 41.09 41.09 0 003.92 6zM22.71 47.11a37.49 37.49 0 01-3.16-3.51 37.49 37.49 0 003.16 3.51zM50.25 10.81l-3.37 14.01 3.37-14.01z"/>
      <path class="cls-3" d="M22.41 10.78l-6.28-4.82 6.28 4.82zM14.19 25.88l.16-1.05-.16 1.05zM15.95 14.56l-.68 4.36-.01.06.01-.06.68-4.36z"/>
      <path class="cls-3" d="M27.76 12.36l-5.2.41-4.36.34-.87 5.6-.41 2.63-.15.94-.41 2.63-.29 1.91-.24 1.5-1.5.18-1.89.22.14 1.28a35.83 35.83 0 003.05 7.62 41.09 41.09 0 003.92 6 37.49 37.49 0 003.16 3.51 34.13 34.13 0 005 4A37 37 0 0041.79 38.3c.32-.49.61-1 .89-1.42s.51-.88.74-1.29a29 29 0 001.77-3.77l1.69-7 3.37-14L30.67 0l-12.4 5.08 5.35 4.11z"/>
      <path class="cls-4" d="M15.95 14.56l.34-2.18.05-.3.13-.84 5.94-.46-6.28-4.82-1.83-1.41-1.93-1.47L0 12.54l6.54-.52-1.47 8.27 9.62-1.24.57-.07.01-.06.68-4.36zM4.64 26.09l-.62.07-.18.98-.1.6 10.35-1.23.1-.63.16-1.05-9.71 1.26zM4.7 22.36l-.04.22-.23 1.29-.04.23 10.28-1.33.27-1.73L4.7 22.36z"/>
    </g>
  </g>
</svg>