<svg xmlns="http://www.w3.org/2000/svg" viewBox="0 0 46.23 46.23">
  <g data-name="Layer 2">
    <g data-name="Layer 4" fill="#555">
      <path d="M18.72 25.55c.21.35.44.7.68 1.07.37.54.77 1.1 1.21 1.66l.46.56a23.19 23.19 0 002.12 2.24 23 23 0 004.09 3 23 23 0 004.09-3 23.19 23.19 0 002.12-2.24c.16-.18.31-.37.46-.56.44-.56.84-1.12 1.21-1.66.24-.37.47-.72.68-1.07l.3-.51a23.41 23.41 0 002-4.44l2.58-14.16L27.28 0 13.85 6.44 16.4 20.6a23.41 23.41 0 002 4.44z"/>
      <path d="M0 31.21c1.06-.08 10.23-1.18 12.84-.94 3.67.32 11 5.83 11 5.83l-.39 1.57-1.84.33-6.45-3.79-.94 1.65 7 4.27 11.28-2.76.57 1.92-7.8 6.9L16 46 5.34 39.25 0 39.34z" opacity=".4"/>
    </g>
  </g>
</svg>