<svg xmlns="http://www.w3.org/2000/svg" viewBox="0 0 49.35 49.35">
  <defs>
    <style>
      .cls-1{fill:none}.cls-2{fill:#555}
    </style>
  </defs>
  <g id="Layer_2" data-name="Layer 2">
    <g id="Layer_4" data-name="Layer 4">
      <path class="cls-1" d="M20.54 32c.18.25.36.51.56.77-.2-.3-.38-.56-.56-.77zM33 27.61a17.69 17.69 0 01-5 7 17.69 17.69 0 005-7L34.47 21zM17.13 19.5l1 7.5a16.71 16.71 0 001.69 3.87A16.91 16.91 0 0118.17 27z"/>
      <path class="cls-2" d="M16.82 17.27l.31 2.23-.31-2.23zM12.86 17.82a22.53 22.53 0 00-6.94 8.08c-3.79 10.29 4 17.89 4 17.89-5.36-9.08-2.51-14.88-2.51-14.88-1 4.61 2.56 9.9 2.56 9.9 4.67 6.95 10.48 10.25 19.68 10.53A15.18 15.18 0 0040 45.17c-4.09 3-9.72 2.31-9.72 2.31C12.49 45.5 12.48 33 12.48 33a18.72 18.72 0 011.29-8.62zM34.47 21.04l.67-3.01-.67 3.01z"/>
      <path class="cls-2" d="M28 9.73l9 4.77.59.31a22 22 0 00-3.18-8.62C27.55-2.35 17 .43 17 .43c10.57.06 14.08 5.49 14.08 5.49C27.61 2.74 21.27 3 21.27 3 12.91 3.46 7.1 6.74 2.13 14.48A15.18 15.18 0 00.36 25.54c-.43-5 3-9.53 3-9.53C14.24 1.74 25 8.16 25 8.16c.44.24.87.47 1.27.72l.11-.05z"/>
      <path class="cls-2" d="M28.12 39.45a21.58 21.58 0 008.35.73c10.7-2.39 12.86-13.07 12.86-13.07C44.62 36.55 38.2 37.3 38.2 37.3c4.38-1.7 6.93-7.52 6.93-7.52 3.3-7.69 2.93-14.36-1.82-22.24a15.19 15.19 0 00-9.13-6.47C38.88 2.9 41.39 8 41.39 8c8 16-2.51 22.83-2.51 22.83a21.27 21.27 0 01-4.46 2.56 20.89 20.89 0 01-6.3 6.06zM25.64 36.27A15.5 15.5 0 0028 34.63a15.5 15.5 0 01-2.36 1.64zM21.1 32.73q.31.41.66.81-.35-.4-.66-.81z"/>
      <path d="M33 27.61L34.47 21l.67-3-9-4.77-9.35 4 .31 2.23 1 7.5a16.91 16.91 0 001.69 3.87c.21.35.43.72.68 1.09s.36.51.56.77.43.54.66.81a15.62 15.62 0 003.44 3l.44-.25A15.5 15.5 0 0028 34.63a17.69 17.69 0 005-7.02z" opacity=".4" fill="#555"/>
    </g>
  </g>
</svg>