<svg xmlns="http://www.w3.org/2000/svg" viewBox="0 0 53.16 53.16">
  <defs>
    <style>
      .cls-1{fill:#555;opacity:.4}
    </style>
  </defs>
  <g id="Layer_2" data-name="Layer 2">
    <g id="Layer_4" data-name="Layer 4">
      <path class="cls-1" d="M37.95 29.27l-3.5-2.85 3.5 2.85zM44.69 26.78L43 29.56c4.42.55 6.79 1.74 7.13 2.34-.45.8-4.47 2.64-12.12 2.64S26.37 32.7 25.92 31.9c.39-.68 3.38-2.11 9-2.52l-3.24-2.65c-4.51.68-8.77 2.19-8.77 5.17 0 4.45 9.51 5.64 15.12 5.64s15.13-1.19 15.13-5.64c0-2.9-4.08-4.42-8.47-5.12z"/>
      <path d="M38 29.27l.81.66 1.14.93.81-1.34 7.39-12.3 2.71-4.51-4.35 1.93-3.73 1.64c-1.15-5.27-3-9.34-5.26-12.1a12.55 12.55 0 00-3.71-3.12 8.89 8.89 0 00-2-.79A8.52 8.52 0 0029.6 0C16.75 0 0 32.09 0 32.09c.4-.55.84-1.12 1.33-1.7a70.29 70.29 0 015.15-5.53c1.3-1.27 2.67-2.54 4.06-3.78.69-.62 1.39-1.23 2.1-1.82s1.4-1.19 2.09-1.76c1-.85 2.07-1.66 3.07-2.42 4.3-3.3 8-5.58 9.23-5.58a4.06 4.06 0 012.07.62c2.66 1.62 3.91 6.05 4.42 8.5l-3.52.54-1.86.28-1.85.28 1.5 1.28 1.55 1.26 3.14 2.57 2 1.61z" fill="#555"/>
    </g>
  </g>
</svg>