<svg xmlns="http://www.w3.org/2000/svg" viewBox="0 0 51.16 51.16">
  <g data-name="Layer 2" fill="#555">
    <path d="M25.6 0L10.53 7.22 13.4 23.1a25.46 25.46 0 002.26 5l.34.57c.24.39.49.79.77 1.2.4.61.86 1.24 1.35 1.87l.52.63A27.48 27.48 0 0021 34.86a26.19 26.19 0 004.59 3.41 26.19 26.19 0 004.59-3.41 27.48 27.48 0 002.37-2.51l.52-.63c.49-.63 1-1.26 1.36-1.87.27-.41.52-.81.76-1.2l.34-.57a25.46 25.46 0 002.26-5l2.88-15.86zm2.66 26.32l-8.63 1 .27-1.5 8.61-1.11zm.49-3.11l-8.57 1.1.26-1.45 8.56-1.1zm1.49-9.61l-.11.7v.25L29.25 20v.23l-4 .52-1.25.16-1.2.15-2 .27 1.2-7.08-5.46.43L26.83 6.8l8.36 6.41z"/>
    <path d="M0 36.14c1.06-.08 10.23-1.18 12.84-.94 3.67.32 11 5.84 11 5.84l-.39 1.56-1.84.4-6.45-3.8-.94 1.65 7 4.27 11.28-2.76.57 1.92-7.8 6.9-9.27-.26-10.66-6.74-5.34.09z" opacity=".4"/>
  </g>
</svg>