<svg xmlns="http://www.w3.org/2000/svg" viewBox="0 0 54.73 54.73">
  <defs>
    <style>
      .cls-1{fill:#555;opacity:.4}
    </style>
  </defs>
  <g id="Layer_2" data-name="Layer 2">
    <g id="Layer_2-2" data-name="Layer 2">
      <path class="cls-1" d="M2.52 28s18.67.87 17.23 24.73C24 39.72 21.49 21.75 2.52 28z"/>
      <path class="cls-1" d="M2.51 38.76s9.78.45 9 13c2.25-6.85.94-16.26-9-13zM0 20.28s35.5-10.06 25.38 34.45c7.25-14.43 10-28.57 1.16-36C17.32 11 0 20.28 0 20.28z"/>
      <path d="M2.83 6.36S51.88-7.55 37.89 54C47.91 34 51.7 14.49 39.5 4.26 26.75-6.43 2.83 6.36 2.83 6.36z" fill="#555"/>
    </g>
  </g>
</svg>