<svg xmlns="http://www.w3.org/2000/svg" viewBox="0 0 47.35 47.35">
  <defs>
    <style>
      .cls-1{fill:none}.cls-2,.cls-3{fill:#555}.cls-3{opacity:.4}
    </style>
  </defs>
  <g id="Layer_2" data-name="Layer 2">
    <g id="Layer_4" data-name="Layer 4">
      <path class="cls-1" d="M23.66 15.02l-.97.42.97-.42zM11.44 34.6l-.21-.3s-2.63-4-1.92-7.44c0 0-1.62 3.31.63 8.67l1.34-.83zM8.42 45.52l-1.88-1.49 1.88 1.49zM32.84 33.08l-.05-.08-.34.16a2.93 2.93 0 00.39-.08zM38.93 45.53l1.88-1.5-1.88 1.5z"/>
      <path class="cls-2" d="M13.55 18.41a16.89 16.89 0 00-5.36 6.19 12.61 12.61 0 001.3 11.21l.45-.28c-2.25-5.36-.63-8.67-.63-8.67-.71 3.47 1.92 7.44 1.92 7.44l.21.3 2.43-1.51a9 9 0 01-.75-3.15 14 14 0 011.09-6.77l-.65-4.68zM12.61 36.15C15.89 40.11 20 42 26 42.22a11.42 11.42 0 007.81-3.14c-3.08 2.22-7.31 1.74-7.31 1.74-7.72-.86-11-4.34-12.37-7.14l-1.49 2.39zM5.34 16A11.44 11.44 0 004 24.33c-.33-3.78 2.27-7.16 2.27-7.16A20.88 20.88 0 0111 12.5l-1.8-1.12A21.53 21.53 0 005.34 16zM25.07 12.38L31.92 16a16.34 16.34 0 00-2.35-6.25c-5.12-6.38-13.04-4.29-13.04-4.29 7.93 0 10.57 4.12 10.57 4.12-2.61-2.39-7.37-2.18-7.37-2.18a17.45 17.45 0 00-8.1 2.23l1 1.65.11.18a10.52 10.52 0 019.73-.19c.35.18.68.37 1 .56zM32.45 33.17l.34-.16.32-.16c2.89-1.55 4.55-5.33 4.55-5.33A16.4 16.4 0 0037 12.07l-.94.59-.42.26C40.06 23.7 33 28.3 33 28.3a16.68 16.68 0 01-2.84 1.7 16 16 0 01-4.91 4.89 15.91 15.91 0 005.9.45 12.32 12.32 0 002.55-.87l-.86-1.38a2.93 2.93 0 01-.39.08zM29.43 5.94a11.61 11.61 0 015.39 5.14l.78-1.26a11.66 11.66 0 00-6.17-3.88z"/>
      <path class="cls-2" d="M40.82 25.51c-2.65 5.29-6 7-7.54 7.45l1.5.93a13.88 13.88 0 006.04-8.38zM29.71 22.24l.8-3.58-4.57-2.42L23.66 15l-1 .42-6.15 2.64 1 7.42s.07.29.24.76c.09.23.2.52.34.83s.15.33.24.5a13 13 0 003.79 4.65c.24.18.49.36.75.53a13.3 13.3 0 006-6.75z"/>
      <path class="cls-3" d="M45.53 8.43L47.35 0l-8.42 1.83 1.89 1.5-4.59 7.38-.69 1.1 8.49-5.27 1.5 1.89zM10.36 36.45l-.31.19-6.73 4.17-1.49-1.88L0 47.35l8.42-1.83-1.88-1.49 5.27-8.48-1.45.9zM44.03 40.82l-8.48-5.28 5.26 8.49-1.88 1.5 8.42 1.82-1.83-8.42-1.49 1.89zM6.54 3.32l1.88-1.49L0 0l1.83 8.42 1.5-1.88 8.48 5.27-1.03-1.65-4.24-6.84z"/>
    </g>
  </g>
</svg>