<svg xmlns="http://www.w3.org/2000/svg" viewBox="0 0 41.41 41.41">
  <g data-name="Layer 2">
    <g data-name="Layer 4" fill="#555">
      <path d="M4.41 29.27a29.47 29.47 0 007 8.74 24.61 24.61 0 002.46 1.84 24.75 24.75 0 003.48-2.11A30.69 30.69 0 0111.1 26V25.79l-2-16.1-.19-1.51 1.42-.58L21.55 3l-5.42-3-8.07 3.31L0 6.62l2 16.71a27.59 27.59 0 002.41 5.94z" opacity=".4"/>
      <path d="M26.17 3.26l-2.38 1-12.71 5.19 2 16.07s.15.62.51 1.65c.18.51.41 1.12.7 1.81.08.17.15.34.23.52l.48 1.13c.1.2.2.4.31.6a27.081 27.081 0 001.5 2.53 29.69 29.69 0 002 2.65 26.06 26.06 0 005.59 5c.6-.31 1.18-.63 1.73-1a26.43 26.43 0 005.58-4.56 29.88 29.88 0 002.85-3.54c.52-.76 1-1.47 1.33-2.12a23.61 23.61 0 001.6-3.29l3.79-15.75-4.9-2.7-9.79-5.36z"/>
    </g>
  </g>
</svg>