<svg xmlns="http://www.w3.org/2000/svg" viewBox="0 0 54.97 54.97">
  <defs>
    <style>
      .cls-1{fill:#555}
    </style>
  </defs>
  <g id="Layer_2" data-name="Layer 2">
    <g id="Layer_4" data-name="Layer 4">
      <path class="cls-1" d="M55 20.21a27.76 27.76 0 00-3.5-14.44 27.81 27.81 0 011 17.29c-.12.44-.24.88-.38 1.31-.28.87-.6 1.73-1 2.58.07-.59.12-1.18.14-1.78a21.58 21.58 0 00-.48-5.36 21.16 21.16 0 00-1.07-3.51c-.24-.57-.5-1.14-.78-1.7s-.6-1.12-.94-1.66c.25.62.47 1.25.66 1.88s.34 1.27.47 1.91a21.48 21.48 0 01.33 2.63 23.63 23.63 0 010 2.66c0 .26 0 .52-.05.79a23.17 23.17 0 01-.59 3.51c-.16.62-.35 1.24-.56 1.84a17.06 17.06 0 00-1-5.61c-.13-.37-.28-.73-.44-1.09a17 17 0 00-1.11-2.11 16.71 16.71 0 01.83 2.81c.08.37.15.75.2 1.13s.08.62.1.94c0 .49.06 1 .06 1.49s0 1.1-.1 1.64a15.52 15.52 0 01-.31 1.93c-.09.4-.19.8-.31 1.19A17 17 0 0143 36.43a21.57 21.57 0 01-3.64 2.88 19.88 19.88 0 01-2.31 1.25 20.28 20.28 0 01-2.4.95 20.54 20.54 0 01-2.45.65 23.12 23.12 0 01-2.48.35H28.29l-.72-.09-.42-.07-.66-.13-.44-.1-.63-.17h-.21l-.21-.2c-.38-.12-.74-.24-1.1-.38l-.17-.06c-.41-.16-.81-.35-1.21-.54l-.3-.16c-.32-.16-.64-.34-1-.53l-.25-.14c-.38-.24-.74-.49-1.1-.75l-.15-.19c-.29-.22-.57-.45-.85-.7l-.25-.22c-.34-.31-.66-.62-1-1l-.11-.08c-.27-.29-.52-.6-.77-.91l-.23-.3c-.28-.38-.55-.76-.8-1.16.19.47.39.92.62 1.38s.48.89.75 1.33a17 17 0 001.63 2.18 16.67 16.67 0 001.91 1.85c-.23-.08-.44-.18-.66-.27a22.73 22.73 0 01-2.56-1.18 21.61 21.61 0 01-4.32-3.15A21.29 21.29 0 0110.62 34c-.38-.5-.73-1-1.07-1.55.24.59.5 1.18.79 1.76s.61 1.14 1 1.7a20.89 20.89 0 001.37 1.93q.36.47.75.9a21.56 21.56 0 004.29 3.72 26.91 26.91 0 01-2.56-.91 27.69 27.69 0 01-4.87-2.63A26.05 26.05 0 018 37.2a24.84 24.84 0 01-1.92-1.77 26.73 26.73 0 01-3.24-3.93c-.47-.69-.91-1.4-1.31-2.13a27.6 27.6 0 002.29 4.54c.3.48.62 1 .95 1.42.46.65 1 1.27 1.5 1.89a28 28 0 003.28 3.25l.17.14c.32.26.63.51.95.75l.41.3.75.53.47.3.7.51c.16.1.33.19.5.28l.71.41.53.27.71.35.56.25.7.31.57.22c.24.09.47.19.71.27l.59.2.71.22.3.09c.49.14 1 .27 1.48.38l.42.1c.57.12 1.15.22 1.72.31h.27c.51.07 1 .13 1.53.17h.43q.87.06 1.74.06h2.23c.57 0 1.15-.11 1.72-.19h.23c.51-.08 1-.17 1.53-.28l.44-.09c.57-.13 1.13-.27 1.69-.43l.19-.06c.5-.15 1-.32 1.5-.5l.43-.16c.55-.2 1.09-.42 1.62-.67l.15-.07c.49-.23 1-.47 1.46-.73l.4-.22c.52-.29 1-.59 1.54-.92l.09-.06c.48-.31.94-.64 1.4-1l.37-.28c.48-.37 1-.76 1.41-1.16.45-.4.88-.81 1.3-1.24l.33-.34c.44-.45.86-.92 1.27-1.4a27.41 27.41 0 006.33-15.43c.1-.57.12-1.01.19-1.45z"/>
      <path class="cls-1" d="M40 16.49l-4.2 1.86C33.16 6.46 27.46 0 21 0 6.48 0 0 21.51 0 21.51c7.23-9.9 11.12-13 14.68-13 4.64.09 10 9.12 10.69 12.52l-4 .61-4.19.63 3.49 2.85 10.61 8.66 1.29 1.05.91-1.52 8.33-13.85 3-5.08z" opacity=".4"/>
    </g>
  </g>
</svg>